G04 (created by PCBNEW (2013-june-11)-stable) date Fri 12 Sep 2014 11:17:40 AM PDT*
%MOIN*%
G04 Gerber Fmt 3.4, Leading zero omitted, Abs format*
%FSLAX34Y34*%
G01*
G70*
G90*
G04 APERTURE LIST*
%ADD10C,0.00590551*%
%ADD11R,0.031X0.031*%
%ADD12C,0.0590551*%
%ADD13C,0.035*%
%ADD14C,0.006*%
G04 APERTURE END LIST*
G54D10*
G54D11*
X75950Y-47850D03*
X75450Y-47850D03*
X74950Y-47850D03*
X74450Y-47850D03*
X73950Y-47850D03*
X75950Y-47350D03*
X75450Y-47350D03*
X74950Y-47350D03*
X74450Y-47350D03*
X73950Y-47350D03*
G54D12*
X73600Y-56100D03*
X73600Y-55100D03*
X74600Y-56100D03*
X74600Y-55100D03*
X75600Y-56100D03*
X75600Y-55100D03*
X76600Y-56100D03*
X76600Y-55100D03*
X77600Y-56100D03*
X77600Y-55100D03*
X78600Y-56100D03*
X78600Y-55100D03*
X79600Y-56100D03*
X79600Y-55100D03*
X80600Y-56100D03*
X80600Y-55100D03*
X81600Y-56100D03*
X81600Y-55100D03*
X82600Y-56100D03*
X82600Y-55100D03*
X73600Y-51700D03*
X73600Y-50700D03*
X74600Y-51700D03*
X74600Y-50700D03*
X75600Y-51700D03*
X75600Y-50700D03*
X76600Y-51700D03*
X76600Y-50700D03*
X77600Y-51700D03*
X77600Y-50700D03*
X78600Y-51700D03*
X78600Y-50700D03*
X79600Y-51700D03*
X79600Y-50700D03*
X80600Y-51700D03*
X80600Y-50700D03*
X81600Y-51700D03*
X81600Y-50700D03*
X82600Y-51700D03*
X82600Y-50700D03*
G54D13*
X76800Y-47800D03*
X75000Y-50000D03*
G54D14*
X74950Y-47850D02*
X75200Y-47600D01*
X76600Y-47600D02*
X76800Y-47800D01*
X75200Y-47600D02*
X76600Y-47600D01*
X75450Y-47850D02*
X75450Y-48600D01*
X78100Y-51200D02*
X78600Y-51700D01*
X78100Y-50500D02*
X78100Y-51200D01*
X77550Y-49950D02*
X78100Y-50500D01*
X76800Y-49950D02*
X77550Y-49950D01*
X75450Y-48600D02*
X76800Y-49950D01*
X74450Y-47350D02*
X74700Y-47600D01*
X77100Y-51200D02*
X77600Y-51700D01*
X77100Y-50500D02*
X77100Y-51200D01*
X76550Y-49950D02*
X77100Y-50500D01*
X76050Y-49950D02*
X76550Y-49950D01*
X74700Y-48600D02*
X76050Y-49950D01*
X74700Y-47600D02*
X74700Y-48600D01*
X75000Y-50000D02*
X75000Y-50350D01*
X75100Y-51200D02*
X75600Y-51700D01*
X75100Y-50450D02*
X75100Y-51200D01*
X75000Y-50350D02*
X75100Y-50450D01*
X74950Y-47350D02*
X75300Y-47000D01*
X79100Y-51200D02*
X79600Y-51700D01*
X79100Y-49700D02*
X79100Y-51200D01*
X76400Y-47000D02*
X79100Y-49700D01*
X75300Y-47000D02*
X76400Y-47000D01*
X73950Y-47350D02*
X74200Y-47600D01*
X76100Y-51200D02*
X76600Y-51700D01*
X76100Y-50500D02*
X76100Y-51200D01*
X74200Y-48600D02*
X76100Y-50500D01*
X74200Y-47600D02*
X74200Y-48600D01*
X73950Y-47850D02*
X73950Y-50350D01*
X74100Y-51200D02*
X73600Y-51700D01*
X74100Y-50500D02*
X74100Y-51200D01*
X73950Y-50350D02*
X74100Y-50500D01*
G54D10*
G36*
X83790Y-56594D02*
X83772Y-56772D01*
X83722Y-56939D01*
X83641Y-57092D01*
X83531Y-57226D01*
X83397Y-57337D01*
X83244Y-57420D01*
X83125Y-57457D01*
X83125Y-55051D01*
X83125Y-50651D01*
X83106Y-50550D01*
X83067Y-50455D01*
X83064Y-50449D01*
X82978Y-50420D01*
X82879Y-50519D01*
X82879Y-50321D01*
X82850Y-50235D01*
X82755Y-50195D01*
X82654Y-50175D01*
X82551Y-50174D01*
X82450Y-50193D01*
X82355Y-50232D01*
X82349Y-50235D01*
X82320Y-50321D01*
X82600Y-50601D01*
X82879Y-50321D01*
X82879Y-50519D01*
X82698Y-50700D01*
X82978Y-50979D01*
X83064Y-50950D01*
X83104Y-50855D01*
X83124Y-50754D01*
X83125Y-50651D01*
X83125Y-55051D01*
X83106Y-54950D01*
X83067Y-54855D01*
X83064Y-54849D01*
X82985Y-54822D01*
X82985Y-51662D01*
X82970Y-51588D01*
X82941Y-51518D01*
X82900Y-51455D01*
X82879Y-51434D01*
X82879Y-51078D01*
X82600Y-50798D01*
X82501Y-50897D01*
X82501Y-50700D01*
X82221Y-50420D01*
X82135Y-50449D01*
X82099Y-50534D01*
X82067Y-50455D01*
X82064Y-50449D01*
X81978Y-50420D01*
X81879Y-50519D01*
X81879Y-50321D01*
X81850Y-50235D01*
X81755Y-50195D01*
X81654Y-50175D01*
X81551Y-50174D01*
X81450Y-50193D01*
X81355Y-50232D01*
X81349Y-50235D01*
X81320Y-50321D01*
X81600Y-50601D01*
X81879Y-50321D01*
X81879Y-50519D01*
X81698Y-50700D01*
X81978Y-50979D01*
X82064Y-50950D01*
X82100Y-50865D01*
X82132Y-50944D01*
X82135Y-50950D01*
X82221Y-50979D01*
X82501Y-50700D01*
X82501Y-50897D01*
X82320Y-51078D01*
X82349Y-51164D01*
X82444Y-51204D01*
X82545Y-51224D01*
X82648Y-51225D01*
X82749Y-51206D01*
X82844Y-51167D01*
X82850Y-51164D01*
X82879Y-51078D01*
X82879Y-51434D01*
X82846Y-51401D01*
X82784Y-51359D01*
X82714Y-51330D01*
X82640Y-51314D01*
X82564Y-51314D01*
X82490Y-51328D01*
X82420Y-51356D01*
X82357Y-51398D01*
X82303Y-51451D01*
X82260Y-51513D01*
X82230Y-51582D01*
X82215Y-51656D01*
X82214Y-51732D01*
X82227Y-51806D01*
X82255Y-51876D01*
X82296Y-51940D01*
X82349Y-51994D01*
X82411Y-52037D01*
X82480Y-52068D01*
X82554Y-52084D01*
X82629Y-52085D01*
X82704Y-52072D01*
X82774Y-52045D01*
X82838Y-52005D01*
X82893Y-51952D01*
X82936Y-51891D01*
X82967Y-51822D01*
X82984Y-51748D01*
X82985Y-51662D01*
X82985Y-54822D01*
X82978Y-54820D01*
X82879Y-54919D01*
X82879Y-54721D01*
X82850Y-54635D01*
X82755Y-54595D01*
X82654Y-54575D01*
X82551Y-54574D01*
X82450Y-54593D01*
X82355Y-54632D01*
X82349Y-54635D01*
X82320Y-54721D01*
X82600Y-55001D01*
X82879Y-54721D01*
X82879Y-54919D01*
X82698Y-55100D01*
X82978Y-55379D01*
X83064Y-55350D01*
X83104Y-55255D01*
X83124Y-55154D01*
X83125Y-55051D01*
X83125Y-57457D01*
X83078Y-57471D01*
X82985Y-57481D01*
X82985Y-56062D01*
X82970Y-55988D01*
X82941Y-55918D01*
X82900Y-55855D01*
X82879Y-55834D01*
X82879Y-55478D01*
X82600Y-55198D01*
X82501Y-55297D01*
X82501Y-55100D01*
X82221Y-54820D01*
X82135Y-54849D01*
X82099Y-54934D01*
X82067Y-54855D01*
X82064Y-54849D01*
X81985Y-54822D01*
X81985Y-51662D01*
X81970Y-51588D01*
X81941Y-51518D01*
X81900Y-51455D01*
X81879Y-51434D01*
X81879Y-51078D01*
X81600Y-50798D01*
X81501Y-50897D01*
X81501Y-50700D01*
X81221Y-50420D01*
X81135Y-50449D01*
X81099Y-50534D01*
X81067Y-50455D01*
X81064Y-50449D01*
X80978Y-50420D01*
X80879Y-50519D01*
X80879Y-50321D01*
X80850Y-50235D01*
X80755Y-50195D01*
X80654Y-50175D01*
X80551Y-50174D01*
X80450Y-50193D01*
X80355Y-50232D01*
X80349Y-50235D01*
X80320Y-50321D01*
X80600Y-50601D01*
X80879Y-50321D01*
X80879Y-50519D01*
X80698Y-50700D01*
X80978Y-50979D01*
X81064Y-50950D01*
X81100Y-50865D01*
X81132Y-50944D01*
X81135Y-50950D01*
X81221Y-50979D01*
X81501Y-50700D01*
X81501Y-50897D01*
X81320Y-51078D01*
X81349Y-51164D01*
X81444Y-51204D01*
X81545Y-51224D01*
X81648Y-51225D01*
X81749Y-51206D01*
X81844Y-51167D01*
X81850Y-51164D01*
X81879Y-51078D01*
X81879Y-51434D01*
X81846Y-51401D01*
X81784Y-51359D01*
X81714Y-51330D01*
X81640Y-51314D01*
X81564Y-51314D01*
X81490Y-51328D01*
X81420Y-51356D01*
X81357Y-51398D01*
X81303Y-51451D01*
X81260Y-51513D01*
X81230Y-51582D01*
X81215Y-51656D01*
X81214Y-51732D01*
X81227Y-51806D01*
X81255Y-51876D01*
X81296Y-51940D01*
X81349Y-51994D01*
X81411Y-52037D01*
X81480Y-52068D01*
X81554Y-52084D01*
X81629Y-52085D01*
X81704Y-52072D01*
X81774Y-52045D01*
X81838Y-52005D01*
X81893Y-51952D01*
X81936Y-51891D01*
X81967Y-51822D01*
X81984Y-51748D01*
X81985Y-51662D01*
X81985Y-54822D01*
X81978Y-54820D01*
X81879Y-54919D01*
X81879Y-54721D01*
X81850Y-54635D01*
X81755Y-54595D01*
X81654Y-54575D01*
X81551Y-54574D01*
X81450Y-54593D01*
X81355Y-54632D01*
X81349Y-54635D01*
X81320Y-54721D01*
X81600Y-55001D01*
X81879Y-54721D01*
X81879Y-54919D01*
X81698Y-55100D01*
X81978Y-55379D01*
X82064Y-55350D01*
X82100Y-55265D01*
X82132Y-55344D01*
X82135Y-55350D01*
X82221Y-55379D01*
X82501Y-55100D01*
X82501Y-55297D01*
X82320Y-55478D01*
X82349Y-55564D01*
X82444Y-55604D01*
X82545Y-55624D01*
X82648Y-55625D01*
X82749Y-55606D01*
X82844Y-55567D01*
X82850Y-55564D01*
X82879Y-55478D01*
X82879Y-55834D01*
X82846Y-55801D01*
X82784Y-55759D01*
X82714Y-55730D01*
X82640Y-55714D01*
X82564Y-55714D01*
X82490Y-55728D01*
X82420Y-55756D01*
X82357Y-55798D01*
X82303Y-55851D01*
X82260Y-55913D01*
X82230Y-55982D01*
X82215Y-56056D01*
X82214Y-56132D01*
X82227Y-56206D01*
X82255Y-56276D01*
X82296Y-56340D01*
X82349Y-56394D01*
X82411Y-56437D01*
X82480Y-56468D01*
X82554Y-56484D01*
X82629Y-56485D01*
X82704Y-56472D01*
X82774Y-56445D01*
X82838Y-56405D01*
X82893Y-56352D01*
X82936Y-56291D01*
X82967Y-56222D01*
X82984Y-56148D01*
X82985Y-56062D01*
X82985Y-57481D01*
X82901Y-57490D01*
X82899Y-57490D01*
X81985Y-57490D01*
X81985Y-56062D01*
X81970Y-55988D01*
X81941Y-55918D01*
X81900Y-55855D01*
X81879Y-55834D01*
X81879Y-55478D01*
X81600Y-55198D01*
X81501Y-55297D01*
X81501Y-55100D01*
X81221Y-54820D01*
X81135Y-54849D01*
X81099Y-54934D01*
X81067Y-54855D01*
X81064Y-54849D01*
X80985Y-54822D01*
X80985Y-51662D01*
X80970Y-51588D01*
X80941Y-51518D01*
X80900Y-51455D01*
X80879Y-51434D01*
X80879Y-51078D01*
X80600Y-50798D01*
X80501Y-50897D01*
X80501Y-50700D01*
X80221Y-50420D01*
X80135Y-50449D01*
X80099Y-50534D01*
X80067Y-50455D01*
X80064Y-50449D01*
X79978Y-50420D01*
X79879Y-50519D01*
X79879Y-50321D01*
X79850Y-50235D01*
X79755Y-50195D01*
X79654Y-50175D01*
X79551Y-50174D01*
X79450Y-50193D01*
X79355Y-50232D01*
X79349Y-50235D01*
X79320Y-50321D01*
X79600Y-50601D01*
X79879Y-50321D01*
X79879Y-50519D01*
X79698Y-50700D01*
X79978Y-50979D01*
X80064Y-50950D01*
X80100Y-50865D01*
X80132Y-50944D01*
X80135Y-50950D01*
X80221Y-50979D01*
X80501Y-50700D01*
X80501Y-50897D01*
X80320Y-51078D01*
X80349Y-51164D01*
X80444Y-51204D01*
X80545Y-51224D01*
X80648Y-51225D01*
X80749Y-51206D01*
X80844Y-51167D01*
X80850Y-51164D01*
X80879Y-51078D01*
X80879Y-51434D01*
X80846Y-51401D01*
X80784Y-51359D01*
X80714Y-51330D01*
X80640Y-51314D01*
X80564Y-51314D01*
X80490Y-51328D01*
X80420Y-51356D01*
X80357Y-51398D01*
X80303Y-51451D01*
X80260Y-51513D01*
X80230Y-51582D01*
X80215Y-51656D01*
X80214Y-51732D01*
X80227Y-51806D01*
X80255Y-51876D01*
X80296Y-51940D01*
X80349Y-51994D01*
X80411Y-52037D01*
X80480Y-52068D01*
X80554Y-52084D01*
X80629Y-52085D01*
X80704Y-52072D01*
X80774Y-52045D01*
X80838Y-52005D01*
X80893Y-51952D01*
X80936Y-51891D01*
X80967Y-51822D01*
X80984Y-51748D01*
X80985Y-51662D01*
X80985Y-54822D01*
X80978Y-54820D01*
X80879Y-54919D01*
X80879Y-54721D01*
X80850Y-54635D01*
X80755Y-54595D01*
X80654Y-54575D01*
X80551Y-54574D01*
X80450Y-54593D01*
X80355Y-54632D01*
X80349Y-54635D01*
X80320Y-54721D01*
X80600Y-55001D01*
X80879Y-54721D01*
X80879Y-54919D01*
X80698Y-55100D01*
X80978Y-55379D01*
X81064Y-55350D01*
X81100Y-55265D01*
X81132Y-55344D01*
X81135Y-55350D01*
X81221Y-55379D01*
X81501Y-55100D01*
X81501Y-55297D01*
X81320Y-55478D01*
X81349Y-55564D01*
X81444Y-55604D01*
X81545Y-55624D01*
X81648Y-55625D01*
X81749Y-55606D01*
X81844Y-55567D01*
X81850Y-55564D01*
X81879Y-55478D01*
X81879Y-55834D01*
X81846Y-55801D01*
X81784Y-55759D01*
X81714Y-55730D01*
X81640Y-55714D01*
X81564Y-55714D01*
X81490Y-55728D01*
X81420Y-55756D01*
X81357Y-55798D01*
X81303Y-55851D01*
X81260Y-55913D01*
X81230Y-55982D01*
X81215Y-56056D01*
X81214Y-56132D01*
X81227Y-56206D01*
X81255Y-56276D01*
X81296Y-56340D01*
X81349Y-56394D01*
X81411Y-56437D01*
X81480Y-56468D01*
X81554Y-56484D01*
X81629Y-56485D01*
X81704Y-56472D01*
X81774Y-56445D01*
X81838Y-56405D01*
X81893Y-56352D01*
X81936Y-56291D01*
X81967Y-56222D01*
X81984Y-56148D01*
X81985Y-56062D01*
X81985Y-57490D01*
X80985Y-57490D01*
X80985Y-56062D01*
X80970Y-55988D01*
X80941Y-55918D01*
X80900Y-55855D01*
X80879Y-55834D01*
X80879Y-55478D01*
X80600Y-55198D01*
X80501Y-55297D01*
X80501Y-55100D01*
X80221Y-54820D01*
X80135Y-54849D01*
X80099Y-54934D01*
X80067Y-54855D01*
X80064Y-54849D01*
X79985Y-54822D01*
X79985Y-51662D01*
X79970Y-51588D01*
X79941Y-51518D01*
X79900Y-51455D01*
X79879Y-51434D01*
X79879Y-51078D01*
X79600Y-50798D01*
X79320Y-51078D01*
X79349Y-51164D01*
X79444Y-51204D01*
X79545Y-51224D01*
X79648Y-51225D01*
X79749Y-51206D01*
X79844Y-51167D01*
X79850Y-51164D01*
X79879Y-51078D01*
X79879Y-51434D01*
X79846Y-51401D01*
X79784Y-51359D01*
X79714Y-51330D01*
X79640Y-51314D01*
X79564Y-51314D01*
X79490Y-51328D01*
X79424Y-51355D01*
X79220Y-51150D01*
X79220Y-50978D01*
X79221Y-50979D01*
X79501Y-50700D01*
X79221Y-50420D01*
X79220Y-50421D01*
X79220Y-49700D01*
X79218Y-49688D01*
X79217Y-49677D01*
X79217Y-49677D01*
X79217Y-49676D01*
X79214Y-49666D01*
X79211Y-49655D01*
X79211Y-49654D01*
X79210Y-49654D01*
X79205Y-49644D01*
X79200Y-49634D01*
X79200Y-49634D01*
X79199Y-49633D01*
X79192Y-49624D01*
X79186Y-49616D01*
X79185Y-49615D01*
X79185Y-49615D01*
X79185Y-49615D01*
X79184Y-49615D01*
X76484Y-46915D01*
X76476Y-46908D01*
X76467Y-46900D01*
X76467Y-46900D01*
X76466Y-46900D01*
X76456Y-46895D01*
X76447Y-46889D01*
X76446Y-46889D01*
X76446Y-46889D01*
X76435Y-46885D01*
X76424Y-46882D01*
X76424Y-46882D01*
X76423Y-46882D01*
X76412Y-46881D01*
X76401Y-46880D01*
X76400Y-46880D01*
X76400Y-46880D01*
X76400Y-46880D01*
X76400Y-46880D01*
X75300Y-46880D01*
X75288Y-46881D01*
X75277Y-46882D01*
X75277Y-46882D01*
X75276Y-46882D01*
X75266Y-46885D01*
X75255Y-46888D01*
X75254Y-46888D01*
X75254Y-46889D01*
X75244Y-46894D01*
X75234Y-46899D01*
X75234Y-46899D01*
X75233Y-46900D01*
X75224Y-46907D01*
X75216Y-46913D01*
X75215Y-46914D01*
X75215Y-46914D01*
X75215Y-46914D01*
X75215Y-46915D01*
X75025Y-47104D01*
X74786Y-47104D01*
X74768Y-47108D01*
X74752Y-47115D01*
X74737Y-47124D01*
X74725Y-47137D01*
X74715Y-47151D01*
X74708Y-47168D01*
X74705Y-47185D01*
X74704Y-47203D01*
X74704Y-47435D01*
X74695Y-47425D01*
X74695Y-47186D01*
X74691Y-47168D01*
X74684Y-47152D01*
X74675Y-47137D01*
X74662Y-47125D01*
X74648Y-47115D01*
X74631Y-47108D01*
X74614Y-47105D01*
X74596Y-47104D01*
X74286Y-47104D01*
X74268Y-47108D01*
X74252Y-47115D01*
X74237Y-47124D01*
X74225Y-47137D01*
X74215Y-47151D01*
X74208Y-47168D01*
X74205Y-47185D01*
X74204Y-47203D01*
X74204Y-47435D01*
X74195Y-47425D01*
X74195Y-47186D01*
X74191Y-47168D01*
X74184Y-47152D01*
X74175Y-47137D01*
X74162Y-47125D01*
X74148Y-47115D01*
X74131Y-47108D01*
X74114Y-47105D01*
X74096Y-47104D01*
X73786Y-47104D01*
X73768Y-47108D01*
X73752Y-47115D01*
X73737Y-47124D01*
X73725Y-47137D01*
X73715Y-47151D01*
X73708Y-47168D01*
X73705Y-47185D01*
X73704Y-47203D01*
X73704Y-47513D01*
X73708Y-47531D01*
X73715Y-47547D01*
X73724Y-47562D01*
X73737Y-47574D01*
X73751Y-47584D01*
X73768Y-47591D01*
X73785Y-47594D01*
X73803Y-47595D01*
X74025Y-47595D01*
X74035Y-47604D01*
X73786Y-47604D01*
X73768Y-47608D01*
X73752Y-47615D01*
X73737Y-47624D01*
X73725Y-47637D01*
X73715Y-47651D01*
X73708Y-47668D01*
X73705Y-47685D01*
X73704Y-47703D01*
X73704Y-48013D01*
X73708Y-48031D01*
X73715Y-48047D01*
X73724Y-48062D01*
X73737Y-48074D01*
X73751Y-48084D01*
X73768Y-48091D01*
X73785Y-48094D01*
X73803Y-48095D01*
X73830Y-48095D01*
X73830Y-50350D01*
X73831Y-50361D01*
X73832Y-50372D01*
X73832Y-50372D01*
X73832Y-50373D01*
X73835Y-50383D01*
X73838Y-50394D01*
X73838Y-50395D01*
X73839Y-50395D01*
X73839Y-50396D01*
X73784Y-50359D01*
X73714Y-50330D01*
X73640Y-50314D01*
X73564Y-50314D01*
X73490Y-50328D01*
X73420Y-50356D01*
X73357Y-50398D01*
X73303Y-50451D01*
X73260Y-50513D01*
X73230Y-50582D01*
X73215Y-50656D01*
X73214Y-50732D01*
X73227Y-50806D01*
X73255Y-50876D01*
X73296Y-50940D01*
X73349Y-50994D01*
X73411Y-51037D01*
X73480Y-51068D01*
X73554Y-51084D01*
X73629Y-51085D01*
X73704Y-51072D01*
X73774Y-51045D01*
X73838Y-51005D01*
X73893Y-50952D01*
X73936Y-50891D01*
X73967Y-50822D01*
X73980Y-50766D01*
X73980Y-51150D01*
X73774Y-51355D01*
X73714Y-51330D01*
X73640Y-51314D01*
X73564Y-51314D01*
X73490Y-51328D01*
X73420Y-51356D01*
X73357Y-51398D01*
X73303Y-51451D01*
X73260Y-51513D01*
X73230Y-51582D01*
X73215Y-51656D01*
X73214Y-51732D01*
X73227Y-51806D01*
X73255Y-51876D01*
X73296Y-51940D01*
X73349Y-51994D01*
X73411Y-52037D01*
X73480Y-52068D01*
X73554Y-52084D01*
X73629Y-52085D01*
X73704Y-52072D01*
X73774Y-52045D01*
X73838Y-52005D01*
X73893Y-51952D01*
X73936Y-51891D01*
X73967Y-51822D01*
X73984Y-51748D01*
X73985Y-51662D01*
X73970Y-51588D01*
X73944Y-51525D01*
X74184Y-51284D01*
X74191Y-51276D01*
X74199Y-51267D01*
X74199Y-51267D01*
X74199Y-51266D01*
X74204Y-51256D01*
X74210Y-51247D01*
X74210Y-51246D01*
X74210Y-51246D01*
X74214Y-51235D01*
X74217Y-51224D01*
X74217Y-51224D01*
X74217Y-51223D01*
X74218Y-51212D01*
X74219Y-51201D01*
X74219Y-51200D01*
X74219Y-51200D01*
X74219Y-51200D01*
X74220Y-51200D01*
X74220Y-50978D01*
X74221Y-50979D01*
X74501Y-50700D01*
X74221Y-50420D01*
X74196Y-50429D01*
X74192Y-50424D01*
X74186Y-50416D01*
X74185Y-50415D01*
X74185Y-50415D01*
X74185Y-50415D01*
X74184Y-50415D01*
X74070Y-50300D01*
X74070Y-48095D01*
X74080Y-48095D01*
X74080Y-48600D01*
X74081Y-48611D01*
X74082Y-48622D01*
X74082Y-48622D01*
X74082Y-48623D01*
X74085Y-48633D01*
X74088Y-48644D01*
X74088Y-48645D01*
X74089Y-48645D01*
X74094Y-48655D01*
X74099Y-48665D01*
X74099Y-48665D01*
X74100Y-48666D01*
X74107Y-48675D01*
X74113Y-48683D01*
X74114Y-48684D01*
X74114Y-48684D01*
X74114Y-48684D01*
X74115Y-48684D01*
X75605Y-50174D01*
X75551Y-50174D01*
X75450Y-50193D01*
X75355Y-50232D01*
X75349Y-50235D01*
X75320Y-50321D01*
X75600Y-50601D01*
X75605Y-50595D01*
X75704Y-50694D01*
X75698Y-50700D01*
X75978Y-50979D01*
X75980Y-50978D01*
X75980Y-51200D01*
X75981Y-51211D01*
X75982Y-51222D01*
X75982Y-51222D01*
X75982Y-51223D01*
X75985Y-51233D01*
X75988Y-51244D01*
X75988Y-51245D01*
X75989Y-51245D01*
X75994Y-51255D01*
X75999Y-51265D01*
X75999Y-51265D01*
X76000Y-51266D01*
X76007Y-51275D01*
X76013Y-51283D01*
X76014Y-51284D01*
X76014Y-51284D01*
X76014Y-51284D01*
X76015Y-51284D01*
X76255Y-51525D01*
X76230Y-51582D01*
X76215Y-51656D01*
X76214Y-51732D01*
X76227Y-51806D01*
X76255Y-51876D01*
X76296Y-51940D01*
X76349Y-51994D01*
X76411Y-52037D01*
X76480Y-52068D01*
X76554Y-52084D01*
X76629Y-52085D01*
X76704Y-52072D01*
X76774Y-52045D01*
X76838Y-52005D01*
X76893Y-51952D01*
X76936Y-51891D01*
X76967Y-51822D01*
X76984Y-51748D01*
X76985Y-51662D01*
X76970Y-51588D01*
X76941Y-51518D01*
X76900Y-51455D01*
X76879Y-51434D01*
X76879Y-51078D01*
X76600Y-50798D01*
X76320Y-51078D01*
X76349Y-51164D01*
X76444Y-51204D01*
X76545Y-51224D01*
X76648Y-51225D01*
X76749Y-51206D01*
X76844Y-51167D01*
X76850Y-51164D01*
X76879Y-51078D01*
X76879Y-51434D01*
X76846Y-51401D01*
X76784Y-51359D01*
X76714Y-51330D01*
X76640Y-51314D01*
X76564Y-51314D01*
X76490Y-51328D01*
X76424Y-51355D01*
X76220Y-51150D01*
X76220Y-50978D01*
X76221Y-50979D01*
X76501Y-50700D01*
X76221Y-50420D01*
X76196Y-50429D01*
X76192Y-50424D01*
X76186Y-50416D01*
X76185Y-50415D01*
X76185Y-50415D01*
X76185Y-50415D01*
X76184Y-50415D01*
X74320Y-48550D01*
X74320Y-48235D01*
X74322Y-48235D01*
X74380Y-48177D01*
X74380Y-47920D01*
X74372Y-47920D01*
X74372Y-47780D01*
X74380Y-47780D01*
X74380Y-47772D01*
X74520Y-47772D01*
X74520Y-47780D01*
X74527Y-47780D01*
X74527Y-47920D01*
X74520Y-47920D01*
X74520Y-48177D01*
X74577Y-48235D01*
X74580Y-48235D01*
X74580Y-48600D01*
X74581Y-48611D01*
X74582Y-48622D01*
X74582Y-48622D01*
X74582Y-48623D01*
X74585Y-48633D01*
X74588Y-48644D01*
X74588Y-48645D01*
X74589Y-48645D01*
X74594Y-48655D01*
X74599Y-48665D01*
X74599Y-48665D01*
X74600Y-48666D01*
X74607Y-48675D01*
X74613Y-48683D01*
X74614Y-48684D01*
X74614Y-48684D01*
X74614Y-48684D01*
X74615Y-48684D01*
X75965Y-50034D01*
X75973Y-50041D01*
X75982Y-50049D01*
X75982Y-50049D01*
X75983Y-50049D01*
X75993Y-50054D01*
X76002Y-50060D01*
X76003Y-50060D01*
X76003Y-50060D01*
X76014Y-50064D01*
X76025Y-50067D01*
X76025Y-50067D01*
X76026Y-50067D01*
X76037Y-50068D01*
X76048Y-50069D01*
X76049Y-50069D01*
X76049Y-50069D01*
X76049Y-50069D01*
X76050Y-50070D01*
X76500Y-50070D01*
X76605Y-50174D01*
X76551Y-50174D01*
X76450Y-50193D01*
X76355Y-50232D01*
X76349Y-50235D01*
X76320Y-50321D01*
X76600Y-50601D01*
X76605Y-50595D01*
X76704Y-50694D01*
X76698Y-50700D01*
X76978Y-50979D01*
X76980Y-50978D01*
X76980Y-51200D01*
X76981Y-51211D01*
X76982Y-51222D01*
X76982Y-51222D01*
X76982Y-51223D01*
X76985Y-51233D01*
X76988Y-51244D01*
X76988Y-51245D01*
X76989Y-51245D01*
X76994Y-51255D01*
X76999Y-51265D01*
X76999Y-51265D01*
X77000Y-51266D01*
X77007Y-51275D01*
X77013Y-51283D01*
X77014Y-51284D01*
X77014Y-51284D01*
X77014Y-51284D01*
X77015Y-51284D01*
X77255Y-51525D01*
X77230Y-51582D01*
X77215Y-51656D01*
X77214Y-51732D01*
X77227Y-51806D01*
X77255Y-51876D01*
X77296Y-51940D01*
X77349Y-51994D01*
X77411Y-52037D01*
X77480Y-52068D01*
X77554Y-52084D01*
X77629Y-52085D01*
X77704Y-52072D01*
X77774Y-52045D01*
X77838Y-52005D01*
X77893Y-51952D01*
X77936Y-51891D01*
X77967Y-51822D01*
X77984Y-51748D01*
X77985Y-51662D01*
X77970Y-51588D01*
X77941Y-51518D01*
X77900Y-51455D01*
X77879Y-51434D01*
X77879Y-51078D01*
X77600Y-50798D01*
X77320Y-51078D01*
X77349Y-51164D01*
X77444Y-51204D01*
X77545Y-51224D01*
X77648Y-51225D01*
X77749Y-51206D01*
X77844Y-51167D01*
X77850Y-51164D01*
X77879Y-51078D01*
X77879Y-51434D01*
X77846Y-51401D01*
X77784Y-51359D01*
X77714Y-51330D01*
X77640Y-51314D01*
X77564Y-51314D01*
X77490Y-51328D01*
X77424Y-51355D01*
X77220Y-51150D01*
X77220Y-50978D01*
X77221Y-50979D01*
X77501Y-50700D01*
X77221Y-50420D01*
X77196Y-50429D01*
X77192Y-50424D01*
X77186Y-50416D01*
X77185Y-50415D01*
X77185Y-50415D01*
X77185Y-50415D01*
X77184Y-50415D01*
X76839Y-50070D01*
X77500Y-50070D01*
X77605Y-50174D01*
X77551Y-50174D01*
X77450Y-50193D01*
X77355Y-50232D01*
X77349Y-50235D01*
X77320Y-50321D01*
X77600Y-50601D01*
X77605Y-50595D01*
X77704Y-50694D01*
X77698Y-50700D01*
X77978Y-50979D01*
X77980Y-50978D01*
X77980Y-51200D01*
X77981Y-51211D01*
X77982Y-51222D01*
X77982Y-51222D01*
X77982Y-51223D01*
X77985Y-51233D01*
X77988Y-51244D01*
X77988Y-51245D01*
X77989Y-51245D01*
X77994Y-51255D01*
X77999Y-51265D01*
X77999Y-51265D01*
X78000Y-51266D01*
X78007Y-51275D01*
X78013Y-51283D01*
X78014Y-51284D01*
X78014Y-51284D01*
X78014Y-51284D01*
X78015Y-51284D01*
X78255Y-51525D01*
X78230Y-51582D01*
X78215Y-51656D01*
X78214Y-51732D01*
X78227Y-51806D01*
X78255Y-51876D01*
X78296Y-51940D01*
X78349Y-51994D01*
X78411Y-52037D01*
X78480Y-52068D01*
X78554Y-52084D01*
X78629Y-52085D01*
X78704Y-52072D01*
X78774Y-52045D01*
X78838Y-52005D01*
X78893Y-51952D01*
X78936Y-51891D01*
X78967Y-51822D01*
X78984Y-51748D01*
X78985Y-51662D01*
X78970Y-51588D01*
X78941Y-51518D01*
X78900Y-51455D01*
X78879Y-51434D01*
X78879Y-51078D01*
X78600Y-50798D01*
X78320Y-51078D01*
X78349Y-51164D01*
X78444Y-51204D01*
X78545Y-51224D01*
X78648Y-51225D01*
X78749Y-51206D01*
X78844Y-51167D01*
X78850Y-51164D01*
X78879Y-51078D01*
X78879Y-51434D01*
X78846Y-51401D01*
X78784Y-51359D01*
X78714Y-51330D01*
X78640Y-51314D01*
X78564Y-51314D01*
X78490Y-51328D01*
X78424Y-51355D01*
X78220Y-51150D01*
X78220Y-50978D01*
X78221Y-50979D01*
X78501Y-50700D01*
X78221Y-50420D01*
X78196Y-50429D01*
X78192Y-50424D01*
X78186Y-50416D01*
X78185Y-50415D01*
X78185Y-50415D01*
X78185Y-50415D01*
X78184Y-50415D01*
X77634Y-49865D01*
X77626Y-49858D01*
X77617Y-49850D01*
X77617Y-49850D01*
X77616Y-49850D01*
X77606Y-49845D01*
X77597Y-49839D01*
X77596Y-49839D01*
X77596Y-49839D01*
X77585Y-49835D01*
X77574Y-49832D01*
X77574Y-49832D01*
X77573Y-49832D01*
X77562Y-49831D01*
X77551Y-49830D01*
X77550Y-49830D01*
X77550Y-49830D01*
X77550Y-49830D01*
X77550Y-49830D01*
X76849Y-49830D01*
X75570Y-48550D01*
X75570Y-48095D01*
X75613Y-48095D01*
X75631Y-48091D01*
X75647Y-48084D01*
X75662Y-48075D01*
X75674Y-48062D01*
X75684Y-48048D01*
X75691Y-48031D01*
X75694Y-48014D01*
X75695Y-47996D01*
X75695Y-47720D01*
X75704Y-47720D01*
X75704Y-48013D01*
X75708Y-48031D01*
X75715Y-48047D01*
X75724Y-48062D01*
X75737Y-48074D01*
X75751Y-48084D01*
X75768Y-48091D01*
X75785Y-48094D01*
X75803Y-48095D01*
X76113Y-48095D01*
X76131Y-48091D01*
X76147Y-48084D01*
X76162Y-48075D01*
X76174Y-48062D01*
X76184Y-48048D01*
X76191Y-48031D01*
X76194Y-48014D01*
X76195Y-47996D01*
X76195Y-47720D01*
X76546Y-47720D01*
X76535Y-47770D01*
X76534Y-47822D01*
X76544Y-47873D01*
X76563Y-47921D01*
X76591Y-47965D01*
X76627Y-48002D01*
X76670Y-48032D01*
X76717Y-48053D01*
X76768Y-48064D01*
X76820Y-48065D01*
X76871Y-48056D01*
X76920Y-48037D01*
X76963Y-48009D01*
X77001Y-47973D01*
X77031Y-47931D01*
X77052Y-47884D01*
X77064Y-47833D01*
X78980Y-49749D01*
X78980Y-50421D01*
X78978Y-50420D01*
X78879Y-50519D01*
X78879Y-50321D01*
X78850Y-50235D01*
X78755Y-50195D01*
X78654Y-50175D01*
X78551Y-50174D01*
X78450Y-50193D01*
X78355Y-50232D01*
X78349Y-50235D01*
X78320Y-50321D01*
X78600Y-50601D01*
X78879Y-50321D01*
X78879Y-50519D01*
X78698Y-50700D01*
X78978Y-50979D01*
X78980Y-50978D01*
X78980Y-51200D01*
X78981Y-51211D01*
X78982Y-51222D01*
X78982Y-51222D01*
X78982Y-51223D01*
X78985Y-51233D01*
X78988Y-51244D01*
X78988Y-51245D01*
X78989Y-51245D01*
X78994Y-51255D01*
X78999Y-51265D01*
X78999Y-51265D01*
X79000Y-51266D01*
X79007Y-51275D01*
X79013Y-51283D01*
X79014Y-51284D01*
X79014Y-51284D01*
X79014Y-51284D01*
X79015Y-51284D01*
X79255Y-51525D01*
X79230Y-51582D01*
X79215Y-51656D01*
X79214Y-51732D01*
X79227Y-51806D01*
X79255Y-51876D01*
X79296Y-51940D01*
X79349Y-51994D01*
X79411Y-52037D01*
X79480Y-52068D01*
X79554Y-52084D01*
X79629Y-52085D01*
X79704Y-52072D01*
X79774Y-52045D01*
X79838Y-52005D01*
X79893Y-51952D01*
X79936Y-51891D01*
X79967Y-51822D01*
X79984Y-51748D01*
X79985Y-51662D01*
X79985Y-54822D01*
X79978Y-54820D01*
X79879Y-54919D01*
X79879Y-54721D01*
X79850Y-54635D01*
X79755Y-54595D01*
X79654Y-54575D01*
X79551Y-54574D01*
X79450Y-54593D01*
X79355Y-54632D01*
X79349Y-54635D01*
X79320Y-54721D01*
X79600Y-55001D01*
X79879Y-54721D01*
X79879Y-54919D01*
X79698Y-55100D01*
X79978Y-55379D01*
X80064Y-55350D01*
X80100Y-55265D01*
X80132Y-55344D01*
X80135Y-55350D01*
X80221Y-55379D01*
X80501Y-55100D01*
X80501Y-55297D01*
X80320Y-55478D01*
X80349Y-55564D01*
X80444Y-55604D01*
X80545Y-55624D01*
X80648Y-55625D01*
X80749Y-55606D01*
X80844Y-55567D01*
X80850Y-55564D01*
X80879Y-55478D01*
X80879Y-55834D01*
X80846Y-55801D01*
X80784Y-55759D01*
X80714Y-55730D01*
X80640Y-55714D01*
X80564Y-55714D01*
X80490Y-55728D01*
X80420Y-55756D01*
X80357Y-55798D01*
X80303Y-55851D01*
X80260Y-55913D01*
X80230Y-55982D01*
X80215Y-56056D01*
X80214Y-56132D01*
X80227Y-56206D01*
X80255Y-56276D01*
X80296Y-56340D01*
X80349Y-56394D01*
X80411Y-56437D01*
X80480Y-56468D01*
X80554Y-56484D01*
X80629Y-56485D01*
X80704Y-56472D01*
X80774Y-56445D01*
X80838Y-56405D01*
X80893Y-56352D01*
X80936Y-56291D01*
X80967Y-56222D01*
X80984Y-56148D01*
X80985Y-56062D01*
X80985Y-57490D01*
X79985Y-57490D01*
X79985Y-56062D01*
X79970Y-55988D01*
X79941Y-55918D01*
X79900Y-55855D01*
X79879Y-55834D01*
X79879Y-55478D01*
X79600Y-55198D01*
X79501Y-55297D01*
X79501Y-55100D01*
X79221Y-54820D01*
X79135Y-54849D01*
X79099Y-54934D01*
X79067Y-54855D01*
X79064Y-54849D01*
X78978Y-54820D01*
X78879Y-54919D01*
X78879Y-54721D01*
X78850Y-54635D01*
X78755Y-54595D01*
X78654Y-54575D01*
X78551Y-54574D01*
X78450Y-54593D01*
X78355Y-54632D01*
X78349Y-54635D01*
X78320Y-54721D01*
X78600Y-55001D01*
X78879Y-54721D01*
X78879Y-54919D01*
X78698Y-55100D01*
X78978Y-55379D01*
X79064Y-55350D01*
X79100Y-55265D01*
X79132Y-55344D01*
X79135Y-55350D01*
X79221Y-55379D01*
X79501Y-55100D01*
X79501Y-55297D01*
X79320Y-55478D01*
X79349Y-55564D01*
X79444Y-55604D01*
X79545Y-55624D01*
X79648Y-55625D01*
X79749Y-55606D01*
X79844Y-55567D01*
X79850Y-55564D01*
X79879Y-55478D01*
X79879Y-55834D01*
X79846Y-55801D01*
X79784Y-55759D01*
X79714Y-55730D01*
X79640Y-55714D01*
X79564Y-55714D01*
X79490Y-55728D01*
X79420Y-55756D01*
X79357Y-55798D01*
X79303Y-55851D01*
X79260Y-55913D01*
X79230Y-55982D01*
X79215Y-56056D01*
X79214Y-56132D01*
X79227Y-56206D01*
X79255Y-56276D01*
X79296Y-56340D01*
X79349Y-56394D01*
X79411Y-56437D01*
X79480Y-56468D01*
X79554Y-56484D01*
X79629Y-56485D01*
X79704Y-56472D01*
X79774Y-56445D01*
X79838Y-56405D01*
X79893Y-56352D01*
X79936Y-56291D01*
X79967Y-56222D01*
X79984Y-56148D01*
X79985Y-56062D01*
X79985Y-57490D01*
X78985Y-57490D01*
X78985Y-56062D01*
X78970Y-55988D01*
X78941Y-55918D01*
X78900Y-55855D01*
X78879Y-55834D01*
X78879Y-55478D01*
X78600Y-55198D01*
X78501Y-55297D01*
X78501Y-55100D01*
X78221Y-54820D01*
X78135Y-54849D01*
X78099Y-54934D01*
X78067Y-54855D01*
X78064Y-54849D01*
X77978Y-54820D01*
X77879Y-54919D01*
X77879Y-54721D01*
X77850Y-54635D01*
X77755Y-54595D01*
X77654Y-54575D01*
X77551Y-54574D01*
X77450Y-54593D01*
X77355Y-54632D01*
X77349Y-54635D01*
X77320Y-54721D01*
X77600Y-55001D01*
X77879Y-54721D01*
X77879Y-54919D01*
X77698Y-55100D01*
X77978Y-55379D01*
X78064Y-55350D01*
X78100Y-55265D01*
X78132Y-55344D01*
X78135Y-55350D01*
X78221Y-55379D01*
X78501Y-55100D01*
X78501Y-55297D01*
X78320Y-55478D01*
X78349Y-55564D01*
X78444Y-55604D01*
X78545Y-55624D01*
X78648Y-55625D01*
X78749Y-55606D01*
X78844Y-55567D01*
X78850Y-55564D01*
X78879Y-55478D01*
X78879Y-55834D01*
X78846Y-55801D01*
X78784Y-55759D01*
X78714Y-55730D01*
X78640Y-55714D01*
X78564Y-55714D01*
X78490Y-55728D01*
X78420Y-55756D01*
X78357Y-55798D01*
X78303Y-55851D01*
X78260Y-55913D01*
X78230Y-55982D01*
X78215Y-56056D01*
X78214Y-56132D01*
X78227Y-56206D01*
X78255Y-56276D01*
X78296Y-56340D01*
X78349Y-56394D01*
X78411Y-56437D01*
X78480Y-56468D01*
X78554Y-56484D01*
X78629Y-56485D01*
X78704Y-56472D01*
X78774Y-56445D01*
X78838Y-56405D01*
X78893Y-56352D01*
X78936Y-56291D01*
X78967Y-56222D01*
X78984Y-56148D01*
X78985Y-56062D01*
X78985Y-57490D01*
X77985Y-57490D01*
X77985Y-56062D01*
X77970Y-55988D01*
X77941Y-55918D01*
X77900Y-55855D01*
X77879Y-55834D01*
X77879Y-55478D01*
X77600Y-55198D01*
X77501Y-55297D01*
X77501Y-55100D01*
X77221Y-54820D01*
X77135Y-54849D01*
X77099Y-54934D01*
X77067Y-54855D01*
X77064Y-54849D01*
X76978Y-54820D01*
X76879Y-54919D01*
X76879Y-54721D01*
X76850Y-54635D01*
X76755Y-54595D01*
X76654Y-54575D01*
X76551Y-54574D01*
X76450Y-54593D01*
X76355Y-54632D01*
X76349Y-54635D01*
X76320Y-54721D01*
X76600Y-55001D01*
X76879Y-54721D01*
X76879Y-54919D01*
X76698Y-55100D01*
X76978Y-55379D01*
X77064Y-55350D01*
X77100Y-55265D01*
X77132Y-55344D01*
X77135Y-55350D01*
X77221Y-55379D01*
X77501Y-55100D01*
X77501Y-55297D01*
X77320Y-55478D01*
X77349Y-55564D01*
X77444Y-55604D01*
X77545Y-55624D01*
X77648Y-55625D01*
X77749Y-55606D01*
X77844Y-55567D01*
X77850Y-55564D01*
X77879Y-55478D01*
X77879Y-55834D01*
X77846Y-55801D01*
X77784Y-55759D01*
X77714Y-55730D01*
X77640Y-55714D01*
X77564Y-55714D01*
X77490Y-55728D01*
X77420Y-55756D01*
X77357Y-55798D01*
X77303Y-55851D01*
X77260Y-55913D01*
X77230Y-55982D01*
X77215Y-56056D01*
X77214Y-56132D01*
X77227Y-56206D01*
X77255Y-56276D01*
X77296Y-56340D01*
X77349Y-56394D01*
X77411Y-56437D01*
X77480Y-56468D01*
X77554Y-56484D01*
X77629Y-56485D01*
X77704Y-56472D01*
X77774Y-56445D01*
X77838Y-56405D01*
X77893Y-56352D01*
X77936Y-56291D01*
X77967Y-56222D01*
X77984Y-56148D01*
X77985Y-56062D01*
X77985Y-57490D01*
X76985Y-57490D01*
X76985Y-56062D01*
X76970Y-55988D01*
X76941Y-55918D01*
X76900Y-55855D01*
X76879Y-55834D01*
X76879Y-55478D01*
X76600Y-55198D01*
X76501Y-55297D01*
X76501Y-55100D01*
X76221Y-54820D01*
X76135Y-54849D01*
X76099Y-54934D01*
X76067Y-54855D01*
X76064Y-54849D01*
X75985Y-54822D01*
X75985Y-51662D01*
X75970Y-51588D01*
X75941Y-51518D01*
X75900Y-51455D01*
X75879Y-51434D01*
X75879Y-51078D01*
X75600Y-50798D01*
X75320Y-51078D01*
X75349Y-51164D01*
X75444Y-51204D01*
X75545Y-51224D01*
X75648Y-51225D01*
X75749Y-51206D01*
X75844Y-51167D01*
X75850Y-51164D01*
X75879Y-51078D01*
X75879Y-51434D01*
X75846Y-51401D01*
X75784Y-51359D01*
X75714Y-51330D01*
X75640Y-51314D01*
X75564Y-51314D01*
X75490Y-51328D01*
X75424Y-51355D01*
X75220Y-51150D01*
X75220Y-50978D01*
X75221Y-50979D01*
X75501Y-50700D01*
X75221Y-50420D01*
X75216Y-50422D01*
X75214Y-50416D01*
X75211Y-50405D01*
X75211Y-50404D01*
X75210Y-50404D01*
X75205Y-50394D01*
X75200Y-50384D01*
X75200Y-50384D01*
X75199Y-50383D01*
X75192Y-50374D01*
X75186Y-50366D01*
X75185Y-50365D01*
X75185Y-50365D01*
X75185Y-50365D01*
X75184Y-50365D01*
X75120Y-50300D01*
X75120Y-50237D01*
X75120Y-50237D01*
X75163Y-50209D01*
X75201Y-50173D01*
X75231Y-50131D01*
X75252Y-50084D01*
X75264Y-50033D01*
X75265Y-49974D01*
X75254Y-49923D01*
X75235Y-49874D01*
X75206Y-49831D01*
X75169Y-49794D01*
X75126Y-49765D01*
X75078Y-49745D01*
X75027Y-49735D01*
X74975Y-49734D01*
X74924Y-49744D01*
X74876Y-49764D01*
X74833Y-49792D01*
X74796Y-49828D01*
X74766Y-49871D01*
X74746Y-49919D01*
X74735Y-49970D01*
X74734Y-50022D01*
X74744Y-50073D01*
X74763Y-50121D01*
X74791Y-50165D01*
X74827Y-50202D01*
X74870Y-50232D01*
X74880Y-50236D01*
X74880Y-50321D01*
X74879Y-50321D01*
X74850Y-50235D01*
X74755Y-50195D01*
X74654Y-50175D01*
X74551Y-50174D01*
X74450Y-50193D01*
X74355Y-50232D01*
X74349Y-50235D01*
X74320Y-50321D01*
X74600Y-50601D01*
X74605Y-50595D01*
X74704Y-50694D01*
X74698Y-50700D01*
X74978Y-50979D01*
X74980Y-50978D01*
X74980Y-51200D01*
X74981Y-51211D01*
X74982Y-51222D01*
X74982Y-51222D01*
X74982Y-51223D01*
X74985Y-51233D01*
X74988Y-51244D01*
X74988Y-51245D01*
X74989Y-51245D01*
X74994Y-51255D01*
X74999Y-51265D01*
X74999Y-51265D01*
X75000Y-51266D01*
X75007Y-51275D01*
X75013Y-51283D01*
X75014Y-51284D01*
X75014Y-51284D01*
X75014Y-51284D01*
X75015Y-51284D01*
X75255Y-51525D01*
X75230Y-51582D01*
X75215Y-51656D01*
X75214Y-51732D01*
X75227Y-51806D01*
X75255Y-51876D01*
X75296Y-51940D01*
X75349Y-51994D01*
X75411Y-52037D01*
X75480Y-52068D01*
X75554Y-52084D01*
X75629Y-52085D01*
X75704Y-52072D01*
X75774Y-52045D01*
X75838Y-52005D01*
X75893Y-51952D01*
X75936Y-51891D01*
X75967Y-51822D01*
X75984Y-51748D01*
X75985Y-51662D01*
X75985Y-54822D01*
X75978Y-54820D01*
X75879Y-54919D01*
X75879Y-54721D01*
X75850Y-54635D01*
X75755Y-54595D01*
X75654Y-54575D01*
X75551Y-54574D01*
X75450Y-54593D01*
X75355Y-54632D01*
X75349Y-54635D01*
X75320Y-54721D01*
X75600Y-55001D01*
X75879Y-54721D01*
X75879Y-54919D01*
X75698Y-55100D01*
X75978Y-55379D01*
X76064Y-55350D01*
X76100Y-55265D01*
X76132Y-55344D01*
X76135Y-55350D01*
X76221Y-55379D01*
X76501Y-55100D01*
X76501Y-55297D01*
X76320Y-55478D01*
X76349Y-55564D01*
X76444Y-55604D01*
X76545Y-55624D01*
X76648Y-55625D01*
X76749Y-55606D01*
X76844Y-55567D01*
X76850Y-55564D01*
X76879Y-55478D01*
X76879Y-55834D01*
X76846Y-55801D01*
X76784Y-55759D01*
X76714Y-55730D01*
X76640Y-55714D01*
X76564Y-55714D01*
X76490Y-55728D01*
X76420Y-55756D01*
X76357Y-55798D01*
X76303Y-55851D01*
X76260Y-55913D01*
X76230Y-55982D01*
X76215Y-56056D01*
X76214Y-56132D01*
X76227Y-56206D01*
X76255Y-56276D01*
X76296Y-56340D01*
X76349Y-56394D01*
X76411Y-56437D01*
X76480Y-56468D01*
X76554Y-56484D01*
X76629Y-56485D01*
X76704Y-56472D01*
X76774Y-56445D01*
X76838Y-56405D01*
X76893Y-56352D01*
X76936Y-56291D01*
X76967Y-56222D01*
X76984Y-56148D01*
X76985Y-56062D01*
X76985Y-57490D01*
X75985Y-57490D01*
X75985Y-56062D01*
X75970Y-55988D01*
X75941Y-55918D01*
X75900Y-55855D01*
X75879Y-55834D01*
X75879Y-55478D01*
X75600Y-55198D01*
X75501Y-55297D01*
X75501Y-55100D01*
X75221Y-54820D01*
X75135Y-54849D01*
X75099Y-54934D01*
X75067Y-54855D01*
X75064Y-54849D01*
X74985Y-54822D01*
X74985Y-51662D01*
X74970Y-51588D01*
X74941Y-51518D01*
X74900Y-51455D01*
X74879Y-51434D01*
X74879Y-51078D01*
X74600Y-50798D01*
X74320Y-51078D01*
X74349Y-51164D01*
X74444Y-51204D01*
X74545Y-51224D01*
X74648Y-51225D01*
X74749Y-51206D01*
X74844Y-51167D01*
X74850Y-51164D01*
X74879Y-51078D01*
X74879Y-51434D01*
X74846Y-51401D01*
X74784Y-51359D01*
X74714Y-51330D01*
X74640Y-51314D01*
X74564Y-51314D01*
X74490Y-51328D01*
X74420Y-51356D01*
X74357Y-51398D01*
X74303Y-51451D01*
X74260Y-51513D01*
X74230Y-51582D01*
X74215Y-51656D01*
X74214Y-51732D01*
X74227Y-51806D01*
X74255Y-51876D01*
X74296Y-51940D01*
X74349Y-51994D01*
X74411Y-52037D01*
X74480Y-52068D01*
X74554Y-52084D01*
X74629Y-52085D01*
X74704Y-52072D01*
X74774Y-52045D01*
X74838Y-52005D01*
X74893Y-51952D01*
X74936Y-51891D01*
X74967Y-51822D01*
X74984Y-51748D01*
X74985Y-51662D01*
X74985Y-54822D01*
X74978Y-54820D01*
X74879Y-54919D01*
X74879Y-54721D01*
X74850Y-54635D01*
X74755Y-54595D01*
X74654Y-54575D01*
X74551Y-54574D01*
X74450Y-54593D01*
X74355Y-54632D01*
X74349Y-54635D01*
X74320Y-54721D01*
X74600Y-55001D01*
X74879Y-54721D01*
X74879Y-54919D01*
X74698Y-55100D01*
X74978Y-55379D01*
X75064Y-55350D01*
X75100Y-55265D01*
X75132Y-55344D01*
X75135Y-55350D01*
X75221Y-55379D01*
X75501Y-55100D01*
X75501Y-55297D01*
X75320Y-55478D01*
X75349Y-55564D01*
X75444Y-55604D01*
X75545Y-55624D01*
X75648Y-55625D01*
X75749Y-55606D01*
X75844Y-55567D01*
X75850Y-55564D01*
X75879Y-55478D01*
X75879Y-55834D01*
X75846Y-55801D01*
X75784Y-55759D01*
X75714Y-55730D01*
X75640Y-55714D01*
X75564Y-55714D01*
X75490Y-55728D01*
X75420Y-55756D01*
X75357Y-55798D01*
X75303Y-55851D01*
X75260Y-55913D01*
X75230Y-55982D01*
X75215Y-56056D01*
X75214Y-56132D01*
X75227Y-56206D01*
X75255Y-56276D01*
X75296Y-56340D01*
X75349Y-56394D01*
X75411Y-56437D01*
X75480Y-56468D01*
X75554Y-56484D01*
X75629Y-56485D01*
X75704Y-56472D01*
X75774Y-56445D01*
X75838Y-56405D01*
X75893Y-56352D01*
X75936Y-56291D01*
X75967Y-56222D01*
X75984Y-56148D01*
X75985Y-56062D01*
X75985Y-57490D01*
X74985Y-57490D01*
X74985Y-56062D01*
X74970Y-55988D01*
X74941Y-55918D01*
X74900Y-55855D01*
X74879Y-55834D01*
X74879Y-55478D01*
X74600Y-55198D01*
X74501Y-55297D01*
X74501Y-55100D01*
X74221Y-54820D01*
X74135Y-54849D01*
X74095Y-54944D01*
X74075Y-55045D01*
X74074Y-55148D01*
X74093Y-55249D01*
X74132Y-55344D01*
X74135Y-55350D01*
X74221Y-55379D01*
X74501Y-55100D01*
X74501Y-55297D01*
X74320Y-55478D01*
X74349Y-55564D01*
X74444Y-55604D01*
X74545Y-55624D01*
X74648Y-55625D01*
X74749Y-55606D01*
X74844Y-55567D01*
X74850Y-55564D01*
X74879Y-55478D01*
X74879Y-55834D01*
X74846Y-55801D01*
X74784Y-55759D01*
X74714Y-55730D01*
X74640Y-55714D01*
X74564Y-55714D01*
X74490Y-55728D01*
X74420Y-55756D01*
X74357Y-55798D01*
X74303Y-55851D01*
X74260Y-55913D01*
X74230Y-55982D01*
X74215Y-56056D01*
X74214Y-56132D01*
X74227Y-56206D01*
X74255Y-56276D01*
X74296Y-56340D01*
X74349Y-56394D01*
X74411Y-56437D01*
X74480Y-56468D01*
X74554Y-56484D01*
X74629Y-56485D01*
X74704Y-56472D01*
X74774Y-56445D01*
X74838Y-56405D01*
X74893Y-56352D01*
X74936Y-56291D01*
X74967Y-56222D01*
X74984Y-56148D01*
X74985Y-56062D01*
X74985Y-57490D01*
X73985Y-57490D01*
X73985Y-56062D01*
X73985Y-55062D01*
X73970Y-54988D01*
X73941Y-54918D01*
X73900Y-54855D01*
X73846Y-54801D01*
X73784Y-54759D01*
X73714Y-54730D01*
X73640Y-54714D01*
X73564Y-54714D01*
X73490Y-54728D01*
X73420Y-54756D01*
X73357Y-54798D01*
X73303Y-54851D01*
X73260Y-54913D01*
X73230Y-54982D01*
X73215Y-55056D01*
X73214Y-55132D01*
X73227Y-55206D01*
X73255Y-55276D01*
X73296Y-55340D01*
X73349Y-55394D01*
X73411Y-55437D01*
X73480Y-55468D01*
X73554Y-55484D01*
X73629Y-55485D01*
X73704Y-55472D01*
X73774Y-55445D01*
X73838Y-55405D01*
X73893Y-55352D01*
X73936Y-55291D01*
X73967Y-55222D01*
X73984Y-55148D01*
X73985Y-55062D01*
X73985Y-56062D01*
X73970Y-55988D01*
X73941Y-55918D01*
X73900Y-55855D01*
X73846Y-55801D01*
X73784Y-55759D01*
X73714Y-55730D01*
X73640Y-55714D01*
X73564Y-55714D01*
X73490Y-55728D01*
X73420Y-55756D01*
X73357Y-55798D01*
X73303Y-55851D01*
X73260Y-55913D01*
X73230Y-55982D01*
X73215Y-56056D01*
X73214Y-56132D01*
X73227Y-56206D01*
X73255Y-56276D01*
X73296Y-56340D01*
X73349Y-56394D01*
X73411Y-56437D01*
X73480Y-56468D01*
X73554Y-56484D01*
X73629Y-56485D01*
X73704Y-56472D01*
X73774Y-56445D01*
X73838Y-56405D01*
X73893Y-56352D01*
X73936Y-56291D01*
X73967Y-56222D01*
X73984Y-56148D01*
X73985Y-56062D01*
X73985Y-57490D01*
X73400Y-57490D01*
X73399Y-57490D01*
X73214Y-57490D01*
X73042Y-57457D01*
X72881Y-57390D01*
X72735Y-57294D01*
X72611Y-57171D01*
X72513Y-57026D01*
X72445Y-56866D01*
X72409Y-56692D01*
X72409Y-56300D01*
X72409Y-47510D01*
X72443Y-47339D01*
X72510Y-47178D01*
X72607Y-47033D01*
X72730Y-46909D01*
X72875Y-46812D01*
X73036Y-46744D01*
X73208Y-46709D01*
X73387Y-46709D01*
X73389Y-46709D01*
X73393Y-46709D01*
X73398Y-46709D01*
X73400Y-46709D01*
X82894Y-46709D01*
X83072Y-46727D01*
X83239Y-46777D01*
X83392Y-46858D01*
X83526Y-46968D01*
X83637Y-47102D01*
X83720Y-47255D01*
X83771Y-47421D01*
X83790Y-47598D01*
X83790Y-47600D01*
X83790Y-56300D01*
X83790Y-56594D01*
X83790Y-56594D01*
G37*
G54D14*
X83790Y-56594D02*
X83772Y-56772D01*
X83722Y-56939D01*
X83641Y-57092D01*
X83531Y-57226D01*
X83397Y-57337D01*
X83244Y-57420D01*
X83125Y-57457D01*
X83125Y-55051D01*
X83125Y-50651D01*
X83106Y-50550D01*
X83067Y-50455D01*
X83064Y-50449D01*
X82978Y-50420D01*
X82879Y-50519D01*
X82879Y-50321D01*
X82850Y-50235D01*
X82755Y-50195D01*
X82654Y-50175D01*
X82551Y-50174D01*
X82450Y-50193D01*
X82355Y-50232D01*
X82349Y-50235D01*
X82320Y-50321D01*
X82600Y-50601D01*
X82879Y-50321D01*
X82879Y-50519D01*
X82698Y-50700D01*
X82978Y-50979D01*
X83064Y-50950D01*
X83104Y-50855D01*
X83124Y-50754D01*
X83125Y-50651D01*
X83125Y-55051D01*
X83106Y-54950D01*
X83067Y-54855D01*
X83064Y-54849D01*
X82985Y-54822D01*
X82985Y-51662D01*
X82970Y-51588D01*
X82941Y-51518D01*
X82900Y-51455D01*
X82879Y-51434D01*
X82879Y-51078D01*
X82600Y-50798D01*
X82501Y-50897D01*
X82501Y-50700D01*
X82221Y-50420D01*
X82135Y-50449D01*
X82099Y-50534D01*
X82067Y-50455D01*
X82064Y-50449D01*
X81978Y-50420D01*
X81879Y-50519D01*
X81879Y-50321D01*
X81850Y-50235D01*
X81755Y-50195D01*
X81654Y-50175D01*
X81551Y-50174D01*
X81450Y-50193D01*
X81355Y-50232D01*
X81349Y-50235D01*
X81320Y-50321D01*
X81600Y-50601D01*
X81879Y-50321D01*
X81879Y-50519D01*
X81698Y-50700D01*
X81978Y-50979D01*
X82064Y-50950D01*
X82100Y-50865D01*
X82132Y-50944D01*
X82135Y-50950D01*
X82221Y-50979D01*
X82501Y-50700D01*
X82501Y-50897D01*
X82320Y-51078D01*
X82349Y-51164D01*
X82444Y-51204D01*
X82545Y-51224D01*
X82648Y-51225D01*
X82749Y-51206D01*
X82844Y-51167D01*
X82850Y-51164D01*
X82879Y-51078D01*
X82879Y-51434D01*
X82846Y-51401D01*
X82784Y-51359D01*
X82714Y-51330D01*
X82640Y-51314D01*
X82564Y-51314D01*
X82490Y-51328D01*
X82420Y-51356D01*
X82357Y-51398D01*
X82303Y-51451D01*
X82260Y-51513D01*
X82230Y-51582D01*
X82215Y-51656D01*
X82214Y-51732D01*
X82227Y-51806D01*
X82255Y-51876D01*
X82296Y-51940D01*
X82349Y-51994D01*
X82411Y-52037D01*
X82480Y-52068D01*
X82554Y-52084D01*
X82629Y-52085D01*
X82704Y-52072D01*
X82774Y-52045D01*
X82838Y-52005D01*
X82893Y-51952D01*
X82936Y-51891D01*
X82967Y-51822D01*
X82984Y-51748D01*
X82985Y-51662D01*
X82985Y-54822D01*
X82978Y-54820D01*
X82879Y-54919D01*
X82879Y-54721D01*
X82850Y-54635D01*
X82755Y-54595D01*
X82654Y-54575D01*
X82551Y-54574D01*
X82450Y-54593D01*
X82355Y-54632D01*
X82349Y-54635D01*
X82320Y-54721D01*
X82600Y-55001D01*
X82879Y-54721D01*
X82879Y-54919D01*
X82698Y-55100D01*
X82978Y-55379D01*
X83064Y-55350D01*
X83104Y-55255D01*
X83124Y-55154D01*
X83125Y-55051D01*
X83125Y-57457D01*
X83078Y-57471D01*
X82985Y-57481D01*
X82985Y-56062D01*
X82970Y-55988D01*
X82941Y-55918D01*
X82900Y-55855D01*
X82879Y-55834D01*
X82879Y-55478D01*
X82600Y-55198D01*
X82501Y-55297D01*
X82501Y-55100D01*
X82221Y-54820D01*
X82135Y-54849D01*
X82099Y-54934D01*
X82067Y-54855D01*
X82064Y-54849D01*
X81985Y-54822D01*
X81985Y-51662D01*
X81970Y-51588D01*
X81941Y-51518D01*
X81900Y-51455D01*
X81879Y-51434D01*
X81879Y-51078D01*
X81600Y-50798D01*
X81501Y-50897D01*
X81501Y-50700D01*
X81221Y-50420D01*
X81135Y-50449D01*
X81099Y-50534D01*
X81067Y-50455D01*
X81064Y-50449D01*
X80978Y-50420D01*
X80879Y-50519D01*
X80879Y-50321D01*
X80850Y-50235D01*
X80755Y-50195D01*
X80654Y-50175D01*
X80551Y-50174D01*
X80450Y-50193D01*
X80355Y-50232D01*
X80349Y-50235D01*
X80320Y-50321D01*
X80600Y-50601D01*
X80879Y-50321D01*
X80879Y-50519D01*
X80698Y-50700D01*
X80978Y-50979D01*
X81064Y-50950D01*
X81100Y-50865D01*
X81132Y-50944D01*
X81135Y-50950D01*
X81221Y-50979D01*
X81501Y-50700D01*
X81501Y-50897D01*
X81320Y-51078D01*
X81349Y-51164D01*
X81444Y-51204D01*
X81545Y-51224D01*
X81648Y-51225D01*
X81749Y-51206D01*
X81844Y-51167D01*
X81850Y-51164D01*
X81879Y-51078D01*
X81879Y-51434D01*
X81846Y-51401D01*
X81784Y-51359D01*
X81714Y-51330D01*
X81640Y-51314D01*
X81564Y-51314D01*
X81490Y-51328D01*
X81420Y-51356D01*
X81357Y-51398D01*
X81303Y-51451D01*
X81260Y-51513D01*
X81230Y-51582D01*
X81215Y-51656D01*
X81214Y-51732D01*
X81227Y-51806D01*
X81255Y-51876D01*
X81296Y-51940D01*
X81349Y-51994D01*
X81411Y-52037D01*
X81480Y-52068D01*
X81554Y-52084D01*
X81629Y-52085D01*
X81704Y-52072D01*
X81774Y-52045D01*
X81838Y-52005D01*
X81893Y-51952D01*
X81936Y-51891D01*
X81967Y-51822D01*
X81984Y-51748D01*
X81985Y-51662D01*
X81985Y-54822D01*
X81978Y-54820D01*
X81879Y-54919D01*
X81879Y-54721D01*
X81850Y-54635D01*
X81755Y-54595D01*
X81654Y-54575D01*
X81551Y-54574D01*
X81450Y-54593D01*
X81355Y-54632D01*
X81349Y-54635D01*
X81320Y-54721D01*
X81600Y-55001D01*
X81879Y-54721D01*
X81879Y-54919D01*
X81698Y-55100D01*
X81978Y-55379D01*
X82064Y-55350D01*
X82100Y-55265D01*
X82132Y-55344D01*
X82135Y-55350D01*
X82221Y-55379D01*
X82501Y-55100D01*
X82501Y-55297D01*
X82320Y-55478D01*
X82349Y-55564D01*
X82444Y-55604D01*
X82545Y-55624D01*
X82648Y-55625D01*
X82749Y-55606D01*
X82844Y-55567D01*
X82850Y-55564D01*
X82879Y-55478D01*
X82879Y-55834D01*
X82846Y-55801D01*
X82784Y-55759D01*
X82714Y-55730D01*
X82640Y-55714D01*
X82564Y-55714D01*
X82490Y-55728D01*
X82420Y-55756D01*
X82357Y-55798D01*
X82303Y-55851D01*
X82260Y-55913D01*
X82230Y-55982D01*
X82215Y-56056D01*
X82214Y-56132D01*
X82227Y-56206D01*
X82255Y-56276D01*
X82296Y-56340D01*
X82349Y-56394D01*
X82411Y-56437D01*
X82480Y-56468D01*
X82554Y-56484D01*
X82629Y-56485D01*
X82704Y-56472D01*
X82774Y-56445D01*
X82838Y-56405D01*
X82893Y-56352D01*
X82936Y-56291D01*
X82967Y-56222D01*
X82984Y-56148D01*
X82985Y-56062D01*
X82985Y-57481D01*
X82901Y-57490D01*
X82899Y-57490D01*
X81985Y-57490D01*
X81985Y-56062D01*
X81970Y-55988D01*
X81941Y-55918D01*
X81900Y-55855D01*
X81879Y-55834D01*
X81879Y-55478D01*
X81600Y-55198D01*
X81501Y-55297D01*
X81501Y-55100D01*
X81221Y-54820D01*
X81135Y-54849D01*
X81099Y-54934D01*
X81067Y-54855D01*
X81064Y-54849D01*
X80985Y-54822D01*
X80985Y-51662D01*
X80970Y-51588D01*
X80941Y-51518D01*
X80900Y-51455D01*
X80879Y-51434D01*
X80879Y-51078D01*
X80600Y-50798D01*
X80501Y-50897D01*
X80501Y-50700D01*
X80221Y-50420D01*
X80135Y-50449D01*
X80099Y-50534D01*
X80067Y-50455D01*
X80064Y-50449D01*
X79978Y-50420D01*
X79879Y-50519D01*
X79879Y-50321D01*
X79850Y-50235D01*
X79755Y-50195D01*
X79654Y-50175D01*
X79551Y-50174D01*
X79450Y-50193D01*
X79355Y-50232D01*
X79349Y-50235D01*
X79320Y-50321D01*
X79600Y-50601D01*
X79879Y-50321D01*
X79879Y-50519D01*
X79698Y-50700D01*
X79978Y-50979D01*
X80064Y-50950D01*
X80100Y-50865D01*
X80132Y-50944D01*
X80135Y-50950D01*
X80221Y-50979D01*
X80501Y-50700D01*
X80501Y-50897D01*
X80320Y-51078D01*
X80349Y-51164D01*
X80444Y-51204D01*
X80545Y-51224D01*
X80648Y-51225D01*
X80749Y-51206D01*
X80844Y-51167D01*
X80850Y-51164D01*
X80879Y-51078D01*
X80879Y-51434D01*
X80846Y-51401D01*
X80784Y-51359D01*
X80714Y-51330D01*
X80640Y-51314D01*
X80564Y-51314D01*
X80490Y-51328D01*
X80420Y-51356D01*
X80357Y-51398D01*
X80303Y-51451D01*
X80260Y-51513D01*
X80230Y-51582D01*
X80215Y-51656D01*
X80214Y-51732D01*
X80227Y-51806D01*
X80255Y-51876D01*
X80296Y-51940D01*
X80349Y-51994D01*
X80411Y-52037D01*
X80480Y-52068D01*
X80554Y-52084D01*
X80629Y-52085D01*
X80704Y-52072D01*
X80774Y-52045D01*
X80838Y-52005D01*
X80893Y-51952D01*
X80936Y-51891D01*
X80967Y-51822D01*
X80984Y-51748D01*
X80985Y-51662D01*
X80985Y-54822D01*
X80978Y-54820D01*
X80879Y-54919D01*
X80879Y-54721D01*
X80850Y-54635D01*
X80755Y-54595D01*
X80654Y-54575D01*
X80551Y-54574D01*
X80450Y-54593D01*
X80355Y-54632D01*
X80349Y-54635D01*
X80320Y-54721D01*
X80600Y-55001D01*
X80879Y-54721D01*
X80879Y-54919D01*
X80698Y-55100D01*
X80978Y-55379D01*
X81064Y-55350D01*
X81100Y-55265D01*
X81132Y-55344D01*
X81135Y-55350D01*
X81221Y-55379D01*
X81501Y-55100D01*
X81501Y-55297D01*
X81320Y-55478D01*
X81349Y-55564D01*
X81444Y-55604D01*
X81545Y-55624D01*
X81648Y-55625D01*
X81749Y-55606D01*
X81844Y-55567D01*
X81850Y-55564D01*
X81879Y-55478D01*
X81879Y-55834D01*
X81846Y-55801D01*
X81784Y-55759D01*
X81714Y-55730D01*
X81640Y-55714D01*
X81564Y-55714D01*
X81490Y-55728D01*
X81420Y-55756D01*
X81357Y-55798D01*
X81303Y-55851D01*
X81260Y-55913D01*
X81230Y-55982D01*
X81215Y-56056D01*
X81214Y-56132D01*
X81227Y-56206D01*
X81255Y-56276D01*
X81296Y-56340D01*
X81349Y-56394D01*
X81411Y-56437D01*
X81480Y-56468D01*
X81554Y-56484D01*
X81629Y-56485D01*
X81704Y-56472D01*
X81774Y-56445D01*
X81838Y-56405D01*
X81893Y-56352D01*
X81936Y-56291D01*
X81967Y-56222D01*
X81984Y-56148D01*
X81985Y-56062D01*
X81985Y-57490D01*
X80985Y-57490D01*
X80985Y-56062D01*
X80970Y-55988D01*
X80941Y-55918D01*
X80900Y-55855D01*
X80879Y-55834D01*
X80879Y-55478D01*
X80600Y-55198D01*
X80501Y-55297D01*
X80501Y-55100D01*
X80221Y-54820D01*
X80135Y-54849D01*
X80099Y-54934D01*
X80067Y-54855D01*
X80064Y-54849D01*
X79985Y-54822D01*
X79985Y-51662D01*
X79970Y-51588D01*
X79941Y-51518D01*
X79900Y-51455D01*
X79879Y-51434D01*
X79879Y-51078D01*
X79600Y-50798D01*
X79320Y-51078D01*
X79349Y-51164D01*
X79444Y-51204D01*
X79545Y-51224D01*
X79648Y-51225D01*
X79749Y-51206D01*
X79844Y-51167D01*
X79850Y-51164D01*
X79879Y-51078D01*
X79879Y-51434D01*
X79846Y-51401D01*
X79784Y-51359D01*
X79714Y-51330D01*
X79640Y-51314D01*
X79564Y-51314D01*
X79490Y-51328D01*
X79424Y-51355D01*
X79220Y-51150D01*
X79220Y-50978D01*
X79221Y-50979D01*
X79501Y-50700D01*
X79221Y-50420D01*
X79220Y-50421D01*
X79220Y-49700D01*
X79218Y-49688D01*
X79217Y-49677D01*
X79217Y-49677D01*
X79217Y-49676D01*
X79214Y-49666D01*
X79211Y-49655D01*
X79211Y-49654D01*
X79210Y-49654D01*
X79205Y-49644D01*
X79200Y-49634D01*
X79200Y-49634D01*
X79199Y-49633D01*
X79192Y-49624D01*
X79186Y-49616D01*
X79185Y-49615D01*
X79185Y-49615D01*
X79185Y-49615D01*
X79184Y-49615D01*
X76484Y-46915D01*
X76476Y-46908D01*
X76467Y-46900D01*
X76467Y-46900D01*
X76466Y-46900D01*
X76456Y-46895D01*
X76447Y-46889D01*
X76446Y-46889D01*
X76446Y-46889D01*
X76435Y-46885D01*
X76424Y-46882D01*
X76424Y-46882D01*
X76423Y-46882D01*
X76412Y-46881D01*
X76401Y-46880D01*
X76400Y-46880D01*
X76400Y-46880D01*
X76400Y-46880D01*
X76400Y-46880D01*
X75300Y-46880D01*
X75288Y-46881D01*
X75277Y-46882D01*
X75277Y-46882D01*
X75276Y-46882D01*
X75266Y-46885D01*
X75255Y-46888D01*
X75254Y-46888D01*
X75254Y-46889D01*
X75244Y-46894D01*
X75234Y-46899D01*
X75234Y-46899D01*
X75233Y-46900D01*
X75224Y-46907D01*
X75216Y-46913D01*
X75215Y-46914D01*
X75215Y-46914D01*
X75215Y-46914D01*
X75215Y-46915D01*
X75025Y-47104D01*
X74786Y-47104D01*
X74768Y-47108D01*
X74752Y-47115D01*
X74737Y-47124D01*
X74725Y-47137D01*
X74715Y-47151D01*
X74708Y-47168D01*
X74705Y-47185D01*
X74704Y-47203D01*
X74704Y-47435D01*
X74695Y-47425D01*
X74695Y-47186D01*
X74691Y-47168D01*
X74684Y-47152D01*
X74675Y-47137D01*
X74662Y-47125D01*
X74648Y-47115D01*
X74631Y-47108D01*
X74614Y-47105D01*
X74596Y-47104D01*
X74286Y-47104D01*
X74268Y-47108D01*
X74252Y-47115D01*
X74237Y-47124D01*
X74225Y-47137D01*
X74215Y-47151D01*
X74208Y-47168D01*
X74205Y-47185D01*
X74204Y-47203D01*
X74204Y-47435D01*
X74195Y-47425D01*
X74195Y-47186D01*
X74191Y-47168D01*
X74184Y-47152D01*
X74175Y-47137D01*
X74162Y-47125D01*
X74148Y-47115D01*
X74131Y-47108D01*
X74114Y-47105D01*
X74096Y-47104D01*
X73786Y-47104D01*
X73768Y-47108D01*
X73752Y-47115D01*
X73737Y-47124D01*
X73725Y-47137D01*
X73715Y-47151D01*
X73708Y-47168D01*
X73705Y-47185D01*
X73704Y-47203D01*
X73704Y-47513D01*
X73708Y-47531D01*
X73715Y-47547D01*
X73724Y-47562D01*
X73737Y-47574D01*
X73751Y-47584D01*
X73768Y-47591D01*
X73785Y-47594D01*
X73803Y-47595D01*
X74025Y-47595D01*
X74035Y-47604D01*
X73786Y-47604D01*
X73768Y-47608D01*
X73752Y-47615D01*
X73737Y-47624D01*
X73725Y-47637D01*
X73715Y-47651D01*
X73708Y-47668D01*
X73705Y-47685D01*
X73704Y-47703D01*
X73704Y-48013D01*
X73708Y-48031D01*
X73715Y-48047D01*
X73724Y-48062D01*
X73737Y-48074D01*
X73751Y-48084D01*
X73768Y-48091D01*
X73785Y-48094D01*
X73803Y-48095D01*
X73830Y-48095D01*
X73830Y-50350D01*
X73831Y-50361D01*
X73832Y-50372D01*
X73832Y-50372D01*
X73832Y-50373D01*
X73835Y-50383D01*
X73838Y-50394D01*
X73838Y-50395D01*
X73839Y-50395D01*
X73839Y-50396D01*
X73784Y-50359D01*
X73714Y-50330D01*
X73640Y-50314D01*
X73564Y-50314D01*
X73490Y-50328D01*
X73420Y-50356D01*
X73357Y-50398D01*
X73303Y-50451D01*
X73260Y-50513D01*
X73230Y-50582D01*
X73215Y-50656D01*
X73214Y-50732D01*
X73227Y-50806D01*
X73255Y-50876D01*
X73296Y-50940D01*
X73349Y-50994D01*
X73411Y-51037D01*
X73480Y-51068D01*
X73554Y-51084D01*
X73629Y-51085D01*
X73704Y-51072D01*
X73774Y-51045D01*
X73838Y-51005D01*
X73893Y-50952D01*
X73936Y-50891D01*
X73967Y-50822D01*
X73980Y-50766D01*
X73980Y-51150D01*
X73774Y-51355D01*
X73714Y-51330D01*
X73640Y-51314D01*
X73564Y-51314D01*
X73490Y-51328D01*
X73420Y-51356D01*
X73357Y-51398D01*
X73303Y-51451D01*
X73260Y-51513D01*
X73230Y-51582D01*
X73215Y-51656D01*
X73214Y-51732D01*
X73227Y-51806D01*
X73255Y-51876D01*
X73296Y-51940D01*
X73349Y-51994D01*
X73411Y-52037D01*
X73480Y-52068D01*
X73554Y-52084D01*
X73629Y-52085D01*
X73704Y-52072D01*
X73774Y-52045D01*
X73838Y-52005D01*
X73893Y-51952D01*
X73936Y-51891D01*
X73967Y-51822D01*
X73984Y-51748D01*
X73985Y-51662D01*
X73970Y-51588D01*
X73944Y-51525D01*
X74184Y-51284D01*
X74191Y-51276D01*
X74199Y-51267D01*
X74199Y-51267D01*
X74199Y-51266D01*
X74204Y-51256D01*
X74210Y-51247D01*
X74210Y-51246D01*
X74210Y-51246D01*
X74214Y-51235D01*
X74217Y-51224D01*
X74217Y-51224D01*
X74217Y-51223D01*
X74218Y-51212D01*
X74219Y-51201D01*
X74219Y-51200D01*
X74219Y-51200D01*
X74219Y-51200D01*
X74220Y-51200D01*
X74220Y-50978D01*
X74221Y-50979D01*
X74501Y-50700D01*
X74221Y-50420D01*
X74196Y-50429D01*
X74192Y-50424D01*
X74186Y-50416D01*
X74185Y-50415D01*
X74185Y-50415D01*
X74185Y-50415D01*
X74184Y-50415D01*
X74070Y-50300D01*
X74070Y-48095D01*
X74080Y-48095D01*
X74080Y-48600D01*
X74081Y-48611D01*
X74082Y-48622D01*
X74082Y-48622D01*
X74082Y-48623D01*
X74085Y-48633D01*
X74088Y-48644D01*
X74088Y-48645D01*
X74089Y-48645D01*
X74094Y-48655D01*
X74099Y-48665D01*
X74099Y-48665D01*
X74100Y-48666D01*
X74107Y-48675D01*
X74113Y-48683D01*
X74114Y-48684D01*
X74114Y-48684D01*
X74114Y-48684D01*
X74115Y-48684D01*
X75605Y-50174D01*
X75551Y-50174D01*
X75450Y-50193D01*
X75355Y-50232D01*
X75349Y-50235D01*
X75320Y-50321D01*
X75600Y-50601D01*
X75605Y-50595D01*
X75704Y-50694D01*
X75698Y-50700D01*
X75978Y-50979D01*
X75980Y-50978D01*
X75980Y-51200D01*
X75981Y-51211D01*
X75982Y-51222D01*
X75982Y-51222D01*
X75982Y-51223D01*
X75985Y-51233D01*
X75988Y-51244D01*
X75988Y-51245D01*
X75989Y-51245D01*
X75994Y-51255D01*
X75999Y-51265D01*
X75999Y-51265D01*
X76000Y-51266D01*
X76007Y-51275D01*
X76013Y-51283D01*
X76014Y-51284D01*
X76014Y-51284D01*
X76014Y-51284D01*
X76015Y-51284D01*
X76255Y-51525D01*
X76230Y-51582D01*
X76215Y-51656D01*
X76214Y-51732D01*
X76227Y-51806D01*
X76255Y-51876D01*
X76296Y-51940D01*
X76349Y-51994D01*
X76411Y-52037D01*
X76480Y-52068D01*
X76554Y-52084D01*
X76629Y-52085D01*
X76704Y-52072D01*
X76774Y-52045D01*
X76838Y-52005D01*
X76893Y-51952D01*
X76936Y-51891D01*
X76967Y-51822D01*
X76984Y-51748D01*
X76985Y-51662D01*
X76970Y-51588D01*
X76941Y-51518D01*
X76900Y-51455D01*
X76879Y-51434D01*
X76879Y-51078D01*
X76600Y-50798D01*
X76320Y-51078D01*
X76349Y-51164D01*
X76444Y-51204D01*
X76545Y-51224D01*
X76648Y-51225D01*
X76749Y-51206D01*
X76844Y-51167D01*
X76850Y-51164D01*
X76879Y-51078D01*
X76879Y-51434D01*
X76846Y-51401D01*
X76784Y-51359D01*
X76714Y-51330D01*
X76640Y-51314D01*
X76564Y-51314D01*
X76490Y-51328D01*
X76424Y-51355D01*
X76220Y-51150D01*
X76220Y-50978D01*
X76221Y-50979D01*
X76501Y-50700D01*
X76221Y-50420D01*
X76196Y-50429D01*
X76192Y-50424D01*
X76186Y-50416D01*
X76185Y-50415D01*
X76185Y-50415D01*
X76185Y-50415D01*
X76184Y-50415D01*
X74320Y-48550D01*
X74320Y-48235D01*
X74322Y-48235D01*
X74380Y-48177D01*
X74380Y-47920D01*
X74372Y-47920D01*
X74372Y-47780D01*
X74380Y-47780D01*
X74380Y-47772D01*
X74520Y-47772D01*
X74520Y-47780D01*
X74527Y-47780D01*
X74527Y-47920D01*
X74520Y-47920D01*
X74520Y-48177D01*
X74577Y-48235D01*
X74580Y-48235D01*
X74580Y-48600D01*
X74581Y-48611D01*
X74582Y-48622D01*
X74582Y-48622D01*
X74582Y-48623D01*
X74585Y-48633D01*
X74588Y-48644D01*
X74588Y-48645D01*
X74589Y-48645D01*
X74594Y-48655D01*
X74599Y-48665D01*
X74599Y-48665D01*
X74600Y-48666D01*
X74607Y-48675D01*
X74613Y-48683D01*
X74614Y-48684D01*
X74614Y-48684D01*
X74614Y-48684D01*
X74615Y-48684D01*
X75965Y-50034D01*
X75973Y-50041D01*
X75982Y-50049D01*
X75982Y-50049D01*
X75983Y-50049D01*
X75993Y-50054D01*
X76002Y-50060D01*
X76003Y-50060D01*
X76003Y-50060D01*
X76014Y-50064D01*
X76025Y-50067D01*
X76025Y-50067D01*
X76026Y-50067D01*
X76037Y-50068D01*
X76048Y-50069D01*
X76049Y-50069D01*
X76049Y-50069D01*
X76049Y-50069D01*
X76050Y-50070D01*
X76500Y-50070D01*
X76605Y-50174D01*
X76551Y-50174D01*
X76450Y-50193D01*
X76355Y-50232D01*
X76349Y-50235D01*
X76320Y-50321D01*
X76600Y-50601D01*
X76605Y-50595D01*
X76704Y-50694D01*
X76698Y-50700D01*
X76978Y-50979D01*
X76980Y-50978D01*
X76980Y-51200D01*
X76981Y-51211D01*
X76982Y-51222D01*
X76982Y-51222D01*
X76982Y-51223D01*
X76985Y-51233D01*
X76988Y-51244D01*
X76988Y-51245D01*
X76989Y-51245D01*
X76994Y-51255D01*
X76999Y-51265D01*
X76999Y-51265D01*
X77000Y-51266D01*
X77007Y-51275D01*
X77013Y-51283D01*
X77014Y-51284D01*
X77014Y-51284D01*
X77014Y-51284D01*
X77015Y-51284D01*
X77255Y-51525D01*
X77230Y-51582D01*
X77215Y-51656D01*
X77214Y-51732D01*
X77227Y-51806D01*
X77255Y-51876D01*
X77296Y-51940D01*
X77349Y-51994D01*
X77411Y-52037D01*
X77480Y-52068D01*
X77554Y-52084D01*
X77629Y-52085D01*
X77704Y-52072D01*
X77774Y-52045D01*
X77838Y-52005D01*
X77893Y-51952D01*
X77936Y-51891D01*
X77967Y-51822D01*
X77984Y-51748D01*
X77985Y-51662D01*
X77970Y-51588D01*
X77941Y-51518D01*
X77900Y-51455D01*
X77879Y-51434D01*
X77879Y-51078D01*
X77600Y-50798D01*
X77320Y-51078D01*
X77349Y-51164D01*
X77444Y-51204D01*
X77545Y-51224D01*
X77648Y-51225D01*
X77749Y-51206D01*
X77844Y-51167D01*
X77850Y-51164D01*
X77879Y-51078D01*
X77879Y-51434D01*
X77846Y-51401D01*
X77784Y-51359D01*
X77714Y-51330D01*
X77640Y-51314D01*
X77564Y-51314D01*
X77490Y-51328D01*
X77424Y-51355D01*
X77220Y-51150D01*
X77220Y-50978D01*
X77221Y-50979D01*
X77501Y-50700D01*
X77221Y-50420D01*
X77196Y-50429D01*
X77192Y-50424D01*
X77186Y-50416D01*
X77185Y-50415D01*
X77185Y-50415D01*
X77185Y-50415D01*
X77184Y-50415D01*
X76839Y-50070D01*
X77500Y-50070D01*
X77605Y-50174D01*
X77551Y-50174D01*
X77450Y-50193D01*
X77355Y-50232D01*
X77349Y-50235D01*
X77320Y-50321D01*
X77600Y-50601D01*
X77605Y-50595D01*
X77704Y-50694D01*
X77698Y-50700D01*
X77978Y-50979D01*
X77980Y-50978D01*
X77980Y-51200D01*
X77981Y-51211D01*
X77982Y-51222D01*
X77982Y-51222D01*
X77982Y-51223D01*
X77985Y-51233D01*
X77988Y-51244D01*
X77988Y-51245D01*
X77989Y-51245D01*
X77994Y-51255D01*
X77999Y-51265D01*
X77999Y-51265D01*
X78000Y-51266D01*
X78007Y-51275D01*
X78013Y-51283D01*
X78014Y-51284D01*
X78014Y-51284D01*
X78014Y-51284D01*
X78015Y-51284D01*
X78255Y-51525D01*
X78230Y-51582D01*
X78215Y-51656D01*
X78214Y-51732D01*
X78227Y-51806D01*
X78255Y-51876D01*
X78296Y-51940D01*
X78349Y-51994D01*
X78411Y-52037D01*
X78480Y-52068D01*
X78554Y-52084D01*
X78629Y-52085D01*
X78704Y-52072D01*
X78774Y-52045D01*
X78838Y-52005D01*
X78893Y-51952D01*
X78936Y-51891D01*
X78967Y-51822D01*
X78984Y-51748D01*
X78985Y-51662D01*
X78970Y-51588D01*
X78941Y-51518D01*
X78900Y-51455D01*
X78879Y-51434D01*
X78879Y-51078D01*
X78600Y-50798D01*
X78320Y-51078D01*
X78349Y-51164D01*
X78444Y-51204D01*
X78545Y-51224D01*
X78648Y-51225D01*
X78749Y-51206D01*
X78844Y-51167D01*
X78850Y-51164D01*
X78879Y-51078D01*
X78879Y-51434D01*
X78846Y-51401D01*
X78784Y-51359D01*
X78714Y-51330D01*
X78640Y-51314D01*
X78564Y-51314D01*
X78490Y-51328D01*
X78424Y-51355D01*
X78220Y-51150D01*
X78220Y-50978D01*
X78221Y-50979D01*
X78501Y-50700D01*
X78221Y-50420D01*
X78196Y-50429D01*
X78192Y-50424D01*
X78186Y-50416D01*
X78185Y-50415D01*
X78185Y-50415D01*
X78185Y-50415D01*
X78184Y-50415D01*
X77634Y-49865D01*
X77626Y-49858D01*
X77617Y-49850D01*
X77617Y-49850D01*
X77616Y-49850D01*
X77606Y-49845D01*
X77597Y-49839D01*
X77596Y-49839D01*
X77596Y-49839D01*
X77585Y-49835D01*
X77574Y-49832D01*
X77574Y-49832D01*
X77573Y-49832D01*
X77562Y-49831D01*
X77551Y-49830D01*
X77550Y-49830D01*
X77550Y-49830D01*
X77550Y-49830D01*
X77550Y-49830D01*
X76849Y-49830D01*
X75570Y-48550D01*
X75570Y-48095D01*
X75613Y-48095D01*
X75631Y-48091D01*
X75647Y-48084D01*
X75662Y-48075D01*
X75674Y-48062D01*
X75684Y-48048D01*
X75691Y-48031D01*
X75694Y-48014D01*
X75695Y-47996D01*
X75695Y-47720D01*
X75704Y-47720D01*
X75704Y-48013D01*
X75708Y-48031D01*
X75715Y-48047D01*
X75724Y-48062D01*
X75737Y-48074D01*
X75751Y-48084D01*
X75768Y-48091D01*
X75785Y-48094D01*
X75803Y-48095D01*
X76113Y-48095D01*
X76131Y-48091D01*
X76147Y-48084D01*
X76162Y-48075D01*
X76174Y-48062D01*
X76184Y-48048D01*
X76191Y-48031D01*
X76194Y-48014D01*
X76195Y-47996D01*
X76195Y-47720D01*
X76546Y-47720D01*
X76535Y-47770D01*
X76534Y-47822D01*
X76544Y-47873D01*
X76563Y-47921D01*
X76591Y-47965D01*
X76627Y-48002D01*
X76670Y-48032D01*
X76717Y-48053D01*
X76768Y-48064D01*
X76820Y-48065D01*
X76871Y-48056D01*
X76920Y-48037D01*
X76963Y-48009D01*
X77001Y-47973D01*
X77031Y-47931D01*
X77052Y-47884D01*
X77064Y-47833D01*
X78980Y-49749D01*
X78980Y-50421D01*
X78978Y-50420D01*
X78879Y-50519D01*
X78879Y-50321D01*
X78850Y-50235D01*
X78755Y-50195D01*
X78654Y-50175D01*
X78551Y-50174D01*
X78450Y-50193D01*
X78355Y-50232D01*
X78349Y-50235D01*
X78320Y-50321D01*
X78600Y-50601D01*
X78879Y-50321D01*
X78879Y-50519D01*
X78698Y-50700D01*
X78978Y-50979D01*
X78980Y-50978D01*
X78980Y-51200D01*
X78981Y-51211D01*
X78982Y-51222D01*
X78982Y-51222D01*
X78982Y-51223D01*
X78985Y-51233D01*
X78988Y-51244D01*
X78988Y-51245D01*
X78989Y-51245D01*
X78994Y-51255D01*
X78999Y-51265D01*
X78999Y-51265D01*
X79000Y-51266D01*
X79007Y-51275D01*
X79013Y-51283D01*
X79014Y-51284D01*
X79014Y-51284D01*
X79014Y-51284D01*
X79015Y-51284D01*
X79255Y-51525D01*
X79230Y-51582D01*
X79215Y-51656D01*
X79214Y-51732D01*
X79227Y-51806D01*
X79255Y-51876D01*
X79296Y-51940D01*
X79349Y-51994D01*
X79411Y-52037D01*
X79480Y-52068D01*
X79554Y-52084D01*
X79629Y-52085D01*
X79704Y-52072D01*
X79774Y-52045D01*
X79838Y-52005D01*
X79893Y-51952D01*
X79936Y-51891D01*
X79967Y-51822D01*
X79984Y-51748D01*
X79985Y-51662D01*
X79985Y-54822D01*
X79978Y-54820D01*
X79879Y-54919D01*
X79879Y-54721D01*
X79850Y-54635D01*
X79755Y-54595D01*
X79654Y-54575D01*
X79551Y-54574D01*
X79450Y-54593D01*
X79355Y-54632D01*
X79349Y-54635D01*
X79320Y-54721D01*
X79600Y-55001D01*
X79879Y-54721D01*
X79879Y-54919D01*
X79698Y-55100D01*
X79978Y-55379D01*
X80064Y-55350D01*
X80100Y-55265D01*
X80132Y-55344D01*
X80135Y-55350D01*
X80221Y-55379D01*
X80501Y-55100D01*
X80501Y-55297D01*
X80320Y-55478D01*
X80349Y-55564D01*
X80444Y-55604D01*
X80545Y-55624D01*
X80648Y-55625D01*
X80749Y-55606D01*
X80844Y-55567D01*
X80850Y-55564D01*
X80879Y-55478D01*
X80879Y-55834D01*
X80846Y-55801D01*
X80784Y-55759D01*
X80714Y-55730D01*
X80640Y-55714D01*
X80564Y-55714D01*
X80490Y-55728D01*
X80420Y-55756D01*
X80357Y-55798D01*
X80303Y-55851D01*
X80260Y-55913D01*
X80230Y-55982D01*
X80215Y-56056D01*
X80214Y-56132D01*
X80227Y-56206D01*
X80255Y-56276D01*
X80296Y-56340D01*
X80349Y-56394D01*
X80411Y-56437D01*
X80480Y-56468D01*
X80554Y-56484D01*
X80629Y-56485D01*
X80704Y-56472D01*
X80774Y-56445D01*
X80838Y-56405D01*
X80893Y-56352D01*
X80936Y-56291D01*
X80967Y-56222D01*
X80984Y-56148D01*
X80985Y-56062D01*
X80985Y-57490D01*
X79985Y-57490D01*
X79985Y-56062D01*
X79970Y-55988D01*
X79941Y-55918D01*
X79900Y-55855D01*
X79879Y-55834D01*
X79879Y-55478D01*
X79600Y-55198D01*
X79501Y-55297D01*
X79501Y-55100D01*
X79221Y-54820D01*
X79135Y-54849D01*
X79099Y-54934D01*
X79067Y-54855D01*
X79064Y-54849D01*
X78978Y-54820D01*
X78879Y-54919D01*
X78879Y-54721D01*
X78850Y-54635D01*
X78755Y-54595D01*
X78654Y-54575D01*
X78551Y-54574D01*
X78450Y-54593D01*
X78355Y-54632D01*
X78349Y-54635D01*
X78320Y-54721D01*
X78600Y-55001D01*
X78879Y-54721D01*
X78879Y-54919D01*
X78698Y-55100D01*
X78978Y-55379D01*
X79064Y-55350D01*
X79100Y-55265D01*
X79132Y-55344D01*
X79135Y-55350D01*
X79221Y-55379D01*
X79501Y-55100D01*
X79501Y-55297D01*
X79320Y-55478D01*
X79349Y-55564D01*
X79444Y-55604D01*
X79545Y-55624D01*
X79648Y-55625D01*
X79749Y-55606D01*
X79844Y-55567D01*
X79850Y-55564D01*
X79879Y-55478D01*
X79879Y-55834D01*
X79846Y-55801D01*
X79784Y-55759D01*
X79714Y-55730D01*
X79640Y-55714D01*
X79564Y-55714D01*
X79490Y-55728D01*
X79420Y-55756D01*
X79357Y-55798D01*
X79303Y-55851D01*
X79260Y-55913D01*
X79230Y-55982D01*
X79215Y-56056D01*
X79214Y-56132D01*
X79227Y-56206D01*
X79255Y-56276D01*
X79296Y-56340D01*
X79349Y-56394D01*
X79411Y-56437D01*
X79480Y-56468D01*
X79554Y-56484D01*
X79629Y-56485D01*
X79704Y-56472D01*
X79774Y-56445D01*
X79838Y-56405D01*
X79893Y-56352D01*
X79936Y-56291D01*
X79967Y-56222D01*
X79984Y-56148D01*
X79985Y-56062D01*
X79985Y-57490D01*
X78985Y-57490D01*
X78985Y-56062D01*
X78970Y-55988D01*
X78941Y-55918D01*
X78900Y-55855D01*
X78879Y-55834D01*
X78879Y-55478D01*
X78600Y-55198D01*
X78501Y-55297D01*
X78501Y-55100D01*
X78221Y-54820D01*
X78135Y-54849D01*
X78099Y-54934D01*
X78067Y-54855D01*
X78064Y-54849D01*
X77978Y-54820D01*
X77879Y-54919D01*
X77879Y-54721D01*
X77850Y-54635D01*
X77755Y-54595D01*
X77654Y-54575D01*
X77551Y-54574D01*
X77450Y-54593D01*
X77355Y-54632D01*
X77349Y-54635D01*
X77320Y-54721D01*
X77600Y-55001D01*
X77879Y-54721D01*
X77879Y-54919D01*
X77698Y-55100D01*
X77978Y-55379D01*
X78064Y-55350D01*
X78100Y-55265D01*
X78132Y-55344D01*
X78135Y-55350D01*
X78221Y-55379D01*
X78501Y-55100D01*
X78501Y-55297D01*
X78320Y-55478D01*
X78349Y-55564D01*
X78444Y-55604D01*
X78545Y-55624D01*
X78648Y-55625D01*
X78749Y-55606D01*
X78844Y-55567D01*
X78850Y-55564D01*
X78879Y-55478D01*
X78879Y-55834D01*
X78846Y-55801D01*
X78784Y-55759D01*
X78714Y-55730D01*
X78640Y-55714D01*
X78564Y-55714D01*
X78490Y-55728D01*
X78420Y-55756D01*
X78357Y-55798D01*
X78303Y-55851D01*
X78260Y-55913D01*
X78230Y-55982D01*
X78215Y-56056D01*
X78214Y-56132D01*
X78227Y-56206D01*
X78255Y-56276D01*
X78296Y-56340D01*
X78349Y-56394D01*
X78411Y-56437D01*
X78480Y-56468D01*
X78554Y-56484D01*
X78629Y-56485D01*
X78704Y-56472D01*
X78774Y-56445D01*
X78838Y-56405D01*
X78893Y-56352D01*
X78936Y-56291D01*
X78967Y-56222D01*
X78984Y-56148D01*
X78985Y-56062D01*
X78985Y-57490D01*
X77985Y-57490D01*
X77985Y-56062D01*
X77970Y-55988D01*
X77941Y-55918D01*
X77900Y-55855D01*
X77879Y-55834D01*
X77879Y-55478D01*
X77600Y-55198D01*
X77501Y-55297D01*
X77501Y-55100D01*
X77221Y-54820D01*
X77135Y-54849D01*
X77099Y-54934D01*
X77067Y-54855D01*
X77064Y-54849D01*
X76978Y-54820D01*
X76879Y-54919D01*
X76879Y-54721D01*
X76850Y-54635D01*
X76755Y-54595D01*
X76654Y-54575D01*
X76551Y-54574D01*
X76450Y-54593D01*
X76355Y-54632D01*
X76349Y-54635D01*
X76320Y-54721D01*
X76600Y-55001D01*
X76879Y-54721D01*
X76879Y-54919D01*
X76698Y-55100D01*
X76978Y-55379D01*
X77064Y-55350D01*
X77100Y-55265D01*
X77132Y-55344D01*
X77135Y-55350D01*
X77221Y-55379D01*
X77501Y-55100D01*
X77501Y-55297D01*
X77320Y-55478D01*
X77349Y-55564D01*
X77444Y-55604D01*
X77545Y-55624D01*
X77648Y-55625D01*
X77749Y-55606D01*
X77844Y-55567D01*
X77850Y-55564D01*
X77879Y-55478D01*
X77879Y-55834D01*
X77846Y-55801D01*
X77784Y-55759D01*
X77714Y-55730D01*
X77640Y-55714D01*
X77564Y-55714D01*
X77490Y-55728D01*
X77420Y-55756D01*
X77357Y-55798D01*
X77303Y-55851D01*
X77260Y-55913D01*
X77230Y-55982D01*
X77215Y-56056D01*
X77214Y-56132D01*
X77227Y-56206D01*
X77255Y-56276D01*
X77296Y-56340D01*
X77349Y-56394D01*
X77411Y-56437D01*
X77480Y-56468D01*
X77554Y-56484D01*
X77629Y-56485D01*
X77704Y-56472D01*
X77774Y-56445D01*
X77838Y-56405D01*
X77893Y-56352D01*
X77936Y-56291D01*
X77967Y-56222D01*
X77984Y-56148D01*
X77985Y-56062D01*
X77985Y-57490D01*
X76985Y-57490D01*
X76985Y-56062D01*
X76970Y-55988D01*
X76941Y-55918D01*
X76900Y-55855D01*
X76879Y-55834D01*
X76879Y-55478D01*
X76600Y-55198D01*
X76501Y-55297D01*
X76501Y-55100D01*
X76221Y-54820D01*
X76135Y-54849D01*
X76099Y-54934D01*
X76067Y-54855D01*
X76064Y-54849D01*
X75985Y-54822D01*
X75985Y-51662D01*
X75970Y-51588D01*
X75941Y-51518D01*
X75900Y-51455D01*
X75879Y-51434D01*
X75879Y-51078D01*
X75600Y-50798D01*
X75320Y-51078D01*
X75349Y-51164D01*
X75444Y-51204D01*
X75545Y-51224D01*
X75648Y-51225D01*
X75749Y-51206D01*
X75844Y-51167D01*
X75850Y-51164D01*
X75879Y-51078D01*
X75879Y-51434D01*
X75846Y-51401D01*
X75784Y-51359D01*
X75714Y-51330D01*
X75640Y-51314D01*
X75564Y-51314D01*
X75490Y-51328D01*
X75424Y-51355D01*
X75220Y-51150D01*
X75220Y-50978D01*
X75221Y-50979D01*
X75501Y-50700D01*
X75221Y-50420D01*
X75216Y-50422D01*
X75214Y-50416D01*
X75211Y-50405D01*
X75211Y-50404D01*
X75210Y-50404D01*
X75205Y-50394D01*
X75200Y-50384D01*
X75200Y-50384D01*
X75199Y-50383D01*
X75192Y-50374D01*
X75186Y-50366D01*
X75185Y-50365D01*
X75185Y-50365D01*
X75185Y-50365D01*
X75184Y-50365D01*
X75120Y-50300D01*
X75120Y-50237D01*
X75120Y-50237D01*
X75163Y-50209D01*
X75201Y-50173D01*
X75231Y-50131D01*
X75252Y-50084D01*
X75264Y-50033D01*
X75265Y-49974D01*
X75254Y-49923D01*
X75235Y-49874D01*
X75206Y-49831D01*
X75169Y-49794D01*
X75126Y-49765D01*
X75078Y-49745D01*
X75027Y-49735D01*
X74975Y-49734D01*
X74924Y-49744D01*
X74876Y-49764D01*
X74833Y-49792D01*
X74796Y-49828D01*
X74766Y-49871D01*
X74746Y-49919D01*
X74735Y-49970D01*
X74734Y-50022D01*
X74744Y-50073D01*
X74763Y-50121D01*
X74791Y-50165D01*
X74827Y-50202D01*
X74870Y-50232D01*
X74880Y-50236D01*
X74880Y-50321D01*
X74879Y-50321D01*
X74850Y-50235D01*
X74755Y-50195D01*
X74654Y-50175D01*
X74551Y-50174D01*
X74450Y-50193D01*
X74355Y-50232D01*
X74349Y-50235D01*
X74320Y-50321D01*
X74600Y-50601D01*
X74605Y-50595D01*
X74704Y-50694D01*
X74698Y-50700D01*
X74978Y-50979D01*
X74980Y-50978D01*
X74980Y-51200D01*
X74981Y-51211D01*
X74982Y-51222D01*
X74982Y-51222D01*
X74982Y-51223D01*
X74985Y-51233D01*
X74988Y-51244D01*
X74988Y-51245D01*
X74989Y-51245D01*
X74994Y-51255D01*
X74999Y-51265D01*
X74999Y-51265D01*
X75000Y-51266D01*
X75007Y-51275D01*
X75013Y-51283D01*
X75014Y-51284D01*
X75014Y-51284D01*
X75014Y-51284D01*
X75015Y-51284D01*
X75255Y-51525D01*
X75230Y-51582D01*
X75215Y-51656D01*
X75214Y-51732D01*
X75227Y-51806D01*
X75255Y-51876D01*
X75296Y-51940D01*
X75349Y-51994D01*
X75411Y-52037D01*
X75480Y-52068D01*
X75554Y-52084D01*
X75629Y-52085D01*
X75704Y-52072D01*
X75774Y-52045D01*
X75838Y-52005D01*
X75893Y-51952D01*
X75936Y-51891D01*
X75967Y-51822D01*
X75984Y-51748D01*
X75985Y-51662D01*
X75985Y-54822D01*
X75978Y-54820D01*
X75879Y-54919D01*
X75879Y-54721D01*
X75850Y-54635D01*
X75755Y-54595D01*
X75654Y-54575D01*
X75551Y-54574D01*
X75450Y-54593D01*
X75355Y-54632D01*
X75349Y-54635D01*
X75320Y-54721D01*
X75600Y-55001D01*
X75879Y-54721D01*
X75879Y-54919D01*
X75698Y-55100D01*
X75978Y-55379D01*
X76064Y-55350D01*
X76100Y-55265D01*
X76132Y-55344D01*
X76135Y-55350D01*
X76221Y-55379D01*
X76501Y-55100D01*
X76501Y-55297D01*
X76320Y-55478D01*
X76349Y-55564D01*
X76444Y-55604D01*
X76545Y-55624D01*
X76648Y-55625D01*
X76749Y-55606D01*
X76844Y-55567D01*
X76850Y-55564D01*
X76879Y-55478D01*
X76879Y-55834D01*
X76846Y-55801D01*
X76784Y-55759D01*
X76714Y-55730D01*
X76640Y-55714D01*
X76564Y-55714D01*
X76490Y-55728D01*
X76420Y-55756D01*
X76357Y-55798D01*
X76303Y-55851D01*
X76260Y-55913D01*
X76230Y-55982D01*
X76215Y-56056D01*
X76214Y-56132D01*
X76227Y-56206D01*
X76255Y-56276D01*
X76296Y-56340D01*
X76349Y-56394D01*
X76411Y-56437D01*
X76480Y-56468D01*
X76554Y-56484D01*
X76629Y-56485D01*
X76704Y-56472D01*
X76774Y-56445D01*
X76838Y-56405D01*
X76893Y-56352D01*
X76936Y-56291D01*
X76967Y-56222D01*
X76984Y-56148D01*
X76985Y-56062D01*
X76985Y-57490D01*
X75985Y-57490D01*
X75985Y-56062D01*
X75970Y-55988D01*
X75941Y-55918D01*
X75900Y-55855D01*
X75879Y-55834D01*
X75879Y-55478D01*
X75600Y-55198D01*
X75501Y-55297D01*
X75501Y-55100D01*
X75221Y-54820D01*
X75135Y-54849D01*
X75099Y-54934D01*
X75067Y-54855D01*
X75064Y-54849D01*
X74985Y-54822D01*
X74985Y-51662D01*
X74970Y-51588D01*
X74941Y-51518D01*
X74900Y-51455D01*
X74879Y-51434D01*
X74879Y-51078D01*
X74600Y-50798D01*
X74320Y-51078D01*
X74349Y-51164D01*
X74444Y-51204D01*
X74545Y-51224D01*
X74648Y-51225D01*
X74749Y-51206D01*
X74844Y-51167D01*
X74850Y-51164D01*
X74879Y-51078D01*
X74879Y-51434D01*
X74846Y-51401D01*
X74784Y-51359D01*
X74714Y-51330D01*
X74640Y-51314D01*
X74564Y-51314D01*
X74490Y-51328D01*
X74420Y-51356D01*
X74357Y-51398D01*
X74303Y-51451D01*
X74260Y-51513D01*
X74230Y-51582D01*
X74215Y-51656D01*
X74214Y-51732D01*
X74227Y-51806D01*
X74255Y-51876D01*
X74296Y-51940D01*
X74349Y-51994D01*
X74411Y-52037D01*
X74480Y-52068D01*
X74554Y-52084D01*
X74629Y-52085D01*
X74704Y-52072D01*
X74774Y-52045D01*
X74838Y-52005D01*
X74893Y-51952D01*
X74936Y-51891D01*
X74967Y-51822D01*
X74984Y-51748D01*
X74985Y-51662D01*
X74985Y-54822D01*
X74978Y-54820D01*
X74879Y-54919D01*
X74879Y-54721D01*
X74850Y-54635D01*
X74755Y-54595D01*
X74654Y-54575D01*
X74551Y-54574D01*
X74450Y-54593D01*
X74355Y-54632D01*
X74349Y-54635D01*
X74320Y-54721D01*
X74600Y-55001D01*
X74879Y-54721D01*
X74879Y-54919D01*
X74698Y-55100D01*
X74978Y-55379D01*
X75064Y-55350D01*
X75100Y-55265D01*
X75132Y-55344D01*
X75135Y-55350D01*
X75221Y-55379D01*
X75501Y-55100D01*
X75501Y-55297D01*
X75320Y-55478D01*
X75349Y-55564D01*
X75444Y-55604D01*
X75545Y-55624D01*
X75648Y-55625D01*
X75749Y-55606D01*
X75844Y-55567D01*
X75850Y-55564D01*
X75879Y-55478D01*
X75879Y-55834D01*
X75846Y-55801D01*
X75784Y-55759D01*
X75714Y-55730D01*
X75640Y-55714D01*
X75564Y-55714D01*
X75490Y-55728D01*
X75420Y-55756D01*
X75357Y-55798D01*
X75303Y-55851D01*
X75260Y-55913D01*
X75230Y-55982D01*
X75215Y-56056D01*
X75214Y-56132D01*
X75227Y-56206D01*
X75255Y-56276D01*
X75296Y-56340D01*
X75349Y-56394D01*
X75411Y-56437D01*
X75480Y-56468D01*
X75554Y-56484D01*
X75629Y-56485D01*
X75704Y-56472D01*
X75774Y-56445D01*
X75838Y-56405D01*
X75893Y-56352D01*
X75936Y-56291D01*
X75967Y-56222D01*
X75984Y-56148D01*
X75985Y-56062D01*
X75985Y-57490D01*
X74985Y-57490D01*
X74985Y-56062D01*
X74970Y-55988D01*
X74941Y-55918D01*
X74900Y-55855D01*
X74879Y-55834D01*
X74879Y-55478D01*
X74600Y-55198D01*
X74501Y-55297D01*
X74501Y-55100D01*
X74221Y-54820D01*
X74135Y-54849D01*
X74095Y-54944D01*
X74075Y-55045D01*
X74074Y-55148D01*
X74093Y-55249D01*
X74132Y-55344D01*
X74135Y-55350D01*
X74221Y-55379D01*
X74501Y-55100D01*
X74501Y-55297D01*
X74320Y-55478D01*
X74349Y-55564D01*
X74444Y-55604D01*
X74545Y-55624D01*
X74648Y-55625D01*
X74749Y-55606D01*
X74844Y-55567D01*
X74850Y-55564D01*
X74879Y-55478D01*
X74879Y-55834D01*
X74846Y-55801D01*
X74784Y-55759D01*
X74714Y-55730D01*
X74640Y-55714D01*
X74564Y-55714D01*
X74490Y-55728D01*
X74420Y-55756D01*
X74357Y-55798D01*
X74303Y-55851D01*
X74260Y-55913D01*
X74230Y-55982D01*
X74215Y-56056D01*
X74214Y-56132D01*
X74227Y-56206D01*
X74255Y-56276D01*
X74296Y-56340D01*
X74349Y-56394D01*
X74411Y-56437D01*
X74480Y-56468D01*
X74554Y-56484D01*
X74629Y-56485D01*
X74704Y-56472D01*
X74774Y-56445D01*
X74838Y-56405D01*
X74893Y-56352D01*
X74936Y-56291D01*
X74967Y-56222D01*
X74984Y-56148D01*
X74985Y-56062D01*
X74985Y-57490D01*
X73985Y-57490D01*
X73985Y-56062D01*
X73985Y-55062D01*
X73970Y-54988D01*
X73941Y-54918D01*
X73900Y-54855D01*
X73846Y-54801D01*
X73784Y-54759D01*
X73714Y-54730D01*
X73640Y-54714D01*
X73564Y-54714D01*
X73490Y-54728D01*
X73420Y-54756D01*
X73357Y-54798D01*
X73303Y-54851D01*
X73260Y-54913D01*
X73230Y-54982D01*
X73215Y-55056D01*
X73214Y-55132D01*
X73227Y-55206D01*
X73255Y-55276D01*
X73296Y-55340D01*
X73349Y-55394D01*
X73411Y-55437D01*
X73480Y-55468D01*
X73554Y-55484D01*
X73629Y-55485D01*
X73704Y-55472D01*
X73774Y-55445D01*
X73838Y-55405D01*
X73893Y-55352D01*
X73936Y-55291D01*
X73967Y-55222D01*
X73984Y-55148D01*
X73985Y-55062D01*
X73985Y-56062D01*
X73970Y-55988D01*
X73941Y-55918D01*
X73900Y-55855D01*
X73846Y-55801D01*
X73784Y-55759D01*
X73714Y-55730D01*
X73640Y-55714D01*
X73564Y-55714D01*
X73490Y-55728D01*
X73420Y-55756D01*
X73357Y-55798D01*
X73303Y-55851D01*
X73260Y-55913D01*
X73230Y-55982D01*
X73215Y-56056D01*
X73214Y-56132D01*
X73227Y-56206D01*
X73255Y-56276D01*
X73296Y-56340D01*
X73349Y-56394D01*
X73411Y-56437D01*
X73480Y-56468D01*
X73554Y-56484D01*
X73629Y-56485D01*
X73704Y-56472D01*
X73774Y-56445D01*
X73838Y-56405D01*
X73893Y-56352D01*
X73936Y-56291D01*
X73967Y-56222D01*
X73984Y-56148D01*
X73985Y-56062D01*
X73985Y-57490D01*
X73400Y-57490D01*
X73399Y-57490D01*
X73214Y-57490D01*
X73042Y-57457D01*
X72881Y-57390D01*
X72735Y-57294D01*
X72611Y-57171D01*
X72513Y-57026D01*
X72445Y-56866D01*
X72409Y-56692D01*
X72409Y-56300D01*
X72409Y-47510D01*
X72443Y-47339D01*
X72510Y-47178D01*
X72607Y-47033D01*
X72730Y-46909D01*
X72875Y-46812D01*
X73036Y-46744D01*
X73208Y-46709D01*
X73387Y-46709D01*
X73389Y-46709D01*
X73393Y-46709D01*
X73398Y-46709D01*
X73400Y-46709D01*
X82894Y-46709D01*
X83072Y-46727D01*
X83239Y-46777D01*
X83392Y-46858D01*
X83526Y-46968D01*
X83637Y-47102D01*
X83720Y-47255D01*
X83771Y-47421D01*
X83790Y-47598D01*
X83790Y-47600D01*
X83790Y-56300D01*
X83790Y-56594D01*
M02*
