G04 (created by PCBNEW (2013-june-11)-stable) date Fri 03 Oct 2014 12:09:20 PM PDT*
%MOIN*%
G04 Gerber Fmt 3.4, Leading zero omitted, Abs format*
%FSLAX34Y34*%
G01*
G70*
G90*
G04 APERTURE LIST*
%ADD10C,0.00590551*%
%ADD11C,0.0590551*%
%ADD12R,0.031X0.031*%
%ADD13C,0.006*%
G04 APERTURE END LIST*
G54D10*
G54D11*
X73600Y-56100D03*
X73600Y-55100D03*
X74600Y-56100D03*
X74600Y-55100D03*
X75600Y-56100D03*
X75600Y-55100D03*
X76600Y-56100D03*
X76600Y-55100D03*
X77600Y-56100D03*
X77600Y-55100D03*
X78600Y-56100D03*
X78600Y-55100D03*
X79600Y-56100D03*
X79600Y-55100D03*
X80600Y-56100D03*
X80600Y-55100D03*
X81600Y-56100D03*
X81600Y-55100D03*
X82600Y-56100D03*
X82600Y-55100D03*
X73600Y-51700D03*
X73600Y-50700D03*
X74600Y-51700D03*
X74600Y-50700D03*
X75600Y-51700D03*
X75600Y-50700D03*
X76600Y-51700D03*
X76600Y-50700D03*
X77600Y-51700D03*
X77600Y-50700D03*
X78600Y-51700D03*
X78600Y-50700D03*
X79600Y-51700D03*
X79600Y-50700D03*
X80600Y-51700D03*
X80600Y-50700D03*
X81600Y-51700D03*
X81600Y-50700D03*
X82600Y-51700D03*
X82600Y-50700D03*
G54D12*
X75950Y-47850D03*
X75450Y-47850D03*
X74950Y-47850D03*
X74450Y-47850D03*
X73950Y-47850D03*
X75950Y-47350D03*
X75450Y-47350D03*
X74950Y-47350D03*
X74450Y-47350D03*
X73950Y-47350D03*
G54D13*
X74450Y-47350D02*
X74700Y-47600D01*
X77100Y-51200D02*
X77600Y-51700D01*
X77100Y-50500D02*
X77100Y-51200D01*
X76550Y-49950D02*
X77100Y-50500D01*
X76050Y-49950D02*
X76550Y-49950D01*
X74700Y-48600D02*
X76050Y-49950D01*
X74700Y-47600D02*
X74700Y-48600D01*
X74950Y-47350D02*
X75200Y-47600D01*
X79100Y-51200D02*
X79600Y-51700D01*
X79100Y-50375D02*
X79100Y-51200D01*
X78350Y-49625D02*
X79100Y-50375D01*
X76225Y-49625D02*
X78350Y-49625D01*
X75200Y-48600D02*
X76225Y-49625D01*
X75200Y-47600D02*
X75200Y-48600D01*
X73950Y-47350D02*
X74200Y-47600D01*
X76100Y-51200D02*
X76600Y-51700D01*
X76100Y-50500D02*
X76100Y-51200D01*
X74200Y-48600D02*
X76100Y-50500D01*
X74200Y-47600D02*
X74200Y-48600D01*
X73950Y-47850D02*
X73950Y-50350D01*
X74100Y-51200D02*
X73600Y-51700D01*
X74100Y-50500D02*
X74100Y-51200D01*
X73950Y-50350D02*
X74100Y-50500D01*
G54D10*
G36*
X83790Y-56594D02*
X83772Y-56772D01*
X83722Y-56939D01*
X83641Y-57092D01*
X83531Y-57226D01*
X83397Y-57337D01*
X83244Y-57420D01*
X83127Y-57456D01*
X83127Y-55093D01*
X83127Y-50693D01*
X83116Y-50590D01*
X83085Y-50492D01*
X83043Y-50413D01*
X82952Y-50388D01*
X82911Y-50429D01*
X82911Y-50347D01*
X82886Y-50256D01*
X82794Y-50209D01*
X82695Y-50180D01*
X82593Y-50172D01*
X82490Y-50183D01*
X82392Y-50214D01*
X82313Y-50256D01*
X82288Y-50347D01*
X82600Y-50658D01*
X82911Y-50347D01*
X82911Y-50429D01*
X82641Y-50700D01*
X82952Y-51011D01*
X83043Y-50986D01*
X83090Y-50894D01*
X83119Y-50795D01*
X83127Y-50693D01*
X83127Y-55093D01*
X83116Y-54990D01*
X83085Y-54892D01*
X83043Y-54813D01*
X82985Y-54797D01*
X82985Y-51662D01*
X82970Y-51588D01*
X82941Y-51518D01*
X82911Y-51472D01*
X82911Y-51052D01*
X82600Y-50741D01*
X82558Y-50782D01*
X82558Y-50700D01*
X82247Y-50388D01*
X82156Y-50413D01*
X82109Y-50505D01*
X82099Y-50538D01*
X82085Y-50492D01*
X82043Y-50413D01*
X81952Y-50388D01*
X81911Y-50429D01*
X81911Y-50347D01*
X81886Y-50256D01*
X81794Y-50209D01*
X81695Y-50180D01*
X81593Y-50172D01*
X81490Y-50183D01*
X81392Y-50214D01*
X81313Y-50256D01*
X81288Y-50347D01*
X81600Y-50658D01*
X81911Y-50347D01*
X81911Y-50429D01*
X81641Y-50700D01*
X81952Y-51011D01*
X82043Y-50986D01*
X82090Y-50894D01*
X82100Y-50861D01*
X82114Y-50907D01*
X82156Y-50986D01*
X82247Y-51011D01*
X82558Y-50700D01*
X82558Y-50782D01*
X82288Y-51052D01*
X82313Y-51143D01*
X82405Y-51190D01*
X82504Y-51219D01*
X82606Y-51227D01*
X82709Y-51216D01*
X82807Y-51185D01*
X82886Y-51143D01*
X82911Y-51052D01*
X82911Y-51472D01*
X82900Y-51455D01*
X82846Y-51401D01*
X82784Y-51359D01*
X82714Y-51330D01*
X82640Y-51314D01*
X82564Y-51314D01*
X82490Y-51328D01*
X82420Y-51356D01*
X82357Y-51398D01*
X82303Y-51451D01*
X82260Y-51513D01*
X82230Y-51582D01*
X82215Y-51656D01*
X82214Y-51732D01*
X82227Y-51806D01*
X82255Y-51876D01*
X82296Y-51940D01*
X82349Y-51994D01*
X82411Y-52037D01*
X82480Y-52068D01*
X82554Y-52084D01*
X82629Y-52085D01*
X82704Y-52072D01*
X82774Y-52045D01*
X82838Y-52005D01*
X82893Y-51952D01*
X82936Y-51891D01*
X82967Y-51822D01*
X82984Y-51748D01*
X82985Y-51662D01*
X82985Y-54797D01*
X82952Y-54788D01*
X82911Y-54829D01*
X82911Y-54747D01*
X82886Y-54656D01*
X82794Y-54609D01*
X82695Y-54580D01*
X82593Y-54572D01*
X82490Y-54583D01*
X82392Y-54614D01*
X82313Y-54656D01*
X82288Y-54747D01*
X82600Y-55058D01*
X82911Y-54747D01*
X82911Y-54829D01*
X82641Y-55100D01*
X82952Y-55411D01*
X83043Y-55386D01*
X83090Y-55294D01*
X83119Y-55195D01*
X83127Y-55093D01*
X83127Y-57456D01*
X83078Y-57471D01*
X82985Y-57481D01*
X82985Y-56062D01*
X82970Y-55988D01*
X82941Y-55918D01*
X82911Y-55872D01*
X82911Y-55452D01*
X82600Y-55141D01*
X82558Y-55182D01*
X82558Y-55100D01*
X82247Y-54788D01*
X82156Y-54813D01*
X82109Y-54905D01*
X82099Y-54938D01*
X82085Y-54892D01*
X82043Y-54813D01*
X81985Y-54797D01*
X81985Y-51662D01*
X81970Y-51588D01*
X81941Y-51518D01*
X81911Y-51472D01*
X81911Y-51052D01*
X81600Y-50741D01*
X81558Y-50782D01*
X81558Y-50700D01*
X81247Y-50388D01*
X81156Y-50413D01*
X81109Y-50505D01*
X81099Y-50538D01*
X81085Y-50492D01*
X81043Y-50413D01*
X80952Y-50388D01*
X80911Y-50429D01*
X80911Y-50347D01*
X80886Y-50256D01*
X80794Y-50209D01*
X80695Y-50180D01*
X80593Y-50172D01*
X80490Y-50183D01*
X80392Y-50214D01*
X80313Y-50256D01*
X80288Y-50347D01*
X80600Y-50658D01*
X80911Y-50347D01*
X80911Y-50429D01*
X80641Y-50700D01*
X80952Y-51011D01*
X81043Y-50986D01*
X81090Y-50894D01*
X81100Y-50861D01*
X81114Y-50907D01*
X81156Y-50986D01*
X81247Y-51011D01*
X81558Y-50700D01*
X81558Y-50782D01*
X81288Y-51052D01*
X81313Y-51143D01*
X81405Y-51190D01*
X81504Y-51219D01*
X81606Y-51227D01*
X81709Y-51216D01*
X81807Y-51185D01*
X81886Y-51143D01*
X81911Y-51052D01*
X81911Y-51472D01*
X81900Y-51455D01*
X81846Y-51401D01*
X81784Y-51359D01*
X81714Y-51330D01*
X81640Y-51314D01*
X81564Y-51314D01*
X81490Y-51328D01*
X81420Y-51356D01*
X81357Y-51398D01*
X81303Y-51451D01*
X81260Y-51513D01*
X81230Y-51582D01*
X81215Y-51656D01*
X81214Y-51732D01*
X81227Y-51806D01*
X81255Y-51876D01*
X81296Y-51940D01*
X81349Y-51994D01*
X81411Y-52037D01*
X81480Y-52068D01*
X81554Y-52084D01*
X81629Y-52085D01*
X81704Y-52072D01*
X81774Y-52045D01*
X81838Y-52005D01*
X81893Y-51952D01*
X81936Y-51891D01*
X81967Y-51822D01*
X81984Y-51748D01*
X81985Y-51662D01*
X81985Y-54797D01*
X81952Y-54788D01*
X81911Y-54829D01*
X81911Y-54747D01*
X81886Y-54656D01*
X81794Y-54609D01*
X81695Y-54580D01*
X81593Y-54572D01*
X81490Y-54583D01*
X81392Y-54614D01*
X81313Y-54656D01*
X81288Y-54747D01*
X81600Y-55058D01*
X81911Y-54747D01*
X81911Y-54829D01*
X81641Y-55100D01*
X81952Y-55411D01*
X82043Y-55386D01*
X82090Y-55294D01*
X82100Y-55261D01*
X82114Y-55307D01*
X82156Y-55386D01*
X82247Y-55411D01*
X82558Y-55100D01*
X82558Y-55182D01*
X82288Y-55452D01*
X82313Y-55543D01*
X82405Y-55590D01*
X82504Y-55619D01*
X82606Y-55627D01*
X82709Y-55616D01*
X82807Y-55585D01*
X82886Y-55543D01*
X82911Y-55452D01*
X82911Y-55872D01*
X82900Y-55855D01*
X82846Y-55801D01*
X82784Y-55759D01*
X82714Y-55730D01*
X82640Y-55714D01*
X82564Y-55714D01*
X82490Y-55728D01*
X82420Y-55756D01*
X82357Y-55798D01*
X82303Y-55851D01*
X82260Y-55913D01*
X82230Y-55982D01*
X82215Y-56056D01*
X82214Y-56132D01*
X82227Y-56206D01*
X82255Y-56276D01*
X82296Y-56340D01*
X82349Y-56394D01*
X82411Y-56437D01*
X82480Y-56468D01*
X82554Y-56484D01*
X82629Y-56485D01*
X82704Y-56472D01*
X82774Y-56445D01*
X82838Y-56405D01*
X82893Y-56352D01*
X82936Y-56291D01*
X82967Y-56222D01*
X82984Y-56148D01*
X82985Y-56062D01*
X82985Y-57481D01*
X82901Y-57490D01*
X82899Y-57490D01*
X81985Y-57490D01*
X81985Y-56062D01*
X81970Y-55988D01*
X81941Y-55918D01*
X81911Y-55872D01*
X81911Y-55452D01*
X81600Y-55141D01*
X81558Y-55182D01*
X81558Y-55100D01*
X81247Y-54788D01*
X81156Y-54813D01*
X81109Y-54905D01*
X81099Y-54938D01*
X81085Y-54892D01*
X81043Y-54813D01*
X80985Y-54797D01*
X80985Y-51662D01*
X80970Y-51588D01*
X80941Y-51518D01*
X80911Y-51472D01*
X80911Y-51052D01*
X80600Y-50741D01*
X80558Y-50782D01*
X80558Y-50700D01*
X80247Y-50388D01*
X80156Y-50413D01*
X80109Y-50505D01*
X80099Y-50538D01*
X80085Y-50492D01*
X80043Y-50413D01*
X79952Y-50388D01*
X79911Y-50429D01*
X79911Y-50347D01*
X79886Y-50256D01*
X79794Y-50209D01*
X79695Y-50180D01*
X79593Y-50172D01*
X79490Y-50183D01*
X79392Y-50214D01*
X79313Y-50256D01*
X79288Y-50347D01*
X79600Y-50658D01*
X79911Y-50347D01*
X79911Y-50429D01*
X79641Y-50700D01*
X79952Y-51011D01*
X80043Y-50986D01*
X80090Y-50894D01*
X80100Y-50861D01*
X80114Y-50907D01*
X80156Y-50986D01*
X80247Y-51011D01*
X80558Y-50700D01*
X80558Y-50782D01*
X80288Y-51052D01*
X80313Y-51143D01*
X80405Y-51190D01*
X80504Y-51219D01*
X80606Y-51227D01*
X80709Y-51216D01*
X80807Y-51185D01*
X80886Y-51143D01*
X80911Y-51052D01*
X80911Y-51472D01*
X80900Y-51455D01*
X80846Y-51401D01*
X80784Y-51359D01*
X80714Y-51330D01*
X80640Y-51314D01*
X80564Y-51314D01*
X80490Y-51328D01*
X80420Y-51356D01*
X80357Y-51398D01*
X80303Y-51451D01*
X80260Y-51513D01*
X80230Y-51582D01*
X80215Y-51656D01*
X80214Y-51732D01*
X80227Y-51806D01*
X80255Y-51876D01*
X80296Y-51940D01*
X80349Y-51994D01*
X80411Y-52037D01*
X80480Y-52068D01*
X80554Y-52084D01*
X80629Y-52085D01*
X80704Y-52072D01*
X80774Y-52045D01*
X80838Y-52005D01*
X80893Y-51952D01*
X80936Y-51891D01*
X80967Y-51822D01*
X80984Y-51748D01*
X80985Y-51662D01*
X80985Y-54797D01*
X80952Y-54788D01*
X80911Y-54829D01*
X80911Y-54747D01*
X80886Y-54656D01*
X80794Y-54609D01*
X80695Y-54580D01*
X80593Y-54572D01*
X80490Y-54583D01*
X80392Y-54614D01*
X80313Y-54656D01*
X80288Y-54747D01*
X80600Y-55058D01*
X80911Y-54747D01*
X80911Y-54829D01*
X80641Y-55100D01*
X80952Y-55411D01*
X81043Y-55386D01*
X81090Y-55294D01*
X81100Y-55261D01*
X81114Y-55307D01*
X81156Y-55386D01*
X81247Y-55411D01*
X81558Y-55100D01*
X81558Y-55182D01*
X81288Y-55452D01*
X81313Y-55543D01*
X81405Y-55590D01*
X81504Y-55619D01*
X81606Y-55627D01*
X81709Y-55616D01*
X81807Y-55585D01*
X81886Y-55543D01*
X81911Y-55452D01*
X81911Y-55872D01*
X81900Y-55855D01*
X81846Y-55801D01*
X81784Y-55759D01*
X81714Y-55730D01*
X81640Y-55714D01*
X81564Y-55714D01*
X81490Y-55728D01*
X81420Y-55756D01*
X81357Y-55798D01*
X81303Y-55851D01*
X81260Y-55913D01*
X81230Y-55982D01*
X81215Y-56056D01*
X81214Y-56132D01*
X81227Y-56206D01*
X81255Y-56276D01*
X81296Y-56340D01*
X81349Y-56394D01*
X81411Y-56437D01*
X81480Y-56468D01*
X81554Y-56484D01*
X81629Y-56485D01*
X81704Y-56472D01*
X81774Y-56445D01*
X81838Y-56405D01*
X81893Y-56352D01*
X81936Y-56291D01*
X81967Y-56222D01*
X81984Y-56148D01*
X81985Y-56062D01*
X81985Y-57490D01*
X80985Y-57490D01*
X80985Y-56062D01*
X80970Y-55988D01*
X80941Y-55918D01*
X80911Y-55872D01*
X80911Y-55452D01*
X80600Y-55141D01*
X80558Y-55182D01*
X80558Y-55100D01*
X80247Y-54788D01*
X80156Y-54813D01*
X80109Y-54905D01*
X80099Y-54938D01*
X80085Y-54892D01*
X80043Y-54813D01*
X79985Y-54797D01*
X79985Y-51662D01*
X79970Y-51588D01*
X79941Y-51518D01*
X79911Y-51472D01*
X79911Y-51052D01*
X79600Y-50741D01*
X79288Y-51052D01*
X79313Y-51143D01*
X79405Y-51190D01*
X79504Y-51219D01*
X79606Y-51227D01*
X79709Y-51216D01*
X79807Y-51185D01*
X79886Y-51143D01*
X79911Y-51052D01*
X79911Y-51472D01*
X79900Y-51455D01*
X79846Y-51401D01*
X79784Y-51359D01*
X79714Y-51330D01*
X79640Y-51314D01*
X79564Y-51314D01*
X79490Y-51328D01*
X79424Y-51355D01*
X79220Y-51150D01*
X79220Y-51003D01*
X79247Y-51011D01*
X79558Y-50700D01*
X79247Y-50388D01*
X79220Y-50396D01*
X79220Y-50375D01*
X79218Y-50363D01*
X79217Y-50352D01*
X79217Y-50352D01*
X79217Y-50351D01*
X79214Y-50341D01*
X79211Y-50330D01*
X79211Y-50329D01*
X79210Y-50329D01*
X79205Y-50319D01*
X79200Y-50309D01*
X79200Y-50309D01*
X79199Y-50308D01*
X79192Y-50299D01*
X79186Y-50291D01*
X79185Y-50290D01*
X79185Y-50290D01*
X79185Y-50290D01*
X79184Y-50290D01*
X78434Y-49540D01*
X78426Y-49533D01*
X78417Y-49525D01*
X78417Y-49525D01*
X78416Y-49525D01*
X78406Y-49520D01*
X78397Y-49514D01*
X78396Y-49514D01*
X78396Y-49514D01*
X78385Y-49510D01*
X78374Y-49507D01*
X78374Y-49507D01*
X78373Y-49507D01*
X78362Y-49506D01*
X78351Y-49505D01*
X78350Y-49505D01*
X78350Y-49505D01*
X78350Y-49505D01*
X78350Y-49505D01*
X76335Y-49505D01*
X76335Y-47984D01*
X76335Y-47936D01*
X76277Y-47879D01*
X75979Y-47879D01*
X75979Y-48177D01*
X76036Y-48235D01*
X76127Y-48235D01*
X76171Y-48226D01*
X76213Y-48209D01*
X76251Y-48184D01*
X76283Y-48152D01*
X76308Y-48114D01*
X76325Y-48073D01*
X76334Y-48029D01*
X76335Y-47984D01*
X76335Y-49505D01*
X76274Y-49505D01*
X75320Y-48550D01*
X75320Y-48095D01*
X75583Y-48095D01*
X75591Y-48114D01*
X75616Y-48152D01*
X75648Y-48184D01*
X75686Y-48209D01*
X75728Y-48226D01*
X75772Y-48235D01*
X75863Y-48235D01*
X75920Y-48177D01*
X75920Y-47879D01*
X75913Y-47879D01*
X75913Y-47820D01*
X75920Y-47820D01*
X75920Y-47813D01*
X75979Y-47813D01*
X75979Y-47820D01*
X76277Y-47820D01*
X76335Y-47763D01*
X76335Y-47715D01*
X76334Y-47670D01*
X76325Y-47626D01*
X76308Y-47585D01*
X76283Y-47547D01*
X76251Y-47515D01*
X76213Y-47490D01*
X76195Y-47483D01*
X76195Y-47186D01*
X76191Y-47168D01*
X76184Y-47152D01*
X76175Y-47137D01*
X76162Y-47125D01*
X76148Y-47115D01*
X76131Y-47108D01*
X76114Y-47105D01*
X76096Y-47104D01*
X75786Y-47104D01*
X75768Y-47108D01*
X75752Y-47115D01*
X75737Y-47124D01*
X75725Y-47137D01*
X75715Y-47151D01*
X75708Y-47168D01*
X75705Y-47185D01*
X75704Y-47203D01*
X75704Y-47483D01*
X75695Y-47487D01*
X75695Y-47186D01*
X75691Y-47168D01*
X75684Y-47152D01*
X75675Y-47137D01*
X75662Y-47125D01*
X75648Y-47115D01*
X75631Y-47108D01*
X75614Y-47105D01*
X75596Y-47104D01*
X75286Y-47104D01*
X75268Y-47108D01*
X75252Y-47115D01*
X75237Y-47124D01*
X75225Y-47137D01*
X75215Y-47151D01*
X75208Y-47168D01*
X75205Y-47185D01*
X75204Y-47203D01*
X75204Y-47435D01*
X75195Y-47425D01*
X75195Y-47186D01*
X75191Y-47168D01*
X75184Y-47152D01*
X75175Y-47137D01*
X75162Y-47125D01*
X75148Y-47115D01*
X75131Y-47108D01*
X75114Y-47105D01*
X75096Y-47104D01*
X74786Y-47104D01*
X74768Y-47108D01*
X74752Y-47115D01*
X74737Y-47124D01*
X74725Y-47137D01*
X74715Y-47151D01*
X74708Y-47168D01*
X74705Y-47185D01*
X74704Y-47203D01*
X74704Y-47435D01*
X74695Y-47425D01*
X74695Y-47186D01*
X74691Y-47168D01*
X74684Y-47152D01*
X74675Y-47137D01*
X74662Y-47125D01*
X74648Y-47115D01*
X74631Y-47108D01*
X74614Y-47105D01*
X74596Y-47104D01*
X74286Y-47104D01*
X74268Y-47108D01*
X74252Y-47115D01*
X74237Y-47124D01*
X74225Y-47137D01*
X74215Y-47151D01*
X74208Y-47168D01*
X74205Y-47185D01*
X74204Y-47203D01*
X74204Y-47435D01*
X74195Y-47425D01*
X74195Y-47186D01*
X74191Y-47168D01*
X74184Y-47152D01*
X74175Y-47137D01*
X74162Y-47125D01*
X74148Y-47115D01*
X74131Y-47108D01*
X74114Y-47105D01*
X74096Y-47104D01*
X73786Y-47104D01*
X73768Y-47108D01*
X73752Y-47115D01*
X73737Y-47124D01*
X73725Y-47137D01*
X73715Y-47151D01*
X73708Y-47168D01*
X73705Y-47185D01*
X73704Y-47203D01*
X73704Y-47513D01*
X73708Y-47531D01*
X73715Y-47547D01*
X73724Y-47562D01*
X73737Y-47574D01*
X73751Y-47584D01*
X73768Y-47591D01*
X73785Y-47594D01*
X73803Y-47595D01*
X74025Y-47595D01*
X74035Y-47604D01*
X73786Y-47604D01*
X73768Y-47608D01*
X73752Y-47615D01*
X73737Y-47624D01*
X73725Y-47637D01*
X73715Y-47651D01*
X73708Y-47668D01*
X73705Y-47685D01*
X73704Y-47703D01*
X73704Y-48013D01*
X73708Y-48031D01*
X73715Y-48047D01*
X73724Y-48062D01*
X73737Y-48074D01*
X73751Y-48084D01*
X73768Y-48091D01*
X73785Y-48094D01*
X73803Y-48095D01*
X73830Y-48095D01*
X73830Y-50350D01*
X73831Y-50361D01*
X73832Y-50372D01*
X73832Y-50372D01*
X73832Y-50373D01*
X73835Y-50383D01*
X73838Y-50394D01*
X73838Y-50395D01*
X73839Y-50395D01*
X73839Y-50396D01*
X73784Y-50359D01*
X73714Y-50330D01*
X73640Y-50314D01*
X73564Y-50314D01*
X73490Y-50328D01*
X73420Y-50356D01*
X73357Y-50398D01*
X73303Y-50451D01*
X73260Y-50513D01*
X73230Y-50582D01*
X73215Y-50656D01*
X73214Y-50732D01*
X73227Y-50806D01*
X73255Y-50876D01*
X73296Y-50940D01*
X73349Y-50994D01*
X73411Y-51037D01*
X73480Y-51068D01*
X73554Y-51084D01*
X73629Y-51085D01*
X73704Y-51072D01*
X73774Y-51045D01*
X73838Y-51005D01*
X73893Y-50952D01*
X73936Y-50891D01*
X73967Y-50822D01*
X73980Y-50766D01*
X73980Y-51150D01*
X73774Y-51355D01*
X73714Y-51330D01*
X73640Y-51314D01*
X73564Y-51314D01*
X73490Y-51328D01*
X73420Y-51356D01*
X73357Y-51398D01*
X73303Y-51451D01*
X73260Y-51513D01*
X73230Y-51582D01*
X73215Y-51656D01*
X73214Y-51732D01*
X73227Y-51806D01*
X73255Y-51876D01*
X73296Y-51940D01*
X73349Y-51994D01*
X73411Y-52037D01*
X73480Y-52068D01*
X73554Y-52084D01*
X73629Y-52085D01*
X73704Y-52072D01*
X73774Y-52045D01*
X73838Y-52005D01*
X73893Y-51952D01*
X73936Y-51891D01*
X73967Y-51822D01*
X73984Y-51748D01*
X73985Y-51662D01*
X73970Y-51588D01*
X73944Y-51525D01*
X74184Y-51284D01*
X74191Y-51276D01*
X74199Y-51267D01*
X74199Y-51267D01*
X74199Y-51266D01*
X74204Y-51256D01*
X74210Y-51247D01*
X74210Y-51246D01*
X74210Y-51246D01*
X74214Y-51235D01*
X74217Y-51224D01*
X74217Y-51224D01*
X74217Y-51223D01*
X74218Y-51212D01*
X74219Y-51201D01*
X74219Y-51200D01*
X74219Y-51200D01*
X74219Y-51200D01*
X74220Y-51200D01*
X74220Y-51003D01*
X74247Y-51011D01*
X74558Y-50700D01*
X74247Y-50388D01*
X74177Y-50407D01*
X74070Y-50300D01*
X74070Y-48095D01*
X74080Y-48095D01*
X74080Y-48600D01*
X74081Y-48611D01*
X74082Y-48622D01*
X74082Y-48622D01*
X74082Y-48623D01*
X74085Y-48633D01*
X74088Y-48644D01*
X74088Y-48645D01*
X74089Y-48645D01*
X74094Y-48655D01*
X74099Y-48665D01*
X74099Y-48665D01*
X74100Y-48666D01*
X74107Y-48675D01*
X74113Y-48683D01*
X74114Y-48684D01*
X74114Y-48684D01*
X74114Y-48684D01*
X74115Y-48684D01*
X75603Y-50173D01*
X75593Y-50172D01*
X75490Y-50183D01*
X75392Y-50214D01*
X75313Y-50256D01*
X75288Y-50347D01*
X75600Y-50658D01*
X75605Y-50653D01*
X75646Y-50694D01*
X75641Y-50700D01*
X75952Y-51011D01*
X75980Y-51003D01*
X75980Y-51200D01*
X75981Y-51211D01*
X75982Y-51222D01*
X75982Y-51222D01*
X75982Y-51223D01*
X75985Y-51233D01*
X75988Y-51244D01*
X75988Y-51245D01*
X75989Y-51245D01*
X75994Y-51255D01*
X75999Y-51265D01*
X75999Y-51265D01*
X76000Y-51266D01*
X76007Y-51275D01*
X76013Y-51283D01*
X76014Y-51284D01*
X76014Y-51284D01*
X76014Y-51284D01*
X76015Y-51284D01*
X76255Y-51525D01*
X76230Y-51582D01*
X76215Y-51656D01*
X76214Y-51732D01*
X76227Y-51806D01*
X76255Y-51876D01*
X76296Y-51940D01*
X76349Y-51994D01*
X76411Y-52037D01*
X76480Y-52068D01*
X76554Y-52084D01*
X76629Y-52085D01*
X76704Y-52072D01*
X76774Y-52045D01*
X76838Y-52005D01*
X76893Y-51952D01*
X76936Y-51891D01*
X76967Y-51822D01*
X76984Y-51748D01*
X76985Y-51662D01*
X76970Y-51588D01*
X76941Y-51518D01*
X76911Y-51472D01*
X76911Y-51052D01*
X76600Y-50741D01*
X76288Y-51052D01*
X76313Y-51143D01*
X76405Y-51190D01*
X76504Y-51219D01*
X76606Y-51227D01*
X76709Y-51216D01*
X76807Y-51185D01*
X76886Y-51143D01*
X76911Y-51052D01*
X76911Y-51472D01*
X76900Y-51455D01*
X76846Y-51401D01*
X76784Y-51359D01*
X76714Y-51330D01*
X76640Y-51314D01*
X76564Y-51314D01*
X76490Y-51328D01*
X76424Y-51355D01*
X76220Y-51150D01*
X76220Y-51003D01*
X76247Y-51011D01*
X76558Y-50700D01*
X76247Y-50388D01*
X76177Y-50407D01*
X74320Y-48550D01*
X74320Y-48235D01*
X74363Y-48235D01*
X74420Y-48177D01*
X74420Y-47879D01*
X74413Y-47879D01*
X74413Y-47820D01*
X74420Y-47820D01*
X74420Y-47813D01*
X74479Y-47813D01*
X74479Y-47820D01*
X74580Y-47820D01*
X74580Y-47879D01*
X74479Y-47879D01*
X74479Y-48177D01*
X74536Y-48235D01*
X74580Y-48235D01*
X74580Y-48600D01*
X74581Y-48611D01*
X74582Y-48622D01*
X74582Y-48622D01*
X74582Y-48623D01*
X74585Y-48633D01*
X74588Y-48644D01*
X74588Y-48645D01*
X74589Y-48645D01*
X74594Y-48655D01*
X74599Y-48665D01*
X74599Y-48665D01*
X74600Y-48666D01*
X74607Y-48675D01*
X74613Y-48683D01*
X74614Y-48684D01*
X74614Y-48684D01*
X74614Y-48684D01*
X74615Y-48684D01*
X75965Y-50034D01*
X75973Y-50041D01*
X75982Y-50049D01*
X75982Y-50049D01*
X75983Y-50049D01*
X75993Y-50054D01*
X76002Y-50060D01*
X76003Y-50060D01*
X76003Y-50060D01*
X76014Y-50064D01*
X76025Y-50067D01*
X76025Y-50067D01*
X76026Y-50067D01*
X76037Y-50068D01*
X76048Y-50069D01*
X76049Y-50069D01*
X76049Y-50069D01*
X76049Y-50069D01*
X76050Y-50070D01*
X76500Y-50070D01*
X76603Y-50173D01*
X76593Y-50172D01*
X76490Y-50183D01*
X76392Y-50214D01*
X76313Y-50256D01*
X76288Y-50347D01*
X76600Y-50658D01*
X76605Y-50653D01*
X76646Y-50694D01*
X76641Y-50700D01*
X76952Y-51011D01*
X76980Y-51003D01*
X76980Y-51200D01*
X76981Y-51211D01*
X76982Y-51222D01*
X76982Y-51222D01*
X76982Y-51223D01*
X76985Y-51233D01*
X76988Y-51244D01*
X76988Y-51245D01*
X76989Y-51245D01*
X76994Y-51255D01*
X76999Y-51265D01*
X76999Y-51265D01*
X77000Y-51266D01*
X77007Y-51275D01*
X77013Y-51283D01*
X77014Y-51284D01*
X77014Y-51284D01*
X77014Y-51284D01*
X77015Y-51284D01*
X77255Y-51525D01*
X77230Y-51582D01*
X77215Y-51656D01*
X77214Y-51732D01*
X77227Y-51806D01*
X77255Y-51876D01*
X77296Y-51940D01*
X77349Y-51994D01*
X77411Y-52037D01*
X77480Y-52068D01*
X77554Y-52084D01*
X77629Y-52085D01*
X77704Y-52072D01*
X77774Y-52045D01*
X77838Y-52005D01*
X77893Y-51952D01*
X77936Y-51891D01*
X77967Y-51822D01*
X77984Y-51748D01*
X77985Y-51662D01*
X77970Y-51588D01*
X77941Y-51518D01*
X77911Y-51472D01*
X77911Y-51052D01*
X77600Y-50741D01*
X77288Y-51052D01*
X77313Y-51143D01*
X77405Y-51190D01*
X77504Y-51219D01*
X77606Y-51227D01*
X77709Y-51216D01*
X77807Y-51185D01*
X77886Y-51143D01*
X77911Y-51052D01*
X77911Y-51472D01*
X77900Y-51455D01*
X77846Y-51401D01*
X77784Y-51359D01*
X77714Y-51330D01*
X77640Y-51314D01*
X77564Y-51314D01*
X77490Y-51328D01*
X77424Y-51355D01*
X77220Y-51150D01*
X77220Y-51003D01*
X77247Y-51011D01*
X77558Y-50700D01*
X77247Y-50388D01*
X77177Y-50407D01*
X76634Y-49865D01*
X76626Y-49858D01*
X76617Y-49850D01*
X76617Y-49850D01*
X76616Y-49850D01*
X76606Y-49845D01*
X76597Y-49839D01*
X76596Y-49839D01*
X76596Y-49839D01*
X76585Y-49835D01*
X76574Y-49832D01*
X76574Y-49832D01*
X76573Y-49832D01*
X76562Y-49831D01*
X76551Y-49830D01*
X76550Y-49830D01*
X76550Y-49830D01*
X76550Y-49830D01*
X76550Y-49830D01*
X76099Y-49830D01*
X74820Y-48550D01*
X74820Y-48235D01*
X74863Y-48235D01*
X74920Y-48177D01*
X74920Y-47879D01*
X74820Y-47879D01*
X74820Y-47820D01*
X74920Y-47820D01*
X74920Y-47813D01*
X74979Y-47813D01*
X74979Y-47820D01*
X74986Y-47820D01*
X74986Y-47879D01*
X74979Y-47879D01*
X74979Y-48177D01*
X75036Y-48235D01*
X75080Y-48235D01*
X75080Y-48600D01*
X75081Y-48611D01*
X75082Y-48622D01*
X75082Y-48622D01*
X75082Y-48623D01*
X75085Y-48633D01*
X75088Y-48644D01*
X75088Y-48645D01*
X75089Y-48645D01*
X75094Y-48655D01*
X75099Y-48665D01*
X75099Y-48665D01*
X75100Y-48666D01*
X75107Y-48675D01*
X75113Y-48683D01*
X75114Y-48684D01*
X75114Y-48684D01*
X75114Y-48684D01*
X75115Y-48684D01*
X76140Y-49709D01*
X76148Y-49716D01*
X76157Y-49724D01*
X76157Y-49724D01*
X76158Y-49724D01*
X76168Y-49729D01*
X76177Y-49735D01*
X76178Y-49735D01*
X76178Y-49735D01*
X76189Y-49739D01*
X76200Y-49742D01*
X76200Y-49742D01*
X76201Y-49742D01*
X76212Y-49743D01*
X76223Y-49744D01*
X76224Y-49744D01*
X76224Y-49744D01*
X76224Y-49744D01*
X76225Y-49745D01*
X78300Y-49745D01*
X78752Y-50197D01*
X78695Y-50180D01*
X78593Y-50172D01*
X78490Y-50183D01*
X78392Y-50214D01*
X78313Y-50256D01*
X78288Y-50347D01*
X78600Y-50658D01*
X78605Y-50653D01*
X78646Y-50694D01*
X78641Y-50700D01*
X78952Y-51011D01*
X78980Y-51003D01*
X78980Y-51200D01*
X78981Y-51211D01*
X78982Y-51222D01*
X78982Y-51222D01*
X78982Y-51223D01*
X78985Y-51233D01*
X78988Y-51244D01*
X78988Y-51245D01*
X78989Y-51245D01*
X78994Y-51255D01*
X78999Y-51265D01*
X78999Y-51265D01*
X79000Y-51266D01*
X79007Y-51275D01*
X79013Y-51283D01*
X79014Y-51284D01*
X79014Y-51284D01*
X79014Y-51284D01*
X79015Y-51284D01*
X79255Y-51525D01*
X79230Y-51582D01*
X79215Y-51656D01*
X79214Y-51732D01*
X79227Y-51806D01*
X79255Y-51876D01*
X79296Y-51940D01*
X79349Y-51994D01*
X79411Y-52037D01*
X79480Y-52068D01*
X79554Y-52084D01*
X79629Y-52085D01*
X79704Y-52072D01*
X79774Y-52045D01*
X79838Y-52005D01*
X79893Y-51952D01*
X79936Y-51891D01*
X79967Y-51822D01*
X79984Y-51748D01*
X79985Y-51662D01*
X79985Y-54797D01*
X79952Y-54788D01*
X79911Y-54829D01*
X79911Y-54747D01*
X79886Y-54656D01*
X79794Y-54609D01*
X79695Y-54580D01*
X79593Y-54572D01*
X79490Y-54583D01*
X79392Y-54614D01*
X79313Y-54656D01*
X79288Y-54747D01*
X79600Y-55058D01*
X79911Y-54747D01*
X79911Y-54829D01*
X79641Y-55100D01*
X79952Y-55411D01*
X80043Y-55386D01*
X80090Y-55294D01*
X80100Y-55261D01*
X80114Y-55307D01*
X80156Y-55386D01*
X80247Y-55411D01*
X80558Y-55100D01*
X80558Y-55182D01*
X80288Y-55452D01*
X80313Y-55543D01*
X80405Y-55590D01*
X80504Y-55619D01*
X80606Y-55627D01*
X80709Y-55616D01*
X80807Y-55585D01*
X80886Y-55543D01*
X80911Y-55452D01*
X80911Y-55872D01*
X80900Y-55855D01*
X80846Y-55801D01*
X80784Y-55759D01*
X80714Y-55730D01*
X80640Y-55714D01*
X80564Y-55714D01*
X80490Y-55728D01*
X80420Y-55756D01*
X80357Y-55798D01*
X80303Y-55851D01*
X80260Y-55913D01*
X80230Y-55982D01*
X80215Y-56056D01*
X80214Y-56132D01*
X80227Y-56206D01*
X80255Y-56276D01*
X80296Y-56340D01*
X80349Y-56394D01*
X80411Y-56437D01*
X80480Y-56468D01*
X80554Y-56484D01*
X80629Y-56485D01*
X80704Y-56472D01*
X80774Y-56445D01*
X80838Y-56405D01*
X80893Y-56352D01*
X80936Y-56291D01*
X80967Y-56222D01*
X80984Y-56148D01*
X80985Y-56062D01*
X80985Y-57490D01*
X79985Y-57490D01*
X79985Y-56062D01*
X79970Y-55988D01*
X79941Y-55918D01*
X79911Y-55872D01*
X79911Y-55452D01*
X79600Y-55141D01*
X79558Y-55182D01*
X79558Y-55100D01*
X79247Y-54788D01*
X79156Y-54813D01*
X79109Y-54905D01*
X79099Y-54938D01*
X79085Y-54892D01*
X79043Y-54813D01*
X78985Y-54797D01*
X78985Y-51662D01*
X78970Y-51588D01*
X78941Y-51518D01*
X78911Y-51472D01*
X78911Y-51052D01*
X78600Y-50741D01*
X78558Y-50782D01*
X78558Y-50700D01*
X78247Y-50388D01*
X78156Y-50413D01*
X78109Y-50505D01*
X78099Y-50538D01*
X78085Y-50492D01*
X78043Y-50413D01*
X77952Y-50388D01*
X77911Y-50429D01*
X77911Y-50347D01*
X77886Y-50256D01*
X77794Y-50209D01*
X77695Y-50180D01*
X77593Y-50172D01*
X77490Y-50183D01*
X77392Y-50214D01*
X77313Y-50256D01*
X77288Y-50347D01*
X77600Y-50658D01*
X77911Y-50347D01*
X77911Y-50429D01*
X77641Y-50700D01*
X77952Y-51011D01*
X78043Y-50986D01*
X78090Y-50894D01*
X78100Y-50861D01*
X78114Y-50907D01*
X78156Y-50986D01*
X78247Y-51011D01*
X78558Y-50700D01*
X78558Y-50782D01*
X78288Y-51052D01*
X78313Y-51143D01*
X78405Y-51190D01*
X78504Y-51219D01*
X78606Y-51227D01*
X78709Y-51216D01*
X78807Y-51185D01*
X78886Y-51143D01*
X78911Y-51052D01*
X78911Y-51472D01*
X78900Y-51455D01*
X78846Y-51401D01*
X78784Y-51359D01*
X78714Y-51330D01*
X78640Y-51314D01*
X78564Y-51314D01*
X78490Y-51328D01*
X78420Y-51356D01*
X78357Y-51398D01*
X78303Y-51451D01*
X78260Y-51513D01*
X78230Y-51582D01*
X78215Y-51656D01*
X78214Y-51732D01*
X78227Y-51806D01*
X78255Y-51876D01*
X78296Y-51940D01*
X78349Y-51994D01*
X78411Y-52037D01*
X78480Y-52068D01*
X78554Y-52084D01*
X78629Y-52085D01*
X78704Y-52072D01*
X78774Y-52045D01*
X78838Y-52005D01*
X78893Y-51952D01*
X78936Y-51891D01*
X78967Y-51822D01*
X78984Y-51748D01*
X78985Y-51662D01*
X78985Y-54797D01*
X78952Y-54788D01*
X78911Y-54829D01*
X78911Y-54747D01*
X78886Y-54656D01*
X78794Y-54609D01*
X78695Y-54580D01*
X78593Y-54572D01*
X78490Y-54583D01*
X78392Y-54614D01*
X78313Y-54656D01*
X78288Y-54747D01*
X78600Y-55058D01*
X78911Y-54747D01*
X78911Y-54829D01*
X78641Y-55100D01*
X78952Y-55411D01*
X79043Y-55386D01*
X79090Y-55294D01*
X79100Y-55261D01*
X79114Y-55307D01*
X79156Y-55386D01*
X79247Y-55411D01*
X79558Y-55100D01*
X79558Y-55182D01*
X79288Y-55452D01*
X79313Y-55543D01*
X79405Y-55590D01*
X79504Y-55619D01*
X79606Y-55627D01*
X79709Y-55616D01*
X79807Y-55585D01*
X79886Y-55543D01*
X79911Y-55452D01*
X79911Y-55872D01*
X79900Y-55855D01*
X79846Y-55801D01*
X79784Y-55759D01*
X79714Y-55730D01*
X79640Y-55714D01*
X79564Y-55714D01*
X79490Y-55728D01*
X79420Y-55756D01*
X79357Y-55798D01*
X79303Y-55851D01*
X79260Y-55913D01*
X79230Y-55982D01*
X79215Y-56056D01*
X79214Y-56132D01*
X79227Y-56206D01*
X79255Y-56276D01*
X79296Y-56340D01*
X79349Y-56394D01*
X79411Y-56437D01*
X79480Y-56468D01*
X79554Y-56484D01*
X79629Y-56485D01*
X79704Y-56472D01*
X79774Y-56445D01*
X79838Y-56405D01*
X79893Y-56352D01*
X79936Y-56291D01*
X79967Y-56222D01*
X79984Y-56148D01*
X79985Y-56062D01*
X79985Y-57490D01*
X78985Y-57490D01*
X78985Y-56062D01*
X78970Y-55988D01*
X78941Y-55918D01*
X78911Y-55872D01*
X78911Y-55452D01*
X78600Y-55141D01*
X78558Y-55182D01*
X78558Y-55100D01*
X78247Y-54788D01*
X78156Y-54813D01*
X78109Y-54905D01*
X78099Y-54938D01*
X78085Y-54892D01*
X78043Y-54813D01*
X77952Y-54788D01*
X77911Y-54829D01*
X77911Y-54747D01*
X77886Y-54656D01*
X77794Y-54609D01*
X77695Y-54580D01*
X77593Y-54572D01*
X77490Y-54583D01*
X77392Y-54614D01*
X77313Y-54656D01*
X77288Y-54747D01*
X77600Y-55058D01*
X77911Y-54747D01*
X77911Y-54829D01*
X77641Y-55100D01*
X77952Y-55411D01*
X78043Y-55386D01*
X78090Y-55294D01*
X78100Y-55261D01*
X78114Y-55307D01*
X78156Y-55386D01*
X78247Y-55411D01*
X78558Y-55100D01*
X78558Y-55182D01*
X78288Y-55452D01*
X78313Y-55543D01*
X78405Y-55590D01*
X78504Y-55619D01*
X78606Y-55627D01*
X78709Y-55616D01*
X78807Y-55585D01*
X78886Y-55543D01*
X78911Y-55452D01*
X78911Y-55872D01*
X78900Y-55855D01*
X78846Y-55801D01*
X78784Y-55759D01*
X78714Y-55730D01*
X78640Y-55714D01*
X78564Y-55714D01*
X78490Y-55728D01*
X78420Y-55756D01*
X78357Y-55798D01*
X78303Y-55851D01*
X78260Y-55913D01*
X78230Y-55982D01*
X78215Y-56056D01*
X78214Y-56132D01*
X78227Y-56206D01*
X78255Y-56276D01*
X78296Y-56340D01*
X78349Y-56394D01*
X78411Y-56437D01*
X78480Y-56468D01*
X78554Y-56484D01*
X78629Y-56485D01*
X78704Y-56472D01*
X78774Y-56445D01*
X78838Y-56405D01*
X78893Y-56352D01*
X78936Y-56291D01*
X78967Y-56222D01*
X78984Y-56148D01*
X78985Y-56062D01*
X78985Y-57490D01*
X77985Y-57490D01*
X77985Y-56062D01*
X77970Y-55988D01*
X77941Y-55918D01*
X77911Y-55872D01*
X77911Y-55452D01*
X77600Y-55141D01*
X77558Y-55182D01*
X77558Y-55100D01*
X77247Y-54788D01*
X77156Y-54813D01*
X77109Y-54905D01*
X77099Y-54938D01*
X77085Y-54892D01*
X77043Y-54813D01*
X76952Y-54788D01*
X76911Y-54829D01*
X76911Y-54747D01*
X76886Y-54656D01*
X76794Y-54609D01*
X76695Y-54580D01*
X76593Y-54572D01*
X76490Y-54583D01*
X76392Y-54614D01*
X76313Y-54656D01*
X76288Y-54747D01*
X76600Y-55058D01*
X76911Y-54747D01*
X76911Y-54829D01*
X76641Y-55100D01*
X76952Y-55411D01*
X77043Y-55386D01*
X77090Y-55294D01*
X77100Y-55261D01*
X77114Y-55307D01*
X77156Y-55386D01*
X77247Y-55411D01*
X77558Y-55100D01*
X77558Y-55182D01*
X77288Y-55452D01*
X77313Y-55543D01*
X77405Y-55590D01*
X77504Y-55619D01*
X77606Y-55627D01*
X77709Y-55616D01*
X77807Y-55585D01*
X77886Y-55543D01*
X77911Y-55452D01*
X77911Y-55872D01*
X77900Y-55855D01*
X77846Y-55801D01*
X77784Y-55759D01*
X77714Y-55730D01*
X77640Y-55714D01*
X77564Y-55714D01*
X77490Y-55728D01*
X77420Y-55756D01*
X77357Y-55798D01*
X77303Y-55851D01*
X77260Y-55913D01*
X77230Y-55982D01*
X77215Y-56056D01*
X77214Y-56132D01*
X77227Y-56206D01*
X77255Y-56276D01*
X77296Y-56340D01*
X77349Y-56394D01*
X77411Y-56437D01*
X77480Y-56468D01*
X77554Y-56484D01*
X77629Y-56485D01*
X77704Y-56472D01*
X77774Y-56445D01*
X77838Y-56405D01*
X77893Y-56352D01*
X77936Y-56291D01*
X77967Y-56222D01*
X77984Y-56148D01*
X77985Y-56062D01*
X77985Y-57490D01*
X76985Y-57490D01*
X76985Y-56062D01*
X76970Y-55988D01*
X76941Y-55918D01*
X76911Y-55872D01*
X76911Y-55452D01*
X76600Y-55141D01*
X76558Y-55182D01*
X76558Y-55100D01*
X76247Y-54788D01*
X76156Y-54813D01*
X76109Y-54905D01*
X76099Y-54938D01*
X76085Y-54892D01*
X76043Y-54813D01*
X75985Y-54797D01*
X75985Y-51662D01*
X75970Y-51588D01*
X75941Y-51518D01*
X75911Y-51472D01*
X75911Y-51052D01*
X75600Y-50741D01*
X75558Y-50782D01*
X75558Y-50700D01*
X75247Y-50388D01*
X75156Y-50413D01*
X75109Y-50505D01*
X75099Y-50538D01*
X75085Y-50492D01*
X75043Y-50413D01*
X74952Y-50388D01*
X74911Y-50429D01*
X74911Y-50347D01*
X74886Y-50256D01*
X74794Y-50209D01*
X74695Y-50180D01*
X74593Y-50172D01*
X74490Y-50183D01*
X74392Y-50214D01*
X74313Y-50256D01*
X74288Y-50347D01*
X74600Y-50658D01*
X74911Y-50347D01*
X74911Y-50429D01*
X74641Y-50700D01*
X74952Y-51011D01*
X75043Y-50986D01*
X75090Y-50894D01*
X75100Y-50861D01*
X75114Y-50907D01*
X75156Y-50986D01*
X75247Y-51011D01*
X75558Y-50700D01*
X75558Y-50782D01*
X75288Y-51052D01*
X75313Y-51143D01*
X75405Y-51190D01*
X75504Y-51219D01*
X75606Y-51227D01*
X75709Y-51216D01*
X75807Y-51185D01*
X75886Y-51143D01*
X75911Y-51052D01*
X75911Y-51472D01*
X75900Y-51455D01*
X75846Y-51401D01*
X75784Y-51359D01*
X75714Y-51330D01*
X75640Y-51314D01*
X75564Y-51314D01*
X75490Y-51328D01*
X75420Y-51356D01*
X75357Y-51398D01*
X75303Y-51451D01*
X75260Y-51513D01*
X75230Y-51582D01*
X75215Y-51656D01*
X75214Y-51732D01*
X75227Y-51806D01*
X75255Y-51876D01*
X75296Y-51940D01*
X75349Y-51994D01*
X75411Y-52037D01*
X75480Y-52068D01*
X75554Y-52084D01*
X75629Y-52085D01*
X75704Y-52072D01*
X75774Y-52045D01*
X75838Y-52005D01*
X75893Y-51952D01*
X75936Y-51891D01*
X75967Y-51822D01*
X75984Y-51748D01*
X75985Y-51662D01*
X75985Y-54797D01*
X75952Y-54788D01*
X75911Y-54829D01*
X75911Y-54747D01*
X75886Y-54656D01*
X75794Y-54609D01*
X75695Y-54580D01*
X75593Y-54572D01*
X75490Y-54583D01*
X75392Y-54614D01*
X75313Y-54656D01*
X75288Y-54747D01*
X75600Y-55058D01*
X75911Y-54747D01*
X75911Y-54829D01*
X75641Y-55100D01*
X75952Y-55411D01*
X76043Y-55386D01*
X76090Y-55294D01*
X76100Y-55261D01*
X76114Y-55307D01*
X76156Y-55386D01*
X76247Y-55411D01*
X76558Y-55100D01*
X76558Y-55182D01*
X76288Y-55452D01*
X76313Y-55543D01*
X76405Y-55590D01*
X76504Y-55619D01*
X76606Y-55627D01*
X76709Y-55616D01*
X76807Y-55585D01*
X76886Y-55543D01*
X76911Y-55452D01*
X76911Y-55872D01*
X76900Y-55855D01*
X76846Y-55801D01*
X76784Y-55759D01*
X76714Y-55730D01*
X76640Y-55714D01*
X76564Y-55714D01*
X76490Y-55728D01*
X76420Y-55756D01*
X76357Y-55798D01*
X76303Y-55851D01*
X76260Y-55913D01*
X76230Y-55982D01*
X76215Y-56056D01*
X76214Y-56132D01*
X76227Y-56206D01*
X76255Y-56276D01*
X76296Y-56340D01*
X76349Y-56394D01*
X76411Y-56437D01*
X76480Y-56468D01*
X76554Y-56484D01*
X76629Y-56485D01*
X76704Y-56472D01*
X76774Y-56445D01*
X76838Y-56405D01*
X76893Y-56352D01*
X76936Y-56291D01*
X76967Y-56222D01*
X76984Y-56148D01*
X76985Y-56062D01*
X76985Y-57490D01*
X75985Y-57490D01*
X75985Y-56062D01*
X75970Y-55988D01*
X75941Y-55918D01*
X75911Y-55872D01*
X75911Y-55452D01*
X75600Y-55141D01*
X75558Y-55182D01*
X75558Y-55100D01*
X75247Y-54788D01*
X75156Y-54813D01*
X75109Y-54905D01*
X75099Y-54938D01*
X75085Y-54892D01*
X75043Y-54813D01*
X74985Y-54797D01*
X74985Y-51662D01*
X74970Y-51588D01*
X74941Y-51518D01*
X74911Y-51472D01*
X74911Y-51052D01*
X74600Y-50741D01*
X74288Y-51052D01*
X74313Y-51143D01*
X74405Y-51190D01*
X74504Y-51219D01*
X74606Y-51227D01*
X74709Y-51216D01*
X74807Y-51185D01*
X74886Y-51143D01*
X74911Y-51052D01*
X74911Y-51472D01*
X74900Y-51455D01*
X74846Y-51401D01*
X74784Y-51359D01*
X74714Y-51330D01*
X74640Y-51314D01*
X74564Y-51314D01*
X74490Y-51328D01*
X74420Y-51356D01*
X74357Y-51398D01*
X74303Y-51451D01*
X74260Y-51513D01*
X74230Y-51582D01*
X74215Y-51656D01*
X74214Y-51732D01*
X74227Y-51806D01*
X74255Y-51876D01*
X74296Y-51940D01*
X74349Y-51994D01*
X74411Y-52037D01*
X74480Y-52068D01*
X74554Y-52084D01*
X74629Y-52085D01*
X74704Y-52072D01*
X74774Y-52045D01*
X74838Y-52005D01*
X74893Y-51952D01*
X74936Y-51891D01*
X74967Y-51822D01*
X74984Y-51748D01*
X74985Y-51662D01*
X74985Y-54797D01*
X74952Y-54788D01*
X74911Y-54829D01*
X74911Y-54747D01*
X74886Y-54656D01*
X74794Y-54609D01*
X74695Y-54580D01*
X74593Y-54572D01*
X74490Y-54583D01*
X74392Y-54614D01*
X74313Y-54656D01*
X74288Y-54747D01*
X74600Y-55058D01*
X74911Y-54747D01*
X74911Y-54829D01*
X74641Y-55100D01*
X74952Y-55411D01*
X75043Y-55386D01*
X75090Y-55294D01*
X75100Y-55261D01*
X75114Y-55307D01*
X75156Y-55386D01*
X75247Y-55411D01*
X75558Y-55100D01*
X75558Y-55182D01*
X75288Y-55452D01*
X75313Y-55543D01*
X75405Y-55590D01*
X75504Y-55619D01*
X75606Y-55627D01*
X75709Y-55616D01*
X75807Y-55585D01*
X75886Y-55543D01*
X75911Y-55452D01*
X75911Y-55872D01*
X75900Y-55855D01*
X75846Y-55801D01*
X75784Y-55759D01*
X75714Y-55730D01*
X75640Y-55714D01*
X75564Y-55714D01*
X75490Y-55728D01*
X75420Y-55756D01*
X75357Y-55798D01*
X75303Y-55851D01*
X75260Y-55913D01*
X75230Y-55982D01*
X75215Y-56056D01*
X75214Y-56132D01*
X75227Y-56206D01*
X75255Y-56276D01*
X75296Y-56340D01*
X75349Y-56394D01*
X75411Y-56437D01*
X75480Y-56468D01*
X75554Y-56484D01*
X75629Y-56485D01*
X75704Y-56472D01*
X75774Y-56445D01*
X75838Y-56405D01*
X75893Y-56352D01*
X75936Y-56291D01*
X75967Y-56222D01*
X75984Y-56148D01*
X75985Y-56062D01*
X75985Y-57490D01*
X74985Y-57490D01*
X74985Y-56062D01*
X74970Y-55988D01*
X74941Y-55918D01*
X74911Y-55872D01*
X74911Y-55452D01*
X74600Y-55141D01*
X74558Y-55182D01*
X74558Y-55100D01*
X74247Y-54788D01*
X74156Y-54813D01*
X74109Y-54905D01*
X74080Y-55004D01*
X74072Y-55106D01*
X74083Y-55209D01*
X74114Y-55307D01*
X74156Y-55386D01*
X74247Y-55411D01*
X74558Y-55100D01*
X74558Y-55182D01*
X74288Y-55452D01*
X74313Y-55543D01*
X74405Y-55590D01*
X74504Y-55619D01*
X74606Y-55627D01*
X74709Y-55616D01*
X74807Y-55585D01*
X74886Y-55543D01*
X74911Y-55452D01*
X74911Y-55872D01*
X74900Y-55855D01*
X74846Y-55801D01*
X74784Y-55759D01*
X74714Y-55730D01*
X74640Y-55714D01*
X74564Y-55714D01*
X74490Y-55728D01*
X74420Y-55756D01*
X74357Y-55798D01*
X74303Y-55851D01*
X74260Y-55913D01*
X74230Y-55982D01*
X74215Y-56056D01*
X74214Y-56132D01*
X74227Y-56206D01*
X74255Y-56276D01*
X74296Y-56340D01*
X74349Y-56394D01*
X74411Y-56437D01*
X74480Y-56468D01*
X74554Y-56484D01*
X74629Y-56485D01*
X74704Y-56472D01*
X74774Y-56445D01*
X74838Y-56405D01*
X74893Y-56352D01*
X74936Y-56291D01*
X74967Y-56222D01*
X74984Y-56148D01*
X74985Y-56062D01*
X74985Y-57490D01*
X73985Y-57490D01*
X73985Y-56062D01*
X73985Y-55062D01*
X73970Y-54988D01*
X73941Y-54918D01*
X73900Y-54855D01*
X73846Y-54801D01*
X73784Y-54759D01*
X73714Y-54730D01*
X73640Y-54714D01*
X73564Y-54714D01*
X73490Y-54728D01*
X73420Y-54756D01*
X73357Y-54798D01*
X73303Y-54851D01*
X73260Y-54913D01*
X73230Y-54982D01*
X73215Y-55056D01*
X73214Y-55132D01*
X73227Y-55206D01*
X73255Y-55276D01*
X73296Y-55340D01*
X73349Y-55394D01*
X73411Y-55437D01*
X73480Y-55468D01*
X73554Y-55484D01*
X73629Y-55485D01*
X73704Y-55472D01*
X73774Y-55445D01*
X73838Y-55405D01*
X73893Y-55352D01*
X73936Y-55291D01*
X73967Y-55222D01*
X73984Y-55148D01*
X73985Y-55062D01*
X73985Y-56062D01*
X73970Y-55988D01*
X73941Y-55918D01*
X73900Y-55855D01*
X73846Y-55801D01*
X73784Y-55759D01*
X73714Y-55730D01*
X73640Y-55714D01*
X73564Y-55714D01*
X73490Y-55728D01*
X73420Y-55756D01*
X73357Y-55798D01*
X73303Y-55851D01*
X73260Y-55913D01*
X73230Y-55982D01*
X73215Y-56056D01*
X73214Y-56132D01*
X73227Y-56206D01*
X73255Y-56276D01*
X73296Y-56340D01*
X73349Y-56394D01*
X73411Y-56437D01*
X73480Y-56468D01*
X73554Y-56484D01*
X73629Y-56485D01*
X73704Y-56472D01*
X73774Y-56445D01*
X73838Y-56405D01*
X73893Y-56352D01*
X73936Y-56291D01*
X73967Y-56222D01*
X73984Y-56148D01*
X73985Y-56062D01*
X73985Y-57490D01*
X73400Y-57490D01*
X73399Y-57490D01*
X73214Y-57490D01*
X73042Y-57457D01*
X72881Y-57390D01*
X72735Y-57294D01*
X72611Y-57171D01*
X72513Y-57026D01*
X72445Y-56866D01*
X72409Y-56692D01*
X72409Y-56300D01*
X72409Y-47510D01*
X72443Y-47339D01*
X72510Y-47178D01*
X72607Y-47033D01*
X72730Y-46909D01*
X72875Y-46812D01*
X73036Y-46744D01*
X73208Y-46709D01*
X73387Y-46709D01*
X73389Y-46709D01*
X73393Y-46709D01*
X73398Y-46709D01*
X73400Y-46709D01*
X82894Y-46709D01*
X83072Y-46727D01*
X83239Y-46777D01*
X83392Y-46858D01*
X83526Y-46968D01*
X83637Y-47102D01*
X83720Y-47255D01*
X83771Y-47421D01*
X83790Y-47598D01*
X83790Y-47600D01*
X83790Y-56300D01*
X83790Y-56594D01*
X83790Y-56594D01*
G37*
G54D13*
X83790Y-56594D02*
X83772Y-56772D01*
X83722Y-56939D01*
X83641Y-57092D01*
X83531Y-57226D01*
X83397Y-57337D01*
X83244Y-57420D01*
X83127Y-57456D01*
X83127Y-55093D01*
X83127Y-50693D01*
X83116Y-50590D01*
X83085Y-50492D01*
X83043Y-50413D01*
X82952Y-50388D01*
X82911Y-50429D01*
X82911Y-50347D01*
X82886Y-50256D01*
X82794Y-50209D01*
X82695Y-50180D01*
X82593Y-50172D01*
X82490Y-50183D01*
X82392Y-50214D01*
X82313Y-50256D01*
X82288Y-50347D01*
X82600Y-50658D01*
X82911Y-50347D01*
X82911Y-50429D01*
X82641Y-50700D01*
X82952Y-51011D01*
X83043Y-50986D01*
X83090Y-50894D01*
X83119Y-50795D01*
X83127Y-50693D01*
X83127Y-55093D01*
X83116Y-54990D01*
X83085Y-54892D01*
X83043Y-54813D01*
X82985Y-54797D01*
X82985Y-51662D01*
X82970Y-51588D01*
X82941Y-51518D01*
X82911Y-51472D01*
X82911Y-51052D01*
X82600Y-50741D01*
X82558Y-50782D01*
X82558Y-50700D01*
X82247Y-50388D01*
X82156Y-50413D01*
X82109Y-50505D01*
X82099Y-50538D01*
X82085Y-50492D01*
X82043Y-50413D01*
X81952Y-50388D01*
X81911Y-50429D01*
X81911Y-50347D01*
X81886Y-50256D01*
X81794Y-50209D01*
X81695Y-50180D01*
X81593Y-50172D01*
X81490Y-50183D01*
X81392Y-50214D01*
X81313Y-50256D01*
X81288Y-50347D01*
X81600Y-50658D01*
X81911Y-50347D01*
X81911Y-50429D01*
X81641Y-50700D01*
X81952Y-51011D01*
X82043Y-50986D01*
X82090Y-50894D01*
X82100Y-50861D01*
X82114Y-50907D01*
X82156Y-50986D01*
X82247Y-51011D01*
X82558Y-50700D01*
X82558Y-50782D01*
X82288Y-51052D01*
X82313Y-51143D01*
X82405Y-51190D01*
X82504Y-51219D01*
X82606Y-51227D01*
X82709Y-51216D01*
X82807Y-51185D01*
X82886Y-51143D01*
X82911Y-51052D01*
X82911Y-51472D01*
X82900Y-51455D01*
X82846Y-51401D01*
X82784Y-51359D01*
X82714Y-51330D01*
X82640Y-51314D01*
X82564Y-51314D01*
X82490Y-51328D01*
X82420Y-51356D01*
X82357Y-51398D01*
X82303Y-51451D01*
X82260Y-51513D01*
X82230Y-51582D01*
X82215Y-51656D01*
X82214Y-51732D01*
X82227Y-51806D01*
X82255Y-51876D01*
X82296Y-51940D01*
X82349Y-51994D01*
X82411Y-52037D01*
X82480Y-52068D01*
X82554Y-52084D01*
X82629Y-52085D01*
X82704Y-52072D01*
X82774Y-52045D01*
X82838Y-52005D01*
X82893Y-51952D01*
X82936Y-51891D01*
X82967Y-51822D01*
X82984Y-51748D01*
X82985Y-51662D01*
X82985Y-54797D01*
X82952Y-54788D01*
X82911Y-54829D01*
X82911Y-54747D01*
X82886Y-54656D01*
X82794Y-54609D01*
X82695Y-54580D01*
X82593Y-54572D01*
X82490Y-54583D01*
X82392Y-54614D01*
X82313Y-54656D01*
X82288Y-54747D01*
X82600Y-55058D01*
X82911Y-54747D01*
X82911Y-54829D01*
X82641Y-55100D01*
X82952Y-55411D01*
X83043Y-55386D01*
X83090Y-55294D01*
X83119Y-55195D01*
X83127Y-55093D01*
X83127Y-57456D01*
X83078Y-57471D01*
X82985Y-57481D01*
X82985Y-56062D01*
X82970Y-55988D01*
X82941Y-55918D01*
X82911Y-55872D01*
X82911Y-55452D01*
X82600Y-55141D01*
X82558Y-55182D01*
X82558Y-55100D01*
X82247Y-54788D01*
X82156Y-54813D01*
X82109Y-54905D01*
X82099Y-54938D01*
X82085Y-54892D01*
X82043Y-54813D01*
X81985Y-54797D01*
X81985Y-51662D01*
X81970Y-51588D01*
X81941Y-51518D01*
X81911Y-51472D01*
X81911Y-51052D01*
X81600Y-50741D01*
X81558Y-50782D01*
X81558Y-50700D01*
X81247Y-50388D01*
X81156Y-50413D01*
X81109Y-50505D01*
X81099Y-50538D01*
X81085Y-50492D01*
X81043Y-50413D01*
X80952Y-50388D01*
X80911Y-50429D01*
X80911Y-50347D01*
X80886Y-50256D01*
X80794Y-50209D01*
X80695Y-50180D01*
X80593Y-50172D01*
X80490Y-50183D01*
X80392Y-50214D01*
X80313Y-50256D01*
X80288Y-50347D01*
X80600Y-50658D01*
X80911Y-50347D01*
X80911Y-50429D01*
X80641Y-50700D01*
X80952Y-51011D01*
X81043Y-50986D01*
X81090Y-50894D01*
X81100Y-50861D01*
X81114Y-50907D01*
X81156Y-50986D01*
X81247Y-51011D01*
X81558Y-50700D01*
X81558Y-50782D01*
X81288Y-51052D01*
X81313Y-51143D01*
X81405Y-51190D01*
X81504Y-51219D01*
X81606Y-51227D01*
X81709Y-51216D01*
X81807Y-51185D01*
X81886Y-51143D01*
X81911Y-51052D01*
X81911Y-51472D01*
X81900Y-51455D01*
X81846Y-51401D01*
X81784Y-51359D01*
X81714Y-51330D01*
X81640Y-51314D01*
X81564Y-51314D01*
X81490Y-51328D01*
X81420Y-51356D01*
X81357Y-51398D01*
X81303Y-51451D01*
X81260Y-51513D01*
X81230Y-51582D01*
X81215Y-51656D01*
X81214Y-51732D01*
X81227Y-51806D01*
X81255Y-51876D01*
X81296Y-51940D01*
X81349Y-51994D01*
X81411Y-52037D01*
X81480Y-52068D01*
X81554Y-52084D01*
X81629Y-52085D01*
X81704Y-52072D01*
X81774Y-52045D01*
X81838Y-52005D01*
X81893Y-51952D01*
X81936Y-51891D01*
X81967Y-51822D01*
X81984Y-51748D01*
X81985Y-51662D01*
X81985Y-54797D01*
X81952Y-54788D01*
X81911Y-54829D01*
X81911Y-54747D01*
X81886Y-54656D01*
X81794Y-54609D01*
X81695Y-54580D01*
X81593Y-54572D01*
X81490Y-54583D01*
X81392Y-54614D01*
X81313Y-54656D01*
X81288Y-54747D01*
X81600Y-55058D01*
X81911Y-54747D01*
X81911Y-54829D01*
X81641Y-55100D01*
X81952Y-55411D01*
X82043Y-55386D01*
X82090Y-55294D01*
X82100Y-55261D01*
X82114Y-55307D01*
X82156Y-55386D01*
X82247Y-55411D01*
X82558Y-55100D01*
X82558Y-55182D01*
X82288Y-55452D01*
X82313Y-55543D01*
X82405Y-55590D01*
X82504Y-55619D01*
X82606Y-55627D01*
X82709Y-55616D01*
X82807Y-55585D01*
X82886Y-55543D01*
X82911Y-55452D01*
X82911Y-55872D01*
X82900Y-55855D01*
X82846Y-55801D01*
X82784Y-55759D01*
X82714Y-55730D01*
X82640Y-55714D01*
X82564Y-55714D01*
X82490Y-55728D01*
X82420Y-55756D01*
X82357Y-55798D01*
X82303Y-55851D01*
X82260Y-55913D01*
X82230Y-55982D01*
X82215Y-56056D01*
X82214Y-56132D01*
X82227Y-56206D01*
X82255Y-56276D01*
X82296Y-56340D01*
X82349Y-56394D01*
X82411Y-56437D01*
X82480Y-56468D01*
X82554Y-56484D01*
X82629Y-56485D01*
X82704Y-56472D01*
X82774Y-56445D01*
X82838Y-56405D01*
X82893Y-56352D01*
X82936Y-56291D01*
X82967Y-56222D01*
X82984Y-56148D01*
X82985Y-56062D01*
X82985Y-57481D01*
X82901Y-57490D01*
X82899Y-57490D01*
X81985Y-57490D01*
X81985Y-56062D01*
X81970Y-55988D01*
X81941Y-55918D01*
X81911Y-55872D01*
X81911Y-55452D01*
X81600Y-55141D01*
X81558Y-55182D01*
X81558Y-55100D01*
X81247Y-54788D01*
X81156Y-54813D01*
X81109Y-54905D01*
X81099Y-54938D01*
X81085Y-54892D01*
X81043Y-54813D01*
X80985Y-54797D01*
X80985Y-51662D01*
X80970Y-51588D01*
X80941Y-51518D01*
X80911Y-51472D01*
X80911Y-51052D01*
X80600Y-50741D01*
X80558Y-50782D01*
X80558Y-50700D01*
X80247Y-50388D01*
X80156Y-50413D01*
X80109Y-50505D01*
X80099Y-50538D01*
X80085Y-50492D01*
X80043Y-50413D01*
X79952Y-50388D01*
X79911Y-50429D01*
X79911Y-50347D01*
X79886Y-50256D01*
X79794Y-50209D01*
X79695Y-50180D01*
X79593Y-50172D01*
X79490Y-50183D01*
X79392Y-50214D01*
X79313Y-50256D01*
X79288Y-50347D01*
X79600Y-50658D01*
X79911Y-50347D01*
X79911Y-50429D01*
X79641Y-50700D01*
X79952Y-51011D01*
X80043Y-50986D01*
X80090Y-50894D01*
X80100Y-50861D01*
X80114Y-50907D01*
X80156Y-50986D01*
X80247Y-51011D01*
X80558Y-50700D01*
X80558Y-50782D01*
X80288Y-51052D01*
X80313Y-51143D01*
X80405Y-51190D01*
X80504Y-51219D01*
X80606Y-51227D01*
X80709Y-51216D01*
X80807Y-51185D01*
X80886Y-51143D01*
X80911Y-51052D01*
X80911Y-51472D01*
X80900Y-51455D01*
X80846Y-51401D01*
X80784Y-51359D01*
X80714Y-51330D01*
X80640Y-51314D01*
X80564Y-51314D01*
X80490Y-51328D01*
X80420Y-51356D01*
X80357Y-51398D01*
X80303Y-51451D01*
X80260Y-51513D01*
X80230Y-51582D01*
X80215Y-51656D01*
X80214Y-51732D01*
X80227Y-51806D01*
X80255Y-51876D01*
X80296Y-51940D01*
X80349Y-51994D01*
X80411Y-52037D01*
X80480Y-52068D01*
X80554Y-52084D01*
X80629Y-52085D01*
X80704Y-52072D01*
X80774Y-52045D01*
X80838Y-52005D01*
X80893Y-51952D01*
X80936Y-51891D01*
X80967Y-51822D01*
X80984Y-51748D01*
X80985Y-51662D01*
X80985Y-54797D01*
X80952Y-54788D01*
X80911Y-54829D01*
X80911Y-54747D01*
X80886Y-54656D01*
X80794Y-54609D01*
X80695Y-54580D01*
X80593Y-54572D01*
X80490Y-54583D01*
X80392Y-54614D01*
X80313Y-54656D01*
X80288Y-54747D01*
X80600Y-55058D01*
X80911Y-54747D01*
X80911Y-54829D01*
X80641Y-55100D01*
X80952Y-55411D01*
X81043Y-55386D01*
X81090Y-55294D01*
X81100Y-55261D01*
X81114Y-55307D01*
X81156Y-55386D01*
X81247Y-55411D01*
X81558Y-55100D01*
X81558Y-55182D01*
X81288Y-55452D01*
X81313Y-55543D01*
X81405Y-55590D01*
X81504Y-55619D01*
X81606Y-55627D01*
X81709Y-55616D01*
X81807Y-55585D01*
X81886Y-55543D01*
X81911Y-55452D01*
X81911Y-55872D01*
X81900Y-55855D01*
X81846Y-55801D01*
X81784Y-55759D01*
X81714Y-55730D01*
X81640Y-55714D01*
X81564Y-55714D01*
X81490Y-55728D01*
X81420Y-55756D01*
X81357Y-55798D01*
X81303Y-55851D01*
X81260Y-55913D01*
X81230Y-55982D01*
X81215Y-56056D01*
X81214Y-56132D01*
X81227Y-56206D01*
X81255Y-56276D01*
X81296Y-56340D01*
X81349Y-56394D01*
X81411Y-56437D01*
X81480Y-56468D01*
X81554Y-56484D01*
X81629Y-56485D01*
X81704Y-56472D01*
X81774Y-56445D01*
X81838Y-56405D01*
X81893Y-56352D01*
X81936Y-56291D01*
X81967Y-56222D01*
X81984Y-56148D01*
X81985Y-56062D01*
X81985Y-57490D01*
X80985Y-57490D01*
X80985Y-56062D01*
X80970Y-55988D01*
X80941Y-55918D01*
X80911Y-55872D01*
X80911Y-55452D01*
X80600Y-55141D01*
X80558Y-55182D01*
X80558Y-55100D01*
X80247Y-54788D01*
X80156Y-54813D01*
X80109Y-54905D01*
X80099Y-54938D01*
X80085Y-54892D01*
X80043Y-54813D01*
X79985Y-54797D01*
X79985Y-51662D01*
X79970Y-51588D01*
X79941Y-51518D01*
X79911Y-51472D01*
X79911Y-51052D01*
X79600Y-50741D01*
X79288Y-51052D01*
X79313Y-51143D01*
X79405Y-51190D01*
X79504Y-51219D01*
X79606Y-51227D01*
X79709Y-51216D01*
X79807Y-51185D01*
X79886Y-51143D01*
X79911Y-51052D01*
X79911Y-51472D01*
X79900Y-51455D01*
X79846Y-51401D01*
X79784Y-51359D01*
X79714Y-51330D01*
X79640Y-51314D01*
X79564Y-51314D01*
X79490Y-51328D01*
X79424Y-51355D01*
X79220Y-51150D01*
X79220Y-51003D01*
X79247Y-51011D01*
X79558Y-50700D01*
X79247Y-50388D01*
X79220Y-50396D01*
X79220Y-50375D01*
X79218Y-50363D01*
X79217Y-50352D01*
X79217Y-50352D01*
X79217Y-50351D01*
X79214Y-50341D01*
X79211Y-50330D01*
X79211Y-50329D01*
X79210Y-50329D01*
X79205Y-50319D01*
X79200Y-50309D01*
X79200Y-50309D01*
X79199Y-50308D01*
X79192Y-50299D01*
X79186Y-50291D01*
X79185Y-50290D01*
X79185Y-50290D01*
X79185Y-50290D01*
X79184Y-50290D01*
X78434Y-49540D01*
X78426Y-49533D01*
X78417Y-49525D01*
X78417Y-49525D01*
X78416Y-49525D01*
X78406Y-49520D01*
X78397Y-49514D01*
X78396Y-49514D01*
X78396Y-49514D01*
X78385Y-49510D01*
X78374Y-49507D01*
X78374Y-49507D01*
X78373Y-49507D01*
X78362Y-49506D01*
X78351Y-49505D01*
X78350Y-49505D01*
X78350Y-49505D01*
X78350Y-49505D01*
X78350Y-49505D01*
X76335Y-49505D01*
X76335Y-47984D01*
X76335Y-47936D01*
X76277Y-47879D01*
X75979Y-47879D01*
X75979Y-48177D01*
X76036Y-48235D01*
X76127Y-48235D01*
X76171Y-48226D01*
X76213Y-48209D01*
X76251Y-48184D01*
X76283Y-48152D01*
X76308Y-48114D01*
X76325Y-48073D01*
X76334Y-48029D01*
X76335Y-47984D01*
X76335Y-49505D01*
X76274Y-49505D01*
X75320Y-48550D01*
X75320Y-48095D01*
X75583Y-48095D01*
X75591Y-48114D01*
X75616Y-48152D01*
X75648Y-48184D01*
X75686Y-48209D01*
X75728Y-48226D01*
X75772Y-48235D01*
X75863Y-48235D01*
X75920Y-48177D01*
X75920Y-47879D01*
X75913Y-47879D01*
X75913Y-47820D01*
X75920Y-47820D01*
X75920Y-47813D01*
X75979Y-47813D01*
X75979Y-47820D01*
X76277Y-47820D01*
X76335Y-47763D01*
X76335Y-47715D01*
X76334Y-47670D01*
X76325Y-47626D01*
X76308Y-47585D01*
X76283Y-47547D01*
X76251Y-47515D01*
X76213Y-47490D01*
X76195Y-47483D01*
X76195Y-47186D01*
X76191Y-47168D01*
X76184Y-47152D01*
X76175Y-47137D01*
X76162Y-47125D01*
X76148Y-47115D01*
X76131Y-47108D01*
X76114Y-47105D01*
X76096Y-47104D01*
X75786Y-47104D01*
X75768Y-47108D01*
X75752Y-47115D01*
X75737Y-47124D01*
X75725Y-47137D01*
X75715Y-47151D01*
X75708Y-47168D01*
X75705Y-47185D01*
X75704Y-47203D01*
X75704Y-47483D01*
X75695Y-47487D01*
X75695Y-47186D01*
X75691Y-47168D01*
X75684Y-47152D01*
X75675Y-47137D01*
X75662Y-47125D01*
X75648Y-47115D01*
X75631Y-47108D01*
X75614Y-47105D01*
X75596Y-47104D01*
X75286Y-47104D01*
X75268Y-47108D01*
X75252Y-47115D01*
X75237Y-47124D01*
X75225Y-47137D01*
X75215Y-47151D01*
X75208Y-47168D01*
X75205Y-47185D01*
X75204Y-47203D01*
X75204Y-47435D01*
X75195Y-47425D01*
X75195Y-47186D01*
X75191Y-47168D01*
X75184Y-47152D01*
X75175Y-47137D01*
X75162Y-47125D01*
X75148Y-47115D01*
X75131Y-47108D01*
X75114Y-47105D01*
X75096Y-47104D01*
X74786Y-47104D01*
X74768Y-47108D01*
X74752Y-47115D01*
X74737Y-47124D01*
X74725Y-47137D01*
X74715Y-47151D01*
X74708Y-47168D01*
X74705Y-47185D01*
X74704Y-47203D01*
X74704Y-47435D01*
X74695Y-47425D01*
X74695Y-47186D01*
X74691Y-47168D01*
X74684Y-47152D01*
X74675Y-47137D01*
X74662Y-47125D01*
X74648Y-47115D01*
X74631Y-47108D01*
X74614Y-47105D01*
X74596Y-47104D01*
X74286Y-47104D01*
X74268Y-47108D01*
X74252Y-47115D01*
X74237Y-47124D01*
X74225Y-47137D01*
X74215Y-47151D01*
X74208Y-47168D01*
X74205Y-47185D01*
X74204Y-47203D01*
X74204Y-47435D01*
X74195Y-47425D01*
X74195Y-47186D01*
X74191Y-47168D01*
X74184Y-47152D01*
X74175Y-47137D01*
X74162Y-47125D01*
X74148Y-47115D01*
X74131Y-47108D01*
X74114Y-47105D01*
X74096Y-47104D01*
X73786Y-47104D01*
X73768Y-47108D01*
X73752Y-47115D01*
X73737Y-47124D01*
X73725Y-47137D01*
X73715Y-47151D01*
X73708Y-47168D01*
X73705Y-47185D01*
X73704Y-47203D01*
X73704Y-47513D01*
X73708Y-47531D01*
X73715Y-47547D01*
X73724Y-47562D01*
X73737Y-47574D01*
X73751Y-47584D01*
X73768Y-47591D01*
X73785Y-47594D01*
X73803Y-47595D01*
X74025Y-47595D01*
X74035Y-47604D01*
X73786Y-47604D01*
X73768Y-47608D01*
X73752Y-47615D01*
X73737Y-47624D01*
X73725Y-47637D01*
X73715Y-47651D01*
X73708Y-47668D01*
X73705Y-47685D01*
X73704Y-47703D01*
X73704Y-48013D01*
X73708Y-48031D01*
X73715Y-48047D01*
X73724Y-48062D01*
X73737Y-48074D01*
X73751Y-48084D01*
X73768Y-48091D01*
X73785Y-48094D01*
X73803Y-48095D01*
X73830Y-48095D01*
X73830Y-50350D01*
X73831Y-50361D01*
X73832Y-50372D01*
X73832Y-50372D01*
X73832Y-50373D01*
X73835Y-50383D01*
X73838Y-50394D01*
X73838Y-50395D01*
X73839Y-50395D01*
X73839Y-50396D01*
X73784Y-50359D01*
X73714Y-50330D01*
X73640Y-50314D01*
X73564Y-50314D01*
X73490Y-50328D01*
X73420Y-50356D01*
X73357Y-50398D01*
X73303Y-50451D01*
X73260Y-50513D01*
X73230Y-50582D01*
X73215Y-50656D01*
X73214Y-50732D01*
X73227Y-50806D01*
X73255Y-50876D01*
X73296Y-50940D01*
X73349Y-50994D01*
X73411Y-51037D01*
X73480Y-51068D01*
X73554Y-51084D01*
X73629Y-51085D01*
X73704Y-51072D01*
X73774Y-51045D01*
X73838Y-51005D01*
X73893Y-50952D01*
X73936Y-50891D01*
X73967Y-50822D01*
X73980Y-50766D01*
X73980Y-51150D01*
X73774Y-51355D01*
X73714Y-51330D01*
X73640Y-51314D01*
X73564Y-51314D01*
X73490Y-51328D01*
X73420Y-51356D01*
X73357Y-51398D01*
X73303Y-51451D01*
X73260Y-51513D01*
X73230Y-51582D01*
X73215Y-51656D01*
X73214Y-51732D01*
X73227Y-51806D01*
X73255Y-51876D01*
X73296Y-51940D01*
X73349Y-51994D01*
X73411Y-52037D01*
X73480Y-52068D01*
X73554Y-52084D01*
X73629Y-52085D01*
X73704Y-52072D01*
X73774Y-52045D01*
X73838Y-52005D01*
X73893Y-51952D01*
X73936Y-51891D01*
X73967Y-51822D01*
X73984Y-51748D01*
X73985Y-51662D01*
X73970Y-51588D01*
X73944Y-51525D01*
X74184Y-51284D01*
X74191Y-51276D01*
X74199Y-51267D01*
X74199Y-51267D01*
X74199Y-51266D01*
X74204Y-51256D01*
X74210Y-51247D01*
X74210Y-51246D01*
X74210Y-51246D01*
X74214Y-51235D01*
X74217Y-51224D01*
X74217Y-51224D01*
X74217Y-51223D01*
X74218Y-51212D01*
X74219Y-51201D01*
X74219Y-51200D01*
X74219Y-51200D01*
X74219Y-51200D01*
X74220Y-51200D01*
X74220Y-51003D01*
X74247Y-51011D01*
X74558Y-50700D01*
X74247Y-50388D01*
X74177Y-50407D01*
X74070Y-50300D01*
X74070Y-48095D01*
X74080Y-48095D01*
X74080Y-48600D01*
X74081Y-48611D01*
X74082Y-48622D01*
X74082Y-48622D01*
X74082Y-48623D01*
X74085Y-48633D01*
X74088Y-48644D01*
X74088Y-48645D01*
X74089Y-48645D01*
X74094Y-48655D01*
X74099Y-48665D01*
X74099Y-48665D01*
X74100Y-48666D01*
X74107Y-48675D01*
X74113Y-48683D01*
X74114Y-48684D01*
X74114Y-48684D01*
X74114Y-48684D01*
X74115Y-48684D01*
X75603Y-50173D01*
X75593Y-50172D01*
X75490Y-50183D01*
X75392Y-50214D01*
X75313Y-50256D01*
X75288Y-50347D01*
X75600Y-50658D01*
X75605Y-50653D01*
X75646Y-50694D01*
X75641Y-50700D01*
X75952Y-51011D01*
X75980Y-51003D01*
X75980Y-51200D01*
X75981Y-51211D01*
X75982Y-51222D01*
X75982Y-51222D01*
X75982Y-51223D01*
X75985Y-51233D01*
X75988Y-51244D01*
X75988Y-51245D01*
X75989Y-51245D01*
X75994Y-51255D01*
X75999Y-51265D01*
X75999Y-51265D01*
X76000Y-51266D01*
X76007Y-51275D01*
X76013Y-51283D01*
X76014Y-51284D01*
X76014Y-51284D01*
X76014Y-51284D01*
X76015Y-51284D01*
X76255Y-51525D01*
X76230Y-51582D01*
X76215Y-51656D01*
X76214Y-51732D01*
X76227Y-51806D01*
X76255Y-51876D01*
X76296Y-51940D01*
X76349Y-51994D01*
X76411Y-52037D01*
X76480Y-52068D01*
X76554Y-52084D01*
X76629Y-52085D01*
X76704Y-52072D01*
X76774Y-52045D01*
X76838Y-52005D01*
X76893Y-51952D01*
X76936Y-51891D01*
X76967Y-51822D01*
X76984Y-51748D01*
X76985Y-51662D01*
X76970Y-51588D01*
X76941Y-51518D01*
X76911Y-51472D01*
X76911Y-51052D01*
X76600Y-50741D01*
X76288Y-51052D01*
X76313Y-51143D01*
X76405Y-51190D01*
X76504Y-51219D01*
X76606Y-51227D01*
X76709Y-51216D01*
X76807Y-51185D01*
X76886Y-51143D01*
X76911Y-51052D01*
X76911Y-51472D01*
X76900Y-51455D01*
X76846Y-51401D01*
X76784Y-51359D01*
X76714Y-51330D01*
X76640Y-51314D01*
X76564Y-51314D01*
X76490Y-51328D01*
X76424Y-51355D01*
X76220Y-51150D01*
X76220Y-51003D01*
X76247Y-51011D01*
X76558Y-50700D01*
X76247Y-50388D01*
X76177Y-50407D01*
X74320Y-48550D01*
X74320Y-48235D01*
X74363Y-48235D01*
X74420Y-48177D01*
X74420Y-47879D01*
X74413Y-47879D01*
X74413Y-47820D01*
X74420Y-47820D01*
X74420Y-47813D01*
X74479Y-47813D01*
X74479Y-47820D01*
X74580Y-47820D01*
X74580Y-47879D01*
X74479Y-47879D01*
X74479Y-48177D01*
X74536Y-48235D01*
X74580Y-48235D01*
X74580Y-48600D01*
X74581Y-48611D01*
X74582Y-48622D01*
X74582Y-48622D01*
X74582Y-48623D01*
X74585Y-48633D01*
X74588Y-48644D01*
X74588Y-48645D01*
X74589Y-48645D01*
X74594Y-48655D01*
X74599Y-48665D01*
X74599Y-48665D01*
X74600Y-48666D01*
X74607Y-48675D01*
X74613Y-48683D01*
X74614Y-48684D01*
X74614Y-48684D01*
X74614Y-48684D01*
X74615Y-48684D01*
X75965Y-50034D01*
X75973Y-50041D01*
X75982Y-50049D01*
X75982Y-50049D01*
X75983Y-50049D01*
X75993Y-50054D01*
X76002Y-50060D01*
X76003Y-50060D01*
X76003Y-50060D01*
X76014Y-50064D01*
X76025Y-50067D01*
X76025Y-50067D01*
X76026Y-50067D01*
X76037Y-50068D01*
X76048Y-50069D01*
X76049Y-50069D01*
X76049Y-50069D01*
X76049Y-50069D01*
X76050Y-50070D01*
X76500Y-50070D01*
X76603Y-50173D01*
X76593Y-50172D01*
X76490Y-50183D01*
X76392Y-50214D01*
X76313Y-50256D01*
X76288Y-50347D01*
X76600Y-50658D01*
X76605Y-50653D01*
X76646Y-50694D01*
X76641Y-50700D01*
X76952Y-51011D01*
X76980Y-51003D01*
X76980Y-51200D01*
X76981Y-51211D01*
X76982Y-51222D01*
X76982Y-51222D01*
X76982Y-51223D01*
X76985Y-51233D01*
X76988Y-51244D01*
X76988Y-51245D01*
X76989Y-51245D01*
X76994Y-51255D01*
X76999Y-51265D01*
X76999Y-51265D01*
X77000Y-51266D01*
X77007Y-51275D01*
X77013Y-51283D01*
X77014Y-51284D01*
X77014Y-51284D01*
X77014Y-51284D01*
X77015Y-51284D01*
X77255Y-51525D01*
X77230Y-51582D01*
X77215Y-51656D01*
X77214Y-51732D01*
X77227Y-51806D01*
X77255Y-51876D01*
X77296Y-51940D01*
X77349Y-51994D01*
X77411Y-52037D01*
X77480Y-52068D01*
X77554Y-52084D01*
X77629Y-52085D01*
X77704Y-52072D01*
X77774Y-52045D01*
X77838Y-52005D01*
X77893Y-51952D01*
X77936Y-51891D01*
X77967Y-51822D01*
X77984Y-51748D01*
X77985Y-51662D01*
X77970Y-51588D01*
X77941Y-51518D01*
X77911Y-51472D01*
X77911Y-51052D01*
X77600Y-50741D01*
X77288Y-51052D01*
X77313Y-51143D01*
X77405Y-51190D01*
X77504Y-51219D01*
X77606Y-51227D01*
X77709Y-51216D01*
X77807Y-51185D01*
X77886Y-51143D01*
X77911Y-51052D01*
X77911Y-51472D01*
X77900Y-51455D01*
X77846Y-51401D01*
X77784Y-51359D01*
X77714Y-51330D01*
X77640Y-51314D01*
X77564Y-51314D01*
X77490Y-51328D01*
X77424Y-51355D01*
X77220Y-51150D01*
X77220Y-51003D01*
X77247Y-51011D01*
X77558Y-50700D01*
X77247Y-50388D01*
X77177Y-50407D01*
X76634Y-49865D01*
X76626Y-49858D01*
X76617Y-49850D01*
X76617Y-49850D01*
X76616Y-49850D01*
X76606Y-49845D01*
X76597Y-49839D01*
X76596Y-49839D01*
X76596Y-49839D01*
X76585Y-49835D01*
X76574Y-49832D01*
X76574Y-49832D01*
X76573Y-49832D01*
X76562Y-49831D01*
X76551Y-49830D01*
X76550Y-49830D01*
X76550Y-49830D01*
X76550Y-49830D01*
X76550Y-49830D01*
X76099Y-49830D01*
X74820Y-48550D01*
X74820Y-48235D01*
X74863Y-48235D01*
X74920Y-48177D01*
X74920Y-47879D01*
X74820Y-47879D01*
X74820Y-47820D01*
X74920Y-47820D01*
X74920Y-47813D01*
X74979Y-47813D01*
X74979Y-47820D01*
X74986Y-47820D01*
X74986Y-47879D01*
X74979Y-47879D01*
X74979Y-48177D01*
X75036Y-48235D01*
X75080Y-48235D01*
X75080Y-48600D01*
X75081Y-48611D01*
X75082Y-48622D01*
X75082Y-48622D01*
X75082Y-48623D01*
X75085Y-48633D01*
X75088Y-48644D01*
X75088Y-48645D01*
X75089Y-48645D01*
X75094Y-48655D01*
X75099Y-48665D01*
X75099Y-48665D01*
X75100Y-48666D01*
X75107Y-48675D01*
X75113Y-48683D01*
X75114Y-48684D01*
X75114Y-48684D01*
X75114Y-48684D01*
X75115Y-48684D01*
X76140Y-49709D01*
X76148Y-49716D01*
X76157Y-49724D01*
X76157Y-49724D01*
X76158Y-49724D01*
X76168Y-49729D01*
X76177Y-49735D01*
X76178Y-49735D01*
X76178Y-49735D01*
X76189Y-49739D01*
X76200Y-49742D01*
X76200Y-49742D01*
X76201Y-49742D01*
X76212Y-49743D01*
X76223Y-49744D01*
X76224Y-49744D01*
X76224Y-49744D01*
X76224Y-49744D01*
X76225Y-49745D01*
X78300Y-49745D01*
X78752Y-50197D01*
X78695Y-50180D01*
X78593Y-50172D01*
X78490Y-50183D01*
X78392Y-50214D01*
X78313Y-50256D01*
X78288Y-50347D01*
X78600Y-50658D01*
X78605Y-50653D01*
X78646Y-50694D01*
X78641Y-50700D01*
X78952Y-51011D01*
X78980Y-51003D01*
X78980Y-51200D01*
X78981Y-51211D01*
X78982Y-51222D01*
X78982Y-51222D01*
X78982Y-51223D01*
X78985Y-51233D01*
X78988Y-51244D01*
X78988Y-51245D01*
X78989Y-51245D01*
X78994Y-51255D01*
X78999Y-51265D01*
X78999Y-51265D01*
X79000Y-51266D01*
X79007Y-51275D01*
X79013Y-51283D01*
X79014Y-51284D01*
X79014Y-51284D01*
X79014Y-51284D01*
X79015Y-51284D01*
X79255Y-51525D01*
X79230Y-51582D01*
X79215Y-51656D01*
X79214Y-51732D01*
X79227Y-51806D01*
X79255Y-51876D01*
X79296Y-51940D01*
X79349Y-51994D01*
X79411Y-52037D01*
X79480Y-52068D01*
X79554Y-52084D01*
X79629Y-52085D01*
X79704Y-52072D01*
X79774Y-52045D01*
X79838Y-52005D01*
X79893Y-51952D01*
X79936Y-51891D01*
X79967Y-51822D01*
X79984Y-51748D01*
X79985Y-51662D01*
X79985Y-54797D01*
X79952Y-54788D01*
X79911Y-54829D01*
X79911Y-54747D01*
X79886Y-54656D01*
X79794Y-54609D01*
X79695Y-54580D01*
X79593Y-54572D01*
X79490Y-54583D01*
X79392Y-54614D01*
X79313Y-54656D01*
X79288Y-54747D01*
X79600Y-55058D01*
X79911Y-54747D01*
X79911Y-54829D01*
X79641Y-55100D01*
X79952Y-55411D01*
X80043Y-55386D01*
X80090Y-55294D01*
X80100Y-55261D01*
X80114Y-55307D01*
X80156Y-55386D01*
X80247Y-55411D01*
X80558Y-55100D01*
X80558Y-55182D01*
X80288Y-55452D01*
X80313Y-55543D01*
X80405Y-55590D01*
X80504Y-55619D01*
X80606Y-55627D01*
X80709Y-55616D01*
X80807Y-55585D01*
X80886Y-55543D01*
X80911Y-55452D01*
X80911Y-55872D01*
X80900Y-55855D01*
X80846Y-55801D01*
X80784Y-55759D01*
X80714Y-55730D01*
X80640Y-55714D01*
X80564Y-55714D01*
X80490Y-55728D01*
X80420Y-55756D01*
X80357Y-55798D01*
X80303Y-55851D01*
X80260Y-55913D01*
X80230Y-55982D01*
X80215Y-56056D01*
X80214Y-56132D01*
X80227Y-56206D01*
X80255Y-56276D01*
X80296Y-56340D01*
X80349Y-56394D01*
X80411Y-56437D01*
X80480Y-56468D01*
X80554Y-56484D01*
X80629Y-56485D01*
X80704Y-56472D01*
X80774Y-56445D01*
X80838Y-56405D01*
X80893Y-56352D01*
X80936Y-56291D01*
X80967Y-56222D01*
X80984Y-56148D01*
X80985Y-56062D01*
X80985Y-57490D01*
X79985Y-57490D01*
X79985Y-56062D01*
X79970Y-55988D01*
X79941Y-55918D01*
X79911Y-55872D01*
X79911Y-55452D01*
X79600Y-55141D01*
X79558Y-55182D01*
X79558Y-55100D01*
X79247Y-54788D01*
X79156Y-54813D01*
X79109Y-54905D01*
X79099Y-54938D01*
X79085Y-54892D01*
X79043Y-54813D01*
X78985Y-54797D01*
X78985Y-51662D01*
X78970Y-51588D01*
X78941Y-51518D01*
X78911Y-51472D01*
X78911Y-51052D01*
X78600Y-50741D01*
X78558Y-50782D01*
X78558Y-50700D01*
X78247Y-50388D01*
X78156Y-50413D01*
X78109Y-50505D01*
X78099Y-50538D01*
X78085Y-50492D01*
X78043Y-50413D01*
X77952Y-50388D01*
X77911Y-50429D01*
X77911Y-50347D01*
X77886Y-50256D01*
X77794Y-50209D01*
X77695Y-50180D01*
X77593Y-50172D01*
X77490Y-50183D01*
X77392Y-50214D01*
X77313Y-50256D01*
X77288Y-50347D01*
X77600Y-50658D01*
X77911Y-50347D01*
X77911Y-50429D01*
X77641Y-50700D01*
X77952Y-51011D01*
X78043Y-50986D01*
X78090Y-50894D01*
X78100Y-50861D01*
X78114Y-50907D01*
X78156Y-50986D01*
X78247Y-51011D01*
X78558Y-50700D01*
X78558Y-50782D01*
X78288Y-51052D01*
X78313Y-51143D01*
X78405Y-51190D01*
X78504Y-51219D01*
X78606Y-51227D01*
X78709Y-51216D01*
X78807Y-51185D01*
X78886Y-51143D01*
X78911Y-51052D01*
X78911Y-51472D01*
X78900Y-51455D01*
X78846Y-51401D01*
X78784Y-51359D01*
X78714Y-51330D01*
X78640Y-51314D01*
X78564Y-51314D01*
X78490Y-51328D01*
X78420Y-51356D01*
X78357Y-51398D01*
X78303Y-51451D01*
X78260Y-51513D01*
X78230Y-51582D01*
X78215Y-51656D01*
X78214Y-51732D01*
X78227Y-51806D01*
X78255Y-51876D01*
X78296Y-51940D01*
X78349Y-51994D01*
X78411Y-52037D01*
X78480Y-52068D01*
X78554Y-52084D01*
X78629Y-52085D01*
X78704Y-52072D01*
X78774Y-52045D01*
X78838Y-52005D01*
X78893Y-51952D01*
X78936Y-51891D01*
X78967Y-51822D01*
X78984Y-51748D01*
X78985Y-51662D01*
X78985Y-54797D01*
X78952Y-54788D01*
X78911Y-54829D01*
X78911Y-54747D01*
X78886Y-54656D01*
X78794Y-54609D01*
X78695Y-54580D01*
X78593Y-54572D01*
X78490Y-54583D01*
X78392Y-54614D01*
X78313Y-54656D01*
X78288Y-54747D01*
X78600Y-55058D01*
X78911Y-54747D01*
X78911Y-54829D01*
X78641Y-55100D01*
X78952Y-55411D01*
X79043Y-55386D01*
X79090Y-55294D01*
X79100Y-55261D01*
X79114Y-55307D01*
X79156Y-55386D01*
X79247Y-55411D01*
X79558Y-55100D01*
X79558Y-55182D01*
X79288Y-55452D01*
X79313Y-55543D01*
X79405Y-55590D01*
X79504Y-55619D01*
X79606Y-55627D01*
X79709Y-55616D01*
X79807Y-55585D01*
X79886Y-55543D01*
X79911Y-55452D01*
X79911Y-55872D01*
X79900Y-55855D01*
X79846Y-55801D01*
X79784Y-55759D01*
X79714Y-55730D01*
X79640Y-55714D01*
X79564Y-55714D01*
X79490Y-55728D01*
X79420Y-55756D01*
X79357Y-55798D01*
X79303Y-55851D01*
X79260Y-55913D01*
X79230Y-55982D01*
X79215Y-56056D01*
X79214Y-56132D01*
X79227Y-56206D01*
X79255Y-56276D01*
X79296Y-56340D01*
X79349Y-56394D01*
X79411Y-56437D01*
X79480Y-56468D01*
X79554Y-56484D01*
X79629Y-56485D01*
X79704Y-56472D01*
X79774Y-56445D01*
X79838Y-56405D01*
X79893Y-56352D01*
X79936Y-56291D01*
X79967Y-56222D01*
X79984Y-56148D01*
X79985Y-56062D01*
X79985Y-57490D01*
X78985Y-57490D01*
X78985Y-56062D01*
X78970Y-55988D01*
X78941Y-55918D01*
X78911Y-55872D01*
X78911Y-55452D01*
X78600Y-55141D01*
X78558Y-55182D01*
X78558Y-55100D01*
X78247Y-54788D01*
X78156Y-54813D01*
X78109Y-54905D01*
X78099Y-54938D01*
X78085Y-54892D01*
X78043Y-54813D01*
X77952Y-54788D01*
X77911Y-54829D01*
X77911Y-54747D01*
X77886Y-54656D01*
X77794Y-54609D01*
X77695Y-54580D01*
X77593Y-54572D01*
X77490Y-54583D01*
X77392Y-54614D01*
X77313Y-54656D01*
X77288Y-54747D01*
X77600Y-55058D01*
X77911Y-54747D01*
X77911Y-54829D01*
X77641Y-55100D01*
X77952Y-55411D01*
X78043Y-55386D01*
X78090Y-55294D01*
X78100Y-55261D01*
X78114Y-55307D01*
X78156Y-55386D01*
X78247Y-55411D01*
X78558Y-55100D01*
X78558Y-55182D01*
X78288Y-55452D01*
X78313Y-55543D01*
X78405Y-55590D01*
X78504Y-55619D01*
X78606Y-55627D01*
X78709Y-55616D01*
X78807Y-55585D01*
X78886Y-55543D01*
X78911Y-55452D01*
X78911Y-55872D01*
X78900Y-55855D01*
X78846Y-55801D01*
X78784Y-55759D01*
X78714Y-55730D01*
X78640Y-55714D01*
X78564Y-55714D01*
X78490Y-55728D01*
X78420Y-55756D01*
X78357Y-55798D01*
X78303Y-55851D01*
X78260Y-55913D01*
X78230Y-55982D01*
X78215Y-56056D01*
X78214Y-56132D01*
X78227Y-56206D01*
X78255Y-56276D01*
X78296Y-56340D01*
X78349Y-56394D01*
X78411Y-56437D01*
X78480Y-56468D01*
X78554Y-56484D01*
X78629Y-56485D01*
X78704Y-56472D01*
X78774Y-56445D01*
X78838Y-56405D01*
X78893Y-56352D01*
X78936Y-56291D01*
X78967Y-56222D01*
X78984Y-56148D01*
X78985Y-56062D01*
X78985Y-57490D01*
X77985Y-57490D01*
X77985Y-56062D01*
X77970Y-55988D01*
X77941Y-55918D01*
X77911Y-55872D01*
X77911Y-55452D01*
X77600Y-55141D01*
X77558Y-55182D01*
X77558Y-55100D01*
X77247Y-54788D01*
X77156Y-54813D01*
X77109Y-54905D01*
X77099Y-54938D01*
X77085Y-54892D01*
X77043Y-54813D01*
X76952Y-54788D01*
X76911Y-54829D01*
X76911Y-54747D01*
X76886Y-54656D01*
X76794Y-54609D01*
X76695Y-54580D01*
X76593Y-54572D01*
X76490Y-54583D01*
X76392Y-54614D01*
X76313Y-54656D01*
X76288Y-54747D01*
X76600Y-55058D01*
X76911Y-54747D01*
X76911Y-54829D01*
X76641Y-55100D01*
X76952Y-55411D01*
X77043Y-55386D01*
X77090Y-55294D01*
X77100Y-55261D01*
X77114Y-55307D01*
X77156Y-55386D01*
X77247Y-55411D01*
X77558Y-55100D01*
X77558Y-55182D01*
X77288Y-55452D01*
X77313Y-55543D01*
X77405Y-55590D01*
X77504Y-55619D01*
X77606Y-55627D01*
X77709Y-55616D01*
X77807Y-55585D01*
X77886Y-55543D01*
X77911Y-55452D01*
X77911Y-55872D01*
X77900Y-55855D01*
X77846Y-55801D01*
X77784Y-55759D01*
X77714Y-55730D01*
X77640Y-55714D01*
X77564Y-55714D01*
X77490Y-55728D01*
X77420Y-55756D01*
X77357Y-55798D01*
X77303Y-55851D01*
X77260Y-55913D01*
X77230Y-55982D01*
X77215Y-56056D01*
X77214Y-56132D01*
X77227Y-56206D01*
X77255Y-56276D01*
X77296Y-56340D01*
X77349Y-56394D01*
X77411Y-56437D01*
X77480Y-56468D01*
X77554Y-56484D01*
X77629Y-56485D01*
X77704Y-56472D01*
X77774Y-56445D01*
X77838Y-56405D01*
X77893Y-56352D01*
X77936Y-56291D01*
X77967Y-56222D01*
X77984Y-56148D01*
X77985Y-56062D01*
X77985Y-57490D01*
X76985Y-57490D01*
X76985Y-56062D01*
X76970Y-55988D01*
X76941Y-55918D01*
X76911Y-55872D01*
X76911Y-55452D01*
X76600Y-55141D01*
X76558Y-55182D01*
X76558Y-55100D01*
X76247Y-54788D01*
X76156Y-54813D01*
X76109Y-54905D01*
X76099Y-54938D01*
X76085Y-54892D01*
X76043Y-54813D01*
X75985Y-54797D01*
X75985Y-51662D01*
X75970Y-51588D01*
X75941Y-51518D01*
X75911Y-51472D01*
X75911Y-51052D01*
X75600Y-50741D01*
X75558Y-50782D01*
X75558Y-50700D01*
X75247Y-50388D01*
X75156Y-50413D01*
X75109Y-50505D01*
X75099Y-50538D01*
X75085Y-50492D01*
X75043Y-50413D01*
X74952Y-50388D01*
X74911Y-50429D01*
X74911Y-50347D01*
X74886Y-50256D01*
X74794Y-50209D01*
X74695Y-50180D01*
X74593Y-50172D01*
X74490Y-50183D01*
X74392Y-50214D01*
X74313Y-50256D01*
X74288Y-50347D01*
X74600Y-50658D01*
X74911Y-50347D01*
X74911Y-50429D01*
X74641Y-50700D01*
X74952Y-51011D01*
X75043Y-50986D01*
X75090Y-50894D01*
X75100Y-50861D01*
X75114Y-50907D01*
X75156Y-50986D01*
X75247Y-51011D01*
X75558Y-50700D01*
X75558Y-50782D01*
X75288Y-51052D01*
X75313Y-51143D01*
X75405Y-51190D01*
X75504Y-51219D01*
X75606Y-51227D01*
X75709Y-51216D01*
X75807Y-51185D01*
X75886Y-51143D01*
X75911Y-51052D01*
X75911Y-51472D01*
X75900Y-51455D01*
X75846Y-51401D01*
X75784Y-51359D01*
X75714Y-51330D01*
X75640Y-51314D01*
X75564Y-51314D01*
X75490Y-51328D01*
X75420Y-51356D01*
X75357Y-51398D01*
X75303Y-51451D01*
X75260Y-51513D01*
X75230Y-51582D01*
X75215Y-51656D01*
X75214Y-51732D01*
X75227Y-51806D01*
X75255Y-51876D01*
X75296Y-51940D01*
X75349Y-51994D01*
X75411Y-52037D01*
X75480Y-52068D01*
X75554Y-52084D01*
X75629Y-52085D01*
X75704Y-52072D01*
X75774Y-52045D01*
X75838Y-52005D01*
X75893Y-51952D01*
X75936Y-51891D01*
X75967Y-51822D01*
X75984Y-51748D01*
X75985Y-51662D01*
X75985Y-54797D01*
X75952Y-54788D01*
X75911Y-54829D01*
X75911Y-54747D01*
X75886Y-54656D01*
X75794Y-54609D01*
X75695Y-54580D01*
X75593Y-54572D01*
X75490Y-54583D01*
X75392Y-54614D01*
X75313Y-54656D01*
X75288Y-54747D01*
X75600Y-55058D01*
X75911Y-54747D01*
X75911Y-54829D01*
X75641Y-55100D01*
X75952Y-55411D01*
X76043Y-55386D01*
X76090Y-55294D01*
X76100Y-55261D01*
X76114Y-55307D01*
X76156Y-55386D01*
X76247Y-55411D01*
X76558Y-55100D01*
X76558Y-55182D01*
X76288Y-55452D01*
X76313Y-55543D01*
X76405Y-55590D01*
X76504Y-55619D01*
X76606Y-55627D01*
X76709Y-55616D01*
X76807Y-55585D01*
X76886Y-55543D01*
X76911Y-55452D01*
X76911Y-55872D01*
X76900Y-55855D01*
X76846Y-55801D01*
X76784Y-55759D01*
X76714Y-55730D01*
X76640Y-55714D01*
X76564Y-55714D01*
X76490Y-55728D01*
X76420Y-55756D01*
X76357Y-55798D01*
X76303Y-55851D01*
X76260Y-55913D01*
X76230Y-55982D01*
X76215Y-56056D01*
X76214Y-56132D01*
X76227Y-56206D01*
X76255Y-56276D01*
X76296Y-56340D01*
X76349Y-56394D01*
X76411Y-56437D01*
X76480Y-56468D01*
X76554Y-56484D01*
X76629Y-56485D01*
X76704Y-56472D01*
X76774Y-56445D01*
X76838Y-56405D01*
X76893Y-56352D01*
X76936Y-56291D01*
X76967Y-56222D01*
X76984Y-56148D01*
X76985Y-56062D01*
X76985Y-57490D01*
X75985Y-57490D01*
X75985Y-56062D01*
X75970Y-55988D01*
X75941Y-55918D01*
X75911Y-55872D01*
X75911Y-55452D01*
X75600Y-55141D01*
X75558Y-55182D01*
X75558Y-55100D01*
X75247Y-54788D01*
X75156Y-54813D01*
X75109Y-54905D01*
X75099Y-54938D01*
X75085Y-54892D01*
X75043Y-54813D01*
X74985Y-54797D01*
X74985Y-51662D01*
X74970Y-51588D01*
X74941Y-51518D01*
X74911Y-51472D01*
X74911Y-51052D01*
X74600Y-50741D01*
X74288Y-51052D01*
X74313Y-51143D01*
X74405Y-51190D01*
X74504Y-51219D01*
X74606Y-51227D01*
X74709Y-51216D01*
X74807Y-51185D01*
X74886Y-51143D01*
X74911Y-51052D01*
X74911Y-51472D01*
X74900Y-51455D01*
X74846Y-51401D01*
X74784Y-51359D01*
X74714Y-51330D01*
X74640Y-51314D01*
X74564Y-51314D01*
X74490Y-51328D01*
X74420Y-51356D01*
X74357Y-51398D01*
X74303Y-51451D01*
X74260Y-51513D01*
X74230Y-51582D01*
X74215Y-51656D01*
X74214Y-51732D01*
X74227Y-51806D01*
X74255Y-51876D01*
X74296Y-51940D01*
X74349Y-51994D01*
X74411Y-52037D01*
X74480Y-52068D01*
X74554Y-52084D01*
X74629Y-52085D01*
X74704Y-52072D01*
X74774Y-52045D01*
X74838Y-52005D01*
X74893Y-51952D01*
X74936Y-51891D01*
X74967Y-51822D01*
X74984Y-51748D01*
X74985Y-51662D01*
X74985Y-54797D01*
X74952Y-54788D01*
X74911Y-54829D01*
X74911Y-54747D01*
X74886Y-54656D01*
X74794Y-54609D01*
X74695Y-54580D01*
X74593Y-54572D01*
X74490Y-54583D01*
X74392Y-54614D01*
X74313Y-54656D01*
X74288Y-54747D01*
X74600Y-55058D01*
X74911Y-54747D01*
X74911Y-54829D01*
X74641Y-55100D01*
X74952Y-55411D01*
X75043Y-55386D01*
X75090Y-55294D01*
X75100Y-55261D01*
X75114Y-55307D01*
X75156Y-55386D01*
X75247Y-55411D01*
X75558Y-55100D01*
X75558Y-55182D01*
X75288Y-55452D01*
X75313Y-55543D01*
X75405Y-55590D01*
X75504Y-55619D01*
X75606Y-55627D01*
X75709Y-55616D01*
X75807Y-55585D01*
X75886Y-55543D01*
X75911Y-55452D01*
X75911Y-55872D01*
X75900Y-55855D01*
X75846Y-55801D01*
X75784Y-55759D01*
X75714Y-55730D01*
X75640Y-55714D01*
X75564Y-55714D01*
X75490Y-55728D01*
X75420Y-55756D01*
X75357Y-55798D01*
X75303Y-55851D01*
X75260Y-55913D01*
X75230Y-55982D01*
X75215Y-56056D01*
X75214Y-56132D01*
X75227Y-56206D01*
X75255Y-56276D01*
X75296Y-56340D01*
X75349Y-56394D01*
X75411Y-56437D01*
X75480Y-56468D01*
X75554Y-56484D01*
X75629Y-56485D01*
X75704Y-56472D01*
X75774Y-56445D01*
X75838Y-56405D01*
X75893Y-56352D01*
X75936Y-56291D01*
X75967Y-56222D01*
X75984Y-56148D01*
X75985Y-56062D01*
X75985Y-57490D01*
X74985Y-57490D01*
X74985Y-56062D01*
X74970Y-55988D01*
X74941Y-55918D01*
X74911Y-55872D01*
X74911Y-55452D01*
X74600Y-55141D01*
X74558Y-55182D01*
X74558Y-55100D01*
X74247Y-54788D01*
X74156Y-54813D01*
X74109Y-54905D01*
X74080Y-55004D01*
X74072Y-55106D01*
X74083Y-55209D01*
X74114Y-55307D01*
X74156Y-55386D01*
X74247Y-55411D01*
X74558Y-55100D01*
X74558Y-55182D01*
X74288Y-55452D01*
X74313Y-55543D01*
X74405Y-55590D01*
X74504Y-55619D01*
X74606Y-55627D01*
X74709Y-55616D01*
X74807Y-55585D01*
X74886Y-55543D01*
X74911Y-55452D01*
X74911Y-55872D01*
X74900Y-55855D01*
X74846Y-55801D01*
X74784Y-55759D01*
X74714Y-55730D01*
X74640Y-55714D01*
X74564Y-55714D01*
X74490Y-55728D01*
X74420Y-55756D01*
X74357Y-55798D01*
X74303Y-55851D01*
X74260Y-55913D01*
X74230Y-55982D01*
X74215Y-56056D01*
X74214Y-56132D01*
X74227Y-56206D01*
X74255Y-56276D01*
X74296Y-56340D01*
X74349Y-56394D01*
X74411Y-56437D01*
X74480Y-56468D01*
X74554Y-56484D01*
X74629Y-56485D01*
X74704Y-56472D01*
X74774Y-56445D01*
X74838Y-56405D01*
X74893Y-56352D01*
X74936Y-56291D01*
X74967Y-56222D01*
X74984Y-56148D01*
X74985Y-56062D01*
X74985Y-57490D01*
X73985Y-57490D01*
X73985Y-56062D01*
X73985Y-55062D01*
X73970Y-54988D01*
X73941Y-54918D01*
X73900Y-54855D01*
X73846Y-54801D01*
X73784Y-54759D01*
X73714Y-54730D01*
X73640Y-54714D01*
X73564Y-54714D01*
X73490Y-54728D01*
X73420Y-54756D01*
X73357Y-54798D01*
X73303Y-54851D01*
X73260Y-54913D01*
X73230Y-54982D01*
X73215Y-55056D01*
X73214Y-55132D01*
X73227Y-55206D01*
X73255Y-55276D01*
X73296Y-55340D01*
X73349Y-55394D01*
X73411Y-55437D01*
X73480Y-55468D01*
X73554Y-55484D01*
X73629Y-55485D01*
X73704Y-55472D01*
X73774Y-55445D01*
X73838Y-55405D01*
X73893Y-55352D01*
X73936Y-55291D01*
X73967Y-55222D01*
X73984Y-55148D01*
X73985Y-55062D01*
X73985Y-56062D01*
X73970Y-55988D01*
X73941Y-55918D01*
X73900Y-55855D01*
X73846Y-55801D01*
X73784Y-55759D01*
X73714Y-55730D01*
X73640Y-55714D01*
X73564Y-55714D01*
X73490Y-55728D01*
X73420Y-55756D01*
X73357Y-55798D01*
X73303Y-55851D01*
X73260Y-55913D01*
X73230Y-55982D01*
X73215Y-56056D01*
X73214Y-56132D01*
X73227Y-56206D01*
X73255Y-56276D01*
X73296Y-56340D01*
X73349Y-56394D01*
X73411Y-56437D01*
X73480Y-56468D01*
X73554Y-56484D01*
X73629Y-56485D01*
X73704Y-56472D01*
X73774Y-56445D01*
X73838Y-56405D01*
X73893Y-56352D01*
X73936Y-56291D01*
X73967Y-56222D01*
X73984Y-56148D01*
X73985Y-56062D01*
X73985Y-57490D01*
X73400Y-57490D01*
X73399Y-57490D01*
X73214Y-57490D01*
X73042Y-57457D01*
X72881Y-57390D01*
X72735Y-57294D01*
X72611Y-57171D01*
X72513Y-57026D01*
X72445Y-56866D01*
X72409Y-56692D01*
X72409Y-56300D01*
X72409Y-47510D01*
X72443Y-47339D01*
X72510Y-47178D01*
X72607Y-47033D01*
X72730Y-46909D01*
X72875Y-46812D01*
X73036Y-46744D01*
X73208Y-46709D01*
X73387Y-46709D01*
X73389Y-46709D01*
X73393Y-46709D01*
X73398Y-46709D01*
X73400Y-46709D01*
X82894Y-46709D01*
X83072Y-46727D01*
X83239Y-46777D01*
X83392Y-46858D01*
X83526Y-46968D01*
X83637Y-47102D01*
X83720Y-47255D01*
X83771Y-47421D01*
X83790Y-47598D01*
X83790Y-47600D01*
X83790Y-56300D01*
X83790Y-56594D01*
M02*
