M48
INCH,TZ
T1C0.020
T2C0.027
%
G90
G05
T1
X77150Y-47250
X77150Y-47750
X77650Y-47250
X77650Y-47750
X78150Y-47250
X78150Y-47750
X78650Y-47250
X78650Y-47750
X79150Y-47250
X79150Y-47750
T2
X73600Y-50700
X73600Y-51700
X73600Y-55100
X73600Y-56100
X74600Y-50700
X74600Y-51700
X74600Y-55100
X74600Y-56100
X75600Y-50700
X75600Y-51700
X75600Y-55100
X75600Y-56100
X76600Y-50700
X76600Y-51700
X76600Y-55100
X76600Y-56100
X77600Y-50700
X77600Y-51700
X77600Y-55100
X77600Y-56100
X78600Y-50700
X78600Y-51700
X78600Y-55100
X78600Y-56100
X79600Y-50700
X79600Y-51700
X79600Y-55100
X79600Y-56100
X80600Y-50700
X80600Y-51700
X80600Y-55100
X80600Y-56100
X81600Y-50700
X81600Y-51700
X81600Y-55100
X81600Y-56100
X82600Y-50700
X82600Y-51700
X82600Y-55100
X82600Y-56100
T0
M30
