G04 (created by PCBNEW (2013-june-11)-stable) date Fri 12 Sep 2014 11:17:40 AM PDT*
%MOIN*%
G04 Gerber Fmt 3.4, Leading zero omitted, Abs format*
%FSLAX34Y34*%
G01*
G70*
G90*
G04 APERTURE LIST*
%ADD10C,0.00590551*%
%ADD11C,0.01*%
%ADD12C,0.0001*%
G04 APERTURE END LIST*
G54D10*
G54D11*
X76804Y-49302D02*
X76861Y-49321D01*
X76880Y-49340D01*
X76900Y-49378D01*
X76900Y-49435D01*
X76880Y-49473D01*
X76861Y-49492D01*
X76823Y-49511D01*
X76671Y-49511D01*
X76671Y-49111D01*
X76804Y-49111D01*
X76842Y-49130D01*
X76861Y-49150D01*
X76880Y-49188D01*
X76880Y-49226D01*
X76861Y-49264D01*
X76842Y-49283D01*
X76804Y-49302D01*
X76671Y-49302D01*
X77300Y-49511D02*
X77166Y-49321D01*
X77071Y-49511D02*
X77071Y-49111D01*
X77223Y-49111D01*
X77261Y-49130D01*
X77280Y-49150D01*
X77300Y-49188D01*
X77300Y-49245D01*
X77280Y-49283D01*
X77261Y-49302D01*
X77223Y-49321D01*
X77071Y-49321D01*
X77471Y-49302D02*
X77604Y-49302D01*
X77661Y-49511D02*
X77471Y-49511D01*
X77471Y-49111D01*
X77661Y-49111D01*
X77814Y-49397D02*
X78004Y-49397D01*
X77776Y-49511D02*
X77909Y-49111D01*
X78042Y-49511D01*
X78176Y-49511D02*
X78176Y-49111D01*
X78404Y-49511D02*
X78233Y-49283D01*
X78404Y-49111D02*
X78176Y-49340D01*
X78652Y-49111D02*
X78728Y-49111D01*
X78766Y-49130D01*
X78804Y-49169D01*
X78823Y-49245D01*
X78823Y-49378D01*
X78804Y-49454D01*
X78766Y-49492D01*
X78728Y-49511D01*
X78652Y-49511D01*
X78614Y-49492D01*
X78576Y-49454D01*
X78557Y-49378D01*
X78557Y-49245D01*
X78576Y-49169D01*
X78614Y-49130D01*
X78652Y-49111D01*
X78995Y-49111D02*
X78995Y-49435D01*
X79014Y-49473D01*
X79033Y-49492D01*
X79071Y-49511D01*
X79147Y-49511D01*
X79185Y-49492D01*
X79204Y-49473D01*
X79223Y-49435D01*
X79223Y-49111D01*
X79357Y-49111D02*
X79585Y-49111D01*
X79471Y-49511D02*
X79471Y-49111D01*
X77242Y-53511D02*
X77242Y-53797D01*
X77223Y-53854D01*
X77185Y-53892D01*
X77128Y-53911D01*
X77090Y-53911D01*
X77433Y-53759D02*
X77738Y-53759D01*
X78119Y-53911D02*
X77928Y-53911D01*
X77928Y-53511D01*
X78252Y-53911D02*
X78252Y-53511D01*
X78442Y-53911D02*
X78442Y-53511D01*
X78671Y-53911D01*
X78671Y-53511D01*
X78861Y-53911D02*
X78861Y-53511D01*
X79090Y-53911D02*
X78919Y-53683D01*
X79090Y-53511D02*
X78861Y-53740D01*
X77557Y-47742D02*
X77614Y-47761D01*
X77709Y-47761D01*
X77747Y-47742D01*
X77766Y-47723D01*
X77785Y-47685D01*
X77785Y-47647D01*
X77766Y-47609D01*
X77747Y-47590D01*
X77709Y-47571D01*
X77633Y-47552D01*
X77595Y-47533D01*
X77576Y-47514D01*
X77557Y-47476D01*
X77557Y-47438D01*
X77576Y-47400D01*
X77595Y-47380D01*
X77633Y-47361D01*
X77728Y-47361D01*
X77785Y-47380D01*
X77919Y-47361D02*
X78014Y-47761D01*
X78090Y-47476D01*
X78166Y-47761D01*
X78261Y-47361D01*
X78414Y-47761D02*
X78414Y-47361D01*
X78509Y-47361D01*
X78566Y-47380D01*
X78604Y-47419D01*
X78623Y-47457D01*
X78642Y-47533D01*
X78642Y-47590D01*
X78623Y-47666D01*
X78604Y-47704D01*
X78566Y-47742D01*
X78509Y-47761D01*
X78414Y-47761D01*
G54D10*
X75200Y-48350D02*
X74700Y-48350D01*
X75200Y-48300D02*
X74700Y-48300D01*
X74700Y-48250D02*
X75150Y-48250D01*
X75200Y-48200D02*
X74700Y-48200D01*
X75200Y-48150D02*
X75200Y-48400D01*
X75200Y-48400D02*
X74700Y-48400D01*
X74700Y-48400D02*
X74700Y-48150D01*
X76250Y-48150D02*
X73650Y-48150D01*
X73650Y-48150D02*
X73650Y-47050D01*
X73650Y-47050D02*
X76250Y-47050D01*
X76250Y-48150D02*
X76250Y-47050D01*
X82100Y-54050D02*
X80600Y-54050D01*
X80600Y-54000D02*
X82100Y-54000D01*
X82100Y-53950D02*
X80600Y-53950D01*
X80600Y-53900D02*
X82100Y-53900D01*
X82100Y-53850D02*
X80600Y-53850D01*
X80600Y-53800D02*
X82100Y-53800D01*
X82100Y-53750D02*
X80600Y-53750D01*
X80600Y-53700D02*
X82100Y-53700D01*
X82100Y-53650D02*
X80600Y-53650D01*
X80600Y-54100D02*
X80600Y-53600D01*
X80600Y-53600D02*
X82100Y-53600D01*
X74100Y-54050D02*
X75600Y-54050D01*
X75600Y-54000D02*
X74100Y-54000D01*
X74100Y-53950D02*
X75600Y-53950D01*
X75600Y-53900D02*
X74100Y-53900D01*
X74100Y-53850D02*
X75600Y-53850D01*
X75600Y-53800D02*
X74100Y-53800D01*
X74100Y-53750D02*
X75600Y-53750D01*
X75600Y-53700D02*
X74100Y-53700D01*
X74100Y-53650D02*
X75600Y-53650D01*
X75600Y-54100D02*
X75600Y-53600D01*
X75600Y-53600D02*
X74100Y-53600D01*
X79100Y-57500D02*
X79100Y-57100D01*
X77100Y-57500D02*
X77100Y-57100D01*
X82100Y-53850D02*
X82100Y-53800D01*
X82100Y-53750D02*
X82100Y-53700D01*
X82100Y-54100D02*
X82100Y-53600D01*
X74100Y-54100D02*
X74100Y-53600D01*
X79100Y-57500D02*
X77100Y-57500D01*
X77100Y-57450D02*
X79100Y-57450D01*
X79100Y-57400D02*
X77100Y-57400D01*
X77100Y-57350D02*
X79100Y-57350D01*
X79100Y-57300D02*
X77100Y-57300D01*
X77100Y-57250D02*
X79100Y-57250D01*
X79100Y-57200D02*
X77100Y-57200D01*
X77100Y-57150D02*
X79100Y-57150D01*
X72600Y-57100D02*
X72600Y-54100D01*
X72600Y-54100D02*
X83600Y-54100D01*
X83600Y-54100D02*
X83600Y-57100D01*
X83600Y-57100D02*
X72600Y-57100D01*
X82100Y-49650D02*
X80600Y-49650D01*
X80600Y-49600D02*
X82100Y-49600D01*
X82100Y-49550D02*
X80600Y-49550D01*
X80600Y-49500D02*
X82100Y-49500D01*
X82100Y-49450D02*
X80600Y-49450D01*
X80600Y-49400D02*
X82100Y-49400D01*
X82100Y-49350D02*
X80600Y-49350D01*
X80600Y-49300D02*
X82100Y-49300D01*
X82100Y-49250D02*
X80600Y-49250D01*
X80600Y-49700D02*
X80600Y-49200D01*
X80600Y-49200D02*
X82100Y-49200D01*
X74100Y-49650D02*
X75600Y-49650D01*
X75600Y-49600D02*
X74100Y-49600D01*
X74100Y-49550D02*
X75600Y-49550D01*
X75600Y-49500D02*
X74100Y-49500D01*
X74100Y-49450D02*
X75600Y-49450D01*
X75600Y-49400D02*
X74100Y-49400D01*
X74100Y-49350D02*
X75600Y-49350D01*
X75600Y-49300D02*
X74100Y-49300D01*
X74100Y-49250D02*
X75600Y-49250D01*
X75600Y-49700D02*
X75600Y-49200D01*
X75600Y-49200D02*
X74100Y-49200D01*
X79100Y-53100D02*
X79100Y-52700D01*
X77100Y-53100D02*
X77100Y-52700D01*
X82100Y-49450D02*
X82100Y-49400D01*
X82100Y-49350D02*
X82100Y-49300D01*
X82100Y-49700D02*
X82100Y-49200D01*
X74100Y-49700D02*
X74100Y-49200D01*
X79100Y-53100D02*
X77100Y-53100D01*
X77100Y-53050D02*
X79100Y-53050D01*
X79100Y-53000D02*
X77100Y-53000D01*
X77100Y-52950D02*
X79100Y-52950D01*
X79100Y-52900D02*
X77100Y-52900D01*
X77100Y-52850D02*
X79100Y-52850D01*
X79100Y-52800D02*
X77100Y-52800D01*
X77100Y-52750D02*
X79100Y-52750D01*
X72600Y-52700D02*
X72600Y-49700D01*
X72600Y-49700D02*
X83600Y-49700D01*
X83600Y-49700D02*
X83600Y-52700D01*
X83600Y-52700D02*
X72600Y-52700D01*
G54D12*
G36*
X81123Y-48307D02*
X81131Y-48303D01*
X81150Y-48291D01*
X81176Y-48274D01*
X81207Y-48253D01*
X81238Y-48232D01*
X81264Y-48215D01*
X81282Y-48203D01*
X81289Y-48199D01*
X81293Y-48200D01*
X81308Y-48208D01*
X81330Y-48219D01*
X81342Y-48225D01*
X81362Y-48234D01*
X81372Y-48236D01*
X81373Y-48233D01*
X81381Y-48218D01*
X81392Y-48192D01*
X81407Y-48158D01*
X81424Y-48118D01*
X81442Y-48075D01*
X81460Y-48031D01*
X81478Y-47989D01*
X81493Y-47951D01*
X81506Y-47921D01*
X81514Y-47899D01*
X81517Y-47890D01*
X81516Y-47888D01*
X81506Y-47879D01*
X81489Y-47866D01*
X81451Y-47835D01*
X81415Y-47789D01*
X81392Y-47737D01*
X81385Y-47679D01*
X81391Y-47626D01*
X81412Y-47575D01*
X81448Y-47528D01*
X81492Y-47494D01*
X81543Y-47472D01*
X81600Y-47465D01*
X81655Y-47471D01*
X81707Y-47492D01*
X81754Y-47527D01*
X81773Y-47550D01*
X81800Y-47597D01*
X81816Y-47647D01*
X81817Y-47659D01*
X81815Y-47715D01*
X81799Y-47768D01*
X81770Y-47815D01*
X81729Y-47854D01*
X81724Y-47858D01*
X81705Y-47872D01*
X81693Y-47881D01*
X81683Y-47889D01*
X81753Y-48059D01*
X81764Y-48086D01*
X81784Y-48132D01*
X81801Y-48172D01*
X81814Y-48204D01*
X81824Y-48225D01*
X81828Y-48234D01*
X81828Y-48234D01*
X81834Y-48235D01*
X81847Y-48230D01*
X81871Y-48219D01*
X81887Y-48211D01*
X81905Y-48202D01*
X81913Y-48199D01*
X81920Y-48203D01*
X81937Y-48214D01*
X81962Y-48231D01*
X81992Y-48251D01*
X82021Y-48271D01*
X82048Y-48289D01*
X82067Y-48301D01*
X82077Y-48306D01*
X82078Y-48306D01*
X82086Y-48301D01*
X82102Y-48289D01*
X82125Y-48267D01*
X82157Y-48235D01*
X82162Y-48230D01*
X82189Y-48202D01*
X82211Y-48179D01*
X82226Y-48163D01*
X82231Y-48156D01*
X82231Y-48156D01*
X82226Y-48146D01*
X82214Y-48127D01*
X82196Y-48100D01*
X82175Y-48069D01*
X82119Y-47987D01*
X82150Y-47910D01*
X82159Y-47887D01*
X82171Y-47858D01*
X82180Y-47838D01*
X82185Y-47829D01*
X82193Y-47826D01*
X82214Y-47821D01*
X82245Y-47814D01*
X82281Y-47808D01*
X82316Y-47801D01*
X82347Y-47795D01*
X82370Y-47791D01*
X82380Y-47789D01*
X82382Y-47787D01*
X82384Y-47782D01*
X82386Y-47772D01*
X82386Y-47753D01*
X82387Y-47723D01*
X82387Y-47679D01*
X82387Y-47675D01*
X82386Y-47633D01*
X82386Y-47600D01*
X82385Y-47579D01*
X82383Y-47571D01*
X82383Y-47571D01*
X82373Y-47568D01*
X82351Y-47564D01*
X82320Y-47557D01*
X82282Y-47550D01*
X82280Y-47550D01*
X82243Y-47543D01*
X82212Y-47536D01*
X82190Y-47531D01*
X82181Y-47528D01*
X82179Y-47526D01*
X82171Y-47511D01*
X82160Y-47488D01*
X82148Y-47460D01*
X82136Y-47431D01*
X82125Y-47404D01*
X82118Y-47385D01*
X82116Y-47376D01*
X82116Y-47376D01*
X82122Y-47367D01*
X82135Y-47347D01*
X82153Y-47321D01*
X82175Y-47289D01*
X82176Y-47286D01*
X82198Y-47255D01*
X82215Y-47228D01*
X82227Y-47209D01*
X82231Y-47201D01*
X82231Y-47200D01*
X82224Y-47191D01*
X82208Y-47173D01*
X82185Y-47149D01*
X82157Y-47121D01*
X82148Y-47113D01*
X82118Y-47083D01*
X82097Y-47063D01*
X82083Y-47053D01*
X82077Y-47050D01*
X82077Y-47051D01*
X82067Y-47056D01*
X82047Y-47069D01*
X82020Y-47088D01*
X81988Y-47109D01*
X81986Y-47111D01*
X81955Y-47132D01*
X81929Y-47150D01*
X81910Y-47162D01*
X81902Y-47167D01*
X81900Y-47167D01*
X81888Y-47163D01*
X81865Y-47156D01*
X81838Y-47145D01*
X81809Y-47133D01*
X81782Y-47122D01*
X81762Y-47113D01*
X81753Y-47108D01*
X81753Y-47107D01*
X81749Y-47096D01*
X81744Y-47072D01*
X81737Y-47040D01*
X81730Y-47001D01*
X81729Y-46995D01*
X81722Y-46958D01*
X81716Y-46927D01*
X81711Y-46905D01*
X81709Y-46896D01*
X81704Y-46895D01*
X81685Y-46894D01*
X81657Y-46893D01*
X81623Y-46893D01*
X81588Y-46893D01*
X81554Y-46894D01*
X81524Y-46895D01*
X81503Y-46896D01*
X81494Y-46898D01*
X81493Y-46899D01*
X81490Y-46910D01*
X81485Y-46934D01*
X81478Y-46966D01*
X81471Y-47005D01*
X81470Y-47012D01*
X81463Y-47049D01*
X81456Y-47080D01*
X81452Y-47101D01*
X81449Y-47109D01*
X81446Y-47111D01*
X81431Y-47118D01*
X81406Y-47128D01*
X81374Y-47141D01*
X81302Y-47170D01*
X81214Y-47109D01*
X81206Y-47104D01*
X81174Y-47082D01*
X81148Y-47065D01*
X81130Y-47053D01*
X81122Y-47049D01*
X81122Y-47049D01*
X81113Y-47057D01*
X81095Y-47073D01*
X81071Y-47097D01*
X81044Y-47124D01*
X81023Y-47145D01*
X80999Y-47170D01*
X80983Y-47186D01*
X80975Y-47197D01*
X80972Y-47204D01*
X80973Y-47208D01*
X80978Y-47217D01*
X80991Y-47236D01*
X81009Y-47263D01*
X81031Y-47294D01*
X81049Y-47321D01*
X81068Y-47350D01*
X81080Y-47371D01*
X81085Y-47382D01*
X81084Y-47386D01*
X81077Y-47403D01*
X81067Y-47430D01*
X81054Y-47461D01*
X81023Y-47531D01*
X80977Y-47539D01*
X80949Y-47545D01*
X80910Y-47552D01*
X80873Y-47559D01*
X80815Y-47571D01*
X80813Y-47783D01*
X80822Y-47787D01*
X80831Y-47790D01*
X80852Y-47794D01*
X80883Y-47800D01*
X80919Y-47807D01*
X80950Y-47813D01*
X80981Y-47819D01*
X81003Y-47823D01*
X81013Y-47825D01*
X81016Y-47829D01*
X81024Y-47844D01*
X81035Y-47868D01*
X81047Y-47897D01*
X81059Y-47926D01*
X81070Y-47954D01*
X81078Y-47975D01*
X81081Y-47986D01*
X81077Y-47994D01*
X81065Y-48012D01*
X81048Y-48038D01*
X81027Y-48069D01*
X81005Y-48100D01*
X80988Y-48127D01*
X80975Y-48146D01*
X80970Y-48154D01*
X80973Y-48160D01*
X80985Y-48175D01*
X81008Y-48199D01*
X81043Y-48234D01*
X81049Y-48239D01*
X81076Y-48266D01*
X81100Y-48287D01*
X81116Y-48302D01*
X81123Y-48307D01*
X81123Y-48307D01*
G37*
G54D10*
X72909Y-47759D02*
X72909Y-47365D01*
X73059Y-47365D01*
X73096Y-47384D01*
X73115Y-47403D01*
X73134Y-47440D01*
X73134Y-47496D01*
X73115Y-47534D01*
X73096Y-47553D01*
X73059Y-47571D01*
X72909Y-47571D01*
X73509Y-47759D02*
X73284Y-47759D01*
X73396Y-47759D02*
X73396Y-47365D01*
X73359Y-47421D01*
X73321Y-47459D01*
X73284Y-47478D01*
X83009Y-53959D02*
X83009Y-53565D01*
X83159Y-53565D01*
X83196Y-53584D01*
X83215Y-53603D01*
X83234Y-53640D01*
X83234Y-53696D01*
X83215Y-53734D01*
X83196Y-53753D01*
X83159Y-53771D01*
X83009Y-53771D01*
X83365Y-53565D02*
X83609Y-53565D01*
X83478Y-53715D01*
X83534Y-53715D01*
X83571Y-53734D01*
X83590Y-53753D01*
X83609Y-53790D01*
X83609Y-53884D01*
X83590Y-53921D01*
X83571Y-53940D01*
X83534Y-53959D01*
X83421Y-53959D01*
X83384Y-53940D01*
X83365Y-53921D01*
X83009Y-49559D02*
X83009Y-49165D01*
X83159Y-49165D01*
X83196Y-49184D01*
X83215Y-49203D01*
X83234Y-49240D01*
X83234Y-49296D01*
X83215Y-49334D01*
X83196Y-49353D01*
X83159Y-49371D01*
X83009Y-49371D01*
X83384Y-49203D02*
X83403Y-49184D01*
X83440Y-49165D01*
X83534Y-49165D01*
X83571Y-49184D01*
X83590Y-49203D01*
X83609Y-49240D01*
X83609Y-49278D01*
X83590Y-49334D01*
X83365Y-49559D01*
X83609Y-49559D01*
M02*
