G04 (created by PCBNEW (2013-june-11)-stable) date Fri 03 Oct 2014 12:09:20 PM PDT*
%MOIN*%
G04 Gerber Fmt 3.4, Leading zero omitted, Abs format*
%FSLAX34Y34*%
G01*
G70*
G90*
G04 APERTURE LIST*
%ADD10C,0.00590551*%
%ADD11C,0.00787402*%
%ADD12C,0.011811*%
%ADD13C,0.0108268*%
%ADD14C,0.00984252*%
%ADD15C,0.01*%
%ADD16C,0.00492126*%
%ADD17C,0.00462598*%
%ADD18C,0.00442913*%
%ADD19C,0.0105*%
%ADD20C,0.0001*%
G04 APERTURE END LIST*
G54D10*
G54D11*
X80900Y-48500D02*
X80900Y-48050D01*
X79850Y-48500D02*
X80900Y-48500D01*
X79850Y-48050D02*
X79850Y-48500D01*
X82600Y-52200D02*
X82600Y-52400D01*
X81600Y-52200D02*
X81600Y-52300D01*
X80600Y-52400D02*
X80600Y-52200D01*
X79600Y-52400D02*
X79600Y-52200D01*
X78600Y-52200D02*
X78600Y-52400D01*
X77600Y-52400D02*
X77600Y-52200D01*
X76600Y-52200D02*
X76600Y-52400D01*
X75600Y-52400D02*
X75600Y-52200D01*
X74600Y-52200D02*
X74600Y-52400D01*
X73600Y-52400D02*
X73600Y-52200D01*
G54D12*
X73881Y-54221D02*
X73408Y-54063D01*
X73881Y-53906D01*
X73881Y-53816D02*
X73881Y-53546D01*
X73408Y-53681D02*
X73881Y-53681D01*
X73408Y-53388D02*
X73723Y-53388D01*
X73633Y-53388D02*
X73678Y-53366D01*
X73701Y-53343D01*
X73723Y-53298D01*
X73723Y-53253D01*
X73431Y-52916D02*
X73408Y-52961D01*
X73408Y-53051D01*
X73431Y-53096D01*
X73476Y-53118D01*
X73656Y-53118D01*
X73701Y-53096D01*
X73723Y-53051D01*
X73723Y-52961D01*
X73701Y-52916D01*
X73656Y-52893D01*
X73611Y-52893D01*
X73566Y-53118D01*
X73723Y-52758D02*
X73723Y-52578D01*
X73408Y-52691D02*
X73813Y-52691D01*
X73858Y-52668D01*
X73881Y-52623D01*
X73881Y-52578D01*
G54D13*
X74713Y-54245D02*
X74424Y-54245D01*
X74672Y-54245D02*
X74692Y-54224D01*
X74713Y-54183D01*
X74713Y-54121D01*
X74692Y-54080D01*
X74651Y-54059D01*
X74424Y-54059D01*
X74857Y-53915D02*
X74857Y-53668D01*
X74424Y-53791D02*
X74857Y-53791D01*
X74424Y-53276D02*
X74630Y-53420D01*
X74424Y-53523D02*
X74857Y-53523D01*
X74857Y-53358D01*
X74837Y-53317D01*
X74816Y-53296D01*
X74775Y-53276D01*
X74713Y-53276D01*
X74672Y-53296D01*
X74651Y-53317D01*
X74630Y-53358D01*
X74630Y-53523D01*
X74445Y-53111D02*
X74424Y-53049D01*
X74424Y-52946D01*
X74445Y-52905D01*
X74465Y-52884D01*
X74507Y-52863D01*
X74548Y-52863D01*
X74589Y-52884D01*
X74610Y-52905D01*
X74630Y-52946D01*
X74651Y-53028D01*
X74672Y-53070D01*
X74692Y-53090D01*
X74734Y-53111D01*
X74775Y-53111D01*
X74816Y-53090D01*
X74837Y-53070D01*
X74857Y-53028D01*
X74857Y-52925D01*
X74837Y-52863D01*
X74857Y-52740D02*
X74857Y-52492D01*
X74424Y-52616D02*
X74857Y-52616D01*
G54D12*
X75881Y-53883D02*
X75881Y-53613D01*
X75408Y-53748D02*
X75881Y-53748D01*
X75408Y-53456D02*
X75881Y-53456D01*
X75881Y-53343D01*
X75858Y-53276D01*
X75813Y-53231D01*
X75768Y-53208D01*
X75678Y-53186D01*
X75611Y-53186D01*
X75521Y-53208D01*
X75476Y-53231D01*
X75431Y-53276D01*
X75408Y-53343D01*
X75408Y-53456D01*
X75408Y-52983D02*
X75881Y-52983D01*
X76881Y-54029D02*
X76881Y-53759D01*
X76408Y-53894D02*
X76881Y-53894D01*
X76408Y-53602D02*
X76881Y-53602D01*
X76543Y-53444D01*
X76881Y-53287D01*
X76408Y-53287D01*
X76431Y-53085D02*
X76408Y-53017D01*
X76408Y-52905D01*
X76431Y-52860D01*
X76453Y-52837D01*
X76498Y-52815D01*
X76543Y-52815D01*
X76588Y-52837D01*
X76611Y-52860D01*
X76633Y-52905D01*
X76656Y-52995D01*
X76678Y-53040D01*
X76701Y-53062D01*
X76746Y-53085D01*
X76791Y-53085D01*
X76836Y-53062D01*
X76858Y-53040D01*
X76881Y-52995D01*
X76881Y-52882D01*
X76858Y-52815D01*
X77881Y-54007D02*
X77881Y-53737D01*
X77408Y-53872D02*
X77881Y-53872D01*
X77453Y-53310D02*
X77431Y-53332D01*
X77408Y-53400D01*
X77408Y-53444D01*
X77431Y-53512D01*
X77476Y-53557D01*
X77521Y-53579D01*
X77611Y-53602D01*
X77678Y-53602D01*
X77768Y-53579D01*
X77813Y-53557D01*
X77858Y-53512D01*
X77881Y-53444D01*
X77881Y-53400D01*
X77858Y-53332D01*
X77836Y-53310D01*
X77408Y-53107D02*
X77881Y-53107D01*
X77408Y-52837D02*
X77678Y-53040D01*
X77881Y-52837D02*
X77611Y-53107D01*
X78408Y-53906D02*
X78633Y-54063D01*
X78408Y-54176D02*
X78881Y-54176D01*
X78881Y-53996D01*
X78858Y-53951D01*
X78836Y-53928D01*
X78791Y-53906D01*
X78723Y-53906D01*
X78678Y-53928D01*
X78656Y-53951D01*
X78633Y-53996D01*
X78633Y-54176D01*
X78881Y-53771D02*
X78881Y-53501D01*
X78408Y-53636D02*
X78881Y-53636D01*
X78453Y-53073D02*
X78431Y-53096D01*
X78408Y-53163D01*
X78408Y-53208D01*
X78431Y-53276D01*
X78476Y-53321D01*
X78521Y-53343D01*
X78611Y-53366D01*
X78678Y-53366D01*
X78768Y-53343D01*
X78813Y-53321D01*
X78858Y-53276D01*
X78881Y-53208D01*
X78881Y-53163D01*
X78858Y-53096D01*
X78836Y-53073D01*
X78408Y-52871D02*
X78881Y-52871D01*
X78408Y-52601D02*
X78678Y-52803D01*
X78881Y-52601D02*
X78611Y-52871D01*
X79881Y-54018D02*
X79881Y-53748D01*
X79408Y-53883D02*
X79881Y-53883D01*
X79408Y-53591D02*
X79881Y-53591D01*
X79881Y-53478D01*
X79858Y-53411D01*
X79813Y-53366D01*
X79768Y-53343D01*
X79678Y-53321D01*
X79611Y-53321D01*
X79521Y-53343D01*
X79476Y-53366D01*
X79431Y-53411D01*
X79408Y-53478D01*
X79408Y-53591D01*
X79881Y-53028D02*
X79881Y-52938D01*
X79858Y-52893D01*
X79813Y-52848D01*
X79723Y-52826D01*
X79566Y-52826D01*
X79476Y-52848D01*
X79431Y-52893D01*
X79408Y-52938D01*
X79408Y-53028D01*
X79431Y-53073D01*
X79476Y-53118D01*
X79566Y-53141D01*
X79723Y-53141D01*
X79813Y-53118D01*
X79858Y-53073D01*
X79881Y-53028D01*
G54D14*
X80440Y-53971D02*
X80628Y-54103D01*
X80440Y-54196D02*
X80834Y-54196D01*
X80834Y-54046D01*
X80815Y-54009D01*
X80796Y-53990D01*
X80759Y-53971D01*
X80703Y-53971D01*
X80665Y-53990D01*
X80646Y-54009D01*
X80628Y-54046D01*
X80628Y-54196D01*
X80646Y-53803D02*
X80646Y-53671D01*
X80440Y-53615D02*
X80440Y-53803D01*
X80834Y-53803D01*
X80834Y-53615D01*
X80459Y-53465D02*
X80440Y-53409D01*
X80440Y-53315D01*
X80459Y-53278D01*
X80478Y-53259D01*
X80515Y-53240D01*
X80553Y-53240D01*
X80590Y-53259D01*
X80609Y-53278D01*
X80628Y-53315D01*
X80646Y-53390D01*
X80665Y-53428D01*
X80684Y-53446D01*
X80721Y-53465D01*
X80759Y-53465D01*
X80796Y-53446D01*
X80815Y-53428D01*
X80834Y-53390D01*
X80834Y-53296D01*
X80815Y-53240D01*
X80646Y-53071D02*
X80646Y-52940D01*
X80440Y-52884D02*
X80440Y-53071D01*
X80834Y-53071D01*
X80834Y-52884D01*
X80834Y-52771D02*
X80834Y-52546D01*
X80440Y-52659D02*
X80834Y-52659D01*
X81440Y-54299D02*
X81834Y-54299D01*
X81834Y-54206D01*
X81815Y-54149D01*
X81778Y-54112D01*
X81740Y-54093D01*
X81665Y-54074D01*
X81609Y-54074D01*
X81534Y-54093D01*
X81496Y-54112D01*
X81459Y-54149D01*
X81440Y-54206D01*
X81440Y-54299D01*
X81646Y-53774D02*
X81628Y-53718D01*
X81609Y-53699D01*
X81571Y-53681D01*
X81515Y-53681D01*
X81478Y-53699D01*
X81459Y-53718D01*
X81440Y-53756D01*
X81440Y-53906D01*
X81834Y-53906D01*
X81834Y-53774D01*
X81815Y-53737D01*
X81796Y-53718D01*
X81759Y-53699D01*
X81721Y-53699D01*
X81684Y-53718D01*
X81665Y-53737D01*
X81646Y-53774D01*
X81646Y-53906D01*
X81815Y-53306D02*
X81834Y-53343D01*
X81834Y-53399D01*
X81815Y-53456D01*
X81778Y-53493D01*
X81740Y-53512D01*
X81665Y-53531D01*
X81609Y-53531D01*
X81534Y-53512D01*
X81496Y-53493D01*
X81459Y-53456D01*
X81440Y-53399D01*
X81440Y-53362D01*
X81459Y-53306D01*
X81478Y-53287D01*
X81609Y-53287D01*
X81609Y-53362D01*
X81440Y-52893D02*
X81628Y-53025D01*
X81440Y-53118D02*
X81834Y-53118D01*
X81834Y-52968D01*
X81815Y-52931D01*
X81796Y-52912D01*
X81759Y-52893D01*
X81703Y-52893D01*
X81665Y-52912D01*
X81646Y-52931D01*
X81628Y-52968D01*
X81628Y-53118D01*
X81403Y-52462D02*
X81421Y-52500D01*
X81459Y-52537D01*
X81515Y-52593D01*
X81534Y-52631D01*
X81534Y-52668D01*
X81440Y-52650D02*
X81459Y-52687D01*
X81496Y-52725D01*
X81571Y-52743D01*
X81703Y-52743D01*
X81778Y-52725D01*
X81815Y-52687D01*
X81834Y-52650D01*
X81834Y-52575D01*
X81815Y-52537D01*
X81778Y-52500D01*
X81703Y-52481D01*
X81571Y-52481D01*
X81496Y-52500D01*
X81459Y-52537D01*
X81440Y-52575D01*
X81440Y-52650D01*
G54D15*
X82881Y-53489D02*
X82881Y-53714D01*
X82656Y-53737D01*
X82678Y-53714D01*
X82701Y-53669D01*
X82701Y-53557D01*
X82678Y-53512D01*
X82656Y-53489D01*
X82611Y-53467D01*
X82498Y-53467D01*
X82453Y-53489D01*
X82431Y-53512D01*
X82408Y-53557D01*
X82408Y-53669D01*
X82431Y-53714D01*
X82453Y-53737D01*
X82881Y-53332D02*
X82408Y-53175D01*
X82881Y-53017D01*
G54D11*
X73000Y-48200D02*
X73400Y-48200D01*
X73000Y-47000D02*
X73000Y-48200D01*
X73400Y-47000D02*
X73000Y-47000D01*
X76800Y-48200D02*
X76500Y-48200D01*
X76800Y-47600D02*
X76800Y-48200D01*
X76800Y-47000D02*
X76500Y-47000D01*
X76800Y-47600D02*
X76800Y-47000D01*
X77800Y-47600D02*
X76800Y-47600D01*
X79850Y-47150D02*
X79850Y-48050D01*
X73600Y-49625D02*
X73600Y-49925D01*
G54D14*
X73440Y-49384D02*
X73834Y-49384D01*
X73440Y-49159D01*
X73834Y-49159D01*
X73478Y-48746D02*
X73459Y-48765D01*
X73440Y-48821D01*
X73440Y-48859D01*
X73459Y-48915D01*
X73496Y-48953D01*
X73534Y-48971D01*
X73609Y-48990D01*
X73665Y-48990D01*
X73740Y-48971D01*
X73778Y-48953D01*
X73815Y-48915D01*
X73834Y-48859D01*
X73834Y-48821D01*
X73815Y-48765D01*
X73796Y-48746D01*
G54D16*
X82512Y-48404D02*
X82475Y-48404D01*
X82456Y-48395D01*
X82446Y-48385D01*
X82428Y-48357D01*
X82418Y-48320D01*
X82418Y-48245D01*
X82428Y-48226D01*
X82437Y-48217D01*
X82456Y-48207D01*
X82493Y-48207D01*
X82512Y-48217D01*
X82521Y-48226D01*
X82531Y-48245D01*
X82531Y-48292D01*
X82521Y-48310D01*
X82512Y-48320D01*
X82493Y-48329D01*
X82456Y-48329D01*
X82437Y-48320D01*
X82428Y-48310D01*
X82418Y-48292D01*
X82512Y-47004D02*
X82624Y-47004D01*
X82568Y-47004D02*
X82568Y-46807D01*
X82587Y-46835D01*
X82606Y-46854D01*
X82624Y-46864D01*
X82390Y-46807D02*
X82371Y-46807D01*
X82353Y-46817D01*
X82343Y-46826D01*
X82334Y-46845D01*
X82325Y-46882D01*
X82325Y-46929D01*
X82334Y-46967D01*
X82343Y-46985D01*
X82353Y-46995D01*
X82371Y-47004D01*
X82390Y-47004D01*
X82409Y-46995D01*
X82418Y-46985D01*
X82428Y-46967D01*
X82437Y-46929D01*
X82437Y-46882D01*
X82428Y-46845D01*
X82418Y-46826D01*
X82409Y-46817D01*
X82390Y-46807D01*
X81515Y-48207D02*
X81384Y-48207D01*
X81468Y-48404D01*
X81468Y-46892D02*
X81487Y-46882D01*
X81496Y-46873D01*
X81506Y-46854D01*
X81506Y-46845D01*
X81496Y-46826D01*
X81487Y-46817D01*
X81468Y-46807D01*
X81431Y-46807D01*
X81412Y-46817D01*
X81403Y-46826D01*
X81393Y-46845D01*
X81393Y-46854D01*
X81403Y-46873D01*
X81412Y-46882D01*
X81431Y-46892D01*
X81468Y-46892D01*
X81487Y-46901D01*
X81496Y-46910D01*
X81506Y-46929D01*
X81506Y-46967D01*
X81496Y-46985D01*
X81487Y-46995D01*
X81468Y-47004D01*
X81431Y-47004D01*
X81412Y-46995D01*
X81403Y-46985D01*
X81393Y-46967D01*
X81393Y-46929D01*
X81403Y-46910D01*
X81412Y-46901D01*
X81431Y-46892D01*
X80362Y-46807D02*
X80400Y-46807D01*
X80418Y-46817D01*
X80428Y-46826D01*
X80446Y-46854D01*
X80456Y-46892D01*
X80456Y-46967D01*
X80446Y-46985D01*
X80437Y-46995D01*
X80418Y-47004D01*
X80381Y-47004D01*
X80362Y-46995D01*
X80353Y-46985D01*
X80343Y-46967D01*
X80343Y-46920D01*
X80353Y-46901D01*
X80362Y-46892D01*
X80381Y-46882D01*
X80418Y-46882D01*
X80437Y-46892D01*
X80446Y-46901D01*
X80456Y-46920D01*
X80353Y-48207D02*
X80446Y-48207D01*
X80456Y-48301D01*
X80446Y-48292D01*
X80428Y-48282D01*
X80381Y-48282D01*
X80362Y-48292D01*
X80353Y-48301D01*
X80343Y-48320D01*
X80343Y-48367D01*
X80353Y-48385D01*
X80362Y-48395D01*
X80381Y-48404D01*
X80428Y-48404D01*
X80446Y-48395D01*
X80456Y-48385D01*
X79390Y-48207D02*
X79268Y-48207D01*
X79334Y-48282D01*
X79306Y-48282D01*
X79287Y-48292D01*
X79278Y-48301D01*
X79268Y-48320D01*
X79268Y-48367D01*
X79278Y-48385D01*
X79287Y-48395D01*
X79306Y-48404D01*
X79362Y-48404D01*
X79381Y-48395D01*
X79390Y-48385D01*
X79287Y-46873D02*
X79287Y-47004D01*
X79334Y-46798D02*
X79381Y-46939D01*
X79259Y-46939D01*
X78331Y-46826D02*
X78321Y-46817D01*
X78303Y-46807D01*
X78256Y-46807D01*
X78237Y-46817D01*
X78228Y-46826D01*
X78218Y-46845D01*
X78218Y-46864D01*
X78228Y-46892D01*
X78340Y-47004D01*
X78218Y-47004D01*
X78218Y-48404D02*
X78331Y-48404D01*
X78275Y-48404D02*
X78275Y-48207D01*
X78293Y-48235D01*
X78312Y-48254D01*
X78331Y-48264D01*
G54D11*
X83000Y-47600D02*
X77750Y-47600D01*
X77750Y-48050D02*
X78800Y-48050D01*
X77750Y-47150D02*
X77750Y-48050D01*
X78800Y-47150D02*
X77750Y-47150D01*
X78800Y-48050D02*
X79850Y-48050D01*
X78800Y-47150D02*
X78800Y-48050D01*
X79850Y-47150D02*
X78800Y-47150D01*
X79850Y-48050D02*
X80900Y-48050D01*
X80900Y-47150D02*
X79850Y-47150D01*
X80900Y-48050D02*
X81950Y-48050D01*
X80900Y-47150D02*
X80900Y-48050D01*
X81950Y-47150D02*
X80900Y-47150D01*
X81950Y-47150D02*
X81950Y-47600D01*
X83000Y-47150D02*
X81950Y-47150D01*
X83000Y-47600D02*
X83000Y-47150D01*
X81950Y-47600D02*
X81950Y-48050D01*
X83000Y-48050D02*
X83000Y-47600D01*
X81950Y-48050D02*
X83000Y-48050D01*
G54D16*
X82649Y-47742D02*
X82668Y-47732D01*
X82696Y-47732D01*
X82724Y-47742D01*
X82743Y-47760D01*
X82753Y-47779D01*
X82762Y-47817D01*
X82762Y-47845D01*
X82753Y-47882D01*
X82743Y-47901D01*
X82724Y-47920D01*
X82696Y-47929D01*
X82678Y-47929D01*
X82649Y-47920D01*
X82640Y-47910D01*
X82640Y-47845D01*
X82678Y-47845D01*
X82556Y-47929D02*
X82556Y-47732D01*
X82443Y-47929D01*
X82443Y-47732D01*
X82350Y-47929D02*
X82350Y-47732D01*
X82303Y-47732D01*
X82275Y-47742D01*
X82256Y-47760D01*
X82246Y-47779D01*
X82237Y-47817D01*
X82237Y-47845D01*
X82246Y-47882D01*
X82256Y-47901D01*
X82275Y-47920D01*
X82303Y-47929D01*
X82350Y-47929D01*
G54D17*
X81611Y-47924D02*
X81611Y-47739D01*
X81505Y-47924D02*
X81585Y-47819D01*
X81505Y-47739D02*
X81611Y-47845D01*
X81426Y-47827D02*
X81364Y-47827D01*
X81338Y-47924D02*
X81426Y-47924D01*
X81426Y-47739D01*
X81338Y-47739D01*
X81223Y-47836D02*
X81223Y-47924D01*
X81285Y-47739D02*
X81223Y-47836D01*
X81162Y-47739D01*
G54D18*
X80540Y-47748D02*
X80558Y-47739D01*
X80585Y-47739D01*
X80611Y-47748D01*
X80629Y-47766D01*
X80637Y-47783D01*
X80646Y-47819D01*
X80646Y-47845D01*
X80637Y-47880D01*
X80629Y-47898D01*
X80611Y-47916D01*
X80585Y-47924D01*
X80567Y-47924D01*
X80540Y-47916D01*
X80532Y-47907D01*
X80532Y-47845D01*
X80567Y-47845D01*
X80452Y-47924D02*
X80452Y-47739D01*
X80347Y-47924D01*
X80347Y-47739D01*
X80259Y-47924D02*
X80259Y-47739D01*
X80214Y-47739D01*
X80188Y-47748D01*
X80170Y-47766D01*
X80162Y-47783D01*
X80153Y-47819D01*
X80153Y-47845D01*
X80162Y-47880D01*
X80170Y-47898D01*
X80188Y-47916D01*
X80214Y-47924D01*
X80259Y-47924D01*
X79465Y-47748D02*
X79483Y-47739D01*
X79510Y-47739D01*
X79536Y-47748D01*
X79554Y-47766D01*
X79562Y-47783D01*
X79571Y-47819D01*
X79571Y-47845D01*
X79562Y-47880D01*
X79554Y-47898D01*
X79536Y-47916D01*
X79510Y-47924D01*
X79492Y-47924D01*
X79465Y-47916D01*
X79457Y-47907D01*
X79457Y-47845D01*
X79492Y-47845D01*
X79377Y-47924D02*
X79377Y-47739D01*
X79272Y-47924D01*
X79272Y-47739D01*
X79184Y-47924D02*
X79184Y-47739D01*
X79139Y-47739D01*
X79113Y-47748D01*
X79095Y-47766D01*
X79087Y-47783D01*
X79078Y-47819D01*
X79078Y-47845D01*
X79087Y-47880D01*
X79095Y-47898D01*
X79113Y-47916D01*
X79139Y-47924D01*
X79184Y-47924D01*
X78536Y-47744D02*
X78477Y-47921D01*
X78418Y-47744D01*
X78257Y-47904D02*
X78266Y-47913D01*
X78291Y-47921D01*
X78308Y-47921D01*
X78333Y-47913D01*
X78350Y-47896D01*
X78359Y-47879D01*
X78367Y-47845D01*
X78367Y-47820D01*
X78359Y-47786D01*
X78350Y-47769D01*
X78333Y-47752D01*
X78308Y-47744D01*
X78291Y-47744D01*
X78266Y-47752D01*
X78257Y-47761D01*
X78080Y-47904D02*
X78089Y-47913D01*
X78114Y-47921D01*
X78131Y-47921D01*
X78156Y-47913D01*
X78173Y-47896D01*
X78181Y-47879D01*
X78190Y-47845D01*
X78190Y-47820D01*
X78181Y-47786D01*
X78173Y-47769D01*
X78156Y-47752D01*
X78131Y-47744D01*
X78114Y-47744D01*
X78089Y-47752D01*
X78080Y-47761D01*
G54D16*
X82785Y-47479D02*
X82851Y-47385D01*
X82898Y-47479D02*
X82898Y-47282D01*
X82823Y-47282D01*
X82804Y-47292D01*
X82795Y-47301D01*
X82785Y-47320D01*
X82785Y-47348D01*
X82795Y-47367D01*
X82804Y-47376D01*
X82823Y-47385D01*
X82898Y-47385D01*
X82701Y-47376D02*
X82635Y-47376D01*
X82607Y-47479D02*
X82701Y-47479D01*
X82701Y-47282D01*
X82607Y-47282D01*
X82532Y-47470D02*
X82504Y-47479D01*
X82457Y-47479D01*
X82439Y-47470D01*
X82429Y-47460D01*
X82420Y-47442D01*
X82420Y-47423D01*
X82429Y-47404D01*
X82439Y-47395D01*
X82457Y-47385D01*
X82495Y-47376D01*
X82514Y-47367D01*
X82523Y-47357D01*
X82532Y-47339D01*
X82532Y-47320D01*
X82523Y-47301D01*
X82514Y-47292D01*
X82495Y-47282D01*
X82448Y-47282D01*
X82420Y-47292D01*
X82335Y-47376D02*
X82270Y-47376D01*
X82242Y-47479D02*
X82335Y-47479D01*
X82335Y-47282D01*
X82242Y-47282D01*
X82185Y-47282D02*
X82073Y-47282D01*
X82129Y-47479D02*
X82129Y-47282D01*
G54D17*
X81589Y-47289D02*
X81483Y-47289D01*
X81536Y-47474D02*
X81536Y-47289D01*
X81422Y-47474D02*
X81422Y-47289D01*
X81377Y-47289D01*
X81351Y-47298D01*
X81333Y-47316D01*
X81325Y-47333D01*
X81316Y-47369D01*
X81316Y-47395D01*
X81325Y-47430D01*
X81333Y-47448D01*
X81351Y-47466D01*
X81377Y-47474D01*
X81422Y-47474D01*
X81236Y-47474D02*
X81236Y-47289D01*
G54D18*
X80655Y-47466D02*
X80629Y-47474D01*
X80585Y-47474D01*
X80567Y-47466D01*
X80558Y-47457D01*
X80549Y-47439D01*
X80549Y-47422D01*
X80558Y-47404D01*
X80567Y-47395D01*
X80585Y-47386D01*
X80620Y-47377D01*
X80637Y-47369D01*
X80646Y-47360D01*
X80655Y-47342D01*
X80655Y-47325D01*
X80646Y-47307D01*
X80637Y-47298D01*
X80620Y-47289D01*
X80576Y-47289D01*
X80549Y-47298D01*
X80488Y-47289D02*
X80444Y-47474D01*
X80408Y-47342D01*
X80373Y-47474D01*
X80329Y-47289D01*
X80223Y-47289D02*
X80188Y-47289D01*
X80170Y-47298D01*
X80153Y-47316D01*
X80144Y-47351D01*
X80144Y-47413D01*
X80153Y-47448D01*
X80170Y-47466D01*
X80188Y-47474D01*
X80223Y-47474D01*
X80241Y-47466D01*
X80259Y-47448D01*
X80267Y-47413D01*
X80267Y-47351D01*
X80259Y-47316D01*
X80241Y-47298D01*
X80223Y-47289D01*
X79743Y-47466D02*
X79717Y-47474D01*
X79673Y-47474D01*
X79655Y-47466D01*
X79646Y-47457D01*
X79637Y-47439D01*
X79637Y-47422D01*
X79646Y-47404D01*
X79655Y-47395D01*
X79673Y-47386D01*
X79708Y-47377D01*
X79725Y-47369D01*
X79734Y-47360D01*
X79743Y-47342D01*
X79743Y-47325D01*
X79734Y-47307D01*
X79725Y-47298D01*
X79708Y-47289D01*
X79664Y-47289D01*
X79637Y-47298D01*
X79576Y-47289D02*
X79532Y-47474D01*
X79496Y-47342D01*
X79461Y-47474D01*
X79417Y-47289D01*
X79241Y-47457D02*
X79250Y-47466D01*
X79276Y-47474D01*
X79294Y-47474D01*
X79320Y-47466D01*
X79338Y-47448D01*
X79347Y-47430D01*
X79355Y-47395D01*
X79355Y-47369D01*
X79347Y-47333D01*
X79338Y-47316D01*
X79320Y-47298D01*
X79294Y-47289D01*
X79276Y-47289D01*
X79250Y-47298D01*
X79241Y-47307D01*
X79073Y-47474D02*
X79161Y-47474D01*
X79161Y-47289D01*
X79012Y-47474D02*
X79012Y-47289D01*
X78906Y-47474D02*
X78985Y-47369D01*
X78906Y-47289D02*
X79012Y-47395D01*
X78692Y-47466D02*
X78665Y-47474D01*
X78621Y-47474D01*
X78603Y-47466D01*
X78595Y-47457D01*
X78586Y-47439D01*
X78586Y-47422D01*
X78595Y-47404D01*
X78603Y-47395D01*
X78621Y-47386D01*
X78656Y-47377D01*
X78674Y-47369D01*
X78683Y-47360D01*
X78692Y-47342D01*
X78692Y-47325D01*
X78683Y-47307D01*
X78674Y-47298D01*
X78656Y-47289D01*
X78612Y-47289D01*
X78586Y-47298D01*
X78524Y-47289D02*
X78480Y-47474D01*
X78445Y-47342D01*
X78410Y-47474D01*
X78366Y-47289D01*
X78295Y-47474D02*
X78295Y-47289D01*
X78251Y-47289D01*
X78225Y-47298D01*
X78207Y-47316D01*
X78198Y-47333D01*
X78189Y-47369D01*
X78189Y-47395D01*
X78198Y-47430D01*
X78207Y-47448D01*
X78225Y-47466D01*
X78251Y-47474D01*
X78295Y-47474D01*
X78110Y-47474D02*
X78110Y-47289D01*
X77987Y-47289D02*
X77951Y-47289D01*
X77934Y-47298D01*
X77916Y-47316D01*
X77907Y-47351D01*
X77907Y-47413D01*
X77916Y-47448D01*
X77934Y-47466D01*
X77951Y-47474D01*
X77987Y-47474D01*
X78004Y-47466D01*
X78022Y-47448D01*
X78031Y-47413D01*
X78031Y-47351D01*
X78022Y-47316D01*
X78004Y-47298D01*
X77987Y-47289D01*
G54D19*
X80140Y-56990D02*
X80120Y-56970D01*
X80080Y-56950D01*
X79980Y-56950D01*
X79940Y-56970D01*
X79920Y-56990D01*
X79900Y-57030D01*
X79900Y-57070D01*
X79920Y-57130D01*
X80160Y-57370D01*
X79900Y-57370D01*
X79640Y-56950D02*
X79600Y-56950D01*
X79560Y-56970D01*
X79540Y-56990D01*
X79520Y-57030D01*
X79500Y-57110D01*
X79500Y-57210D01*
X79520Y-57290D01*
X79540Y-57330D01*
X79560Y-57350D01*
X79600Y-57370D01*
X79640Y-57370D01*
X79680Y-57350D01*
X79700Y-57330D01*
X79720Y-57290D01*
X79740Y-57210D01*
X79740Y-57110D01*
X79720Y-57030D01*
X79700Y-56990D01*
X79680Y-56970D01*
X79640Y-56950D01*
X79100Y-57370D02*
X79340Y-57370D01*
X79220Y-57370D02*
X79220Y-56950D01*
X79260Y-57010D01*
X79300Y-57050D01*
X79340Y-57070D01*
X78740Y-57090D02*
X78740Y-57370D01*
X78840Y-56930D02*
X78940Y-57230D01*
X78680Y-57230D01*
X78520Y-57210D02*
X78200Y-57210D01*
X77780Y-57370D02*
X78020Y-57370D01*
X77900Y-57370D02*
X77900Y-56950D01*
X77940Y-57010D01*
X77980Y-57050D01*
X78020Y-57070D01*
X77520Y-56950D02*
X77480Y-56950D01*
X77440Y-56970D01*
X77420Y-56990D01*
X77400Y-57030D01*
X77380Y-57110D01*
X77380Y-57210D01*
X77400Y-57290D01*
X77420Y-57330D01*
X77440Y-57350D01*
X77480Y-57370D01*
X77520Y-57370D01*
X77560Y-57350D01*
X77580Y-57330D01*
X77600Y-57290D01*
X77620Y-57210D01*
X77620Y-57110D01*
X77600Y-57030D01*
X77580Y-56990D01*
X77560Y-56970D01*
X77520Y-56950D01*
X77200Y-57210D02*
X76880Y-57210D01*
X76600Y-56950D02*
X76560Y-56950D01*
X76520Y-56970D01*
X76500Y-56990D01*
X76480Y-57030D01*
X76460Y-57110D01*
X76460Y-57210D01*
X76480Y-57290D01*
X76500Y-57330D01*
X76520Y-57350D01*
X76560Y-57370D01*
X76600Y-57370D01*
X76640Y-57350D01*
X76660Y-57330D01*
X76680Y-57290D01*
X76700Y-57210D01*
X76700Y-57110D01*
X76680Y-57030D01*
X76660Y-56990D01*
X76640Y-56970D01*
X76600Y-56950D01*
X76060Y-57370D02*
X76300Y-57370D01*
X76180Y-57370D02*
X76180Y-56950D01*
X76220Y-57010D01*
X76260Y-57050D01*
X76300Y-57070D01*
X83650Y-55890D02*
X83350Y-55890D01*
X83290Y-55910D01*
X83250Y-55950D01*
X83230Y-56010D01*
X83230Y-56050D01*
X83390Y-55690D02*
X83390Y-55370D01*
X83230Y-54970D02*
X83230Y-55170D01*
X83650Y-55170D01*
X83230Y-54830D02*
X83650Y-54830D01*
X83230Y-54630D02*
X83650Y-54630D01*
X83230Y-54390D01*
X83650Y-54390D01*
X83230Y-54190D02*
X83650Y-54190D01*
X83230Y-53950D02*
X83470Y-54130D01*
X83650Y-53950D02*
X83410Y-54190D01*
X83450Y-53310D02*
X83430Y-53250D01*
X83410Y-53230D01*
X83370Y-53210D01*
X83310Y-53210D01*
X83270Y-53230D01*
X83250Y-53250D01*
X83230Y-53290D01*
X83230Y-53450D01*
X83650Y-53450D01*
X83650Y-53310D01*
X83630Y-53270D01*
X83610Y-53250D01*
X83570Y-53230D01*
X83530Y-53230D01*
X83490Y-53250D01*
X83470Y-53270D01*
X83450Y-53310D01*
X83450Y-53450D01*
X83230Y-53030D02*
X83510Y-53030D01*
X83430Y-53030D02*
X83470Y-53010D01*
X83490Y-52990D01*
X83510Y-52950D01*
X83510Y-52910D01*
X83250Y-52610D02*
X83230Y-52650D01*
X83230Y-52730D01*
X83250Y-52770D01*
X83290Y-52790D01*
X83450Y-52790D01*
X83490Y-52770D01*
X83510Y-52730D01*
X83510Y-52650D01*
X83490Y-52610D01*
X83450Y-52590D01*
X83410Y-52590D01*
X83370Y-52790D01*
X83230Y-52230D02*
X83450Y-52230D01*
X83490Y-52250D01*
X83510Y-52290D01*
X83510Y-52370D01*
X83490Y-52410D01*
X83250Y-52230D02*
X83230Y-52270D01*
X83230Y-52370D01*
X83250Y-52410D01*
X83290Y-52430D01*
X83330Y-52430D01*
X83370Y-52410D01*
X83390Y-52370D01*
X83390Y-52270D01*
X83410Y-52230D01*
X83230Y-52030D02*
X83650Y-52030D01*
X83390Y-51990D02*
X83230Y-51870D01*
X83510Y-51870D02*
X83350Y-52030D01*
X83230Y-51630D02*
X83250Y-51670D01*
X83270Y-51690D01*
X83310Y-51710D01*
X83430Y-51710D01*
X83470Y-51690D01*
X83490Y-51670D01*
X83510Y-51630D01*
X83510Y-51570D01*
X83490Y-51530D01*
X83470Y-51510D01*
X83430Y-51490D01*
X83310Y-51490D01*
X83270Y-51510D01*
X83250Y-51530D01*
X83230Y-51570D01*
X83230Y-51630D01*
X83510Y-51130D02*
X83230Y-51130D01*
X83510Y-51310D02*
X83290Y-51310D01*
X83250Y-51290D01*
X83230Y-51250D01*
X83230Y-51190D01*
X83250Y-51150D01*
X83270Y-51130D01*
X83510Y-50990D02*
X83510Y-50830D01*
X83650Y-50930D02*
X83290Y-50930D01*
X83250Y-50910D01*
X83230Y-50870D01*
X83230Y-50830D01*
X83510Y-50410D02*
X83230Y-50330D01*
X83430Y-50250D01*
X83230Y-50170D01*
X83510Y-50090D01*
X83670Y-49630D02*
X83130Y-49990D01*
X83250Y-49510D02*
X83230Y-49450D01*
X83230Y-49350D01*
X83250Y-49310D01*
X83270Y-49290D01*
X83310Y-49270D01*
X83350Y-49270D01*
X83390Y-49290D01*
X83410Y-49310D01*
X83430Y-49350D01*
X83450Y-49430D01*
X83470Y-49470D01*
X83490Y-49490D01*
X83530Y-49510D01*
X83570Y-49510D01*
X83610Y-49490D01*
X83630Y-49470D01*
X83650Y-49430D01*
X83650Y-49330D01*
X83630Y-49270D01*
X83650Y-49130D02*
X83230Y-49030D01*
X83530Y-48950D01*
X83230Y-48870D01*
X83650Y-48770D01*
X83230Y-48610D02*
X83650Y-48610D01*
X83650Y-48510D01*
X83630Y-48450D01*
X83590Y-48410D01*
X83550Y-48390D01*
X83470Y-48370D01*
X83410Y-48370D01*
X83330Y-48390D01*
X83290Y-48410D01*
X83250Y-48450D01*
X83230Y-48510D01*
X83230Y-48610D01*
G54D11*
X74600Y-49925D02*
X74600Y-49625D01*
X74600Y-49625D02*
X74600Y-49925D01*
X75600Y-49625D02*
X74600Y-49625D01*
X75600Y-49925D02*
X75600Y-49625D01*
X75600Y-49625D02*
X75600Y-49925D01*
X76600Y-49625D02*
X75600Y-49625D01*
X76600Y-49925D02*
X76600Y-49625D01*
X76600Y-49625D02*
X76600Y-49925D01*
X77600Y-49625D02*
X76600Y-49625D01*
X77600Y-49925D02*
X77600Y-49625D01*
X77600Y-49625D02*
X77600Y-49925D01*
X78600Y-49625D02*
X77600Y-49625D01*
X78600Y-49925D02*
X78600Y-49625D01*
X78600Y-49625D02*
X78600Y-49925D01*
X79600Y-49625D02*
X78600Y-49625D01*
X79600Y-49625D02*
X79600Y-49925D01*
X80600Y-49625D02*
X79600Y-49625D01*
X80600Y-49925D02*
X80600Y-49625D01*
X80600Y-49625D02*
X80600Y-49925D01*
X81600Y-49625D02*
X80600Y-49625D01*
X81600Y-49925D02*
X81600Y-49625D01*
X81600Y-49625D02*
X81600Y-49925D01*
X82600Y-49625D02*
X81600Y-49625D01*
X82600Y-49925D02*
X82600Y-49625D01*
G54D19*
X72630Y-55780D02*
X72650Y-55820D01*
X72670Y-55840D01*
X72710Y-55860D01*
X72830Y-55860D01*
X72870Y-55840D01*
X72890Y-55820D01*
X72910Y-55780D01*
X72910Y-55720D01*
X72890Y-55680D01*
X72870Y-55660D01*
X72830Y-55640D01*
X72710Y-55640D01*
X72670Y-55660D01*
X72650Y-55680D01*
X72630Y-55720D01*
X72630Y-55780D01*
X72910Y-55460D02*
X72490Y-55460D01*
X72890Y-55460D02*
X72910Y-55420D01*
X72910Y-55340D01*
X72890Y-55300D01*
X72870Y-55280D01*
X72830Y-55260D01*
X72710Y-55260D01*
X72670Y-55280D01*
X72650Y-55300D01*
X72630Y-55340D01*
X72630Y-55420D01*
X72650Y-55460D01*
X72650Y-54920D02*
X72630Y-54960D01*
X72630Y-55040D01*
X72650Y-55080D01*
X72690Y-55100D01*
X72850Y-55100D01*
X72890Y-55080D01*
X72910Y-55040D01*
X72910Y-54960D01*
X72890Y-54920D01*
X72850Y-54900D01*
X72810Y-54900D01*
X72770Y-55100D01*
X72910Y-54720D02*
X72630Y-54720D01*
X72870Y-54720D02*
X72890Y-54700D01*
X72910Y-54660D01*
X72910Y-54600D01*
X72890Y-54560D01*
X72850Y-54540D01*
X72630Y-54540D01*
X72670Y-54340D02*
X72650Y-54320D01*
X72630Y-54340D01*
X72650Y-54360D01*
X72670Y-54340D01*
X72630Y-54340D01*
X72630Y-54140D02*
X73050Y-54140D01*
X72790Y-54100D02*
X72630Y-53980D01*
X72910Y-53980D02*
X72750Y-54140D01*
X72630Y-53740D02*
X72650Y-53780D01*
X72670Y-53800D01*
X72710Y-53820D01*
X72830Y-53820D01*
X72870Y-53800D01*
X72890Y-53780D01*
X72910Y-53740D01*
X72910Y-53680D01*
X72890Y-53640D01*
X72870Y-53620D01*
X72830Y-53600D01*
X72710Y-53600D01*
X72670Y-53620D01*
X72650Y-53640D01*
X72630Y-53680D01*
X72630Y-53740D01*
X72910Y-53420D02*
X72630Y-53420D01*
X72870Y-53420D02*
X72890Y-53400D01*
X72910Y-53360D01*
X72910Y-53300D01*
X72890Y-53260D01*
X72850Y-53240D01*
X72630Y-53240D01*
X72650Y-53060D02*
X72630Y-53020D01*
X72630Y-52940D01*
X72650Y-52900D01*
X72690Y-52880D01*
X72710Y-52880D01*
X72750Y-52900D01*
X72770Y-52940D01*
X72770Y-53000D01*
X72790Y-53040D01*
X72830Y-53060D01*
X72850Y-53060D01*
X72890Y-53040D01*
X72910Y-53000D01*
X72910Y-52940D01*
X72890Y-52900D01*
X72910Y-52700D02*
X72490Y-52700D01*
X72890Y-52700D02*
X72910Y-52660D01*
X72910Y-52580D01*
X72890Y-52540D01*
X72870Y-52520D01*
X72830Y-52500D01*
X72710Y-52500D01*
X72670Y-52520D01*
X72650Y-52540D01*
X72630Y-52580D01*
X72630Y-52660D01*
X72650Y-52700D01*
X72910Y-52360D02*
X72630Y-52260D01*
X72910Y-52160D02*
X72630Y-52260D01*
X72530Y-52300D01*
X72510Y-52320D01*
X72490Y-52360D01*
X72630Y-52000D02*
X72910Y-52000D01*
X72830Y-52000D02*
X72870Y-51980D01*
X72890Y-51960D01*
X72910Y-51920D01*
X72910Y-51880D01*
X72650Y-51580D02*
X72630Y-51620D01*
X72630Y-51700D01*
X72650Y-51740D01*
X72690Y-51760D01*
X72850Y-51760D01*
X72890Y-51740D01*
X72910Y-51700D01*
X72910Y-51620D01*
X72890Y-51580D01*
X72850Y-51560D01*
X72810Y-51560D01*
X72770Y-51760D01*
X72670Y-51380D02*
X72650Y-51360D01*
X72630Y-51380D01*
X72650Y-51400D01*
X72670Y-51380D01*
X72630Y-51380D01*
X72630Y-51120D02*
X72650Y-51160D01*
X72670Y-51180D01*
X72710Y-51200D01*
X72830Y-51200D01*
X72870Y-51180D01*
X72890Y-51160D01*
X72910Y-51120D01*
X72910Y-51060D01*
X72890Y-51020D01*
X72870Y-51000D01*
X72830Y-50980D01*
X72710Y-50980D01*
X72670Y-51000D01*
X72650Y-51020D01*
X72630Y-51060D01*
X72630Y-51120D01*
X72630Y-50800D02*
X72910Y-50800D01*
X72830Y-50800D02*
X72870Y-50780D01*
X72890Y-50760D01*
X72910Y-50720D01*
X72910Y-50680D01*
X72910Y-50360D02*
X72570Y-50360D01*
X72530Y-50380D01*
X72510Y-50400D01*
X72490Y-50440D01*
X72490Y-50500D01*
X72510Y-50540D01*
X72650Y-50360D02*
X72630Y-50400D01*
X72630Y-50480D01*
X72650Y-50520D01*
X72670Y-50540D01*
X72710Y-50560D01*
X72830Y-50560D01*
X72870Y-50540D01*
X72890Y-50520D01*
X72910Y-50480D01*
X72910Y-50400D01*
X72890Y-50360D01*
X73070Y-49860D02*
X72530Y-50220D01*
X72910Y-49720D02*
X72550Y-49720D01*
X72510Y-49740D01*
X72490Y-49780D01*
X72490Y-49800D01*
X73050Y-49720D02*
X73030Y-49740D01*
X73010Y-49720D01*
X73030Y-49700D01*
X73050Y-49720D01*
X73010Y-49720D01*
X72650Y-49540D02*
X72630Y-49500D01*
X72630Y-49420D01*
X72650Y-49380D01*
X72690Y-49360D01*
X72710Y-49360D01*
X72750Y-49380D01*
X72770Y-49420D01*
X72770Y-49480D01*
X72790Y-49520D01*
X72830Y-49540D01*
X72850Y-49540D01*
X72890Y-49520D01*
X72910Y-49480D01*
X72910Y-49420D01*
X72890Y-49380D01*
X72910Y-49220D02*
X72630Y-49140D01*
X72830Y-49060D01*
X72630Y-48980D01*
X72910Y-48900D01*
X72630Y-48560D02*
X73050Y-48560D01*
X72650Y-48560D02*
X72630Y-48600D01*
X72630Y-48680D01*
X72650Y-48720D01*
X72670Y-48740D01*
X72710Y-48760D01*
X72830Y-48760D01*
X72870Y-48740D01*
X72890Y-48720D01*
X72910Y-48680D01*
X72910Y-48600D01*
X72890Y-48560D01*
G54D12*
X80284Y-48866D02*
X80329Y-48843D01*
X80397Y-48843D01*
X80464Y-48866D01*
X80509Y-48911D01*
X80532Y-48956D01*
X80554Y-49046D01*
X80554Y-49113D01*
X80532Y-49203D01*
X80509Y-49248D01*
X80464Y-49293D01*
X80397Y-49316D01*
X80352Y-49316D01*
X80284Y-49293D01*
X80262Y-49271D01*
X80262Y-49113D01*
X80352Y-49113D01*
X80059Y-49316D02*
X80059Y-48843D01*
X79790Y-49316D01*
X79790Y-48843D01*
X79565Y-49316D02*
X79565Y-48843D01*
X79452Y-48843D01*
X79385Y-48866D01*
X79340Y-48911D01*
X79317Y-48956D01*
X79295Y-49046D01*
X79295Y-49113D01*
X79317Y-49203D01*
X79340Y-49248D01*
X79385Y-49293D01*
X79452Y-49316D01*
X79565Y-49316D01*
G54D20*
G36*
X72422Y-56237D02*
X72424Y-56241D01*
X72430Y-56250D01*
X72438Y-56263D01*
X72449Y-56279D01*
X72459Y-56294D01*
X72468Y-56307D01*
X72474Y-56316D01*
X72476Y-56320D01*
X72475Y-56322D01*
X72471Y-56329D01*
X72466Y-56340D01*
X72463Y-56346D01*
X72458Y-56356D01*
X72457Y-56361D01*
X72459Y-56362D01*
X72466Y-56366D01*
X72479Y-56371D01*
X72496Y-56379D01*
X72516Y-56387D01*
X72538Y-56396D01*
X72560Y-56405D01*
X72581Y-56414D01*
X72600Y-56422D01*
X72615Y-56428D01*
X72626Y-56432D01*
X72630Y-56434D01*
X72631Y-56433D01*
X72636Y-56428D01*
X72642Y-56420D01*
X72658Y-56401D01*
X72681Y-56383D01*
X72707Y-56371D01*
X72736Y-56368D01*
X72762Y-56371D01*
X72787Y-56381D01*
X72811Y-56399D01*
X72828Y-56421D01*
X72839Y-56447D01*
X72842Y-56475D01*
X72839Y-56502D01*
X72829Y-56528D01*
X72811Y-56552D01*
X72800Y-56561D01*
X72776Y-56575D01*
X72752Y-56583D01*
X72746Y-56583D01*
X72718Y-56582D01*
X72691Y-56574D01*
X72668Y-56560D01*
X72648Y-56539D01*
X72646Y-56537D01*
X72639Y-56527D01*
X72635Y-56521D01*
X72631Y-56516D01*
X72546Y-56551D01*
X72532Y-56557D01*
X72509Y-56567D01*
X72489Y-56575D01*
X72473Y-56582D01*
X72463Y-56587D01*
X72458Y-56589D01*
X72458Y-56589D01*
X72458Y-56592D01*
X72460Y-56598D01*
X72466Y-56610D01*
X72470Y-56618D01*
X72474Y-56627D01*
X72476Y-56631D01*
X72474Y-56635D01*
X72468Y-56643D01*
X72460Y-56656D01*
X72450Y-56671D01*
X72440Y-56685D01*
X72431Y-56699D01*
X72425Y-56708D01*
X72422Y-56713D01*
X72422Y-56714D01*
X72425Y-56718D01*
X72431Y-56726D01*
X72442Y-56737D01*
X72458Y-56753D01*
X72460Y-56756D01*
X72474Y-56769D01*
X72486Y-56780D01*
X72494Y-56788D01*
X72497Y-56790D01*
X72497Y-56790D01*
X72502Y-56788D01*
X72512Y-56782D01*
X72525Y-56773D01*
X72541Y-56762D01*
X72582Y-56734D01*
X72620Y-56750D01*
X72632Y-56754D01*
X72646Y-56760D01*
X72656Y-56765D01*
X72661Y-56767D01*
X72662Y-56771D01*
X72665Y-56782D01*
X72668Y-56797D01*
X72671Y-56815D01*
X72675Y-56833D01*
X72678Y-56848D01*
X72680Y-56860D01*
X72681Y-56865D01*
X72682Y-56866D01*
X72684Y-56867D01*
X72689Y-56868D01*
X72699Y-56868D01*
X72714Y-56868D01*
X72736Y-56868D01*
X72738Y-56868D01*
X72759Y-56868D01*
X72775Y-56868D01*
X72785Y-56867D01*
X72789Y-56866D01*
X72789Y-56866D01*
X72791Y-56861D01*
X72793Y-56850D01*
X72796Y-56835D01*
X72800Y-56816D01*
X72800Y-56815D01*
X72803Y-56796D01*
X72807Y-56781D01*
X72809Y-56770D01*
X72811Y-56765D01*
X72812Y-56764D01*
X72819Y-56760D01*
X72831Y-56755D01*
X72845Y-56749D01*
X72859Y-56743D01*
X72873Y-56737D01*
X72882Y-56734D01*
X72887Y-56733D01*
X72887Y-56733D01*
X72891Y-56736D01*
X72901Y-56742D01*
X72914Y-56751D01*
X72930Y-56762D01*
X72932Y-56763D01*
X72947Y-56774D01*
X72961Y-56782D01*
X72970Y-56788D01*
X72974Y-56790D01*
X72975Y-56790D01*
X72979Y-56787D01*
X72988Y-56779D01*
X73000Y-56767D01*
X73014Y-56753D01*
X73018Y-56749D01*
X73033Y-56734D01*
X73043Y-56723D01*
X73048Y-56716D01*
X73050Y-56713D01*
X73049Y-56713D01*
X73047Y-56708D01*
X73040Y-56698D01*
X73031Y-56685D01*
X73020Y-56669D01*
X73019Y-56668D01*
X73009Y-56652D01*
X73000Y-56639D01*
X72994Y-56630D01*
X72991Y-56626D01*
X72991Y-56625D01*
X72993Y-56619D01*
X72997Y-56607D01*
X73002Y-56594D01*
X73008Y-56579D01*
X73014Y-56566D01*
X73018Y-56556D01*
X73021Y-56551D01*
X73021Y-56551D01*
X73027Y-56549D01*
X73039Y-56547D01*
X73055Y-56543D01*
X73074Y-56540D01*
X73077Y-56539D01*
X73096Y-56536D01*
X73111Y-56533D01*
X73122Y-56530D01*
X73127Y-56529D01*
X73127Y-56527D01*
X73128Y-56517D01*
X73128Y-56503D01*
X73128Y-56486D01*
X73128Y-56469D01*
X73128Y-56452D01*
X73127Y-56437D01*
X73127Y-56427D01*
X73126Y-56422D01*
X73125Y-56422D01*
X73120Y-56420D01*
X73108Y-56418D01*
X73092Y-56414D01*
X73072Y-56411D01*
X73069Y-56410D01*
X73050Y-56407D01*
X73035Y-56403D01*
X73024Y-56401D01*
X73020Y-56400D01*
X73019Y-56398D01*
X73016Y-56391D01*
X73011Y-56378D01*
X73004Y-56362D01*
X72990Y-56326D01*
X73020Y-56282D01*
X73023Y-56278D01*
X73034Y-56262D01*
X73042Y-56249D01*
X73048Y-56240D01*
X73050Y-56236D01*
X73050Y-56236D01*
X73046Y-56232D01*
X73038Y-56223D01*
X73026Y-56211D01*
X73013Y-56197D01*
X73002Y-56187D01*
X72990Y-56175D01*
X72982Y-56167D01*
X72976Y-56163D01*
X72973Y-56161D01*
X72971Y-56162D01*
X72966Y-56164D01*
X72957Y-56171D01*
X72943Y-56180D01*
X72928Y-56191D01*
X72914Y-56200D01*
X72900Y-56209D01*
X72889Y-56215D01*
X72884Y-56218D01*
X72882Y-56217D01*
X72873Y-56214D01*
X72860Y-56209D01*
X72844Y-56202D01*
X72809Y-56187D01*
X72805Y-56164D01*
X72802Y-56150D01*
X72799Y-56130D01*
X72795Y-56112D01*
X72789Y-56083D01*
X72684Y-56082D01*
X72682Y-56086D01*
X72680Y-56091D01*
X72678Y-56101D01*
X72675Y-56117D01*
X72672Y-56135D01*
X72669Y-56150D01*
X72666Y-56166D01*
X72664Y-56177D01*
X72663Y-56182D01*
X72661Y-56183D01*
X72653Y-56187D01*
X72641Y-56193D01*
X72627Y-56199D01*
X72612Y-56205D01*
X72598Y-56210D01*
X72588Y-56214D01*
X72582Y-56216D01*
X72578Y-56214D01*
X72569Y-56208D01*
X72556Y-56199D01*
X72541Y-56189D01*
X72525Y-56178D01*
X72512Y-56169D01*
X72502Y-56163D01*
X72498Y-56160D01*
X72495Y-56162D01*
X72488Y-56168D01*
X72476Y-56179D01*
X72458Y-56197D01*
X72456Y-56200D01*
X72442Y-56213D01*
X72432Y-56225D01*
X72424Y-56233D01*
X72422Y-56237D01*
X72422Y-56237D01*
G37*
M02*
