G04 (created by PCBNEW (2013-june-11)-stable) date Fri 03 Oct 2014 12:09:20 PM PDT*
%MOIN*%
G04 Gerber Fmt 3.4, Leading zero omitted, Abs format*
%FSLAX34Y34*%
G01*
G70*
G90*
G04 APERTURE LIST*
%ADD10C,0.00590551*%
%ADD11C,0.00787402*%
%ADD12C,0.00442913*%
%ADD13C,0.00462598*%
%ADD14C,0.00492126*%
%ADD15C,0.01*%
G04 APERTURE END LIST*
G54D10*
G54D11*
X76800Y-47000D02*
X76500Y-47000D01*
X76800Y-47600D02*
X76800Y-47000D01*
X76800Y-48200D02*
X76500Y-48200D01*
X76800Y-47600D02*
X76800Y-48200D01*
X77750Y-47600D02*
X76800Y-47600D01*
G54D12*
X78063Y-47744D02*
X78122Y-47921D01*
X78181Y-47744D01*
X78342Y-47904D02*
X78333Y-47913D01*
X78308Y-47921D01*
X78291Y-47921D01*
X78266Y-47913D01*
X78249Y-47896D01*
X78240Y-47879D01*
X78232Y-47845D01*
X78232Y-47820D01*
X78240Y-47786D01*
X78249Y-47769D01*
X78266Y-47752D01*
X78291Y-47744D01*
X78308Y-47744D01*
X78333Y-47752D01*
X78342Y-47761D01*
X78519Y-47904D02*
X78510Y-47913D01*
X78485Y-47921D01*
X78468Y-47921D01*
X78443Y-47913D01*
X78426Y-47896D01*
X78418Y-47879D01*
X78409Y-47845D01*
X78409Y-47820D01*
X78418Y-47786D01*
X78426Y-47769D01*
X78443Y-47752D01*
X78468Y-47744D01*
X78485Y-47744D01*
X78510Y-47752D01*
X78519Y-47761D01*
X77907Y-47466D02*
X77934Y-47474D01*
X77978Y-47474D01*
X77996Y-47466D01*
X78004Y-47457D01*
X78013Y-47439D01*
X78013Y-47422D01*
X78004Y-47404D01*
X77996Y-47395D01*
X77978Y-47386D01*
X77943Y-47377D01*
X77925Y-47369D01*
X77916Y-47360D01*
X77907Y-47342D01*
X77907Y-47325D01*
X77916Y-47307D01*
X77925Y-47298D01*
X77943Y-47289D01*
X77987Y-47289D01*
X78013Y-47298D01*
X78075Y-47289D02*
X78119Y-47474D01*
X78154Y-47342D01*
X78189Y-47474D01*
X78233Y-47289D01*
X78304Y-47474D02*
X78304Y-47289D01*
X78348Y-47289D01*
X78374Y-47298D01*
X78392Y-47316D01*
X78401Y-47333D01*
X78410Y-47369D01*
X78410Y-47395D01*
X78401Y-47430D01*
X78392Y-47448D01*
X78374Y-47466D01*
X78348Y-47474D01*
X78304Y-47474D01*
X78489Y-47474D02*
X78489Y-47289D01*
X78612Y-47289D02*
X78648Y-47289D01*
X78665Y-47298D01*
X78683Y-47316D01*
X78692Y-47351D01*
X78692Y-47413D01*
X78683Y-47448D01*
X78665Y-47466D01*
X78648Y-47474D01*
X78612Y-47474D01*
X78595Y-47466D01*
X78577Y-47448D01*
X78568Y-47413D01*
X78568Y-47351D01*
X78577Y-47316D01*
X78595Y-47298D01*
X78612Y-47289D01*
X79184Y-47748D02*
X79166Y-47739D01*
X79139Y-47739D01*
X79113Y-47748D01*
X79095Y-47766D01*
X79087Y-47783D01*
X79078Y-47819D01*
X79078Y-47845D01*
X79087Y-47880D01*
X79095Y-47898D01*
X79113Y-47916D01*
X79139Y-47924D01*
X79157Y-47924D01*
X79184Y-47916D01*
X79192Y-47907D01*
X79192Y-47845D01*
X79157Y-47845D01*
X79272Y-47924D02*
X79272Y-47739D01*
X79377Y-47924D01*
X79377Y-47739D01*
X79465Y-47924D02*
X79465Y-47739D01*
X79510Y-47739D01*
X79536Y-47748D01*
X79554Y-47766D01*
X79562Y-47783D01*
X79571Y-47819D01*
X79571Y-47845D01*
X79562Y-47880D01*
X79554Y-47898D01*
X79536Y-47916D01*
X79510Y-47924D01*
X79465Y-47924D01*
X78906Y-47466D02*
X78932Y-47474D01*
X78976Y-47474D01*
X78994Y-47466D01*
X79003Y-47457D01*
X79012Y-47439D01*
X79012Y-47422D01*
X79003Y-47404D01*
X78994Y-47395D01*
X78976Y-47386D01*
X78941Y-47377D01*
X78924Y-47369D01*
X78915Y-47360D01*
X78906Y-47342D01*
X78906Y-47325D01*
X78915Y-47307D01*
X78924Y-47298D01*
X78941Y-47289D01*
X78985Y-47289D01*
X79012Y-47298D01*
X79073Y-47289D02*
X79117Y-47474D01*
X79153Y-47342D01*
X79188Y-47474D01*
X79232Y-47289D01*
X79408Y-47457D02*
X79399Y-47466D01*
X79373Y-47474D01*
X79355Y-47474D01*
X79329Y-47466D01*
X79311Y-47448D01*
X79302Y-47430D01*
X79294Y-47395D01*
X79294Y-47369D01*
X79302Y-47333D01*
X79311Y-47316D01*
X79329Y-47298D01*
X79355Y-47289D01*
X79373Y-47289D01*
X79399Y-47298D01*
X79408Y-47307D01*
X79576Y-47474D02*
X79488Y-47474D01*
X79488Y-47289D01*
X79637Y-47474D02*
X79637Y-47289D01*
X79743Y-47474D02*
X79664Y-47369D01*
X79743Y-47289D02*
X79637Y-47395D01*
X80259Y-47748D02*
X80241Y-47739D01*
X80214Y-47739D01*
X80188Y-47748D01*
X80170Y-47766D01*
X80162Y-47783D01*
X80153Y-47819D01*
X80153Y-47845D01*
X80162Y-47880D01*
X80170Y-47898D01*
X80188Y-47916D01*
X80214Y-47924D01*
X80232Y-47924D01*
X80259Y-47916D01*
X80267Y-47907D01*
X80267Y-47845D01*
X80232Y-47845D01*
X80347Y-47924D02*
X80347Y-47739D01*
X80452Y-47924D01*
X80452Y-47739D01*
X80540Y-47924D02*
X80540Y-47739D01*
X80585Y-47739D01*
X80611Y-47748D01*
X80629Y-47766D01*
X80637Y-47783D01*
X80646Y-47819D01*
X80646Y-47845D01*
X80637Y-47880D01*
X80629Y-47898D01*
X80611Y-47916D01*
X80585Y-47924D01*
X80540Y-47924D01*
X80144Y-47466D02*
X80170Y-47474D01*
X80214Y-47474D01*
X80232Y-47466D01*
X80241Y-47457D01*
X80250Y-47439D01*
X80250Y-47422D01*
X80241Y-47404D01*
X80232Y-47395D01*
X80214Y-47386D01*
X80179Y-47377D01*
X80162Y-47369D01*
X80153Y-47360D01*
X80144Y-47342D01*
X80144Y-47325D01*
X80153Y-47307D01*
X80162Y-47298D01*
X80179Y-47289D01*
X80223Y-47289D01*
X80250Y-47298D01*
X80311Y-47289D02*
X80355Y-47474D01*
X80391Y-47342D01*
X80426Y-47474D01*
X80470Y-47289D01*
X80576Y-47289D02*
X80611Y-47289D01*
X80629Y-47298D01*
X80646Y-47316D01*
X80655Y-47351D01*
X80655Y-47413D01*
X80646Y-47448D01*
X80629Y-47466D01*
X80611Y-47474D01*
X80576Y-47474D01*
X80558Y-47466D01*
X80540Y-47448D01*
X80532Y-47413D01*
X80532Y-47351D01*
X80540Y-47316D01*
X80558Y-47298D01*
X80576Y-47289D01*
G54D13*
X81185Y-47289D02*
X81291Y-47289D01*
X81238Y-47474D02*
X81238Y-47289D01*
X81352Y-47474D02*
X81352Y-47289D01*
X81397Y-47289D01*
X81423Y-47298D01*
X81441Y-47316D01*
X81449Y-47333D01*
X81458Y-47369D01*
X81458Y-47395D01*
X81449Y-47430D01*
X81441Y-47448D01*
X81423Y-47466D01*
X81397Y-47474D01*
X81352Y-47474D01*
X81538Y-47474D02*
X81538Y-47289D01*
X81163Y-47924D02*
X81163Y-47739D01*
X81269Y-47924D02*
X81189Y-47819D01*
X81269Y-47739D02*
X81163Y-47845D01*
X81348Y-47827D02*
X81410Y-47827D01*
X81436Y-47924D02*
X81348Y-47924D01*
X81348Y-47739D01*
X81436Y-47739D01*
X81551Y-47836D02*
X81551Y-47924D01*
X81489Y-47739D02*
X81551Y-47836D01*
X81612Y-47739D01*
G54D14*
X82350Y-47742D02*
X82331Y-47732D01*
X82303Y-47732D01*
X82275Y-47742D01*
X82256Y-47760D01*
X82246Y-47779D01*
X82237Y-47817D01*
X82237Y-47845D01*
X82246Y-47882D01*
X82256Y-47901D01*
X82275Y-47920D01*
X82303Y-47929D01*
X82321Y-47929D01*
X82350Y-47920D01*
X82359Y-47910D01*
X82359Y-47845D01*
X82321Y-47845D01*
X82443Y-47929D02*
X82443Y-47732D01*
X82556Y-47929D01*
X82556Y-47732D01*
X82649Y-47929D02*
X82649Y-47732D01*
X82696Y-47732D01*
X82724Y-47742D01*
X82743Y-47760D01*
X82753Y-47779D01*
X82762Y-47817D01*
X82762Y-47845D01*
X82753Y-47882D01*
X82743Y-47901D01*
X82724Y-47920D01*
X82696Y-47929D01*
X82649Y-47929D01*
X82189Y-47479D02*
X82123Y-47385D01*
X82076Y-47479D02*
X82076Y-47282D01*
X82151Y-47282D01*
X82170Y-47292D01*
X82179Y-47301D01*
X82189Y-47320D01*
X82189Y-47348D01*
X82179Y-47367D01*
X82170Y-47376D01*
X82151Y-47385D01*
X82076Y-47385D01*
X82273Y-47376D02*
X82339Y-47376D01*
X82367Y-47479D02*
X82273Y-47479D01*
X82273Y-47282D01*
X82367Y-47282D01*
X82442Y-47470D02*
X82470Y-47479D01*
X82517Y-47479D01*
X82535Y-47470D01*
X82545Y-47460D01*
X82554Y-47442D01*
X82554Y-47423D01*
X82545Y-47404D01*
X82535Y-47395D01*
X82517Y-47385D01*
X82479Y-47376D01*
X82460Y-47367D01*
X82451Y-47357D01*
X82442Y-47339D01*
X82442Y-47320D01*
X82451Y-47301D01*
X82460Y-47292D01*
X82479Y-47282D01*
X82526Y-47282D01*
X82554Y-47292D01*
X82639Y-47376D02*
X82704Y-47376D01*
X82732Y-47479D02*
X82639Y-47479D01*
X82639Y-47282D01*
X82732Y-47282D01*
X82789Y-47282D02*
X82901Y-47282D01*
X82845Y-47479D02*
X82845Y-47282D01*
X82437Y-47004D02*
X82325Y-47004D01*
X82381Y-47004D02*
X82381Y-46807D01*
X82362Y-46835D01*
X82343Y-46854D01*
X82325Y-46864D01*
X82559Y-46807D02*
X82578Y-46807D01*
X82596Y-46817D01*
X82606Y-46826D01*
X82615Y-46845D01*
X82624Y-46882D01*
X82624Y-46929D01*
X82615Y-46967D01*
X82606Y-46985D01*
X82596Y-46995D01*
X82578Y-47004D01*
X82559Y-47004D01*
X82540Y-46995D01*
X82531Y-46985D01*
X82521Y-46967D01*
X82512Y-46929D01*
X82512Y-46882D01*
X82521Y-46845D01*
X82531Y-46826D01*
X82540Y-46817D01*
X82559Y-46807D01*
X82437Y-48404D02*
X82475Y-48404D01*
X82493Y-48395D01*
X82503Y-48385D01*
X82521Y-48357D01*
X82531Y-48320D01*
X82531Y-48245D01*
X82521Y-48226D01*
X82512Y-48217D01*
X82493Y-48207D01*
X82456Y-48207D01*
X82437Y-48217D01*
X82428Y-48226D01*
X82418Y-48245D01*
X82418Y-48292D01*
X82428Y-48310D01*
X82437Y-48320D01*
X82456Y-48329D01*
X82493Y-48329D01*
X82512Y-48320D01*
X82521Y-48310D01*
X82531Y-48292D01*
X81384Y-48207D02*
X81515Y-48207D01*
X81431Y-48404D01*
X81431Y-46892D02*
X81412Y-46882D01*
X81403Y-46873D01*
X81393Y-46854D01*
X81393Y-46845D01*
X81403Y-46826D01*
X81412Y-46817D01*
X81431Y-46807D01*
X81468Y-46807D01*
X81487Y-46817D01*
X81496Y-46826D01*
X81506Y-46845D01*
X81506Y-46854D01*
X81496Y-46873D01*
X81487Y-46882D01*
X81468Y-46892D01*
X81431Y-46892D01*
X81412Y-46901D01*
X81403Y-46910D01*
X81393Y-46929D01*
X81393Y-46967D01*
X81403Y-46985D01*
X81412Y-46995D01*
X81431Y-47004D01*
X81468Y-47004D01*
X81487Y-46995D01*
X81496Y-46985D01*
X81506Y-46967D01*
X81506Y-46929D01*
X81496Y-46910D01*
X81487Y-46901D01*
X81468Y-46892D01*
X80437Y-46807D02*
X80400Y-46807D01*
X80381Y-46817D01*
X80371Y-46826D01*
X80353Y-46854D01*
X80343Y-46892D01*
X80343Y-46967D01*
X80353Y-46985D01*
X80362Y-46995D01*
X80381Y-47004D01*
X80418Y-47004D01*
X80437Y-46995D01*
X80446Y-46985D01*
X80456Y-46967D01*
X80456Y-46920D01*
X80446Y-46901D01*
X80437Y-46892D01*
X80418Y-46882D01*
X80381Y-46882D01*
X80362Y-46892D01*
X80353Y-46901D01*
X80343Y-46920D01*
X79362Y-46873D02*
X79362Y-47004D01*
X79315Y-46798D02*
X79268Y-46939D01*
X79390Y-46939D01*
X78218Y-46826D02*
X78228Y-46817D01*
X78246Y-46807D01*
X78293Y-46807D01*
X78312Y-46817D01*
X78321Y-46826D01*
X78331Y-46845D01*
X78331Y-46864D01*
X78321Y-46892D01*
X78209Y-47004D01*
X78331Y-47004D01*
X78331Y-48404D02*
X78218Y-48404D01*
X78275Y-48404D02*
X78275Y-48207D01*
X78256Y-48235D01*
X78237Y-48254D01*
X78218Y-48264D01*
X79259Y-48207D02*
X79381Y-48207D01*
X79315Y-48282D01*
X79343Y-48282D01*
X79362Y-48292D01*
X79371Y-48301D01*
X79381Y-48320D01*
X79381Y-48367D01*
X79371Y-48385D01*
X79362Y-48395D01*
X79343Y-48404D01*
X79287Y-48404D01*
X79268Y-48395D01*
X79259Y-48385D01*
X80446Y-48207D02*
X80353Y-48207D01*
X80343Y-48301D01*
X80353Y-48292D01*
X80371Y-48282D01*
X80418Y-48282D01*
X80437Y-48292D01*
X80446Y-48301D01*
X80456Y-48320D01*
X80456Y-48367D01*
X80446Y-48385D01*
X80437Y-48395D01*
X80418Y-48404D01*
X80371Y-48404D01*
X80353Y-48395D01*
X80343Y-48385D01*
G54D11*
X78800Y-47150D02*
X78800Y-48050D01*
X80900Y-48050D02*
X79850Y-48050D01*
X79850Y-47150D02*
X79850Y-48050D01*
X80900Y-48050D02*
X80900Y-47150D01*
X81950Y-47150D02*
X81950Y-48050D01*
X77750Y-47600D02*
X83000Y-47600D01*
X83000Y-47150D02*
X77750Y-47150D01*
X83000Y-48050D02*
X83000Y-47150D01*
X80900Y-48050D02*
X83000Y-48050D01*
X80900Y-48500D02*
X80900Y-48050D01*
X79850Y-48500D02*
X80900Y-48500D01*
X79850Y-48050D02*
X79850Y-48500D01*
X77750Y-48050D02*
X79850Y-48050D01*
X77750Y-47150D02*
X77750Y-48050D01*
G54D15*
X76804Y-49302D02*
X76861Y-49321D01*
X76880Y-49340D01*
X76900Y-49378D01*
X76900Y-49435D01*
X76880Y-49473D01*
X76861Y-49492D01*
X76823Y-49511D01*
X76671Y-49511D01*
X76671Y-49111D01*
X76804Y-49111D01*
X76842Y-49130D01*
X76861Y-49150D01*
X76880Y-49188D01*
X76880Y-49226D01*
X76861Y-49264D01*
X76842Y-49283D01*
X76804Y-49302D01*
X76671Y-49302D01*
X77300Y-49511D02*
X77166Y-49321D01*
X77071Y-49511D02*
X77071Y-49111D01*
X77223Y-49111D01*
X77261Y-49130D01*
X77280Y-49150D01*
X77300Y-49188D01*
X77300Y-49245D01*
X77280Y-49283D01*
X77261Y-49302D01*
X77223Y-49321D01*
X77071Y-49321D01*
X77471Y-49302D02*
X77604Y-49302D01*
X77661Y-49511D02*
X77471Y-49511D01*
X77471Y-49111D01*
X77661Y-49111D01*
X77814Y-49397D02*
X78004Y-49397D01*
X77776Y-49511D02*
X77909Y-49111D01*
X78042Y-49511D01*
X78176Y-49511D02*
X78176Y-49111D01*
X78404Y-49511D02*
X78233Y-49283D01*
X78404Y-49111D02*
X78176Y-49340D01*
X78652Y-49111D02*
X78728Y-49111D01*
X78766Y-49130D01*
X78804Y-49169D01*
X78823Y-49245D01*
X78823Y-49378D01*
X78804Y-49454D01*
X78766Y-49492D01*
X78728Y-49511D01*
X78652Y-49511D01*
X78614Y-49492D01*
X78576Y-49454D01*
X78557Y-49378D01*
X78557Y-49245D01*
X78576Y-49169D01*
X78614Y-49130D01*
X78652Y-49111D01*
X78995Y-49111D02*
X78995Y-49435D01*
X79014Y-49473D01*
X79033Y-49492D01*
X79071Y-49511D01*
X79147Y-49511D01*
X79185Y-49492D01*
X79204Y-49473D01*
X79223Y-49435D01*
X79223Y-49111D01*
X79357Y-49111D02*
X79585Y-49111D01*
X79471Y-49511D02*
X79471Y-49111D01*
X77242Y-53511D02*
X77242Y-53797D01*
X77223Y-53854D01*
X77185Y-53892D01*
X77128Y-53911D01*
X77090Y-53911D01*
X77433Y-53759D02*
X77738Y-53759D01*
X78119Y-53911D02*
X77928Y-53911D01*
X77928Y-53511D01*
X78252Y-53911D02*
X78252Y-53511D01*
X78442Y-53911D02*
X78442Y-53511D01*
X78671Y-53911D01*
X78671Y-53511D01*
X78861Y-53911D02*
X78861Y-53511D01*
X79090Y-53911D02*
X78919Y-53683D01*
X79090Y-53511D02*
X78861Y-53740D01*
X73117Y-48142D02*
X73136Y-48085D01*
X73136Y-47990D01*
X73117Y-47952D01*
X73098Y-47933D01*
X73060Y-47914D01*
X73022Y-47914D01*
X72984Y-47933D01*
X72965Y-47952D01*
X72946Y-47990D01*
X72927Y-48066D01*
X72908Y-48104D01*
X72889Y-48123D01*
X72851Y-48142D01*
X72813Y-48142D01*
X72775Y-48123D01*
X72755Y-48104D01*
X72736Y-48066D01*
X72736Y-47971D01*
X72755Y-47914D01*
X72736Y-47780D02*
X73136Y-47685D01*
X72851Y-47609D01*
X73136Y-47533D01*
X72736Y-47438D01*
X73136Y-47285D02*
X72736Y-47285D01*
X72736Y-47190D01*
X72755Y-47133D01*
X72794Y-47095D01*
X72832Y-47076D01*
X72908Y-47057D01*
X72965Y-47057D01*
X73041Y-47076D01*
X73079Y-47095D01*
X73117Y-47133D01*
X73136Y-47190D01*
X73136Y-47285D01*
G54D10*
X82100Y-54050D02*
X80600Y-54050D01*
X80600Y-54000D02*
X82100Y-54000D01*
X82100Y-53950D02*
X80600Y-53950D01*
X80600Y-53900D02*
X82100Y-53900D01*
X82100Y-53850D02*
X80600Y-53850D01*
X80600Y-53800D02*
X82100Y-53800D01*
X82100Y-53750D02*
X80600Y-53750D01*
X80600Y-53700D02*
X82100Y-53700D01*
X82100Y-53650D02*
X80600Y-53650D01*
X80600Y-54100D02*
X80600Y-53600D01*
X80600Y-53600D02*
X82100Y-53600D01*
X74100Y-54050D02*
X75600Y-54050D01*
X75600Y-54000D02*
X74100Y-54000D01*
X74100Y-53950D02*
X75600Y-53950D01*
X75600Y-53900D02*
X74100Y-53900D01*
X74100Y-53850D02*
X75600Y-53850D01*
X75600Y-53800D02*
X74100Y-53800D01*
X74100Y-53750D02*
X75600Y-53750D01*
X75600Y-53700D02*
X74100Y-53700D01*
X74100Y-53650D02*
X75600Y-53650D01*
X75600Y-54100D02*
X75600Y-53600D01*
X75600Y-53600D02*
X74100Y-53600D01*
X79100Y-57500D02*
X79100Y-57100D01*
X77100Y-57500D02*
X77100Y-57100D01*
X82100Y-53850D02*
X82100Y-53800D01*
X82100Y-53750D02*
X82100Y-53700D01*
X82100Y-54100D02*
X82100Y-53600D01*
X74100Y-54100D02*
X74100Y-53600D01*
X79100Y-57500D02*
X77100Y-57500D01*
X77100Y-57450D02*
X79100Y-57450D01*
X79100Y-57400D02*
X77100Y-57400D01*
X77100Y-57350D02*
X79100Y-57350D01*
X79100Y-57300D02*
X77100Y-57300D01*
X77100Y-57250D02*
X79100Y-57250D01*
X79100Y-57200D02*
X77100Y-57200D01*
X77100Y-57150D02*
X79100Y-57150D01*
X72600Y-57100D02*
X72600Y-54100D01*
X72600Y-54100D02*
X83600Y-54100D01*
X83600Y-54100D02*
X83600Y-57100D01*
X83600Y-57100D02*
X72600Y-57100D01*
X82100Y-49650D02*
X80600Y-49650D01*
X80600Y-49600D02*
X82100Y-49600D01*
X82100Y-49550D02*
X80600Y-49550D01*
X80600Y-49500D02*
X82100Y-49500D01*
X82100Y-49450D02*
X80600Y-49450D01*
X80600Y-49400D02*
X82100Y-49400D01*
X82100Y-49350D02*
X80600Y-49350D01*
X80600Y-49300D02*
X82100Y-49300D01*
X82100Y-49250D02*
X80600Y-49250D01*
X80600Y-49700D02*
X80600Y-49200D01*
X80600Y-49200D02*
X82100Y-49200D01*
X74100Y-49650D02*
X75600Y-49650D01*
X75600Y-49600D02*
X74100Y-49600D01*
X74100Y-49550D02*
X75600Y-49550D01*
X75600Y-49500D02*
X74100Y-49500D01*
X74100Y-49450D02*
X75600Y-49450D01*
X75600Y-49400D02*
X74100Y-49400D01*
X74100Y-49350D02*
X75600Y-49350D01*
X75600Y-49300D02*
X74100Y-49300D01*
X74100Y-49250D02*
X75600Y-49250D01*
X75600Y-49700D02*
X75600Y-49200D01*
X75600Y-49200D02*
X74100Y-49200D01*
X79100Y-53100D02*
X79100Y-52700D01*
X77100Y-53100D02*
X77100Y-52700D01*
X82100Y-49450D02*
X82100Y-49400D01*
X82100Y-49350D02*
X82100Y-49300D01*
X82100Y-49700D02*
X82100Y-49200D01*
X74100Y-49700D02*
X74100Y-49200D01*
X79100Y-53100D02*
X77100Y-53100D01*
X77100Y-53050D02*
X79100Y-53050D01*
X79100Y-53000D02*
X77100Y-53000D01*
X77100Y-52950D02*
X79100Y-52950D01*
X79100Y-52900D02*
X77100Y-52900D01*
X77100Y-52850D02*
X79100Y-52850D01*
X79100Y-52800D02*
X77100Y-52800D01*
X77100Y-52750D02*
X79100Y-52750D01*
X72600Y-52700D02*
X72600Y-49700D01*
X72600Y-49700D02*
X83600Y-49700D01*
X83600Y-49700D02*
X83600Y-52700D01*
X83600Y-52700D02*
X72600Y-52700D01*
X75200Y-48350D02*
X74700Y-48350D01*
X75200Y-48300D02*
X74700Y-48300D01*
X74700Y-48250D02*
X75150Y-48250D01*
X75200Y-48200D02*
X74700Y-48200D01*
X75200Y-48150D02*
X75200Y-48400D01*
X75200Y-48400D02*
X74700Y-48400D01*
X74700Y-48400D02*
X74700Y-48150D01*
X76250Y-48150D02*
X73650Y-48150D01*
X73650Y-48150D02*
X73650Y-47050D01*
X73650Y-47050D02*
X76250Y-47050D01*
X76250Y-48150D02*
X76250Y-47050D01*
M02*
