G04 (created by PCBNEW (2013-june-11)-stable) date Sun 31 Aug 2014 03:46:35 PM PDT*
%MOIN*%
G04 Gerber Fmt 3.4, Leading zero omitted, Abs format*
%FSLAX34Y34*%
G01*
G70*
G90*
G04 APERTURE LIST*
%ADD10C,0.00590551*%
%ADD11C,0.01*%
G04 APERTURE END LIST*
G54D10*
G54D11*
X76804Y-49302D02*
X76861Y-49321D01*
X76880Y-49340D01*
X76900Y-49378D01*
X76900Y-49435D01*
X76880Y-49473D01*
X76861Y-49492D01*
X76823Y-49511D01*
X76671Y-49511D01*
X76671Y-49111D01*
X76804Y-49111D01*
X76842Y-49130D01*
X76861Y-49150D01*
X76880Y-49188D01*
X76880Y-49226D01*
X76861Y-49264D01*
X76842Y-49283D01*
X76804Y-49302D01*
X76671Y-49302D01*
X77300Y-49511D02*
X77166Y-49321D01*
X77071Y-49511D02*
X77071Y-49111D01*
X77223Y-49111D01*
X77261Y-49130D01*
X77280Y-49150D01*
X77300Y-49188D01*
X77300Y-49245D01*
X77280Y-49283D01*
X77261Y-49302D01*
X77223Y-49321D01*
X77071Y-49321D01*
X77471Y-49302D02*
X77604Y-49302D01*
X77661Y-49511D02*
X77471Y-49511D01*
X77471Y-49111D01*
X77661Y-49111D01*
X77814Y-49397D02*
X78004Y-49397D01*
X77776Y-49511D02*
X77909Y-49111D01*
X78042Y-49511D01*
X78176Y-49511D02*
X78176Y-49111D01*
X78404Y-49511D02*
X78233Y-49283D01*
X78404Y-49111D02*
X78176Y-49340D01*
X78652Y-49111D02*
X78728Y-49111D01*
X78766Y-49130D01*
X78804Y-49169D01*
X78823Y-49245D01*
X78823Y-49378D01*
X78804Y-49454D01*
X78766Y-49492D01*
X78728Y-49511D01*
X78652Y-49511D01*
X78614Y-49492D01*
X78576Y-49454D01*
X78557Y-49378D01*
X78557Y-49245D01*
X78576Y-49169D01*
X78614Y-49130D01*
X78652Y-49111D01*
X78995Y-49111D02*
X78995Y-49435D01*
X79014Y-49473D01*
X79033Y-49492D01*
X79071Y-49511D01*
X79147Y-49511D01*
X79185Y-49492D01*
X79204Y-49473D01*
X79223Y-49435D01*
X79223Y-49111D01*
X79357Y-49111D02*
X79585Y-49111D01*
X79471Y-49511D02*
X79471Y-49111D01*
X77242Y-53511D02*
X77242Y-53797D01*
X77223Y-53854D01*
X77185Y-53892D01*
X77128Y-53911D01*
X77090Y-53911D01*
X77433Y-53759D02*
X77738Y-53759D01*
X78119Y-53911D02*
X77928Y-53911D01*
X77928Y-53511D01*
X78252Y-53911D02*
X78252Y-53511D01*
X78442Y-53911D02*
X78442Y-53511D01*
X78671Y-53911D01*
X78671Y-53511D01*
X78861Y-53911D02*
X78861Y-53511D01*
X79090Y-53911D02*
X78919Y-53683D01*
X79090Y-53511D02*
X78861Y-53740D01*
X77557Y-47742D02*
X77614Y-47761D01*
X77709Y-47761D01*
X77747Y-47742D01*
X77766Y-47723D01*
X77785Y-47685D01*
X77785Y-47647D01*
X77766Y-47609D01*
X77747Y-47590D01*
X77709Y-47571D01*
X77633Y-47552D01*
X77595Y-47533D01*
X77576Y-47514D01*
X77557Y-47476D01*
X77557Y-47438D01*
X77576Y-47400D01*
X77595Y-47380D01*
X77633Y-47361D01*
X77728Y-47361D01*
X77785Y-47380D01*
X77919Y-47361D02*
X78014Y-47761D01*
X78090Y-47476D01*
X78166Y-47761D01*
X78261Y-47361D01*
X78414Y-47761D02*
X78414Y-47361D01*
X78509Y-47361D01*
X78566Y-47380D01*
X78604Y-47419D01*
X78623Y-47457D01*
X78642Y-47533D01*
X78642Y-47590D01*
X78623Y-47666D01*
X78604Y-47704D01*
X78566Y-47742D01*
X78509Y-47761D01*
X78414Y-47761D01*
G54D10*
X79100Y-57500D02*
X79100Y-57100D01*
X77100Y-57500D02*
X77100Y-57100D01*
X80100Y-53850D02*
X82100Y-53850D01*
X82100Y-53850D02*
X82100Y-53800D01*
X82100Y-53800D02*
X80100Y-53800D01*
X80100Y-53800D02*
X80100Y-53750D01*
X80100Y-53750D02*
X82100Y-53750D01*
X82100Y-53750D02*
X82100Y-53700D01*
X82100Y-53700D02*
X80100Y-53700D01*
X80100Y-53700D02*
X80100Y-53650D01*
X80100Y-53650D02*
X82100Y-53650D01*
X82100Y-53900D02*
X80100Y-53900D01*
X80100Y-53950D02*
X82100Y-53950D01*
X82100Y-54000D02*
X80100Y-54000D01*
X80100Y-54050D02*
X82100Y-54050D01*
X82100Y-54100D02*
X82100Y-53600D01*
X82100Y-53600D02*
X80100Y-53600D01*
X80100Y-53600D02*
X80100Y-54100D01*
X76100Y-54050D02*
X74100Y-54050D01*
X74100Y-54000D02*
X76100Y-54000D01*
X76100Y-53950D02*
X74100Y-53950D01*
X74100Y-53900D02*
X76100Y-53900D01*
X76100Y-53850D02*
X74100Y-53850D01*
X74100Y-53800D02*
X76100Y-53800D01*
X76100Y-53750D02*
X74100Y-53750D01*
X74100Y-53700D02*
X76100Y-53700D01*
X76100Y-53650D02*
X74100Y-53650D01*
X74100Y-53600D02*
X76100Y-53600D01*
X76100Y-53600D02*
X76100Y-54100D01*
X74100Y-54100D02*
X74100Y-53600D01*
X79100Y-57500D02*
X77100Y-57500D01*
X77100Y-57450D02*
X79100Y-57450D01*
X79100Y-57400D02*
X77100Y-57400D01*
X77100Y-57350D02*
X79100Y-57350D01*
X79100Y-57300D02*
X77100Y-57300D01*
X77100Y-57250D02*
X79100Y-57250D01*
X79100Y-57200D02*
X77100Y-57200D01*
X77100Y-57150D02*
X79100Y-57150D01*
X72600Y-57100D02*
X72600Y-54100D01*
X72600Y-54100D02*
X83600Y-54100D01*
X83600Y-54100D02*
X83600Y-57100D01*
X83600Y-57100D02*
X72600Y-57100D01*
X79100Y-53100D02*
X79100Y-52700D01*
X77100Y-53100D02*
X77100Y-52700D01*
X80100Y-49450D02*
X82100Y-49450D01*
X82100Y-49450D02*
X82100Y-49400D01*
X82100Y-49400D02*
X80100Y-49400D01*
X80100Y-49400D02*
X80100Y-49350D01*
X80100Y-49350D02*
X82100Y-49350D01*
X82100Y-49350D02*
X82100Y-49300D01*
X82100Y-49300D02*
X80100Y-49300D01*
X80100Y-49300D02*
X80100Y-49250D01*
X80100Y-49250D02*
X82100Y-49250D01*
X82100Y-49500D02*
X80100Y-49500D01*
X80100Y-49550D02*
X82100Y-49550D01*
X82100Y-49600D02*
X80100Y-49600D01*
X80100Y-49650D02*
X82100Y-49650D01*
X82100Y-49700D02*
X82100Y-49200D01*
X82100Y-49200D02*
X80100Y-49200D01*
X80100Y-49200D02*
X80100Y-49700D01*
X76100Y-49650D02*
X74100Y-49650D01*
X74100Y-49600D02*
X76100Y-49600D01*
X76100Y-49550D02*
X74100Y-49550D01*
X74100Y-49500D02*
X76100Y-49500D01*
X76100Y-49450D02*
X74100Y-49450D01*
X74100Y-49400D02*
X76100Y-49400D01*
X76100Y-49350D02*
X74100Y-49350D01*
X74100Y-49300D02*
X76100Y-49300D01*
X76100Y-49250D02*
X74100Y-49250D01*
X74100Y-49200D02*
X76100Y-49200D01*
X76100Y-49200D02*
X76100Y-49700D01*
X74100Y-49700D02*
X74100Y-49200D01*
X79100Y-53100D02*
X77100Y-53100D01*
X77100Y-53050D02*
X79100Y-53050D01*
X79100Y-53000D02*
X77100Y-53000D01*
X77100Y-52950D02*
X79100Y-52950D01*
X79100Y-52900D02*
X77100Y-52900D01*
X77100Y-52850D02*
X79100Y-52850D01*
X79100Y-52800D02*
X77100Y-52800D01*
X77100Y-52750D02*
X79100Y-52750D01*
X72600Y-52700D02*
X72600Y-49700D01*
X72600Y-49700D02*
X83600Y-49700D01*
X83600Y-49700D02*
X83600Y-52700D01*
X83600Y-52700D02*
X72600Y-52700D01*
X75200Y-48350D02*
X74700Y-48350D01*
X75200Y-48300D02*
X74700Y-48300D01*
X74700Y-48250D02*
X75150Y-48250D01*
X75200Y-48200D02*
X74700Y-48200D01*
X75200Y-48150D02*
X75200Y-48400D01*
X75200Y-48400D02*
X74700Y-48400D01*
X74700Y-48400D02*
X74700Y-48150D01*
X76250Y-48150D02*
X73650Y-48150D01*
X73650Y-48150D02*
X73650Y-47050D01*
X73650Y-47050D02*
X76250Y-47050D01*
X76250Y-48150D02*
X76250Y-47050D01*
X83009Y-53959D02*
X83009Y-53565D01*
X83159Y-53565D01*
X83196Y-53584D01*
X83215Y-53603D01*
X83234Y-53640D01*
X83234Y-53696D01*
X83215Y-53734D01*
X83196Y-53753D01*
X83159Y-53771D01*
X83009Y-53771D01*
X83365Y-53565D02*
X83609Y-53565D01*
X83478Y-53715D01*
X83534Y-53715D01*
X83571Y-53734D01*
X83590Y-53753D01*
X83609Y-53790D01*
X83609Y-53884D01*
X83590Y-53921D01*
X83571Y-53940D01*
X83534Y-53959D01*
X83421Y-53959D01*
X83384Y-53940D01*
X83365Y-53921D01*
X83009Y-49559D02*
X83009Y-49165D01*
X83159Y-49165D01*
X83196Y-49184D01*
X83215Y-49203D01*
X83234Y-49240D01*
X83234Y-49296D01*
X83215Y-49334D01*
X83196Y-49353D01*
X83159Y-49371D01*
X83009Y-49371D01*
X83384Y-49203D02*
X83403Y-49184D01*
X83440Y-49165D01*
X83534Y-49165D01*
X83571Y-49184D01*
X83590Y-49203D01*
X83609Y-49240D01*
X83609Y-49278D01*
X83590Y-49334D01*
X83365Y-49559D01*
X83609Y-49559D01*
X72909Y-47759D02*
X72909Y-47365D01*
X73059Y-47365D01*
X73096Y-47384D01*
X73115Y-47403D01*
X73134Y-47440D01*
X73134Y-47496D01*
X73115Y-47534D01*
X73096Y-47553D01*
X73059Y-47571D01*
X72909Y-47571D01*
X73509Y-47759D02*
X73284Y-47759D01*
X73396Y-47759D02*
X73396Y-47365D01*
X73359Y-47421D01*
X73321Y-47459D01*
X73284Y-47478D01*
M02*
