M48
INCH,TZ
T1C0.022
T2C0.034
%
G90
G05
T1
X73950Y-47350
X73950Y-47850
X74450Y-47350
X74450Y-47850
X74950Y-47350
X74950Y-47850
X75450Y-47350
X75450Y-47850
X75950Y-47350
X75950Y-47850
T2
X73600Y-50700
X73600Y-51700
X73600Y-55100
X73600Y-56100
X74600Y-50700
X74600Y-51700
X74600Y-55100
X74600Y-56100
X75600Y-50700
X75600Y-51700
X75600Y-55100
X75600Y-56100
X76600Y-50700
X76600Y-51700
X76600Y-55100
X76600Y-56100
X77600Y-50700
X77600Y-51700
X77600Y-55100
X77600Y-56100
X78600Y-50700
X78600Y-51700
X78600Y-55100
X78600Y-56100
X79600Y-50700
X79600Y-51700
X79600Y-55100
X79600Y-56100
X80600Y-50700
X80600Y-51700
X80600Y-55100
X80600Y-56100
X81600Y-50700
X81600Y-51700
X81600Y-55100
X81600Y-56100
X82600Y-50700
X82600Y-51700
X82600Y-55100
X82600Y-56100
T0
M30
