G04 (created by PCBNEW (2013-june-11)-stable) date Fri 12 Sep 2014 11:17:40 AM PDT*
%MOIN*%
G04 Gerber Fmt 3.4, Leading zero omitted, Abs format*
%FSLAX34Y34*%
G01*
G70*
G90*
G04 APERTURE LIST*
%ADD10C,0.00590551*%
%ADD11R,0.031X0.031*%
%ADD12C,0.0590551*%
%ADD13C,0.035*%
%ADD14C,0.006*%
%ADD15C,0.01*%
%ADD16C,0.007*%
G04 APERTURE END LIST*
G54D10*
G54D11*
X75950Y-47850D03*
X75450Y-47850D03*
X74950Y-47850D03*
X74450Y-47850D03*
X73950Y-47850D03*
X75950Y-47350D03*
X75450Y-47350D03*
X74950Y-47350D03*
X74450Y-47350D03*
X73950Y-47350D03*
G54D12*
X73600Y-56100D03*
X73600Y-55100D03*
X74600Y-56100D03*
X74600Y-55100D03*
X75600Y-56100D03*
X75600Y-55100D03*
X76600Y-56100D03*
X76600Y-55100D03*
X77600Y-56100D03*
X77600Y-55100D03*
X78600Y-56100D03*
X78600Y-55100D03*
X79600Y-56100D03*
X79600Y-55100D03*
X80600Y-56100D03*
X80600Y-55100D03*
X81600Y-56100D03*
X81600Y-55100D03*
X82600Y-56100D03*
X82600Y-55100D03*
X73600Y-51700D03*
X73600Y-50700D03*
X74600Y-51700D03*
X74600Y-50700D03*
X75600Y-51700D03*
X75600Y-50700D03*
X76600Y-51700D03*
X76600Y-50700D03*
X77600Y-51700D03*
X77600Y-50700D03*
X78600Y-51700D03*
X78600Y-50700D03*
X79600Y-51700D03*
X79600Y-50700D03*
X80600Y-51700D03*
X80600Y-50700D03*
X81600Y-51700D03*
X81600Y-50700D03*
X82600Y-51700D03*
X82600Y-50700D03*
G54D13*
X76800Y-47800D03*
X75000Y-50000D03*
G54D14*
X82100Y-51200D02*
X82600Y-51700D01*
X82100Y-50500D02*
X82100Y-51200D01*
X81300Y-49700D02*
X82100Y-50500D01*
X78700Y-49700D02*
X81300Y-49700D01*
X76800Y-47800D02*
X78700Y-49700D01*
G54D15*
X82100Y-52200D02*
X82600Y-51700D01*
X82600Y-56100D02*
X82100Y-55600D01*
X82100Y-55600D02*
X82100Y-52200D01*
X81600Y-51700D02*
X81100Y-52200D01*
X81100Y-52200D02*
X81100Y-55600D01*
X81100Y-55600D02*
X81600Y-56100D01*
G54D14*
X80600Y-51700D02*
X80100Y-51200D01*
X78550Y-49950D02*
X75950Y-47350D01*
X79550Y-49950D02*
X78550Y-49950D01*
X80100Y-50500D02*
X79550Y-49950D01*
X80100Y-51200D02*
X80100Y-50500D01*
G54D15*
X80600Y-51700D02*
X80100Y-52200D01*
X80100Y-52200D02*
X80100Y-55600D01*
X80100Y-55600D02*
X80600Y-56100D01*
X78100Y-55600D02*
X78600Y-56100D01*
X78600Y-51700D02*
X78100Y-52200D01*
X78100Y-52200D02*
X78100Y-55600D01*
X77100Y-55600D02*
X77600Y-56100D01*
X77600Y-51700D02*
X77100Y-52200D01*
X77100Y-52200D02*
X77100Y-55600D01*
G54D14*
X75700Y-47600D02*
X75700Y-49300D01*
X75700Y-49300D02*
X75000Y-50000D01*
X75450Y-47350D02*
X75700Y-47600D01*
G54D15*
X75100Y-55600D02*
X75600Y-56100D01*
X75600Y-51700D02*
X75100Y-52200D01*
X75100Y-52200D02*
X75100Y-55600D01*
X79600Y-51700D02*
X79100Y-52200D01*
X79100Y-52200D02*
X79100Y-55600D01*
X79100Y-55600D02*
X79600Y-56100D01*
X76100Y-55600D02*
X76600Y-56100D01*
X76600Y-51700D02*
X76100Y-52200D01*
X76100Y-52200D02*
X76100Y-55600D01*
X73600Y-56100D02*
X73100Y-55600D01*
X73100Y-55600D02*
X73100Y-52200D01*
X73100Y-52200D02*
X73600Y-51700D01*
X74100Y-55600D02*
X74600Y-56100D01*
G54D14*
X75950Y-47850D02*
X75950Y-49450D01*
X75100Y-51200D02*
X74600Y-51700D01*
X75100Y-50300D02*
X75100Y-51200D01*
X75950Y-49450D02*
X75100Y-50300D01*
G54D15*
X74600Y-51700D02*
X74100Y-52200D01*
X74100Y-52200D02*
X74100Y-55600D01*
G54D10*
G36*
X74697Y-55105D02*
X74605Y-55197D01*
X74600Y-55191D01*
X74594Y-55197D01*
X74502Y-55105D01*
X74508Y-55100D01*
X74502Y-55094D01*
X74594Y-55002D01*
X74600Y-55008D01*
X74605Y-55002D01*
X74697Y-55094D01*
X74691Y-55100D01*
X74697Y-55105D01*
X74697Y-55105D01*
G37*
G54D16*
X74697Y-55105D02*
X74605Y-55197D01*
X74600Y-55191D01*
X74594Y-55197D01*
X74502Y-55105D01*
X74508Y-55100D01*
X74502Y-55094D01*
X74594Y-55002D01*
X74600Y-55008D01*
X74605Y-55002D01*
X74697Y-55094D01*
X74691Y-55100D01*
X74697Y-55105D01*
G54D10*
G36*
X75697Y-55105D02*
X75605Y-55197D01*
X75600Y-55191D01*
X75594Y-55197D01*
X75502Y-55105D01*
X75508Y-55100D01*
X75502Y-55094D01*
X75594Y-55002D01*
X75600Y-55008D01*
X75605Y-55002D01*
X75697Y-55094D01*
X75691Y-55100D01*
X75697Y-55105D01*
X75697Y-55105D01*
G37*
G54D16*
X75697Y-55105D02*
X75605Y-55197D01*
X75600Y-55191D01*
X75594Y-55197D01*
X75502Y-55105D01*
X75508Y-55100D01*
X75502Y-55094D01*
X75594Y-55002D01*
X75600Y-55008D01*
X75605Y-55002D01*
X75697Y-55094D01*
X75691Y-55100D01*
X75697Y-55105D01*
G54D10*
G36*
X76697Y-55105D02*
X76605Y-55197D01*
X76600Y-55191D01*
X76594Y-55197D01*
X76502Y-55105D01*
X76508Y-55100D01*
X76502Y-55094D01*
X76594Y-55002D01*
X76600Y-55008D01*
X76605Y-55002D01*
X76697Y-55094D01*
X76691Y-55100D01*
X76697Y-55105D01*
X76697Y-55105D01*
G37*
G54D16*
X76697Y-55105D02*
X76605Y-55197D01*
X76600Y-55191D01*
X76594Y-55197D01*
X76502Y-55105D01*
X76508Y-55100D01*
X76502Y-55094D01*
X76594Y-55002D01*
X76600Y-55008D01*
X76605Y-55002D01*
X76697Y-55094D01*
X76691Y-55100D01*
X76697Y-55105D01*
G54D10*
G36*
X77697Y-55105D02*
X77605Y-55197D01*
X77600Y-55191D01*
X77594Y-55197D01*
X77502Y-55105D01*
X77508Y-55100D01*
X77502Y-55094D01*
X77594Y-55002D01*
X77600Y-55008D01*
X77605Y-55002D01*
X77697Y-55094D01*
X77691Y-55100D01*
X77697Y-55105D01*
X77697Y-55105D01*
G37*
G54D16*
X77697Y-55105D02*
X77605Y-55197D01*
X77600Y-55191D01*
X77594Y-55197D01*
X77502Y-55105D01*
X77508Y-55100D01*
X77502Y-55094D01*
X77594Y-55002D01*
X77600Y-55008D01*
X77605Y-55002D01*
X77697Y-55094D01*
X77691Y-55100D01*
X77697Y-55105D01*
G54D10*
G36*
X78697Y-55105D02*
X78605Y-55197D01*
X78600Y-55191D01*
X78594Y-55197D01*
X78502Y-55105D01*
X78508Y-55100D01*
X78502Y-55094D01*
X78594Y-55002D01*
X78600Y-55008D01*
X78605Y-55002D01*
X78697Y-55094D01*
X78691Y-55100D01*
X78697Y-55105D01*
X78697Y-55105D01*
G37*
G54D16*
X78697Y-55105D02*
X78605Y-55197D01*
X78600Y-55191D01*
X78594Y-55197D01*
X78502Y-55105D01*
X78508Y-55100D01*
X78502Y-55094D01*
X78594Y-55002D01*
X78600Y-55008D01*
X78605Y-55002D01*
X78697Y-55094D01*
X78691Y-55100D01*
X78697Y-55105D01*
G54D10*
G36*
X79697Y-55105D02*
X79605Y-55197D01*
X79600Y-55191D01*
X79594Y-55197D01*
X79502Y-55105D01*
X79508Y-55100D01*
X79502Y-55094D01*
X79594Y-55002D01*
X79600Y-55008D01*
X79605Y-55002D01*
X79697Y-55094D01*
X79691Y-55100D01*
X79697Y-55105D01*
X79697Y-55105D01*
G37*
G54D16*
X79697Y-55105D02*
X79605Y-55197D01*
X79600Y-55191D01*
X79594Y-55197D01*
X79502Y-55105D01*
X79508Y-55100D01*
X79502Y-55094D01*
X79594Y-55002D01*
X79600Y-55008D01*
X79605Y-55002D01*
X79697Y-55094D01*
X79691Y-55100D01*
X79697Y-55105D01*
G54D10*
G36*
X80237Y-51528D02*
X80216Y-51578D01*
X80200Y-51655D01*
X80199Y-51733D01*
X80213Y-51810D01*
X80229Y-51851D01*
X79990Y-52090D01*
X79981Y-52101D01*
X79972Y-52112D01*
X79971Y-52113D01*
X79971Y-52113D01*
X79964Y-52126D01*
X79957Y-52138D01*
X79957Y-52139D01*
X79956Y-52140D01*
X79952Y-52154D01*
X79948Y-52167D01*
X79948Y-52168D01*
X79948Y-52169D01*
X79946Y-52183D01*
X79945Y-52197D01*
X79945Y-52199D01*
X79945Y-52199D01*
X79945Y-52199D01*
X79945Y-52200D01*
X79945Y-54691D01*
X79930Y-54677D01*
X79886Y-54721D01*
X79858Y-54633D01*
X79762Y-54592D01*
X79661Y-54570D01*
X79557Y-54568D01*
X79454Y-54587D01*
X79358Y-54625D01*
X79341Y-54633D01*
X79313Y-54721D01*
X79269Y-54677D01*
X79255Y-54691D01*
X79255Y-52264D01*
X79448Y-52070D01*
X79475Y-52082D01*
X79552Y-52099D01*
X79630Y-52101D01*
X79708Y-52087D01*
X79781Y-52059D01*
X79847Y-52016D01*
X79904Y-51962D01*
X79949Y-51898D01*
X79981Y-51826D01*
X79999Y-51750D01*
X80000Y-51660D01*
X79985Y-51583D01*
X79955Y-51511D01*
X79911Y-51445D01*
X79886Y-51420D01*
X79856Y-51390D01*
X79791Y-51346D01*
X79718Y-51315D01*
X79642Y-51299D01*
X79563Y-51299D01*
X79486Y-51314D01*
X79413Y-51343D01*
X79347Y-51386D01*
X79291Y-51441D01*
X79247Y-51506D01*
X79216Y-51578D01*
X79200Y-51655D01*
X79199Y-51733D01*
X79213Y-51810D01*
X79229Y-51851D01*
X78990Y-52090D01*
X78981Y-52101D01*
X78972Y-52112D01*
X78971Y-52113D01*
X78971Y-52113D01*
X78964Y-52126D01*
X78957Y-52138D01*
X78957Y-52139D01*
X78956Y-52140D01*
X78952Y-52154D01*
X78948Y-52167D01*
X78948Y-52168D01*
X78948Y-52169D01*
X78946Y-52183D01*
X78945Y-52197D01*
X78945Y-52199D01*
X78945Y-52199D01*
X78945Y-52199D01*
X78945Y-52200D01*
X78945Y-54691D01*
X78930Y-54677D01*
X78886Y-54721D01*
X78858Y-54633D01*
X78762Y-54592D01*
X78661Y-54570D01*
X78557Y-54568D01*
X78454Y-54587D01*
X78358Y-54625D01*
X78341Y-54633D01*
X78313Y-54721D01*
X78269Y-54677D01*
X78255Y-54691D01*
X78255Y-52264D01*
X78448Y-52070D01*
X78475Y-52082D01*
X78552Y-52099D01*
X78630Y-52101D01*
X78708Y-52087D01*
X78781Y-52059D01*
X78847Y-52016D01*
X78904Y-51962D01*
X78949Y-51898D01*
X78981Y-51826D01*
X78999Y-51750D01*
X79000Y-51660D01*
X78985Y-51583D01*
X78955Y-51511D01*
X78911Y-51445D01*
X78886Y-51420D01*
X78886Y-51078D01*
X78600Y-50791D01*
X78508Y-50883D01*
X78508Y-50700D01*
X78221Y-50413D01*
X78133Y-50441D01*
X78099Y-50521D01*
X78074Y-50458D01*
X78066Y-50441D01*
X77978Y-50413D01*
X77886Y-50505D01*
X77886Y-50321D01*
X77858Y-50233D01*
X77762Y-50192D01*
X77661Y-50170D01*
X77557Y-50168D01*
X77454Y-50187D01*
X77358Y-50225D01*
X77341Y-50233D01*
X77313Y-50321D01*
X77600Y-50608D01*
X77886Y-50321D01*
X77886Y-50505D01*
X77691Y-50700D01*
X77978Y-50986D01*
X78066Y-50958D01*
X78100Y-50878D01*
X78125Y-50941D01*
X78133Y-50958D01*
X78221Y-50986D01*
X78508Y-50700D01*
X78508Y-50883D01*
X78313Y-51078D01*
X78341Y-51166D01*
X78437Y-51207D01*
X78538Y-51229D01*
X78642Y-51231D01*
X78745Y-51212D01*
X78841Y-51174D01*
X78858Y-51166D01*
X78886Y-51078D01*
X78886Y-51420D01*
X78856Y-51390D01*
X78791Y-51346D01*
X78718Y-51315D01*
X78642Y-51299D01*
X78563Y-51299D01*
X78486Y-51314D01*
X78413Y-51343D01*
X78347Y-51386D01*
X78291Y-51441D01*
X78247Y-51506D01*
X78216Y-51578D01*
X78200Y-51655D01*
X78199Y-51733D01*
X78213Y-51810D01*
X78229Y-51851D01*
X77990Y-52090D01*
X77981Y-52101D01*
X77972Y-52112D01*
X77971Y-52113D01*
X77971Y-52113D01*
X77964Y-52126D01*
X77957Y-52138D01*
X77957Y-52139D01*
X77956Y-52140D01*
X77952Y-52154D01*
X77948Y-52167D01*
X77948Y-52168D01*
X77948Y-52169D01*
X77946Y-52183D01*
X77945Y-52197D01*
X77945Y-52199D01*
X77945Y-52199D01*
X77945Y-52199D01*
X77945Y-52200D01*
X77945Y-54691D01*
X77930Y-54677D01*
X77886Y-54721D01*
X77858Y-54633D01*
X77762Y-54592D01*
X77661Y-54570D01*
X77557Y-54568D01*
X77454Y-54587D01*
X77358Y-54625D01*
X77341Y-54633D01*
X77313Y-54721D01*
X77269Y-54677D01*
X77255Y-54691D01*
X77255Y-52264D01*
X77448Y-52070D01*
X77475Y-52082D01*
X77552Y-52099D01*
X77630Y-52101D01*
X77708Y-52087D01*
X77781Y-52059D01*
X77847Y-52016D01*
X77904Y-51962D01*
X77949Y-51898D01*
X77981Y-51826D01*
X77999Y-51750D01*
X78000Y-51660D01*
X77985Y-51583D01*
X77955Y-51511D01*
X77911Y-51445D01*
X77886Y-51420D01*
X77886Y-51078D01*
X77600Y-50791D01*
X77508Y-50883D01*
X77508Y-50700D01*
X77221Y-50413D01*
X77133Y-50441D01*
X77099Y-50521D01*
X77074Y-50458D01*
X77066Y-50441D01*
X76978Y-50413D01*
X76886Y-50505D01*
X76886Y-50321D01*
X76858Y-50233D01*
X76762Y-50192D01*
X76661Y-50170D01*
X76557Y-50168D01*
X76454Y-50187D01*
X76358Y-50225D01*
X76341Y-50233D01*
X76313Y-50321D01*
X76600Y-50608D01*
X76886Y-50321D01*
X76886Y-50505D01*
X76691Y-50700D01*
X76978Y-50986D01*
X77066Y-50958D01*
X77100Y-50878D01*
X77125Y-50941D01*
X77133Y-50958D01*
X77221Y-50986D01*
X77508Y-50700D01*
X77508Y-50883D01*
X77313Y-51078D01*
X77341Y-51166D01*
X77437Y-51207D01*
X77538Y-51229D01*
X77642Y-51231D01*
X77745Y-51212D01*
X77841Y-51174D01*
X77858Y-51166D01*
X77886Y-51078D01*
X77886Y-51420D01*
X77856Y-51390D01*
X77791Y-51346D01*
X77718Y-51315D01*
X77642Y-51299D01*
X77563Y-51299D01*
X77486Y-51314D01*
X77413Y-51343D01*
X77347Y-51386D01*
X77291Y-51441D01*
X77247Y-51506D01*
X77216Y-51578D01*
X77200Y-51655D01*
X77199Y-51733D01*
X77213Y-51810D01*
X77229Y-51851D01*
X76990Y-52090D01*
X76981Y-52101D01*
X76972Y-52112D01*
X76971Y-52113D01*
X76971Y-52113D01*
X76964Y-52126D01*
X76957Y-52138D01*
X76957Y-52139D01*
X76956Y-52140D01*
X76952Y-52154D01*
X76948Y-52167D01*
X76948Y-52168D01*
X76948Y-52169D01*
X76946Y-52183D01*
X76945Y-52197D01*
X76945Y-52199D01*
X76945Y-52199D01*
X76945Y-52199D01*
X76945Y-52200D01*
X76945Y-54691D01*
X76930Y-54677D01*
X76886Y-54721D01*
X76858Y-54633D01*
X76762Y-54592D01*
X76661Y-54570D01*
X76557Y-54568D01*
X76454Y-54587D01*
X76358Y-54625D01*
X76341Y-54633D01*
X76313Y-54721D01*
X76269Y-54677D01*
X76255Y-54691D01*
X76255Y-52264D01*
X76448Y-52070D01*
X76475Y-52082D01*
X76552Y-52099D01*
X76630Y-52101D01*
X76708Y-52087D01*
X76781Y-52059D01*
X76847Y-52016D01*
X76904Y-51962D01*
X76949Y-51898D01*
X76981Y-51826D01*
X76999Y-51750D01*
X77000Y-51660D01*
X76985Y-51583D01*
X76955Y-51511D01*
X76911Y-51445D01*
X76886Y-51420D01*
X76886Y-51078D01*
X76600Y-50791D01*
X76508Y-50883D01*
X76508Y-50700D01*
X76221Y-50413D01*
X76133Y-50441D01*
X76099Y-50521D01*
X76074Y-50458D01*
X76066Y-50441D01*
X75978Y-50413D01*
X75691Y-50700D01*
X75978Y-50986D01*
X76066Y-50958D01*
X76100Y-50878D01*
X76125Y-50941D01*
X76133Y-50958D01*
X76221Y-50986D01*
X76508Y-50700D01*
X76508Y-50883D01*
X76313Y-51078D01*
X76341Y-51166D01*
X76437Y-51207D01*
X76538Y-51229D01*
X76642Y-51231D01*
X76745Y-51212D01*
X76841Y-51174D01*
X76858Y-51166D01*
X76886Y-51078D01*
X76886Y-51420D01*
X76856Y-51390D01*
X76791Y-51346D01*
X76718Y-51315D01*
X76642Y-51299D01*
X76563Y-51299D01*
X76486Y-51314D01*
X76413Y-51343D01*
X76347Y-51386D01*
X76291Y-51441D01*
X76247Y-51506D01*
X76216Y-51578D01*
X76200Y-51655D01*
X76199Y-51733D01*
X76213Y-51810D01*
X76229Y-51851D01*
X75990Y-52090D01*
X75981Y-52101D01*
X75972Y-52112D01*
X75971Y-52113D01*
X75971Y-52113D01*
X75964Y-52126D01*
X75957Y-52138D01*
X75957Y-52139D01*
X75956Y-52140D01*
X75952Y-52154D01*
X75948Y-52167D01*
X75948Y-52168D01*
X75948Y-52169D01*
X75946Y-52183D01*
X75945Y-52197D01*
X75945Y-52199D01*
X75945Y-52199D01*
X75945Y-52199D01*
X75945Y-52200D01*
X75945Y-54691D01*
X75930Y-54677D01*
X75886Y-54721D01*
X75858Y-54633D01*
X75762Y-54592D01*
X75661Y-54570D01*
X75557Y-54568D01*
X75454Y-54587D01*
X75358Y-54625D01*
X75341Y-54633D01*
X75313Y-54721D01*
X75269Y-54677D01*
X75255Y-54691D01*
X75255Y-52264D01*
X75448Y-52070D01*
X75475Y-52082D01*
X75552Y-52099D01*
X75630Y-52101D01*
X75708Y-52087D01*
X75781Y-52059D01*
X75847Y-52016D01*
X75904Y-51962D01*
X75949Y-51898D01*
X75981Y-51826D01*
X75999Y-51750D01*
X76000Y-51660D01*
X75985Y-51583D01*
X75955Y-51511D01*
X75911Y-51445D01*
X75886Y-51420D01*
X75856Y-51390D01*
X75791Y-51346D01*
X75718Y-51315D01*
X75642Y-51299D01*
X75563Y-51299D01*
X75486Y-51314D01*
X75413Y-51343D01*
X75347Y-51386D01*
X75291Y-51441D01*
X75247Y-51506D01*
X75216Y-51578D01*
X75200Y-51655D01*
X75199Y-51733D01*
X75213Y-51810D01*
X75229Y-51851D01*
X74990Y-52090D01*
X74981Y-52101D01*
X74972Y-52112D01*
X74971Y-52113D01*
X74971Y-52113D01*
X74964Y-52126D01*
X74957Y-52138D01*
X74957Y-52139D01*
X74956Y-52140D01*
X74952Y-52154D01*
X74948Y-52167D01*
X74948Y-52168D01*
X74948Y-52169D01*
X74946Y-52183D01*
X74945Y-52197D01*
X74945Y-52199D01*
X74945Y-52199D01*
X74945Y-52199D01*
X74945Y-52200D01*
X74945Y-54691D01*
X74930Y-54677D01*
X74886Y-54721D01*
X74858Y-54633D01*
X74762Y-54592D01*
X74661Y-54570D01*
X74557Y-54568D01*
X74454Y-54587D01*
X74358Y-54625D01*
X74341Y-54633D01*
X74313Y-54721D01*
X74269Y-54677D01*
X74255Y-54691D01*
X74255Y-52264D01*
X74448Y-52070D01*
X74475Y-52082D01*
X74552Y-52099D01*
X74630Y-52101D01*
X74708Y-52087D01*
X74781Y-52059D01*
X74847Y-52016D01*
X74904Y-51962D01*
X74949Y-51898D01*
X74981Y-51826D01*
X74999Y-51750D01*
X75000Y-51660D01*
X74985Y-51583D01*
X74962Y-51528D01*
X75195Y-51295D01*
X75203Y-51285D01*
X75211Y-51276D01*
X75211Y-51275D01*
X75212Y-51275D01*
X75218Y-51264D01*
X75224Y-51253D01*
X75224Y-51252D01*
X75224Y-51251D01*
X75228Y-51239D01*
X75232Y-51228D01*
X75232Y-51227D01*
X75232Y-51226D01*
X75233Y-51214D01*
X75234Y-51201D01*
X75234Y-51200D01*
X75234Y-51200D01*
X75234Y-51200D01*
X75235Y-51200D01*
X75235Y-51088D01*
X75269Y-51122D01*
X75313Y-51078D01*
X75341Y-51166D01*
X75437Y-51207D01*
X75538Y-51229D01*
X75642Y-51231D01*
X75745Y-51212D01*
X75841Y-51174D01*
X75858Y-51166D01*
X75886Y-51078D01*
X75600Y-50791D01*
X75594Y-50797D01*
X75502Y-50705D01*
X75508Y-50700D01*
X75502Y-50694D01*
X75594Y-50602D01*
X75600Y-50608D01*
X75886Y-50321D01*
X75858Y-50233D01*
X75762Y-50192D01*
X75661Y-50170D01*
X75557Y-50168D01*
X75454Y-50187D01*
X75370Y-50220D01*
X76045Y-49545D01*
X76053Y-49535D01*
X76061Y-49526D01*
X76061Y-49525D01*
X76062Y-49525D01*
X76068Y-49514D01*
X76074Y-49503D01*
X76074Y-49502D01*
X76074Y-49501D01*
X76078Y-49489D01*
X76082Y-49478D01*
X76082Y-49477D01*
X76082Y-49476D01*
X76083Y-49464D01*
X76084Y-49451D01*
X76084Y-49450D01*
X76084Y-49450D01*
X76084Y-49450D01*
X76085Y-49450D01*
X76085Y-48110D01*
X76115Y-48110D01*
X76135Y-48106D01*
X76154Y-48098D01*
X76171Y-48086D01*
X76186Y-48072D01*
X76197Y-48055D01*
X76205Y-48036D01*
X76209Y-48016D01*
X76210Y-47995D01*
X76210Y-47800D01*
X78454Y-50045D01*
X78464Y-50053D01*
X78473Y-50061D01*
X78474Y-50061D01*
X78474Y-50062D01*
X78485Y-50068D01*
X78496Y-50074D01*
X78497Y-50074D01*
X78498Y-50074D01*
X78510Y-50078D01*
X78521Y-50082D01*
X78522Y-50082D01*
X78523Y-50082D01*
X78535Y-50083D01*
X78548Y-50084D01*
X78549Y-50084D01*
X78549Y-50084D01*
X78549Y-50084D01*
X78550Y-50085D01*
X79494Y-50085D01*
X79578Y-50169D01*
X79557Y-50168D01*
X79454Y-50187D01*
X79358Y-50225D01*
X79341Y-50233D01*
X79313Y-50321D01*
X79600Y-50608D01*
X79605Y-50602D01*
X79697Y-50694D01*
X79691Y-50700D01*
X79697Y-50705D01*
X79605Y-50797D01*
X79600Y-50791D01*
X79508Y-50883D01*
X79508Y-50700D01*
X79221Y-50413D01*
X79133Y-50441D01*
X79099Y-50521D01*
X79074Y-50458D01*
X79066Y-50441D01*
X78978Y-50413D01*
X78886Y-50505D01*
X78886Y-50321D01*
X78858Y-50233D01*
X78762Y-50192D01*
X78661Y-50170D01*
X78557Y-50168D01*
X78454Y-50187D01*
X78358Y-50225D01*
X78341Y-50233D01*
X78313Y-50321D01*
X78600Y-50608D01*
X78886Y-50321D01*
X78886Y-50505D01*
X78691Y-50700D01*
X78978Y-50986D01*
X79066Y-50958D01*
X79100Y-50878D01*
X79125Y-50941D01*
X79133Y-50958D01*
X79221Y-50986D01*
X79508Y-50700D01*
X79508Y-50883D01*
X79313Y-51078D01*
X79341Y-51166D01*
X79437Y-51207D01*
X79538Y-51229D01*
X79642Y-51231D01*
X79745Y-51212D01*
X79841Y-51174D01*
X79858Y-51166D01*
X79886Y-51078D01*
X79886Y-51078D01*
X79930Y-51122D01*
X79965Y-51088D01*
X79965Y-51200D01*
X79966Y-51212D01*
X79967Y-51224D01*
X79967Y-51225D01*
X79967Y-51226D01*
X79971Y-51238D01*
X79974Y-51250D01*
X79974Y-51250D01*
X79975Y-51251D01*
X79981Y-51262D01*
X79986Y-51273D01*
X79987Y-51274D01*
X79987Y-51274D01*
X79995Y-51284D01*
X80003Y-51294D01*
X80004Y-51295D01*
X80004Y-51295D01*
X80004Y-51295D01*
X80004Y-51295D01*
X80237Y-51528D01*
X80237Y-51528D01*
G37*
G54D16*
X80237Y-51528D02*
X80216Y-51578D01*
X80200Y-51655D01*
X80199Y-51733D01*
X80213Y-51810D01*
X80229Y-51851D01*
X79990Y-52090D01*
X79981Y-52101D01*
X79972Y-52112D01*
X79971Y-52113D01*
X79971Y-52113D01*
X79964Y-52126D01*
X79957Y-52138D01*
X79957Y-52139D01*
X79956Y-52140D01*
X79952Y-52154D01*
X79948Y-52167D01*
X79948Y-52168D01*
X79948Y-52169D01*
X79946Y-52183D01*
X79945Y-52197D01*
X79945Y-52199D01*
X79945Y-52199D01*
X79945Y-52199D01*
X79945Y-52200D01*
X79945Y-54691D01*
X79930Y-54677D01*
X79886Y-54721D01*
X79858Y-54633D01*
X79762Y-54592D01*
X79661Y-54570D01*
X79557Y-54568D01*
X79454Y-54587D01*
X79358Y-54625D01*
X79341Y-54633D01*
X79313Y-54721D01*
X79269Y-54677D01*
X79255Y-54691D01*
X79255Y-52264D01*
X79448Y-52070D01*
X79475Y-52082D01*
X79552Y-52099D01*
X79630Y-52101D01*
X79708Y-52087D01*
X79781Y-52059D01*
X79847Y-52016D01*
X79904Y-51962D01*
X79949Y-51898D01*
X79981Y-51826D01*
X79999Y-51750D01*
X80000Y-51660D01*
X79985Y-51583D01*
X79955Y-51511D01*
X79911Y-51445D01*
X79886Y-51420D01*
X79856Y-51390D01*
X79791Y-51346D01*
X79718Y-51315D01*
X79642Y-51299D01*
X79563Y-51299D01*
X79486Y-51314D01*
X79413Y-51343D01*
X79347Y-51386D01*
X79291Y-51441D01*
X79247Y-51506D01*
X79216Y-51578D01*
X79200Y-51655D01*
X79199Y-51733D01*
X79213Y-51810D01*
X79229Y-51851D01*
X78990Y-52090D01*
X78981Y-52101D01*
X78972Y-52112D01*
X78971Y-52113D01*
X78971Y-52113D01*
X78964Y-52126D01*
X78957Y-52138D01*
X78957Y-52139D01*
X78956Y-52140D01*
X78952Y-52154D01*
X78948Y-52167D01*
X78948Y-52168D01*
X78948Y-52169D01*
X78946Y-52183D01*
X78945Y-52197D01*
X78945Y-52199D01*
X78945Y-52199D01*
X78945Y-52199D01*
X78945Y-52200D01*
X78945Y-54691D01*
X78930Y-54677D01*
X78886Y-54721D01*
X78858Y-54633D01*
X78762Y-54592D01*
X78661Y-54570D01*
X78557Y-54568D01*
X78454Y-54587D01*
X78358Y-54625D01*
X78341Y-54633D01*
X78313Y-54721D01*
X78269Y-54677D01*
X78255Y-54691D01*
X78255Y-52264D01*
X78448Y-52070D01*
X78475Y-52082D01*
X78552Y-52099D01*
X78630Y-52101D01*
X78708Y-52087D01*
X78781Y-52059D01*
X78847Y-52016D01*
X78904Y-51962D01*
X78949Y-51898D01*
X78981Y-51826D01*
X78999Y-51750D01*
X79000Y-51660D01*
X78985Y-51583D01*
X78955Y-51511D01*
X78911Y-51445D01*
X78886Y-51420D01*
X78886Y-51078D01*
X78600Y-50791D01*
X78508Y-50883D01*
X78508Y-50700D01*
X78221Y-50413D01*
X78133Y-50441D01*
X78099Y-50521D01*
X78074Y-50458D01*
X78066Y-50441D01*
X77978Y-50413D01*
X77886Y-50505D01*
X77886Y-50321D01*
X77858Y-50233D01*
X77762Y-50192D01*
X77661Y-50170D01*
X77557Y-50168D01*
X77454Y-50187D01*
X77358Y-50225D01*
X77341Y-50233D01*
X77313Y-50321D01*
X77600Y-50608D01*
X77886Y-50321D01*
X77886Y-50505D01*
X77691Y-50700D01*
X77978Y-50986D01*
X78066Y-50958D01*
X78100Y-50878D01*
X78125Y-50941D01*
X78133Y-50958D01*
X78221Y-50986D01*
X78508Y-50700D01*
X78508Y-50883D01*
X78313Y-51078D01*
X78341Y-51166D01*
X78437Y-51207D01*
X78538Y-51229D01*
X78642Y-51231D01*
X78745Y-51212D01*
X78841Y-51174D01*
X78858Y-51166D01*
X78886Y-51078D01*
X78886Y-51420D01*
X78856Y-51390D01*
X78791Y-51346D01*
X78718Y-51315D01*
X78642Y-51299D01*
X78563Y-51299D01*
X78486Y-51314D01*
X78413Y-51343D01*
X78347Y-51386D01*
X78291Y-51441D01*
X78247Y-51506D01*
X78216Y-51578D01*
X78200Y-51655D01*
X78199Y-51733D01*
X78213Y-51810D01*
X78229Y-51851D01*
X77990Y-52090D01*
X77981Y-52101D01*
X77972Y-52112D01*
X77971Y-52113D01*
X77971Y-52113D01*
X77964Y-52126D01*
X77957Y-52138D01*
X77957Y-52139D01*
X77956Y-52140D01*
X77952Y-52154D01*
X77948Y-52167D01*
X77948Y-52168D01*
X77948Y-52169D01*
X77946Y-52183D01*
X77945Y-52197D01*
X77945Y-52199D01*
X77945Y-52199D01*
X77945Y-52199D01*
X77945Y-52200D01*
X77945Y-54691D01*
X77930Y-54677D01*
X77886Y-54721D01*
X77858Y-54633D01*
X77762Y-54592D01*
X77661Y-54570D01*
X77557Y-54568D01*
X77454Y-54587D01*
X77358Y-54625D01*
X77341Y-54633D01*
X77313Y-54721D01*
X77269Y-54677D01*
X77255Y-54691D01*
X77255Y-52264D01*
X77448Y-52070D01*
X77475Y-52082D01*
X77552Y-52099D01*
X77630Y-52101D01*
X77708Y-52087D01*
X77781Y-52059D01*
X77847Y-52016D01*
X77904Y-51962D01*
X77949Y-51898D01*
X77981Y-51826D01*
X77999Y-51750D01*
X78000Y-51660D01*
X77985Y-51583D01*
X77955Y-51511D01*
X77911Y-51445D01*
X77886Y-51420D01*
X77886Y-51078D01*
X77600Y-50791D01*
X77508Y-50883D01*
X77508Y-50700D01*
X77221Y-50413D01*
X77133Y-50441D01*
X77099Y-50521D01*
X77074Y-50458D01*
X77066Y-50441D01*
X76978Y-50413D01*
X76886Y-50505D01*
X76886Y-50321D01*
X76858Y-50233D01*
X76762Y-50192D01*
X76661Y-50170D01*
X76557Y-50168D01*
X76454Y-50187D01*
X76358Y-50225D01*
X76341Y-50233D01*
X76313Y-50321D01*
X76600Y-50608D01*
X76886Y-50321D01*
X76886Y-50505D01*
X76691Y-50700D01*
X76978Y-50986D01*
X77066Y-50958D01*
X77100Y-50878D01*
X77125Y-50941D01*
X77133Y-50958D01*
X77221Y-50986D01*
X77508Y-50700D01*
X77508Y-50883D01*
X77313Y-51078D01*
X77341Y-51166D01*
X77437Y-51207D01*
X77538Y-51229D01*
X77642Y-51231D01*
X77745Y-51212D01*
X77841Y-51174D01*
X77858Y-51166D01*
X77886Y-51078D01*
X77886Y-51420D01*
X77856Y-51390D01*
X77791Y-51346D01*
X77718Y-51315D01*
X77642Y-51299D01*
X77563Y-51299D01*
X77486Y-51314D01*
X77413Y-51343D01*
X77347Y-51386D01*
X77291Y-51441D01*
X77247Y-51506D01*
X77216Y-51578D01*
X77200Y-51655D01*
X77199Y-51733D01*
X77213Y-51810D01*
X77229Y-51851D01*
X76990Y-52090D01*
X76981Y-52101D01*
X76972Y-52112D01*
X76971Y-52113D01*
X76971Y-52113D01*
X76964Y-52126D01*
X76957Y-52138D01*
X76957Y-52139D01*
X76956Y-52140D01*
X76952Y-52154D01*
X76948Y-52167D01*
X76948Y-52168D01*
X76948Y-52169D01*
X76946Y-52183D01*
X76945Y-52197D01*
X76945Y-52199D01*
X76945Y-52199D01*
X76945Y-52199D01*
X76945Y-52200D01*
X76945Y-54691D01*
X76930Y-54677D01*
X76886Y-54721D01*
X76858Y-54633D01*
X76762Y-54592D01*
X76661Y-54570D01*
X76557Y-54568D01*
X76454Y-54587D01*
X76358Y-54625D01*
X76341Y-54633D01*
X76313Y-54721D01*
X76269Y-54677D01*
X76255Y-54691D01*
X76255Y-52264D01*
X76448Y-52070D01*
X76475Y-52082D01*
X76552Y-52099D01*
X76630Y-52101D01*
X76708Y-52087D01*
X76781Y-52059D01*
X76847Y-52016D01*
X76904Y-51962D01*
X76949Y-51898D01*
X76981Y-51826D01*
X76999Y-51750D01*
X77000Y-51660D01*
X76985Y-51583D01*
X76955Y-51511D01*
X76911Y-51445D01*
X76886Y-51420D01*
X76886Y-51078D01*
X76600Y-50791D01*
X76508Y-50883D01*
X76508Y-50700D01*
X76221Y-50413D01*
X76133Y-50441D01*
X76099Y-50521D01*
X76074Y-50458D01*
X76066Y-50441D01*
X75978Y-50413D01*
X75691Y-50700D01*
X75978Y-50986D01*
X76066Y-50958D01*
X76100Y-50878D01*
X76125Y-50941D01*
X76133Y-50958D01*
X76221Y-50986D01*
X76508Y-50700D01*
X76508Y-50883D01*
X76313Y-51078D01*
X76341Y-51166D01*
X76437Y-51207D01*
X76538Y-51229D01*
X76642Y-51231D01*
X76745Y-51212D01*
X76841Y-51174D01*
X76858Y-51166D01*
X76886Y-51078D01*
X76886Y-51420D01*
X76856Y-51390D01*
X76791Y-51346D01*
X76718Y-51315D01*
X76642Y-51299D01*
X76563Y-51299D01*
X76486Y-51314D01*
X76413Y-51343D01*
X76347Y-51386D01*
X76291Y-51441D01*
X76247Y-51506D01*
X76216Y-51578D01*
X76200Y-51655D01*
X76199Y-51733D01*
X76213Y-51810D01*
X76229Y-51851D01*
X75990Y-52090D01*
X75981Y-52101D01*
X75972Y-52112D01*
X75971Y-52113D01*
X75971Y-52113D01*
X75964Y-52126D01*
X75957Y-52138D01*
X75957Y-52139D01*
X75956Y-52140D01*
X75952Y-52154D01*
X75948Y-52167D01*
X75948Y-52168D01*
X75948Y-52169D01*
X75946Y-52183D01*
X75945Y-52197D01*
X75945Y-52199D01*
X75945Y-52199D01*
X75945Y-52199D01*
X75945Y-52200D01*
X75945Y-54691D01*
X75930Y-54677D01*
X75886Y-54721D01*
X75858Y-54633D01*
X75762Y-54592D01*
X75661Y-54570D01*
X75557Y-54568D01*
X75454Y-54587D01*
X75358Y-54625D01*
X75341Y-54633D01*
X75313Y-54721D01*
X75269Y-54677D01*
X75255Y-54691D01*
X75255Y-52264D01*
X75448Y-52070D01*
X75475Y-52082D01*
X75552Y-52099D01*
X75630Y-52101D01*
X75708Y-52087D01*
X75781Y-52059D01*
X75847Y-52016D01*
X75904Y-51962D01*
X75949Y-51898D01*
X75981Y-51826D01*
X75999Y-51750D01*
X76000Y-51660D01*
X75985Y-51583D01*
X75955Y-51511D01*
X75911Y-51445D01*
X75886Y-51420D01*
X75856Y-51390D01*
X75791Y-51346D01*
X75718Y-51315D01*
X75642Y-51299D01*
X75563Y-51299D01*
X75486Y-51314D01*
X75413Y-51343D01*
X75347Y-51386D01*
X75291Y-51441D01*
X75247Y-51506D01*
X75216Y-51578D01*
X75200Y-51655D01*
X75199Y-51733D01*
X75213Y-51810D01*
X75229Y-51851D01*
X74990Y-52090D01*
X74981Y-52101D01*
X74972Y-52112D01*
X74971Y-52113D01*
X74971Y-52113D01*
X74964Y-52126D01*
X74957Y-52138D01*
X74957Y-52139D01*
X74956Y-52140D01*
X74952Y-52154D01*
X74948Y-52167D01*
X74948Y-52168D01*
X74948Y-52169D01*
X74946Y-52183D01*
X74945Y-52197D01*
X74945Y-52199D01*
X74945Y-52199D01*
X74945Y-52199D01*
X74945Y-52200D01*
X74945Y-54691D01*
X74930Y-54677D01*
X74886Y-54721D01*
X74858Y-54633D01*
X74762Y-54592D01*
X74661Y-54570D01*
X74557Y-54568D01*
X74454Y-54587D01*
X74358Y-54625D01*
X74341Y-54633D01*
X74313Y-54721D01*
X74269Y-54677D01*
X74255Y-54691D01*
X74255Y-52264D01*
X74448Y-52070D01*
X74475Y-52082D01*
X74552Y-52099D01*
X74630Y-52101D01*
X74708Y-52087D01*
X74781Y-52059D01*
X74847Y-52016D01*
X74904Y-51962D01*
X74949Y-51898D01*
X74981Y-51826D01*
X74999Y-51750D01*
X75000Y-51660D01*
X74985Y-51583D01*
X74962Y-51528D01*
X75195Y-51295D01*
X75203Y-51285D01*
X75211Y-51276D01*
X75211Y-51275D01*
X75212Y-51275D01*
X75218Y-51264D01*
X75224Y-51253D01*
X75224Y-51252D01*
X75224Y-51251D01*
X75228Y-51239D01*
X75232Y-51228D01*
X75232Y-51227D01*
X75232Y-51226D01*
X75233Y-51214D01*
X75234Y-51201D01*
X75234Y-51200D01*
X75234Y-51200D01*
X75234Y-51200D01*
X75235Y-51200D01*
X75235Y-51088D01*
X75269Y-51122D01*
X75313Y-51078D01*
X75341Y-51166D01*
X75437Y-51207D01*
X75538Y-51229D01*
X75642Y-51231D01*
X75745Y-51212D01*
X75841Y-51174D01*
X75858Y-51166D01*
X75886Y-51078D01*
X75600Y-50791D01*
X75594Y-50797D01*
X75502Y-50705D01*
X75508Y-50700D01*
X75502Y-50694D01*
X75594Y-50602D01*
X75600Y-50608D01*
X75886Y-50321D01*
X75858Y-50233D01*
X75762Y-50192D01*
X75661Y-50170D01*
X75557Y-50168D01*
X75454Y-50187D01*
X75370Y-50220D01*
X76045Y-49545D01*
X76053Y-49535D01*
X76061Y-49526D01*
X76061Y-49525D01*
X76062Y-49525D01*
X76068Y-49514D01*
X76074Y-49503D01*
X76074Y-49502D01*
X76074Y-49501D01*
X76078Y-49489D01*
X76082Y-49478D01*
X76082Y-49477D01*
X76082Y-49476D01*
X76083Y-49464D01*
X76084Y-49451D01*
X76084Y-49450D01*
X76084Y-49450D01*
X76084Y-49450D01*
X76085Y-49450D01*
X76085Y-48110D01*
X76115Y-48110D01*
X76135Y-48106D01*
X76154Y-48098D01*
X76171Y-48086D01*
X76186Y-48072D01*
X76197Y-48055D01*
X76205Y-48036D01*
X76209Y-48016D01*
X76210Y-47995D01*
X76210Y-47800D01*
X78454Y-50045D01*
X78464Y-50053D01*
X78473Y-50061D01*
X78474Y-50061D01*
X78474Y-50062D01*
X78485Y-50068D01*
X78496Y-50074D01*
X78497Y-50074D01*
X78498Y-50074D01*
X78510Y-50078D01*
X78521Y-50082D01*
X78522Y-50082D01*
X78523Y-50082D01*
X78535Y-50083D01*
X78548Y-50084D01*
X78549Y-50084D01*
X78549Y-50084D01*
X78549Y-50084D01*
X78550Y-50085D01*
X79494Y-50085D01*
X79578Y-50169D01*
X79557Y-50168D01*
X79454Y-50187D01*
X79358Y-50225D01*
X79341Y-50233D01*
X79313Y-50321D01*
X79600Y-50608D01*
X79605Y-50602D01*
X79697Y-50694D01*
X79691Y-50700D01*
X79697Y-50705D01*
X79605Y-50797D01*
X79600Y-50791D01*
X79508Y-50883D01*
X79508Y-50700D01*
X79221Y-50413D01*
X79133Y-50441D01*
X79099Y-50521D01*
X79074Y-50458D01*
X79066Y-50441D01*
X78978Y-50413D01*
X78886Y-50505D01*
X78886Y-50321D01*
X78858Y-50233D01*
X78762Y-50192D01*
X78661Y-50170D01*
X78557Y-50168D01*
X78454Y-50187D01*
X78358Y-50225D01*
X78341Y-50233D01*
X78313Y-50321D01*
X78600Y-50608D01*
X78886Y-50321D01*
X78886Y-50505D01*
X78691Y-50700D01*
X78978Y-50986D01*
X79066Y-50958D01*
X79100Y-50878D01*
X79125Y-50941D01*
X79133Y-50958D01*
X79221Y-50986D01*
X79508Y-50700D01*
X79508Y-50883D01*
X79313Y-51078D01*
X79341Y-51166D01*
X79437Y-51207D01*
X79538Y-51229D01*
X79642Y-51231D01*
X79745Y-51212D01*
X79841Y-51174D01*
X79858Y-51166D01*
X79886Y-51078D01*
X79886Y-51078D01*
X79930Y-51122D01*
X79965Y-51088D01*
X79965Y-51200D01*
X79966Y-51212D01*
X79967Y-51224D01*
X79967Y-51225D01*
X79967Y-51226D01*
X79971Y-51238D01*
X79974Y-51250D01*
X79974Y-51250D01*
X79975Y-51251D01*
X79981Y-51262D01*
X79986Y-51273D01*
X79987Y-51274D01*
X79987Y-51274D01*
X79995Y-51284D01*
X80003Y-51294D01*
X80004Y-51295D01*
X80004Y-51295D01*
X80004Y-51295D01*
X80004Y-51295D01*
X80237Y-51528D01*
G54D10*
G36*
X80697Y-55105D02*
X80605Y-55197D01*
X80600Y-55191D01*
X80594Y-55197D01*
X80502Y-55105D01*
X80508Y-55100D01*
X80502Y-55094D01*
X80594Y-55002D01*
X80600Y-55008D01*
X80605Y-55002D01*
X80697Y-55094D01*
X80691Y-55100D01*
X80697Y-55105D01*
X80697Y-55105D01*
G37*
G54D16*
X80697Y-55105D02*
X80605Y-55197D01*
X80600Y-55191D01*
X80594Y-55197D01*
X80502Y-55105D01*
X80508Y-55100D01*
X80502Y-55094D01*
X80594Y-55002D01*
X80600Y-55008D01*
X80605Y-55002D01*
X80697Y-55094D01*
X80691Y-55100D01*
X80697Y-55105D01*
G54D10*
G36*
X81697Y-55105D02*
X81605Y-55197D01*
X81600Y-55191D01*
X81594Y-55197D01*
X81502Y-55105D01*
X81508Y-55100D01*
X81502Y-55094D01*
X81594Y-55002D01*
X81600Y-55008D01*
X81605Y-55002D01*
X81697Y-55094D01*
X81691Y-55100D01*
X81697Y-55105D01*
X81697Y-55105D01*
G37*
G54D16*
X81697Y-55105D02*
X81605Y-55197D01*
X81600Y-55191D01*
X81594Y-55197D01*
X81502Y-55105D01*
X81508Y-55100D01*
X81502Y-55094D01*
X81594Y-55002D01*
X81600Y-55008D01*
X81605Y-55002D01*
X81697Y-55094D01*
X81691Y-55100D01*
X81697Y-55105D01*
G54D10*
G36*
X82237Y-51528D02*
X82216Y-51578D01*
X82200Y-51655D01*
X82199Y-51733D01*
X82213Y-51810D01*
X82229Y-51851D01*
X81990Y-52090D01*
X81981Y-52101D01*
X81972Y-52112D01*
X81971Y-52113D01*
X81971Y-52113D01*
X81964Y-52126D01*
X81957Y-52138D01*
X81957Y-52139D01*
X81956Y-52140D01*
X81952Y-52154D01*
X81948Y-52167D01*
X81948Y-52168D01*
X81948Y-52169D01*
X81946Y-52183D01*
X81945Y-52197D01*
X81945Y-52199D01*
X81945Y-52199D01*
X81945Y-52199D01*
X81945Y-52200D01*
X81945Y-54691D01*
X81930Y-54677D01*
X81886Y-54721D01*
X81858Y-54633D01*
X81762Y-54592D01*
X81661Y-54570D01*
X81557Y-54568D01*
X81454Y-54587D01*
X81358Y-54625D01*
X81341Y-54633D01*
X81313Y-54721D01*
X81269Y-54677D01*
X81255Y-54691D01*
X81255Y-52264D01*
X81448Y-52070D01*
X81475Y-52082D01*
X81552Y-52099D01*
X81630Y-52101D01*
X81708Y-52087D01*
X81781Y-52059D01*
X81847Y-52016D01*
X81904Y-51962D01*
X81949Y-51898D01*
X81981Y-51826D01*
X81999Y-51750D01*
X82000Y-51660D01*
X81985Y-51583D01*
X81955Y-51511D01*
X81911Y-51445D01*
X81886Y-51420D01*
X81856Y-51390D01*
X81791Y-51346D01*
X81718Y-51315D01*
X81642Y-51299D01*
X81563Y-51299D01*
X81486Y-51314D01*
X81413Y-51343D01*
X81347Y-51386D01*
X81291Y-51441D01*
X81247Y-51506D01*
X81216Y-51578D01*
X81200Y-51655D01*
X81199Y-51733D01*
X81213Y-51810D01*
X81229Y-51851D01*
X80990Y-52090D01*
X80981Y-52101D01*
X80972Y-52112D01*
X80971Y-52113D01*
X80971Y-52113D01*
X80964Y-52126D01*
X80957Y-52138D01*
X80957Y-52139D01*
X80956Y-52140D01*
X80952Y-52154D01*
X80948Y-52167D01*
X80948Y-52168D01*
X80948Y-52169D01*
X80946Y-52183D01*
X80945Y-52197D01*
X80945Y-52199D01*
X80945Y-52199D01*
X80945Y-52199D01*
X80945Y-52200D01*
X80945Y-54691D01*
X80930Y-54677D01*
X80886Y-54721D01*
X80858Y-54633D01*
X80762Y-54592D01*
X80661Y-54570D01*
X80557Y-54568D01*
X80454Y-54587D01*
X80358Y-54625D01*
X80341Y-54633D01*
X80313Y-54721D01*
X80269Y-54677D01*
X80255Y-54691D01*
X80255Y-52264D01*
X80448Y-52070D01*
X80475Y-52082D01*
X80552Y-52099D01*
X80630Y-52101D01*
X80708Y-52087D01*
X80781Y-52059D01*
X80847Y-52016D01*
X80904Y-51962D01*
X80949Y-51898D01*
X80981Y-51826D01*
X80999Y-51750D01*
X81000Y-51660D01*
X80985Y-51583D01*
X80955Y-51511D01*
X80911Y-51445D01*
X80886Y-51420D01*
X80856Y-51390D01*
X80791Y-51346D01*
X80718Y-51315D01*
X80642Y-51299D01*
X80563Y-51299D01*
X80486Y-51314D01*
X80428Y-51337D01*
X80235Y-51144D01*
X80235Y-51088D01*
X80269Y-51122D01*
X80313Y-51078D01*
X80341Y-51166D01*
X80437Y-51207D01*
X80538Y-51229D01*
X80642Y-51231D01*
X80745Y-51212D01*
X80841Y-51174D01*
X80858Y-51166D01*
X80886Y-51078D01*
X80600Y-50791D01*
X80594Y-50797D01*
X80502Y-50705D01*
X80508Y-50700D01*
X80221Y-50413D01*
X80207Y-50418D01*
X80204Y-50415D01*
X80196Y-50405D01*
X80195Y-50404D01*
X80195Y-50404D01*
X80195Y-50404D01*
X80195Y-50404D01*
X79645Y-49854D01*
X79635Y-49846D01*
X79626Y-49838D01*
X79625Y-49838D01*
X79625Y-49837D01*
X79619Y-49835D01*
X81244Y-49835D01*
X81578Y-50169D01*
X81557Y-50168D01*
X81454Y-50187D01*
X81358Y-50225D01*
X81341Y-50233D01*
X81313Y-50321D01*
X81600Y-50608D01*
X81605Y-50602D01*
X81697Y-50694D01*
X81691Y-50700D01*
X81697Y-50705D01*
X81605Y-50797D01*
X81600Y-50791D01*
X81508Y-50883D01*
X81508Y-50700D01*
X81221Y-50413D01*
X81133Y-50441D01*
X81099Y-50521D01*
X81074Y-50458D01*
X81066Y-50441D01*
X80978Y-50413D01*
X80886Y-50505D01*
X80886Y-50321D01*
X80858Y-50233D01*
X80762Y-50192D01*
X80661Y-50170D01*
X80557Y-50168D01*
X80454Y-50187D01*
X80358Y-50225D01*
X80341Y-50233D01*
X80313Y-50321D01*
X80600Y-50608D01*
X80886Y-50321D01*
X80886Y-50505D01*
X80691Y-50700D01*
X80978Y-50986D01*
X81066Y-50958D01*
X81100Y-50878D01*
X81125Y-50941D01*
X81133Y-50958D01*
X81221Y-50986D01*
X81508Y-50700D01*
X81508Y-50883D01*
X81313Y-51078D01*
X81341Y-51166D01*
X81437Y-51207D01*
X81538Y-51229D01*
X81642Y-51231D01*
X81745Y-51212D01*
X81841Y-51174D01*
X81858Y-51166D01*
X81886Y-51078D01*
X81886Y-51078D01*
X81930Y-51122D01*
X81965Y-51088D01*
X81965Y-51200D01*
X81966Y-51212D01*
X81967Y-51224D01*
X81967Y-51225D01*
X81967Y-51226D01*
X81971Y-51238D01*
X81974Y-51250D01*
X81974Y-51250D01*
X81975Y-51251D01*
X81981Y-51262D01*
X81986Y-51273D01*
X81987Y-51274D01*
X81987Y-51274D01*
X81995Y-51284D01*
X82003Y-51294D01*
X82004Y-51295D01*
X82004Y-51295D01*
X82004Y-51295D01*
X82004Y-51295D01*
X82237Y-51528D01*
X82237Y-51528D01*
G37*
G54D16*
X82237Y-51528D02*
X82216Y-51578D01*
X82200Y-51655D01*
X82199Y-51733D01*
X82213Y-51810D01*
X82229Y-51851D01*
X81990Y-52090D01*
X81981Y-52101D01*
X81972Y-52112D01*
X81971Y-52113D01*
X81971Y-52113D01*
X81964Y-52126D01*
X81957Y-52138D01*
X81957Y-52139D01*
X81956Y-52140D01*
X81952Y-52154D01*
X81948Y-52167D01*
X81948Y-52168D01*
X81948Y-52169D01*
X81946Y-52183D01*
X81945Y-52197D01*
X81945Y-52199D01*
X81945Y-52199D01*
X81945Y-52199D01*
X81945Y-52200D01*
X81945Y-54691D01*
X81930Y-54677D01*
X81886Y-54721D01*
X81858Y-54633D01*
X81762Y-54592D01*
X81661Y-54570D01*
X81557Y-54568D01*
X81454Y-54587D01*
X81358Y-54625D01*
X81341Y-54633D01*
X81313Y-54721D01*
X81269Y-54677D01*
X81255Y-54691D01*
X81255Y-52264D01*
X81448Y-52070D01*
X81475Y-52082D01*
X81552Y-52099D01*
X81630Y-52101D01*
X81708Y-52087D01*
X81781Y-52059D01*
X81847Y-52016D01*
X81904Y-51962D01*
X81949Y-51898D01*
X81981Y-51826D01*
X81999Y-51750D01*
X82000Y-51660D01*
X81985Y-51583D01*
X81955Y-51511D01*
X81911Y-51445D01*
X81886Y-51420D01*
X81856Y-51390D01*
X81791Y-51346D01*
X81718Y-51315D01*
X81642Y-51299D01*
X81563Y-51299D01*
X81486Y-51314D01*
X81413Y-51343D01*
X81347Y-51386D01*
X81291Y-51441D01*
X81247Y-51506D01*
X81216Y-51578D01*
X81200Y-51655D01*
X81199Y-51733D01*
X81213Y-51810D01*
X81229Y-51851D01*
X80990Y-52090D01*
X80981Y-52101D01*
X80972Y-52112D01*
X80971Y-52113D01*
X80971Y-52113D01*
X80964Y-52126D01*
X80957Y-52138D01*
X80957Y-52139D01*
X80956Y-52140D01*
X80952Y-52154D01*
X80948Y-52167D01*
X80948Y-52168D01*
X80948Y-52169D01*
X80946Y-52183D01*
X80945Y-52197D01*
X80945Y-52199D01*
X80945Y-52199D01*
X80945Y-52199D01*
X80945Y-52200D01*
X80945Y-54691D01*
X80930Y-54677D01*
X80886Y-54721D01*
X80858Y-54633D01*
X80762Y-54592D01*
X80661Y-54570D01*
X80557Y-54568D01*
X80454Y-54587D01*
X80358Y-54625D01*
X80341Y-54633D01*
X80313Y-54721D01*
X80269Y-54677D01*
X80255Y-54691D01*
X80255Y-52264D01*
X80448Y-52070D01*
X80475Y-52082D01*
X80552Y-52099D01*
X80630Y-52101D01*
X80708Y-52087D01*
X80781Y-52059D01*
X80847Y-52016D01*
X80904Y-51962D01*
X80949Y-51898D01*
X80981Y-51826D01*
X80999Y-51750D01*
X81000Y-51660D01*
X80985Y-51583D01*
X80955Y-51511D01*
X80911Y-51445D01*
X80886Y-51420D01*
X80856Y-51390D01*
X80791Y-51346D01*
X80718Y-51315D01*
X80642Y-51299D01*
X80563Y-51299D01*
X80486Y-51314D01*
X80428Y-51337D01*
X80235Y-51144D01*
X80235Y-51088D01*
X80269Y-51122D01*
X80313Y-51078D01*
X80341Y-51166D01*
X80437Y-51207D01*
X80538Y-51229D01*
X80642Y-51231D01*
X80745Y-51212D01*
X80841Y-51174D01*
X80858Y-51166D01*
X80886Y-51078D01*
X80600Y-50791D01*
X80594Y-50797D01*
X80502Y-50705D01*
X80508Y-50700D01*
X80221Y-50413D01*
X80207Y-50418D01*
X80204Y-50415D01*
X80196Y-50405D01*
X80195Y-50404D01*
X80195Y-50404D01*
X80195Y-50404D01*
X80195Y-50404D01*
X79645Y-49854D01*
X79635Y-49846D01*
X79626Y-49838D01*
X79625Y-49838D01*
X79625Y-49837D01*
X79619Y-49835D01*
X81244Y-49835D01*
X81578Y-50169D01*
X81557Y-50168D01*
X81454Y-50187D01*
X81358Y-50225D01*
X81341Y-50233D01*
X81313Y-50321D01*
X81600Y-50608D01*
X81605Y-50602D01*
X81697Y-50694D01*
X81691Y-50700D01*
X81697Y-50705D01*
X81605Y-50797D01*
X81600Y-50791D01*
X81508Y-50883D01*
X81508Y-50700D01*
X81221Y-50413D01*
X81133Y-50441D01*
X81099Y-50521D01*
X81074Y-50458D01*
X81066Y-50441D01*
X80978Y-50413D01*
X80886Y-50505D01*
X80886Y-50321D01*
X80858Y-50233D01*
X80762Y-50192D01*
X80661Y-50170D01*
X80557Y-50168D01*
X80454Y-50187D01*
X80358Y-50225D01*
X80341Y-50233D01*
X80313Y-50321D01*
X80600Y-50608D01*
X80886Y-50321D01*
X80886Y-50505D01*
X80691Y-50700D01*
X80978Y-50986D01*
X81066Y-50958D01*
X81100Y-50878D01*
X81125Y-50941D01*
X81133Y-50958D01*
X81221Y-50986D01*
X81508Y-50700D01*
X81508Y-50883D01*
X81313Y-51078D01*
X81341Y-51166D01*
X81437Y-51207D01*
X81538Y-51229D01*
X81642Y-51231D01*
X81745Y-51212D01*
X81841Y-51174D01*
X81858Y-51166D01*
X81886Y-51078D01*
X81886Y-51078D01*
X81930Y-51122D01*
X81965Y-51088D01*
X81965Y-51200D01*
X81966Y-51212D01*
X81967Y-51224D01*
X81967Y-51225D01*
X81967Y-51226D01*
X81971Y-51238D01*
X81974Y-51250D01*
X81974Y-51250D01*
X81975Y-51251D01*
X81981Y-51262D01*
X81986Y-51273D01*
X81987Y-51274D01*
X81987Y-51274D01*
X81995Y-51284D01*
X82003Y-51294D01*
X82004Y-51295D01*
X82004Y-51295D01*
X82004Y-51295D01*
X82004Y-51295D01*
X82237Y-51528D01*
G54D10*
G36*
X83775Y-56593D02*
X83758Y-56769D01*
X83708Y-56933D01*
X83628Y-57084D01*
X83520Y-57216D01*
X83389Y-57325D01*
X83238Y-57406D01*
X83131Y-57439D01*
X83131Y-55057D01*
X83131Y-50657D01*
X83112Y-50554D01*
X83074Y-50458D01*
X83066Y-50441D01*
X82978Y-50413D01*
X82886Y-50505D01*
X82886Y-50321D01*
X82858Y-50233D01*
X82762Y-50192D01*
X82661Y-50170D01*
X82557Y-50168D01*
X82454Y-50187D01*
X82358Y-50225D01*
X82341Y-50233D01*
X82313Y-50321D01*
X82600Y-50608D01*
X82886Y-50321D01*
X82886Y-50505D01*
X82691Y-50700D01*
X82978Y-50986D01*
X83066Y-50958D01*
X83107Y-50862D01*
X83129Y-50761D01*
X83131Y-50657D01*
X83131Y-55057D01*
X83112Y-54954D01*
X83074Y-54858D01*
X83066Y-54841D01*
X82978Y-54813D01*
X82886Y-54905D01*
X82691Y-55100D01*
X82978Y-55386D01*
X83066Y-55358D01*
X83107Y-55262D01*
X83129Y-55161D01*
X83131Y-55057D01*
X83131Y-57439D01*
X83075Y-57456D01*
X83000Y-57464D01*
X83000Y-56060D01*
X82985Y-55983D01*
X82955Y-55911D01*
X82911Y-55845D01*
X82886Y-55820D01*
X82856Y-55790D01*
X82791Y-55746D01*
X82718Y-55715D01*
X82642Y-55699D01*
X82563Y-55699D01*
X82486Y-55714D01*
X82448Y-55729D01*
X82255Y-55535D01*
X82255Y-55508D01*
X82269Y-55522D01*
X82313Y-55478D01*
X82341Y-55566D01*
X82437Y-55607D01*
X82538Y-55629D01*
X82642Y-55631D01*
X82745Y-55612D01*
X82841Y-55574D01*
X82858Y-55566D01*
X82886Y-55478D01*
X82600Y-55191D01*
X82594Y-55197D01*
X82502Y-55105D01*
X82508Y-55100D01*
X82502Y-55094D01*
X82594Y-55002D01*
X82600Y-55008D01*
X82886Y-54721D01*
X82858Y-54633D01*
X82762Y-54592D01*
X82661Y-54570D01*
X82557Y-54568D01*
X82454Y-54587D01*
X82358Y-54625D01*
X82341Y-54633D01*
X82313Y-54721D01*
X82269Y-54677D01*
X82255Y-54691D01*
X82255Y-52264D01*
X82448Y-52070D01*
X82475Y-52082D01*
X82552Y-52099D01*
X82630Y-52101D01*
X82708Y-52087D01*
X82781Y-52059D01*
X82847Y-52016D01*
X82904Y-51962D01*
X82949Y-51898D01*
X82981Y-51826D01*
X82999Y-51750D01*
X83000Y-51660D01*
X82985Y-51583D01*
X82955Y-51511D01*
X82911Y-51445D01*
X82886Y-51420D01*
X82856Y-51390D01*
X82791Y-51346D01*
X82718Y-51315D01*
X82642Y-51299D01*
X82563Y-51299D01*
X82486Y-51314D01*
X82428Y-51337D01*
X82235Y-51144D01*
X82235Y-51088D01*
X82269Y-51122D01*
X82313Y-51078D01*
X82341Y-51166D01*
X82437Y-51207D01*
X82538Y-51229D01*
X82642Y-51231D01*
X82745Y-51212D01*
X82841Y-51174D01*
X82858Y-51166D01*
X82886Y-51078D01*
X82600Y-50791D01*
X82594Y-50797D01*
X82502Y-50705D01*
X82508Y-50700D01*
X82221Y-50413D01*
X82207Y-50418D01*
X82204Y-50415D01*
X82196Y-50405D01*
X82195Y-50404D01*
X82195Y-50404D01*
X82195Y-50404D01*
X82195Y-50404D01*
X81395Y-49604D01*
X81385Y-49596D01*
X81376Y-49588D01*
X81375Y-49588D01*
X81375Y-49587D01*
X81364Y-49581D01*
X81353Y-49575D01*
X81352Y-49575D01*
X81351Y-49575D01*
X81339Y-49571D01*
X81328Y-49567D01*
X81327Y-49567D01*
X81326Y-49567D01*
X81314Y-49566D01*
X81301Y-49565D01*
X81300Y-49565D01*
X81300Y-49565D01*
X81300Y-49565D01*
X81300Y-49565D01*
X78755Y-49565D01*
X77069Y-47878D01*
X77079Y-47835D01*
X77080Y-47772D01*
X77069Y-47718D01*
X77048Y-47667D01*
X77018Y-47622D01*
X76979Y-47583D01*
X76933Y-47552D01*
X76883Y-47531D01*
X76829Y-47520D01*
X76774Y-47519D01*
X76720Y-47530D01*
X76669Y-47550D01*
X76623Y-47580D01*
X76584Y-47619D01*
X76553Y-47664D01*
X76531Y-47714D01*
X76527Y-47736D01*
X76210Y-47419D01*
X76210Y-47184D01*
X76206Y-47164D01*
X76198Y-47145D01*
X76186Y-47128D01*
X76172Y-47113D01*
X76155Y-47102D01*
X76136Y-47094D01*
X76116Y-47090D01*
X76095Y-47089D01*
X75784Y-47089D01*
X75764Y-47093D01*
X75745Y-47101D01*
X75728Y-47113D01*
X75713Y-47127D01*
X75702Y-47144D01*
X75700Y-47149D01*
X75698Y-47145D01*
X75686Y-47128D01*
X75672Y-47113D01*
X75655Y-47102D01*
X75636Y-47094D01*
X75616Y-47090D01*
X75595Y-47089D01*
X75284Y-47089D01*
X75264Y-47093D01*
X75245Y-47101D01*
X75228Y-47113D01*
X75213Y-47127D01*
X75202Y-47144D01*
X75200Y-47149D01*
X75198Y-47145D01*
X75186Y-47128D01*
X75172Y-47113D01*
X75155Y-47102D01*
X75136Y-47094D01*
X75116Y-47090D01*
X75095Y-47089D01*
X74784Y-47089D01*
X74764Y-47093D01*
X74745Y-47101D01*
X74728Y-47113D01*
X74713Y-47127D01*
X74702Y-47144D01*
X74700Y-47149D01*
X74698Y-47145D01*
X74686Y-47128D01*
X74672Y-47113D01*
X74655Y-47102D01*
X74636Y-47094D01*
X74616Y-47090D01*
X74595Y-47089D01*
X74284Y-47089D01*
X74264Y-47093D01*
X74245Y-47101D01*
X74228Y-47113D01*
X74213Y-47127D01*
X74202Y-47144D01*
X74200Y-47149D01*
X74198Y-47145D01*
X74186Y-47128D01*
X74172Y-47113D01*
X74155Y-47102D01*
X74136Y-47094D01*
X74116Y-47090D01*
X74095Y-47089D01*
X73784Y-47089D01*
X73764Y-47093D01*
X73745Y-47101D01*
X73728Y-47113D01*
X73713Y-47127D01*
X73702Y-47144D01*
X73694Y-47163D01*
X73690Y-47183D01*
X73689Y-47204D01*
X73689Y-47515D01*
X73693Y-47535D01*
X73701Y-47554D01*
X73713Y-47571D01*
X73727Y-47586D01*
X73744Y-47597D01*
X73749Y-47599D01*
X73745Y-47601D01*
X73728Y-47613D01*
X73713Y-47627D01*
X73702Y-47644D01*
X73694Y-47663D01*
X73690Y-47683D01*
X73689Y-47704D01*
X73689Y-48015D01*
X73693Y-48035D01*
X73701Y-48054D01*
X73713Y-48071D01*
X73727Y-48086D01*
X73744Y-48097D01*
X73763Y-48105D01*
X73783Y-48109D01*
X73804Y-48110D01*
X74084Y-48110D01*
X74087Y-48117D01*
X74113Y-48155D01*
X74145Y-48187D01*
X74184Y-48213D01*
X74226Y-48231D01*
X74271Y-48240D01*
X74326Y-48240D01*
X74385Y-48181D01*
X74385Y-47915D01*
X74377Y-47915D01*
X74377Y-47785D01*
X74385Y-47785D01*
X74385Y-47777D01*
X74515Y-47777D01*
X74515Y-47785D01*
X74522Y-47785D01*
X74522Y-47915D01*
X74515Y-47915D01*
X74515Y-48181D01*
X74573Y-48240D01*
X74628Y-48240D01*
X74673Y-48231D01*
X74715Y-48213D01*
X74754Y-48187D01*
X74786Y-48155D01*
X74812Y-48117D01*
X74815Y-48110D01*
X75115Y-48110D01*
X75135Y-48106D01*
X75154Y-48098D01*
X75171Y-48086D01*
X75186Y-48072D01*
X75197Y-48055D01*
X75199Y-48050D01*
X75201Y-48054D01*
X75213Y-48071D01*
X75227Y-48086D01*
X75244Y-48097D01*
X75263Y-48105D01*
X75283Y-48109D01*
X75304Y-48110D01*
X75565Y-48110D01*
X75565Y-49244D01*
X75078Y-49730D01*
X75029Y-49720D01*
X74974Y-49719D01*
X74920Y-49730D01*
X74869Y-49750D01*
X74823Y-49780D01*
X74784Y-49819D01*
X74753Y-49864D01*
X74731Y-49914D01*
X74720Y-49968D01*
X74719Y-50023D01*
X74729Y-50077D01*
X74749Y-50128D01*
X74779Y-50174D01*
X74817Y-50214D01*
X74825Y-50219D01*
X74762Y-50192D01*
X74661Y-50170D01*
X74557Y-50168D01*
X74454Y-50187D01*
X74358Y-50225D01*
X74341Y-50233D01*
X74313Y-50321D01*
X74600Y-50608D01*
X74605Y-50602D01*
X74697Y-50694D01*
X74691Y-50700D01*
X74697Y-50705D01*
X74605Y-50797D01*
X74600Y-50791D01*
X74508Y-50883D01*
X74508Y-50700D01*
X74221Y-50413D01*
X74133Y-50441D01*
X74092Y-50537D01*
X74070Y-50638D01*
X74068Y-50742D01*
X74087Y-50845D01*
X74125Y-50941D01*
X74133Y-50958D01*
X74221Y-50986D01*
X74508Y-50700D01*
X74508Y-50883D01*
X74313Y-51078D01*
X74341Y-51166D01*
X74437Y-51207D01*
X74538Y-51229D01*
X74642Y-51231D01*
X74745Y-51212D01*
X74841Y-51174D01*
X74858Y-51166D01*
X74886Y-51078D01*
X74886Y-51078D01*
X74930Y-51122D01*
X74965Y-51088D01*
X74965Y-51144D01*
X74886Y-51222D01*
X74771Y-51337D01*
X74718Y-51315D01*
X74642Y-51299D01*
X74563Y-51299D01*
X74486Y-51314D01*
X74413Y-51343D01*
X74347Y-51386D01*
X74291Y-51441D01*
X74247Y-51506D01*
X74216Y-51578D01*
X74200Y-51655D01*
X74199Y-51733D01*
X74213Y-51810D01*
X74229Y-51851D01*
X73990Y-52090D01*
X73981Y-52101D01*
X73972Y-52112D01*
X73971Y-52113D01*
X73971Y-52113D01*
X73964Y-52126D01*
X73957Y-52138D01*
X73957Y-52139D01*
X73956Y-52140D01*
X73952Y-52154D01*
X73948Y-52167D01*
X73948Y-52168D01*
X73948Y-52169D01*
X73946Y-52183D01*
X73945Y-52197D01*
X73945Y-52199D01*
X73945Y-52199D01*
X73945Y-52199D01*
X73945Y-52200D01*
X73945Y-54895D01*
X73911Y-54845D01*
X73856Y-54790D01*
X73791Y-54746D01*
X73718Y-54715D01*
X73642Y-54699D01*
X73563Y-54699D01*
X73486Y-54714D01*
X73413Y-54743D01*
X73347Y-54786D01*
X73291Y-54841D01*
X73255Y-54895D01*
X73255Y-52264D01*
X73448Y-52070D01*
X73475Y-52082D01*
X73552Y-52099D01*
X73630Y-52101D01*
X73708Y-52087D01*
X73781Y-52059D01*
X73847Y-52016D01*
X73904Y-51962D01*
X73949Y-51898D01*
X73981Y-51826D01*
X73999Y-51750D01*
X74000Y-51660D01*
X74000Y-50660D01*
X73985Y-50583D01*
X73955Y-50511D01*
X73911Y-50445D01*
X73856Y-50390D01*
X73791Y-50346D01*
X73718Y-50315D01*
X73642Y-50299D01*
X73563Y-50299D01*
X73486Y-50314D01*
X73413Y-50343D01*
X73347Y-50386D01*
X73291Y-50441D01*
X73247Y-50506D01*
X73216Y-50578D01*
X73200Y-50655D01*
X73199Y-50733D01*
X73213Y-50810D01*
X73242Y-50883D01*
X73284Y-50949D01*
X73339Y-51006D01*
X73403Y-51051D01*
X73475Y-51082D01*
X73552Y-51099D01*
X73630Y-51101D01*
X73708Y-51087D01*
X73781Y-51059D01*
X73847Y-51016D01*
X73904Y-50962D01*
X73949Y-50898D01*
X73981Y-50826D01*
X73999Y-50750D01*
X74000Y-50660D01*
X74000Y-51660D01*
X73985Y-51583D01*
X73955Y-51511D01*
X73911Y-51445D01*
X73856Y-51390D01*
X73791Y-51346D01*
X73718Y-51315D01*
X73642Y-51299D01*
X73563Y-51299D01*
X73486Y-51314D01*
X73413Y-51343D01*
X73347Y-51386D01*
X73291Y-51441D01*
X73247Y-51506D01*
X73216Y-51578D01*
X73200Y-51655D01*
X73199Y-51733D01*
X73213Y-51810D01*
X73229Y-51851D01*
X72990Y-52090D01*
X72981Y-52101D01*
X72972Y-52112D01*
X72971Y-52113D01*
X72971Y-52113D01*
X72964Y-52126D01*
X72957Y-52138D01*
X72957Y-52139D01*
X72956Y-52140D01*
X72952Y-52154D01*
X72948Y-52167D01*
X72948Y-52168D01*
X72948Y-52169D01*
X72946Y-52183D01*
X72945Y-52197D01*
X72945Y-52199D01*
X72945Y-52199D01*
X72945Y-52199D01*
X72945Y-52200D01*
X72945Y-55600D01*
X72946Y-55614D01*
X72947Y-55628D01*
X72947Y-55629D01*
X72947Y-55630D01*
X72952Y-55643D01*
X72956Y-55657D01*
X72956Y-55658D01*
X72956Y-55659D01*
X72963Y-55671D01*
X72970Y-55684D01*
X72970Y-55685D01*
X72970Y-55685D01*
X72979Y-55696D01*
X72988Y-55708D01*
X72989Y-55709D01*
X72990Y-55709D01*
X72990Y-55709D01*
X72990Y-55709D01*
X73229Y-55948D01*
X73216Y-55978D01*
X73200Y-56055D01*
X73199Y-56133D01*
X73213Y-56210D01*
X73242Y-56283D01*
X73284Y-56349D01*
X73339Y-56406D01*
X73403Y-56451D01*
X73475Y-56482D01*
X73552Y-56499D01*
X73630Y-56501D01*
X73708Y-56487D01*
X73781Y-56459D01*
X73847Y-56416D01*
X73904Y-56362D01*
X73949Y-56298D01*
X73981Y-56226D01*
X73999Y-56150D01*
X74000Y-56060D01*
X73985Y-55983D01*
X73955Y-55911D01*
X73911Y-55845D01*
X73856Y-55790D01*
X73791Y-55746D01*
X73718Y-55715D01*
X73642Y-55699D01*
X73563Y-55699D01*
X73486Y-55714D01*
X73448Y-55729D01*
X73255Y-55535D01*
X73255Y-55303D01*
X73284Y-55349D01*
X73339Y-55406D01*
X73403Y-55451D01*
X73475Y-55482D01*
X73552Y-55499D01*
X73630Y-55501D01*
X73708Y-55487D01*
X73781Y-55459D01*
X73847Y-55416D01*
X73904Y-55362D01*
X73945Y-55305D01*
X73945Y-55600D01*
X73946Y-55614D01*
X73947Y-55628D01*
X73947Y-55629D01*
X73947Y-55630D01*
X73952Y-55643D01*
X73956Y-55657D01*
X73956Y-55658D01*
X73956Y-55659D01*
X73963Y-55671D01*
X73970Y-55684D01*
X73970Y-55685D01*
X73970Y-55685D01*
X73979Y-55696D01*
X73988Y-55708D01*
X73989Y-55709D01*
X73990Y-55709D01*
X73990Y-55709D01*
X73990Y-55709D01*
X74229Y-55948D01*
X74216Y-55978D01*
X74200Y-56055D01*
X74199Y-56133D01*
X74213Y-56210D01*
X74242Y-56283D01*
X74284Y-56349D01*
X74339Y-56406D01*
X74403Y-56451D01*
X74475Y-56482D01*
X74552Y-56499D01*
X74630Y-56501D01*
X74708Y-56487D01*
X74781Y-56459D01*
X74847Y-56416D01*
X74904Y-56362D01*
X74949Y-56298D01*
X74981Y-56226D01*
X74999Y-56150D01*
X75000Y-56060D01*
X74985Y-55983D01*
X74955Y-55911D01*
X74911Y-55845D01*
X74886Y-55820D01*
X74856Y-55790D01*
X74791Y-55746D01*
X74718Y-55715D01*
X74642Y-55699D01*
X74563Y-55699D01*
X74486Y-55714D01*
X74448Y-55729D01*
X74255Y-55535D01*
X74255Y-55508D01*
X74269Y-55522D01*
X74313Y-55478D01*
X74341Y-55566D01*
X74437Y-55607D01*
X74538Y-55629D01*
X74642Y-55631D01*
X74745Y-55612D01*
X74841Y-55574D01*
X74858Y-55566D01*
X74886Y-55478D01*
X74886Y-55478D01*
X74930Y-55522D01*
X74945Y-55508D01*
X74945Y-55600D01*
X74946Y-55614D01*
X74947Y-55628D01*
X74947Y-55629D01*
X74947Y-55630D01*
X74952Y-55643D01*
X74956Y-55657D01*
X74956Y-55658D01*
X74956Y-55659D01*
X74963Y-55671D01*
X74970Y-55684D01*
X74970Y-55685D01*
X74970Y-55685D01*
X74979Y-55696D01*
X74988Y-55708D01*
X74989Y-55709D01*
X74990Y-55709D01*
X74990Y-55709D01*
X74990Y-55709D01*
X75229Y-55948D01*
X75216Y-55978D01*
X75200Y-56055D01*
X75199Y-56133D01*
X75213Y-56210D01*
X75242Y-56283D01*
X75284Y-56349D01*
X75339Y-56406D01*
X75403Y-56451D01*
X75475Y-56482D01*
X75552Y-56499D01*
X75630Y-56501D01*
X75708Y-56487D01*
X75781Y-56459D01*
X75847Y-56416D01*
X75904Y-56362D01*
X75949Y-56298D01*
X75981Y-56226D01*
X75999Y-56150D01*
X76000Y-56060D01*
X75985Y-55983D01*
X75955Y-55911D01*
X75911Y-55845D01*
X75886Y-55820D01*
X75856Y-55790D01*
X75791Y-55746D01*
X75718Y-55715D01*
X75642Y-55699D01*
X75563Y-55699D01*
X75486Y-55714D01*
X75448Y-55729D01*
X75255Y-55535D01*
X75255Y-55508D01*
X75269Y-55522D01*
X75313Y-55478D01*
X75341Y-55566D01*
X75437Y-55607D01*
X75538Y-55629D01*
X75642Y-55631D01*
X75745Y-55612D01*
X75841Y-55574D01*
X75858Y-55566D01*
X75886Y-55478D01*
X75886Y-55478D01*
X75930Y-55522D01*
X75945Y-55508D01*
X75945Y-55600D01*
X75946Y-55614D01*
X75947Y-55628D01*
X75947Y-55629D01*
X75947Y-55630D01*
X75952Y-55643D01*
X75956Y-55657D01*
X75956Y-55658D01*
X75956Y-55659D01*
X75963Y-55671D01*
X75970Y-55684D01*
X75970Y-55685D01*
X75970Y-55685D01*
X75979Y-55696D01*
X75988Y-55708D01*
X75989Y-55709D01*
X75990Y-55709D01*
X75990Y-55709D01*
X75990Y-55709D01*
X76229Y-55948D01*
X76216Y-55978D01*
X76200Y-56055D01*
X76199Y-56133D01*
X76213Y-56210D01*
X76242Y-56283D01*
X76284Y-56349D01*
X76339Y-56406D01*
X76403Y-56451D01*
X76475Y-56482D01*
X76552Y-56499D01*
X76630Y-56501D01*
X76708Y-56487D01*
X76781Y-56459D01*
X76847Y-56416D01*
X76904Y-56362D01*
X76949Y-56298D01*
X76981Y-56226D01*
X76999Y-56150D01*
X77000Y-56060D01*
X76985Y-55983D01*
X76955Y-55911D01*
X76911Y-55845D01*
X76886Y-55820D01*
X76856Y-55790D01*
X76791Y-55746D01*
X76718Y-55715D01*
X76642Y-55699D01*
X76563Y-55699D01*
X76486Y-55714D01*
X76448Y-55729D01*
X76255Y-55535D01*
X76255Y-55508D01*
X76269Y-55522D01*
X76313Y-55478D01*
X76341Y-55566D01*
X76437Y-55607D01*
X76538Y-55629D01*
X76642Y-55631D01*
X76745Y-55612D01*
X76841Y-55574D01*
X76858Y-55566D01*
X76886Y-55478D01*
X76886Y-55478D01*
X76930Y-55522D01*
X76945Y-55508D01*
X76945Y-55600D01*
X76946Y-55614D01*
X76947Y-55628D01*
X76947Y-55629D01*
X76947Y-55630D01*
X76952Y-55643D01*
X76956Y-55657D01*
X76956Y-55658D01*
X76956Y-55659D01*
X76963Y-55671D01*
X76970Y-55684D01*
X76970Y-55685D01*
X76970Y-55685D01*
X76979Y-55696D01*
X76988Y-55708D01*
X76989Y-55709D01*
X76990Y-55709D01*
X76990Y-55709D01*
X76990Y-55709D01*
X77229Y-55948D01*
X77216Y-55978D01*
X77200Y-56055D01*
X77199Y-56133D01*
X77213Y-56210D01*
X77242Y-56283D01*
X77284Y-56349D01*
X77339Y-56406D01*
X77403Y-56451D01*
X77475Y-56482D01*
X77552Y-56499D01*
X77630Y-56501D01*
X77708Y-56487D01*
X77781Y-56459D01*
X77847Y-56416D01*
X77904Y-56362D01*
X77949Y-56298D01*
X77981Y-56226D01*
X77999Y-56150D01*
X78000Y-56060D01*
X77985Y-55983D01*
X77955Y-55911D01*
X77911Y-55845D01*
X77886Y-55820D01*
X77856Y-55790D01*
X77791Y-55746D01*
X77718Y-55715D01*
X77642Y-55699D01*
X77563Y-55699D01*
X77486Y-55714D01*
X77448Y-55729D01*
X77255Y-55535D01*
X77255Y-55508D01*
X77269Y-55522D01*
X77313Y-55478D01*
X77341Y-55566D01*
X77437Y-55607D01*
X77538Y-55629D01*
X77642Y-55631D01*
X77745Y-55612D01*
X77841Y-55574D01*
X77858Y-55566D01*
X77886Y-55478D01*
X77886Y-55478D01*
X77930Y-55522D01*
X77945Y-55508D01*
X77945Y-55600D01*
X77946Y-55614D01*
X77947Y-55628D01*
X77947Y-55629D01*
X77947Y-55630D01*
X77952Y-55643D01*
X77956Y-55657D01*
X77956Y-55658D01*
X77956Y-55659D01*
X77963Y-55671D01*
X77970Y-55684D01*
X77970Y-55685D01*
X77970Y-55685D01*
X77979Y-55696D01*
X77988Y-55708D01*
X77989Y-55709D01*
X77990Y-55709D01*
X77990Y-55709D01*
X77990Y-55709D01*
X78229Y-55948D01*
X78216Y-55978D01*
X78200Y-56055D01*
X78199Y-56133D01*
X78213Y-56210D01*
X78242Y-56283D01*
X78284Y-56349D01*
X78339Y-56406D01*
X78403Y-56451D01*
X78475Y-56482D01*
X78552Y-56499D01*
X78630Y-56501D01*
X78708Y-56487D01*
X78781Y-56459D01*
X78847Y-56416D01*
X78904Y-56362D01*
X78949Y-56298D01*
X78981Y-56226D01*
X78999Y-56150D01*
X79000Y-56060D01*
X78985Y-55983D01*
X78955Y-55911D01*
X78911Y-55845D01*
X78886Y-55820D01*
X78856Y-55790D01*
X78791Y-55746D01*
X78718Y-55715D01*
X78642Y-55699D01*
X78563Y-55699D01*
X78486Y-55714D01*
X78448Y-55729D01*
X78255Y-55535D01*
X78255Y-55508D01*
X78269Y-55522D01*
X78313Y-55478D01*
X78341Y-55566D01*
X78437Y-55607D01*
X78538Y-55629D01*
X78642Y-55631D01*
X78745Y-55612D01*
X78841Y-55574D01*
X78858Y-55566D01*
X78886Y-55478D01*
X78886Y-55478D01*
X78930Y-55522D01*
X78945Y-55508D01*
X78945Y-55600D01*
X78946Y-55614D01*
X78947Y-55628D01*
X78947Y-55629D01*
X78947Y-55630D01*
X78952Y-55643D01*
X78956Y-55657D01*
X78956Y-55658D01*
X78956Y-55659D01*
X78963Y-55671D01*
X78970Y-55684D01*
X78970Y-55685D01*
X78970Y-55685D01*
X78979Y-55696D01*
X78988Y-55708D01*
X78989Y-55709D01*
X78990Y-55709D01*
X78990Y-55709D01*
X78990Y-55709D01*
X79229Y-55948D01*
X79216Y-55978D01*
X79200Y-56055D01*
X79199Y-56133D01*
X79213Y-56210D01*
X79242Y-56283D01*
X79284Y-56349D01*
X79339Y-56406D01*
X79403Y-56451D01*
X79475Y-56482D01*
X79552Y-56499D01*
X79630Y-56501D01*
X79708Y-56487D01*
X79781Y-56459D01*
X79847Y-56416D01*
X79904Y-56362D01*
X79949Y-56298D01*
X79981Y-56226D01*
X79999Y-56150D01*
X80000Y-56060D01*
X79985Y-55983D01*
X79955Y-55911D01*
X79911Y-55845D01*
X79886Y-55820D01*
X79856Y-55790D01*
X79791Y-55746D01*
X79718Y-55715D01*
X79642Y-55699D01*
X79563Y-55699D01*
X79486Y-55714D01*
X79448Y-55729D01*
X79255Y-55535D01*
X79255Y-55508D01*
X79269Y-55522D01*
X79313Y-55478D01*
X79341Y-55566D01*
X79437Y-55607D01*
X79538Y-55629D01*
X79642Y-55631D01*
X79745Y-55612D01*
X79841Y-55574D01*
X79858Y-55566D01*
X79886Y-55478D01*
X79886Y-55478D01*
X79930Y-55522D01*
X79945Y-55508D01*
X79945Y-55600D01*
X79946Y-55614D01*
X79947Y-55628D01*
X79947Y-55629D01*
X79947Y-55630D01*
X79952Y-55643D01*
X79956Y-55657D01*
X79956Y-55658D01*
X79956Y-55659D01*
X79963Y-55671D01*
X79970Y-55684D01*
X79970Y-55685D01*
X79970Y-55685D01*
X79979Y-55696D01*
X79988Y-55708D01*
X79989Y-55709D01*
X79990Y-55709D01*
X79990Y-55709D01*
X79990Y-55709D01*
X80229Y-55948D01*
X80216Y-55978D01*
X80200Y-56055D01*
X80199Y-56133D01*
X80213Y-56210D01*
X80242Y-56283D01*
X80284Y-56349D01*
X80339Y-56406D01*
X80403Y-56451D01*
X80475Y-56482D01*
X80552Y-56499D01*
X80630Y-56501D01*
X80708Y-56487D01*
X80781Y-56459D01*
X80847Y-56416D01*
X80904Y-56362D01*
X80949Y-56298D01*
X80981Y-56226D01*
X80999Y-56150D01*
X81000Y-56060D01*
X80985Y-55983D01*
X80955Y-55911D01*
X80911Y-55845D01*
X80886Y-55820D01*
X80856Y-55790D01*
X80791Y-55746D01*
X80718Y-55715D01*
X80642Y-55699D01*
X80563Y-55699D01*
X80486Y-55714D01*
X80448Y-55729D01*
X80255Y-55535D01*
X80255Y-55508D01*
X80269Y-55522D01*
X80313Y-55478D01*
X80341Y-55566D01*
X80437Y-55607D01*
X80538Y-55629D01*
X80642Y-55631D01*
X80745Y-55612D01*
X80841Y-55574D01*
X80858Y-55566D01*
X80886Y-55478D01*
X80886Y-55478D01*
X80930Y-55522D01*
X80945Y-55508D01*
X80945Y-55600D01*
X80946Y-55614D01*
X80947Y-55628D01*
X80947Y-55629D01*
X80947Y-55630D01*
X80952Y-55643D01*
X80956Y-55657D01*
X80956Y-55658D01*
X80956Y-55659D01*
X80963Y-55671D01*
X80970Y-55684D01*
X80970Y-55685D01*
X80970Y-55685D01*
X80979Y-55696D01*
X80988Y-55708D01*
X80989Y-55709D01*
X80990Y-55709D01*
X80990Y-55709D01*
X80990Y-55709D01*
X81229Y-55948D01*
X81216Y-55978D01*
X81200Y-56055D01*
X81199Y-56133D01*
X81213Y-56210D01*
X81242Y-56283D01*
X81284Y-56349D01*
X81339Y-56406D01*
X81403Y-56451D01*
X81475Y-56482D01*
X81552Y-56499D01*
X81630Y-56501D01*
X81708Y-56487D01*
X81781Y-56459D01*
X81847Y-56416D01*
X81904Y-56362D01*
X81949Y-56298D01*
X81981Y-56226D01*
X81999Y-56150D01*
X82000Y-56060D01*
X81985Y-55983D01*
X81955Y-55911D01*
X81911Y-55845D01*
X81886Y-55820D01*
X81856Y-55790D01*
X81791Y-55746D01*
X81718Y-55715D01*
X81642Y-55699D01*
X81563Y-55699D01*
X81486Y-55714D01*
X81448Y-55729D01*
X81255Y-55535D01*
X81255Y-55508D01*
X81269Y-55522D01*
X81313Y-55478D01*
X81341Y-55566D01*
X81437Y-55607D01*
X81538Y-55629D01*
X81642Y-55631D01*
X81745Y-55612D01*
X81841Y-55574D01*
X81858Y-55566D01*
X81886Y-55478D01*
X81886Y-55478D01*
X81930Y-55522D01*
X81945Y-55508D01*
X81945Y-55600D01*
X81946Y-55614D01*
X81947Y-55628D01*
X81947Y-55629D01*
X81947Y-55630D01*
X81952Y-55643D01*
X81956Y-55657D01*
X81956Y-55658D01*
X81956Y-55659D01*
X81963Y-55671D01*
X81970Y-55684D01*
X81970Y-55685D01*
X81970Y-55685D01*
X81979Y-55696D01*
X81988Y-55708D01*
X81989Y-55709D01*
X81990Y-55709D01*
X81990Y-55709D01*
X81990Y-55709D01*
X82229Y-55948D01*
X82216Y-55978D01*
X82200Y-56055D01*
X82199Y-56133D01*
X82213Y-56210D01*
X82242Y-56283D01*
X82284Y-56349D01*
X82339Y-56406D01*
X82403Y-56451D01*
X82475Y-56482D01*
X82552Y-56499D01*
X82630Y-56501D01*
X82708Y-56487D01*
X82781Y-56459D01*
X82847Y-56416D01*
X82904Y-56362D01*
X82949Y-56298D01*
X82981Y-56226D01*
X82999Y-56150D01*
X83000Y-56060D01*
X83000Y-57464D01*
X82900Y-57475D01*
X82899Y-57475D01*
X82000Y-57475D01*
X80000Y-57475D01*
X79000Y-57475D01*
X78000Y-57475D01*
X77000Y-57475D01*
X76000Y-57475D01*
X73400Y-57475D01*
X73399Y-57475D01*
X73215Y-57475D01*
X73047Y-57442D01*
X72888Y-57377D01*
X72745Y-57282D01*
X72623Y-57161D01*
X72526Y-57019D01*
X72460Y-56861D01*
X72424Y-56690D01*
X72424Y-56300D01*
X72424Y-47512D01*
X72458Y-47344D01*
X72523Y-47185D01*
X72619Y-47042D01*
X72740Y-46921D01*
X72882Y-46825D01*
X73041Y-46759D01*
X73209Y-46724D01*
X73386Y-46724D01*
X73388Y-46724D01*
X73393Y-46724D01*
X73398Y-46724D01*
X73400Y-46724D01*
X82893Y-46724D01*
X83069Y-46741D01*
X83233Y-46791D01*
X83384Y-46871D01*
X83516Y-46979D01*
X83625Y-47110D01*
X83706Y-47261D01*
X83756Y-47424D01*
X83775Y-47599D01*
X83775Y-47600D01*
X83775Y-56300D01*
X83775Y-56593D01*
X83775Y-56593D01*
G37*
G54D16*
X83775Y-56593D02*
X83758Y-56769D01*
X83708Y-56933D01*
X83628Y-57084D01*
X83520Y-57216D01*
X83389Y-57325D01*
X83238Y-57406D01*
X83131Y-57439D01*
X83131Y-55057D01*
X83131Y-50657D01*
X83112Y-50554D01*
X83074Y-50458D01*
X83066Y-50441D01*
X82978Y-50413D01*
X82886Y-50505D01*
X82886Y-50321D01*
X82858Y-50233D01*
X82762Y-50192D01*
X82661Y-50170D01*
X82557Y-50168D01*
X82454Y-50187D01*
X82358Y-50225D01*
X82341Y-50233D01*
X82313Y-50321D01*
X82600Y-50608D01*
X82886Y-50321D01*
X82886Y-50505D01*
X82691Y-50700D01*
X82978Y-50986D01*
X83066Y-50958D01*
X83107Y-50862D01*
X83129Y-50761D01*
X83131Y-50657D01*
X83131Y-55057D01*
X83112Y-54954D01*
X83074Y-54858D01*
X83066Y-54841D01*
X82978Y-54813D01*
X82886Y-54905D01*
X82691Y-55100D01*
X82978Y-55386D01*
X83066Y-55358D01*
X83107Y-55262D01*
X83129Y-55161D01*
X83131Y-55057D01*
X83131Y-57439D01*
X83075Y-57456D01*
X83000Y-57464D01*
X83000Y-56060D01*
X82985Y-55983D01*
X82955Y-55911D01*
X82911Y-55845D01*
X82886Y-55820D01*
X82856Y-55790D01*
X82791Y-55746D01*
X82718Y-55715D01*
X82642Y-55699D01*
X82563Y-55699D01*
X82486Y-55714D01*
X82448Y-55729D01*
X82255Y-55535D01*
X82255Y-55508D01*
X82269Y-55522D01*
X82313Y-55478D01*
X82341Y-55566D01*
X82437Y-55607D01*
X82538Y-55629D01*
X82642Y-55631D01*
X82745Y-55612D01*
X82841Y-55574D01*
X82858Y-55566D01*
X82886Y-55478D01*
X82600Y-55191D01*
X82594Y-55197D01*
X82502Y-55105D01*
X82508Y-55100D01*
X82502Y-55094D01*
X82594Y-55002D01*
X82600Y-55008D01*
X82886Y-54721D01*
X82858Y-54633D01*
X82762Y-54592D01*
X82661Y-54570D01*
X82557Y-54568D01*
X82454Y-54587D01*
X82358Y-54625D01*
X82341Y-54633D01*
X82313Y-54721D01*
X82269Y-54677D01*
X82255Y-54691D01*
X82255Y-52264D01*
X82448Y-52070D01*
X82475Y-52082D01*
X82552Y-52099D01*
X82630Y-52101D01*
X82708Y-52087D01*
X82781Y-52059D01*
X82847Y-52016D01*
X82904Y-51962D01*
X82949Y-51898D01*
X82981Y-51826D01*
X82999Y-51750D01*
X83000Y-51660D01*
X82985Y-51583D01*
X82955Y-51511D01*
X82911Y-51445D01*
X82886Y-51420D01*
X82856Y-51390D01*
X82791Y-51346D01*
X82718Y-51315D01*
X82642Y-51299D01*
X82563Y-51299D01*
X82486Y-51314D01*
X82428Y-51337D01*
X82235Y-51144D01*
X82235Y-51088D01*
X82269Y-51122D01*
X82313Y-51078D01*
X82341Y-51166D01*
X82437Y-51207D01*
X82538Y-51229D01*
X82642Y-51231D01*
X82745Y-51212D01*
X82841Y-51174D01*
X82858Y-51166D01*
X82886Y-51078D01*
X82600Y-50791D01*
X82594Y-50797D01*
X82502Y-50705D01*
X82508Y-50700D01*
X82221Y-50413D01*
X82207Y-50418D01*
X82204Y-50415D01*
X82196Y-50405D01*
X82195Y-50404D01*
X82195Y-50404D01*
X82195Y-50404D01*
X82195Y-50404D01*
X81395Y-49604D01*
X81385Y-49596D01*
X81376Y-49588D01*
X81375Y-49588D01*
X81375Y-49587D01*
X81364Y-49581D01*
X81353Y-49575D01*
X81352Y-49575D01*
X81351Y-49575D01*
X81339Y-49571D01*
X81328Y-49567D01*
X81327Y-49567D01*
X81326Y-49567D01*
X81314Y-49566D01*
X81301Y-49565D01*
X81300Y-49565D01*
X81300Y-49565D01*
X81300Y-49565D01*
X81300Y-49565D01*
X78755Y-49565D01*
X77069Y-47878D01*
X77079Y-47835D01*
X77080Y-47772D01*
X77069Y-47718D01*
X77048Y-47667D01*
X77018Y-47622D01*
X76979Y-47583D01*
X76933Y-47552D01*
X76883Y-47531D01*
X76829Y-47520D01*
X76774Y-47519D01*
X76720Y-47530D01*
X76669Y-47550D01*
X76623Y-47580D01*
X76584Y-47619D01*
X76553Y-47664D01*
X76531Y-47714D01*
X76527Y-47736D01*
X76210Y-47419D01*
X76210Y-47184D01*
X76206Y-47164D01*
X76198Y-47145D01*
X76186Y-47128D01*
X76172Y-47113D01*
X76155Y-47102D01*
X76136Y-47094D01*
X76116Y-47090D01*
X76095Y-47089D01*
X75784Y-47089D01*
X75764Y-47093D01*
X75745Y-47101D01*
X75728Y-47113D01*
X75713Y-47127D01*
X75702Y-47144D01*
X75700Y-47149D01*
X75698Y-47145D01*
X75686Y-47128D01*
X75672Y-47113D01*
X75655Y-47102D01*
X75636Y-47094D01*
X75616Y-47090D01*
X75595Y-47089D01*
X75284Y-47089D01*
X75264Y-47093D01*
X75245Y-47101D01*
X75228Y-47113D01*
X75213Y-47127D01*
X75202Y-47144D01*
X75200Y-47149D01*
X75198Y-47145D01*
X75186Y-47128D01*
X75172Y-47113D01*
X75155Y-47102D01*
X75136Y-47094D01*
X75116Y-47090D01*
X75095Y-47089D01*
X74784Y-47089D01*
X74764Y-47093D01*
X74745Y-47101D01*
X74728Y-47113D01*
X74713Y-47127D01*
X74702Y-47144D01*
X74700Y-47149D01*
X74698Y-47145D01*
X74686Y-47128D01*
X74672Y-47113D01*
X74655Y-47102D01*
X74636Y-47094D01*
X74616Y-47090D01*
X74595Y-47089D01*
X74284Y-47089D01*
X74264Y-47093D01*
X74245Y-47101D01*
X74228Y-47113D01*
X74213Y-47127D01*
X74202Y-47144D01*
X74200Y-47149D01*
X74198Y-47145D01*
X74186Y-47128D01*
X74172Y-47113D01*
X74155Y-47102D01*
X74136Y-47094D01*
X74116Y-47090D01*
X74095Y-47089D01*
X73784Y-47089D01*
X73764Y-47093D01*
X73745Y-47101D01*
X73728Y-47113D01*
X73713Y-47127D01*
X73702Y-47144D01*
X73694Y-47163D01*
X73690Y-47183D01*
X73689Y-47204D01*
X73689Y-47515D01*
X73693Y-47535D01*
X73701Y-47554D01*
X73713Y-47571D01*
X73727Y-47586D01*
X73744Y-47597D01*
X73749Y-47599D01*
X73745Y-47601D01*
X73728Y-47613D01*
X73713Y-47627D01*
X73702Y-47644D01*
X73694Y-47663D01*
X73690Y-47683D01*
X73689Y-47704D01*
X73689Y-48015D01*
X73693Y-48035D01*
X73701Y-48054D01*
X73713Y-48071D01*
X73727Y-48086D01*
X73744Y-48097D01*
X73763Y-48105D01*
X73783Y-48109D01*
X73804Y-48110D01*
X74084Y-48110D01*
X74087Y-48117D01*
X74113Y-48155D01*
X74145Y-48187D01*
X74184Y-48213D01*
X74226Y-48231D01*
X74271Y-48240D01*
X74326Y-48240D01*
X74385Y-48181D01*
X74385Y-47915D01*
X74377Y-47915D01*
X74377Y-47785D01*
X74385Y-47785D01*
X74385Y-47777D01*
X74515Y-47777D01*
X74515Y-47785D01*
X74522Y-47785D01*
X74522Y-47915D01*
X74515Y-47915D01*
X74515Y-48181D01*
X74573Y-48240D01*
X74628Y-48240D01*
X74673Y-48231D01*
X74715Y-48213D01*
X74754Y-48187D01*
X74786Y-48155D01*
X74812Y-48117D01*
X74815Y-48110D01*
X75115Y-48110D01*
X75135Y-48106D01*
X75154Y-48098D01*
X75171Y-48086D01*
X75186Y-48072D01*
X75197Y-48055D01*
X75199Y-48050D01*
X75201Y-48054D01*
X75213Y-48071D01*
X75227Y-48086D01*
X75244Y-48097D01*
X75263Y-48105D01*
X75283Y-48109D01*
X75304Y-48110D01*
X75565Y-48110D01*
X75565Y-49244D01*
X75078Y-49730D01*
X75029Y-49720D01*
X74974Y-49719D01*
X74920Y-49730D01*
X74869Y-49750D01*
X74823Y-49780D01*
X74784Y-49819D01*
X74753Y-49864D01*
X74731Y-49914D01*
X74720Y-49968D01*
X74719Y-50023D01*
X74729Y-50077D01*
X74749Y-50128D01*
X74779Y-50174D01*
X74817Y-50214D01*
X74825Y-50219D01*
X74762Y-50192D01*
X74661Y-50170D01*
X74557Y-50168D01*
X74454Y-50187D01*
X74358Y-50225D01*
X74341Y-50233D01*
X74313Y-50321D01*
X74600Y-50608D01*
X74605Y-50602D01*
X74697Y-50694D01*
X74691Y-50700D01*
X74697Y-50705D01*
X74605Y-50797D01*
X74600Y-50791D01*
X74508Y-50883D01*
X74508Y-50700D01*
X74221Y-50413D01*
X74133Y-50441D01*
X74092Y-50537D01*
X74070Y-50638D01*
X74068Y-50742D01*
X74087Y-50845D01*
X74125Y-50941D01*
X74133Y-50958D01*
X74221Y-50986D01*
X74508Y-50700D01*
X74508Y-50883D01*
X74313Y-51078D01*
X74341Y-51166D01*
X74437Y-51207D01*
X74538Y-51229D01*
X74642Y-51231D01*
X74745Y-51212D01*
X74841Y-51174D01*
X74858Y-51166D01*
X74886Y-51078D01*
X74886Y-51078D01*
X74930Y-51122D01*
X74965Y-51088D01*
X74965Y-51144D01*
X74886Y-51222D01*
X74771Y-51337D01*
X74718Y-51315D01*
X74642Y-51299D01*
X74563Y-51299D01*
X74486Y-51314D01*
X74413Y-51343D01*
X74347Y-51386D01*
X74291Y-51441D01*
X74247Y-51506D01*
X74216Y-51578D01*
X74200Y-51655D01*
X74199Y-51733D01*
X74213Y-51810D01*
X74229Y-51851D01*
X73990Y-52090D01*
X73981Y-52101D01*
X73972Y-52112D01*
X73971Y-52113D01*
X73971Y-52113D01*
X73964Y-52126D01*
X73957Y-52138D01*
X73957Y-52139D01*
X73956Y-52140D01*
X73952Y-52154D01*
X73948Y-52167D01*
X73948Y-52168D01*
X73948Y-52169D01*
X73946Y-52183D01*
X73945Y-52197D01*
X73945Y-52199D01*
X73945Y-52199D01*
X73945Y-52199D01*
X73945Y-52200D01*
X73945Y-54895D01*
X73911Y-54845D01*
X73856Y-54790D01*
X73791Y-54746D01*
X73718Y-54715D01*
X73642Y-54699D01*
X73563Y-54699D01*
X73486Y-54714D01*
X73413Y-54743D01*
X73347Y-54786D01*
X73291Y-54841D01*
X73255Y-54895D01*
X73255Y-52264D01*
X73448Y-52070D01*
X73475Y-52082D01*
X73552Y-52099D01*
X73630Y-52101D01*
X73708Y-52087D01*
X73781Y-52059D01*
X73847Y-52016D01*
X73904Y-51962D01*
X73949Y-51898D01*
X73981Y-51826D01*
X73999Y-51750D01*
X74000Y-51660D01*
X74000Y-50660D01*
X73985Y-50583D01*
X73955Y-50511D01*
X73911Y-50445D01*
X73856Y-50390D01*
X73791Y-50346D01*
X73718Y-50315D01*
X73642Y-50299D01*
X73563Y-50299D01*
X73486Y-50314D01*
X73413Y-50343D01*
X73347Y-50386D01*
X73291Y-50441D01*
X73247Y-50506D01*
X73216Y-50578D01*
X73200Y-50655D01*
X73199Y-50733D01*
X73213Y-50810D01*
X73242Y-50883D01*
X73284Y-50949D01*
X73339Y-51006D01*
X73403Y-51051D01*
X73475Y-51082D01*
X73552Y-51099D01*
X73630Y-51101D01*
X73708Y-51087D01*
X73781Y-51059D01*
X73847Y-51016D01*
X73904Y-50962D01*
X73949Y-50898D01*
X73981Y-50826D01*
X73999Y-50750D01*
X74000Y-50660D01*
X74000Y-51660D01*
X73985Y-51583D01*
X73955Y-51511D01*
X73911Y-51445D01*
X73856Y-51390D01*
X73791Y-51346D01*
X73718Y-51315D01*
X73642Y-51299D01*
X73563Y-51299D01*
X73486Y-51314D01*
X73413Y-51343D01*
X73347Y-51386D01*
X73291Y-51441D01*
X73247Y-51506D01*
X73216Y-51578D01*
X73200Y-51655D01*
X73199Y-51733D01*
X73213Y-51810D01*
X73229Y-51851D01*
X72990Y-52090D01*
X72981Y-52101D01*
X72972Y-52112D01*
X72971Y-52113D01*
X72971Y-52113D01*
X72964Y-52126D01*
X72957Y-52138D01*
X72957Y-52139D01*
X72956Y-52140D01*
X72952Y-52154D01*
X72948Y-52167D01*
X72948Y-52168D01*
X72948Y-52169D01*
X72946Y-52183D01*
X72945Y-52197D01*
X72945Y-52199D01*
X72945Y-52199D01*
X72945Y-52199D01*
X72945Y-52200D01*
X72945Y-55600D01*
X72946Y-55614D01*
X72947Y-55628D01*
X72947Y-55629D01*
X72947Y-55630D01*
X72952Y-55643D01*
X72956Y-55657D01*
X72956Y-55658D01*
X72956Y-55659D01*
X72963Y-55671D01*
X72970Y-55684D01*
X72970Y-55685D01*
X72970Y-55685D01*
X72979Y-55696D01*
X72988Y-55708D01*
X72989Y-55709D01*
X72990Y-55709D01*
X72990Y-55709D01*
X72990Y-55709D01*
X73229Y-55948D01*
X73216Y-55978D01*
X73200Y-56055D01*
X73199Y-56133D01*
X73213Y-56210D01*
X73242Y-56283D01*
X73284Y-56349D01*
X73339Y-56406D01*
X73403Y-56451D01*
X73475Y-56482D01*
X73552Y-56499D01*
X73630Y-56501D01*
X73708Y-56487D01*
X73781Y-56459D01*
X73847Y-56416D01*
X73904Y-56362D01*
X73949Y-56298D01*
X73981Y-56226D01*
X73999Y-56150D01*
X74000Y-56060D01*
X73985Y-55983D01*
X73955Y-55911D01*
X73911Y-55845D01*
X73856Y-55790D01*
X73791Y-55746D01*
X73718Y-55715D01*
X73642Y-55699D01*
X73563Y-55699D01*
X73486Y-55714D01*
X73448Y-55729D01*
X73255Y-55535D01*
X73255Y-55303D01*
X73284Y-55349D01*
X73339Y-55406D01*
X73403Y-55451D01*
X73475Y-55482D01*
X73552Y-55499D01*
X73630Y-55501D01*
X73708Y-55487D01*
X73781Y-55459D01*
X73847Y-55416D01*
X73904Y-55362D01*
X73945Y-55305D01*
X73945Y-55600D01*
X73946Y-55614D01*
X73947Y-55628D01*
X73947Y-55629D01*
X73947Y-55630D01*
X73952Y-55643D01*
X73956Y-55657D01*
X73956Y-55658D01*
X73956Y-55659D01*
X73963Y-55671D01*
X73970Y-55684D01*
X73970Y-55685D01*
X73970Y-55685D01*
X73979Y-55696D01*
X73988Y-55708D01*
X73989Y-55709D01*
X73990Y-55709D01*
X73990Y-55709D01*
X73990Y-55709D01*
X74229Y-55948D01*
X74216Y-55978D01*
X74200Y-56055D01*
X74199Y-56133D01*
X74213Y-56210D01*
X74242Y-56283D01*
X74284Y-56349D01*
X74339Y-56406D01*
X74403Y-56451D01*
X74475Y-56482D01*
X74552Y-56499D01*
X74630Y-56501D01*
X74708Y-56487D01*
X74781Y-56459D01*
X74847Y-56416D01*
X74904Y-56362D01*
X74949Y-56298D01*
X74981Y-56226D01*
X74999Y-56150D01*
X75000Y-56060D01*
X74985Y-55983D01*
X74955Y-55911D01*
X74911Y-55845D01*
X74886Y-55820D01*
X74856Y-55790D01*
X74791Y-55746D01*
X74718Y-55715D01*
X74642Y-55699D01*
X74563Y-55699D01*
X74486Y-55714D01*
X74448Y-55729D01*
X74255Y-55535D01*
X74255Y-55508D01*
X74269Y-55522D01*
X74313Y-55478D01*
X74341Y-55566D01*
X74437Y-55607D01*
X74538Y-55629D01*
X74642Y-55631D01*
X74745Y-55612D01*
X74841Y-55574D01*
X74858Y-55566D01*
X74886Y-55478D01*
X74886Y-55478D01*
X74930Y-55522D01*
X74945Y-55508D01*
X74945Y-55600D01*
X74946Y-55614D01*
X74947Y-55628D01*
X74947Y-55629D01*
X74947Y-55630D01*
X74952Y-55643D01*
X74956Y-55657D01*
X74956Y-55658D01*
X74956Y-55659D01*
X74963Y-55671D01*
X74970Y-55684D01*
X74970Y-55685D01*
X74970Y-55685D01*
X74979Y-55696D01*
X74988Y-55708D01*
X74989Y-55709D01*
X74990Y-55709D01*
X74990Y-55709D01*
X74990Y-55709D01*
X75229Y-55948D01*
X75216Y-55978D01*
X75200Y-56055D01*
X75199Y-56133D01*
X75213Y-56210D01*
X75242Y-56283D01*
X75284Y-56349D01*
X75339Y-56406D01*
X75403Y-56451D01*
X75475Y-56482D01*
X75552Y-56499D01*
X75630Y-56501D01*
X75708Y-56487D01*
X75781Y-56459D01*
X75847Y-56416D01*
X75904Y-56362D01*
X75949Y-56298D01*
X75981Y-56226D01*
X75999Y-56150D01*
X76000Y-56060D01*
X75985Y-55983D01*
X75955Y-55911D01*
X75911Y-55845D01*
X75886Y-55820D01*
X75856Y-55790D01*
X75791Y-55746D01*
X75718Y-55715D01*
X75642Y-55699D01*
X75563Y-55699D01*
X75486Y-55714D01*
X75448Y-55729D01*
X75255Y-55535D01*
X75255Y-55508D01*
X75269Y-55522D01*
X75313Y-55478D01*
X75341Y-55566D01*
X75437Y-55607D01*
X75538Y-55629D01*
X75642Y-55631D01*
X75745Y-55612D01*
X75841Y-55574D01*
X75858Y-55566D01*
X75886Y-55478D01*
X75886Y-55478D01*
X75930Y-55522D01*
X75945Y-55508D01*
X75945Y-55600D01*
X75946Y-55614D01*
X75947Y-55628D01*
X75947Y-55629D01*
X75947Y-55630D01*
X75952Y-55643D01*
X75956Y-55657D01*
X75956Y-55658D01*
X75956Y-55659D01*
X75963Y-55671D01*
X75970Y-55684D01*
X75970Y-55685D01*
X75970Y-55685D01*
X75979Y-55696D01*
X75988Y-55708D01*
X75989Y-55709D01*
X75990Y-55709D01*
X75990Y-55709D01*
X75990Y-55709D01*
X76229Y-55948D01*
X76216Y-55978D01*
X76200Y-56055D01*
X76199Y-56133D01*
X76213Y-56210D01*
X76242Y-56283D01*
X76284Y-56349D01*
X76339Y-56406D01*
X76403Y-56451D01*
X76475Y-56482D01*
X76552Y-56499D01*
X76630Y-56501D01*
X76708Y-56487D01*
X76781Y-56459D01*
X76847Y-56416D01*
X76904Y-56362D01*
X76949Y-56298D01*
X76981Y-56226D01*
X76999Y-56150D01*
X77000Y-56060D01*
X76985Y-55983D01*
X76955Y-55911D01*
X76911Y-55845D01*
X76886Y-55820D01*
X76856Y-55790D01*
X76791Y-55746D01*
X76718Y-55715D01*
X76642Y-55699D01*
X76563Y-55699D01*
X76486Y-55714D01*
X76448Y-55729D01*
X76255Y-55535D01*
X76255Y-55508D01*
X76269Y-55522D01*
X76313Y-55478D01*
X76341Y-55566D01*
X76437Y-55607D01*
X76538Y-55629D01*
X76642Y-55631D01*
X76745Y-55612D01*
X76841Y-55574D01*
X76858Y-55566D01*
X76886Y-55478D01*
X76886Y-55478D01*
X76930Y-55522D01*
X76945Y-55508D01*
X76945Y-55600D01*
X76946Y-55614D01*
X76947Y-55628D01*
X76947Y-55629D01*
X76947Y-55630D01*
X76952Y-55643D01*
X76956Y-55657D01*
X76956Y-55658D01*
X76956Y-55659D01*
X76963Y-55671D01*
X76970Y-55684D01*
X76970Y-55685D01*
X76970Y-55685D01*
X76979Y-55696D01*
X76988Y-55708D01*
X76989Y-55709D01*
X76990Y-55709D01*
X76990Y-55709D01*
X76990Y-55709D01*
X77229Y-55948D01*
X77216Y-55978D01*
X77200Y-56055D01*
X77199Y-56133D01*
X77213Y-56210D01*
X77242Y-56283D01*
X77284Y-56349D01*
X77339Y-56406D01*
X77403Y-56451D01*
X77475Y-56482D01*
X77552Y-56499D01*
X77630Y-56501D01*
X77708Y-56487D01*
X77781Y-56459D01*
X77847Y-56416D01*
X77904Y-56362D01*
X77949Y-56298D01*
X77981Y-56226D01*
X77999Y-56150D01*
X78000Y-56060D01*
X77985Y-55983D01*
X77955Y-55911D01*
X77911Y-55845D01*
X77886Y-55820D01*
X77856Y-55790D01*
X77791Y-55746D01*
X77718Y-55715D01*
X77642Y-55699D01*
X77563Y-55699D01*
X77486Y-55714D01*
X77448Y-55729D01*
X77255Y-55535D01*
X77255Y-55508D01*
X77269Y-55522D01*
X77313Y-55478D01*
X77341Y-55566D01*
X77437Y-55607D01*
X77538Y-55629D01*
X77642Y-55631D01*
X77745Y-55612D01*
X77841Y-55574D01*
X77858Y-55566D01*
X77886Y-55478D01*
X77886Y-55478D01*
X77930Y-55522D01*
X77945Y-55508D01*
X77945Y-55600D01*
X77946Y-55614D01*
X77947Y-55628D01*
X77947Y-55629D01*
X77947Y-55630D01*
X77952Y-55643D01*
X77956Y-55657D01*
X77956Y-55658D01*
X77956Y-55659D01*
X77963Y-55671D01*
X77970Y-55684D01*
X77970Y-55685D01*
X77970Y-55685D01*
X77979Y-55696D01*
X77988Y-55708D01*
X77989Y-55709D01*
X77990Y-55709D01*
X77990Y-55709D01*
X77990Y-55709D01*
X78229Y-55948D01*
X78216Y-55978D01*
X78200Y-56055D01*
X78199Y-56133D01*
X78213Y-56210D01*
X78242Y-56283D01*
X78284Y-56349D01*
X78339Y-56406D01*
X78403Y-56451D01*
X78475Y-56482D01*
X78552Y-56499D01*
X78630Y-56501D01*
X78708Y-56487D01*
X78781Y-56459D01*
X78847Y-56416D01*
X78904Y-56362D01*
X78949Y-56298D01*
X78981Y-56226D01*
X78999Y-56150D01*
X79000Y-56060D01*
X78985Y-55983D01*
X78955Y-55911D01*
X78911Y-55845D01*
X78886Y-55820D01*
X78856Y-55790D01*
X78791Y-55746D01*
X78718Y-55715D01*
X78642Y-55699D01*
X78563Y-55699D01*
X78486Y-55714D01*
X78448Y-55729D01*
X78255Y-55535D01*
X78255Y-55508D01*
X78269Y-55522D01*
X78313Y-55478D01*
X78341Y-55566D01*
X78437Y-55607D01*
X78538Y-55629D01*
X78642Y-55631D01*
X78745Y-55612D01*
X78841Y-55574D01*
X78858Y-55566D01*
X78886Y-55478D01*
X78886Y-55478D01*
X78930Y-55522D01*
X78945Y-55508D01*
X78945Y-55600D01*
X78946Y-55614D01*
X78947Y-55628D01*
X78947Y-55629D01*
X78947Y-55630D01*
X78952Y-55643D01*
X78956Y-55657D01*
X78956Y-55658D01*
X78956Y-55659D01*
X78963Y-55671D01*
X78970Y-55684D01*
X78970Y-55685D01*
X78970Y-55685D01*
X78979Y-55696D01*
X78988Y-55708D01*
X78989Y-55709D01*
X78990Y-55709D01*
X78990Y-55709D01*
X78990Y-55709D01*
X79229Y-55948D01*
X79216Y-55978D01*
X79200Y-56055D01*
X79199Y-56133D01*
X79213Y-56210D01*
X79242Y-56283D01*
X79284Y-56349D01*
X79339Y-56406D01*
X79403Y-56451D01*
X79475Y-56482D01*
X79552Y-56499D01*
X79630Y-56501D01*
X79708Y-56487D01*
X79781Y-56459D01*
X79847Y-56416D01*
X79904Y-56362D01*
X79949Y-56298D01*
X79981Y-56226D01*
X79999Y-56150D01*
X80000Y-56060D01*
X79985Y-55983D01*
X79955Y-55911D01*
X79911Y-55845D01*
X79886Y-55820D01*
X79856Y-55790D01*
X79791Y-55746D01*
X79718Y-55715D01*
X79642Y-55699D01*
X79563Y-55699D01*
X79486Y-55714D01*
X79448Y-55729D01*
X79255Y-55535D01*
X79255Y-55508D01*
X79269Y-55522D01*
X79313Y-55478D01*
X79341Y-55566D01*
X79437Y-55607D01*
X79538Y-55629D01*
X79642Y-55631D01*
X79745Y-55612D01*
X79841Y-55574D01*
X79858Y-55566D01*
X79886Y-55478D01*
X79886Y-55478D01*
X79930Y-55522D01*
X79945Y-55508D01*
X79945Y-55600D01*
X79946Y-55614D01*
X79947Y-55628D01*
X79947Y-55629D01*
X79947Y-55630D01*
X79952Y-55643D01*
X79956Y-55657D01*
X79956Y-55658D01*
X79956Y-55659D01*
X79963Y-55671D01*
X79970Y-55684D01*
X79970Y-55685D01*
X79970Y-55685D01*
X79979Y-55696D01*
X79988Y-55708D01*
X79989Y-55709D01*
X79990Y-55709D01*
X79990Y-55709D01*
X79990Y-55709D01*
X80229Y-55948D01*
X80216Y-55978D01*
X80200Y-56055D01*
X80199Y-56133D01*
X80213Y-56210D01*
X80242Y-56283D01*
X80284Y-56349D01*
X80339Y-56406D01*
X80403Y-56451D01*
X80475Y-56482D01*
X80552Y-56499D01*
X80630Y-56501D01*
X80708Y-56487D01*
X80781Y-56459D01*
X80847Y-56416D01*
X80904Y-56362D01*
X80949Y-56298D01*
X80981Y-56226D01*
X80999Y-56150D01*
X81000Y-56060D01*
X80985Y-55983D01*
X80955Y-55911D01*
X80911Y-55845D01*
X80886Y-55820D01*
X80856Y-55790D01*
X80791Y-55746D01*
X80718Y-55715D01*
X80642Y-55699D01*
X80563Y-55699D01*
X80486Y-55714D01*
X80448Y-55729D01*
X80255Y-55535D01*
X80255Y-55508D01*
X80269Y-55522D01*
X80313Y-55478D01*
X80341Y-55566D01*
X80437Y-55607D01*
X80538Y-55629D01*
X80642Y-55631D01*
X80745Y-55612D01*
X80841Y-55574D01*
X80858Y-55566D01*
X80886Y-55478D01*
X80886Y-55478D01*
X80930Y-55522D01*
X80945Y-55508D01*
X80945Y-55600D01*
X80946Y-55614D01*
X80947Y-55628D01*
X80947Y-55629D01*
X80947Y-55630D01*
X80952Y-55643D01*
X80956Y-55657D01*
X80956Y-55658D01*
X80956Y-55659D01*
X80963Y-55671D01*
X80970Y-55684D01*
X80970Y-55685D01*
X80970Y-55685D01*
X80979Y-55696D01*
X80988Y-55708D01*
X80989Y-55709D01*
X80990Y-55709D01*
X80990Y-55709D01*
X80990Y-55709D01*
X81229Y-55948D01*
X81216Y-55978D01*
X81200Y-56055D01*
X81199Y-56133D01*
X81213Y-56210D01*
X81242Y-56283D01*
X81284Y-56349D01*
X81339Y-56406D01*
X81403Y-56451D01*
X81475Y-56482D01*
X81552Y-56499D01*
X81630Y-56501D01*
X81708Y-56487D01*
X81781Y-56459D01*
X81847Y-56416D01*
X81904Y-56362D01*
X81949Y-56298D01*
X81981Y-56226D01*
X81999Y-56150D01*
X82000Y-56060D01*
X81985Y-55983D01*
X81955Y-55911D01*
X81911Y-55845D01*
X81886Y-55820D01*
X81856Y-55790D01*
X81791Y-55746D01*
X81718Y-55715D01*
X81642Y-55699D01*
X81563Y-55699D01*
X81486Y-55714D01*
X81448Y-55729D01*
X81255Y-55535D01*
X81255Y-55508D01*
X81269Y-55522D01*
X81313Y-55478D01*
X81341Y-55566D01*
X81437Y-55607D01*
X81538Y-55629D01*
X81642Y-55631D01*
X81745Y-55612D01*
X81841Y-55574D01*
X81858Y-55566D01*
X81886Y-55478D01*
X81886Y-55478D01*
X81930Y-55522D01*
X81945Y-55508D01*
X81945Y-55600D01*
X81946Y-55614D01*
X81947Y-55628D01*
X81947Y-55629D01*
X81947Y-55630D01*
X81952Y-55643D01*
X81956Y-55657D01*
X81956Y-55658D01*
X81956Y-55659D01*
X81963Y-55671D01*
X81970Y-55684D01*
X81970Y-55685D01*
X81970Y-55685D01*
X81979Y-55696D01*
X81988Y-55708D01*
X81989Y-55709D01*
X81990Y-55709D01*
X81990Y-55709D01*
X81990Y-55709D01*
X82229Y-55948D01*
X82216Y-55978D01*
X82200Y-56055D01*
X82199Y-56133D01*
X82213Y-56210D01*
X82242Y-56283D01*
X82284Y-56349D01*
X82339Y-56406D01*
X82403Y-56451D01*
X82475Y-56482D01*
X82552Y-56499D01*
X82630Y-56501D01*
X82708Y-56487D01*
X82781Y-56459D01*
X82847Y-56416D01*
X82904Y-56362D01*
X82949Y-56298D01*
X82981Y-56226D01*
X82999Y-56150D01*
X83000Y-56060D01*
X83000Y-57464D01*
X82900Y-57475D01*
X82899Y-57475D01*
X82000Y-57475D01*
X80000Y-57475D01*
X79000Y-57475D01*
X78000Y-57475D01*
X77000Y-57475D01*
X76000Y-57475D01*
X73400Y-57475D01*
X73399Y-57475D01*
X73215Y-57475D01*
X73047Y-57442D01*
X72888Y-57377D01*
X72745Y-57282D01*
X72623Y-57161D01*
X72526Y-57019D01*
X72460Y-56861D01*
X72424Y-56690D01*
X72424Y-56300D01*
X72424Y-47512D01*
X72458Y-47344D01*
X72523Y-47185D01*
X72619Y-47042D01*
X72740Y-46921D01*
X72882Y-46825D01*
X73041Y-46759D01*
X73209Y-46724D01*
X73386Y-46724D01*
X73388Y-46724D01*
X73393Y-46724D01*
X73398Y-46724D01*
X73400Y-46724D01*
X82893Y-46724D01*
X83069Y-46741D01*
X83233Y-46791D01*
X83384Y-46871D01*
X83516Y-46979D01*
X83625Y-47110D01*
X83706Y-47261D01*
X83756Y-47424D01*
X83775Y-47599D01*
X83775Y-47600D01*
X83775Y-56300D01*
X83775Y-56593D01*
M02*
