G04 (created by PCBNEW (2013-june-11)-stable) date Thu 28 Aug 2014 05:47:28 PM PDT*
%MOIN*%
G04 Gerber Fmt 3.4, Leading zero omitted, Abs format*
%FSLAX34Y34*%
G01*
G70*
G90*
G04 APERTURE LIST*
%ADD10C,0.00590551*%
%ADD11C,0.0590551*%
%ADD12C,0.04*%
%ADD13C,0.006*%
%ADD14C,0.008*%
G04 APERTURE END LIST*
G54D10*
G54D11*
X82600Y-55100D03*
X82600Y-56100D03*
X81600Y-55100D03*
X81600Y-56100D03*
X80600Y-55100D03*
X80600Y-56100D03*
X79600Y-55100D03*
X79600Y-56100D03*
X78600Y-55100D03*
X78600Y-56100D03*
X77600Y-55100D03*
X77600Y-56100D03*
X76600Y-55100D03*
X76600Y-56100D03*
X75600Y-55100D03*
X75600Y-56100D03*
X74600Y-55100D03*
X74600Y-56100D03*
X73600Y-55100D03*
X73600Y-56100D03*
X82600Y-50700D03*
X82600Y-51700D03*
X81600Y-50700D03*
X81600Y-51700D03*
X80600Y-50700D03*
X80600Y-51700D03*
X79600Y-50700D03*
X79600Y-51700D03*
X78600Y-50700D03*
X78600Y-51700D03*
X77600Y-50700D03*
X77600Y-51700D03*
X76600Y-50700D03*
X76600Y-51700D03*
X75600Y-50700D03*
X75600Y-51700D03*
X74600Y-50700D03*
X74600Y-51700D03*
X73600Y-50700D03*
X73600Y-51700D03*
G54D12*
X77150Y-47250D03*
X77650Y-47250D03*
X78150Y-47250D03*
X78650Y-47250D03*
X79150Y-47250D03*
X77150Y-47750D03*
X77650Y-47750D03*
X78150Y-47750D03*
X78650Y-47750D03*
X79150Y-47750D03*
G54D13*
X73600Y-50700D02*
X73600Y-48900D01*
X77600Y-46700D02*
X78150Y-47250D01*
X75800Y-46700D02*
X77600Y-46700D01*
X73600Y-48900D02*
X75800Y-46700D01*
X77650Y-47250D02*
X77300Y-46900D01*
X77600Y-49800D02*
X77600Y-50700D01*
X76600Y-48800D02*
X77600Y-49800D01*
X76600Y-47100D02*
X76600Y-48800D01*
X76800Y-46900D02*
X76600Y-47100D01*
X77300Y-46900D02*
X76800Y-46900D01*
G54D14*
X77650Y-47750D02*
X77650Y-48150D01*
X80600Y-49700D02*
X80600Y-50700D01*
X79800Y-48900D02*
X80600Y-49700D01*
X78400Y-48900D02*
X79800Y-48900D01*
X77650Y-48150D02*
X78400Y-48900D01*
G54D13*
X79150Y-47250D02*
X79750Y-47250D01*
X82600Y-50100D02*
X82600Y-50700D01*
X79750Y-47250D02*
X82600Y-50100D01*
G54D10*
G36*
X83760Y-56593D02*
X83743Y-56766D01*
X83694Y-56927D01*
X83616Y-57075D01*
X83509Y-57205D01*
X83380Y-57312D01*
X83233Y-57392D01*
X83072Y-57442D01*
X83015Y-57448D01*
X83015Y-56059D01*
X83015Y-55059D01*
X83015Y-51659D01*
X82999Y-51579D01*
X82968Y-51504D01*
X82923Y-51436D01*
X82865Y-51378D01*
X82798Y-51332D01*
X82723Y-51301D01*
X82643Y-51285D01*
X82562Y-51284D01*
X82482Y-51299D01*
X82406Y-51330D01*
X82338Y-51374D01*
X82280Y-51431D01*
X82234Y-51498D01*
X82202Y-51573D01*
X82185Y-51653D01*
X82184Y-51734D01*
X82198Y-51815D01*
X82228Y-51890D01*
X82272Y-51959D01*
X82329Y-52017D01*
X82396Y-52064D01*
X82471Y-52096D01*
X82550Y-52114D01*
X82632Y-52116D01*
X82712Y-52101D01*
X82788Y-52072D01*
X82856Y-52028D01*
X82915Y-51972D01*
X82962Y-51906D01*
X82995Y-51831D01*
X83013Y-51752D01*
X83015Y-51659D01*
X83015Y-55059D01*
X82999Y-54979D01*
X82968Y-54904D01*
X82923Y-54836D01*
X82865Y-54778D01*
X82798Y-54732D01*
X82723Y-54701D01*
X82643Y-54685D01*
X82562Y-54684D01*
X82482Y-54699D01*
X82406Y-54730D01*
X82338Y-54774D01*
X82280Y-54831D01*
X82234Y-54898D01*
X82202Y-54973D01*
X82185Y-55053D01*
X82184Y-55134D01*
X82198Y-55215D01*
X82228Y-55290D01*
X82272Y-55359D01*
X82329Y-55417D01*
X82396Y-55464D01*
X82471Y-55496D01*
X82550Y-55514D01*
X82632Y-55516D01*
X82712Y-55501D01*
X82788Y-55472D01*
X82856Y-55428D01*
X82915Y-55372D01*
X82962Y-55306D01*
X82995Y-55231D01*
X83013Y-55152D01*
X83015Y-55059D01*
X83015Y-56059D01*
X82999Y-55979D01*
X82968Y-55904D01*
X82923Y-55836D01*
X82865Y-55778D01*
X82798Y-55732D01*
X82723Y-55701D01*
X82643Y-55685D01*
X82562Y-55684D01*
X82482Y-55699D01*
X82406Y-55730D01*
X82338Y-55774D01*
X82280Y-55831D01*
X82234Y-55898D01*
X82202Y-55973D01*
X82185Y-56053D01*
X82184Y-56134D01*
X82198Y-56215D01*
X82228Y-56290D01*
X82272Y-56359D01*
X82329Y-56417D01*
X82396Y-56464D01*
X82471Y-56496D01*
X82550Y-56514D01*
X82632Y-56516D01*
X82712Y-56501D01*
X82788Y-56472D01*
X82856Y-56428D01*
X82915Y-56372D01*
X82962Y-56306D01*
X82995Y-56231D01*
X83013Y-56152D01*
X83015Y-56059D01*
X83015Y-57448D01*
X82899Y-57460D01*
X82136Y-57460D01*
X82136Y-56062D01*
X82136Y-51662D01*
X82119Y-51558D01*
X82081Y-51460D01*
X82067Y-51434D01*
X82015Y-51418D01*
X82015Y-50659D01*
X81999Y-50579D01*
X81968Y-50504D01*
X81923Y-50436D01*
X81865Y-50378D01*
X81798Y-50332D01*
X81723Y-50301D01*
X81643Y-50285D01*
X81562Y-50284D01*
X81482Y-50299D01*
X81406Y-50330D01*
X81338Y-50374D01*
X81280Y-50431D01*
X81234Y-50498D01*
X81202Y-50573D01*
X81185Y-50653D01*
X81184Y-50734D01*
X81198Y-50815D01*
X81228Y-50890D01*
X81272Y-50959D01*
X81329Y-51017D01*
X81396Y-51064D01*
X81471Y-51096D01*
X81550Y-51114D01*
X81632Y-51116D01*
X81712Y-51101D01*
X81788Y-51072D01*
X81856Y-51028D01*
X81915Y-50972D01*
X81962Y-50906D01*
X81995Y-50831D01*
X82013Y-50752D01*
X82015Y-50659D01*
X82015Y-51418D01*
X81977Y-51407D01*
X81892Y-51492D01*
X81892Y-51322D01*
X81865Y-51232D01*
X81769Y-51189D01*
X81667Y-51166D01*
X81562Y-51163D01*
X81458Y-51180D01*
X81360Y-51218D01*
X81334Y-51232D01*
X81307Y-51322D01*
X81600Y-51615D01*
X81892Y-51322D01*
X81892Y-51492D01*
X81684Y-51700D01*
X81977Y-51992D01*
X82067Y-51965D01*
X82110Y-51869D01*
X82133Y-51767D01*
X82136Y-51662D01*
X82136Y-56062D01*
X82119Y-55958D01*
X82081Y-55860D01*
X82067Y-55834D01*
X82015Y-55818D01*
X82015Y-55059D01*
X81999Y-54979D01*
X81968Y-54904D01*
X81923Y-54836D01*
X81892Y-54805D01*
X81892Y-52077D01*
X81600Y-51784D01*
X81515Y-51869D01*
X81515Y-51700D01*
X81222Y-51407D01*
X81132Y-51434D01*
X81099Y-51507D01*
X81081Y-51460D01*
X81067Y-51434D01*
X80977Y-51407D01*
X80892Y-51492D01*
X80892Y-51322D01*
X80865Y-51232D01*
X80769Y-51189D01*
X80667Y-51166D01*
X80562Y-51163D01*
X80458Y-51180D01*
X80360Y-51218D01*
X80334Y-51232D01*
X80307Y-51322D01*
X80600Y-51615D01*
X80892Y-51322D01*
X80892Y-51492D01*
X80684Y-51700D01*
X80977Y-51992D01*
X81067Y-51965D01*
X81100Y-51892D01*
X81118Y-51939D01*
X81132Y-51965D01*
X81222Y-51992D01*
X81515Y-51700D01*
X81515Y-51869D01*
X81307Y-52077D01*
X81334Y-52167D01*
X81430Y-52210D01*
X81532Y-52233D01*
X81637Y-52236D01*
X81741Y-52219D01*
X81839Y-52181D01*
X81865Y-52167D01*
X81892Y-52077D01*
X81892Y-54805D01*
X81865Y-54778D01*
X81798Y-54732D01*
X81723Y-54701D01*
X81643Y-54685D01*
X81562Y-54684D01*
X81482Y-54699D01*
X81406Y-54730D01*
X81338Y-54774D01*
X81280Y-54831D01*
X81234Y-54898D01*
X81202Y-54973D01*
X81185Y-55053D01*
X81184Y-55134D01*
X81198Y-55215D01*
X81228Y-55290D01*
X81272Y-55359D01*
X81329Y-55417D01*
X81396Y-55464D01*
X81471Y-55496D01*
X81550Y-55514D01*
X81632Y-55516D01*
X81712Y-55501D01*
X81788Y-55472D01*
X81856Y-55428D01*
X81915Y-55372D01*
X81962Y-55306D01*
X81995Y-55231D01*
X82013Y-55152D01*
X82015Y-55059D01*
X82015Y-55818D01*
X81977Y-55807D01*
X81892Y-55892D01*
X81892Y-55722D01*
X81865Y-55632D01*
X81769Y-55589D01*
X81667Y-55566D01*
X81562Y-55563D01*
X81458Y-55580D01*
X81360Y-55618D01*
X81334Y-55632D01*
X81307Y-55722D01*
X81600Y-56015D01*
X81892Y-55722D01*
X81892Y-55892D01*
X81684Y-56100D01*
X81977Y-56392D01*
X82067Y-56365D01*
X82110Y-56269D01*
X82133Y-56167D01*
X82136Y-56062D01*
X82136Y-57460D01*
X81892Y-57460D01*
X81892Y-56477D01*
X81600Y-56184D01*
X81515Y-56269D01*
X81515Y-56100D01*
X81222Y-55807D01*
X81132Y-55834D01*
X81099Y-55907D01*
X81081Y-55860D01*
X81067Y-55834D01*
X81015Y-55818D01*
X81015Y-55059D01*
X80999Y-54979D01*
X80968Y-54904D01*
X80923Y-54836D01*
X80892Y-54805D01*
X80892Y-52077D01*
X80600Y-51784D01*
X80515Y-51869D01*
X80515Y-51700D01*
X80222Y-51407D01*
X80132Y-51434D01*
X80099Y-51507D01*
X80081Y-51460D01*
X80067Y-51434D01*
X80015Y-51418D01*
X80015Y-50659D01*
X79999Y-50579D01*
X79968Y-50504D01*
X79923Y-50436D01*
X79865Y-50378D01*
X79798Y-50332D01*
X79723Y-50301D01*
X79643Y-50285D01*
X79562Y-50284D01*
X79482Y-50299D01*
X79406Y-50330D01*
X79338Y-50374D01*
X79280Y-50431D01*
X79234Y-50498D01*
X79202Y-50573D01*
X79185Y-50653D01*
X79184Y-50734D01*
X79198Y-50815D01*
X79228Y-50890D01*
X79272Y-50959D01*
X79329Y-51017D01*
X79396Y-51064D01*
X79471Y-51096D01*
X79550Y-51114D01*
X79632Y-51116D01*
X79712Y-51101D01*
X79788Y-51072D01*
X79856Y-51028D01*
X79915Y-50972D01*
X79962Y-50906D01*
X79995Y-50831D01*
X80013Y-50752D01*
X80015Y-50659D01*
X80015Y-51418D01*
X79977Y-51407D01*
X79892Y-51492D01*
X79892Y-51322D01*
X79865Y-51232D01*
X79769Y-51189D01*
X79667Y-51166D01*
X79562Y-51163D01*
X79458Y-51180D01*
X79360Y-51218D01*
X79334Y-51232D01*
X79307Y-51322D01*
X79600Y-51615D01*
X79892Y-51322D01*
X79892Y-51492D01*
X79684Y-51700D01*
X79977Y-51992D01*
X80067Y-51965D01*
X80100Y-51892D01*
X80118Y-51939D01*
X80132Y-51965D01*
X80222Y-51992D01*
X80515Y-51700D01*
X80515Y-51869D01*
X80307Y-52077D01*
X80334Y-52167D01*
X80430Y-52210D01*
X80532Y-52233D01*
X80637Y-52236D01*
X80741Y-52219D01*
X80839Y-52181D01*
X80865Y-52167D01*
X80892Y-52077D01*
X80892Y-54805D01*
X80865Y-54778D01*
X80798Y-54732D01*
X80723Y-54701D01*
X80643Y-54685D01*
X80562Y-54684D01*
X80482Y-54699D01*
X80406Y-54730D01*
X80338Y-54774D01*
X80280Y-54831D01*
X80234Y-54898D01*
X80202Y-54973D01*
X80185Y-55053D01*
X80184Y-55134D01*
X80198Y-55215D01*
X80228Y-55290D01*
X80272Y-55359D01*
X80329Y-55417D01*
X80396Y-55464D01*
X80471Y-55496D01*
X80550Y-55514D01*
X80632Y-55516D01*
X80712Y-55501D01*
X80788Y-55472D01*
X80856Y-55428D01*
X80915Y-55372D01*
X80962Y-55306D01*
X80995Y-55231D01*
X81013Y-55152D01*
X81015Y-55059D01*
X81015Y-55818D01*
X80977Y-55807D01*
X80892Y-55892D01*
X80892Y-55722D01*
X80865Y-55632D01*
X80769Y-55589D01*
X80667Y-55566D01*
X80562Y-55563D01*
X80458Y-55580D01*
X80360Y-55618D01*
X80334Y-55632D01*
X80307Y-55722D01*
X80600Y-56015D01*
X80892Y-55722D01*
X80892Y-55892D01*
X80684Y-56100D01*
X80977Y-56392D01*
X81067Y-56365D01*
X81100Y-56292D01*
X81118Y-56339D01*
X81132Y-56365D01*
X81222Y-56392D01*
X81515Y-56100D01*
X81515Y-56269D01*
X81307Y-56477D01*
X81334Y-56567D01*
X81430Y-56610D01*
X81532Y-56633D01*
X81637Y-56636D01*
X81741Y-56619D01*
X81839Y-56581D01*
X81865Y-56567D01*
X81892Y-56477D01*
X81892Y-57460D01*
X80892Y-57460D01*
X80892Y-56477D01*
X80600Y-56184D01*
X80515Y-56269D01*
X80515Y-56100D01*
X80222Y-55807D01*
X80132Y-55834D01*
X80099Y-55907D01*
X80081Y-55860D01*
X80067Y-55834D01*
X80015Y-55818D01*
X80015Y-55059D01*
X79999Y-54979D01*
X79968Y-54904D01*
X79923Y-54836D01*
X79892Y-54805D01*
X79892Y-52077D01*
X79600Y-51784D01*
X79515Y-51869D01*
X79515Y-51700D01*
X79222Y-51407D01*
X79132Y-51434D01*
X79099Y-51507D01*
X79081Y-51460D01*
X79067Y-51434D01*
X79015Y-51418D01*
X79015Y-50659D01*
X78999Y-50579D01*
X78968Y-50504D01*
X78923Y-50436D01*
X78865Y-50378D01*
X78798Y-50332D01*
X78723Y-50301D01*
X78643Y-50285D01*
X78562Y-50284D01*
X78482Y-50299D01*
X78406Y-50330D01*
X78338Y-50374D01*
X78280Y-50431D01*
X78234Y-50498D01*
X78202Y-50573D01*
X78185Y-50653D01*
X78184Y-50734D01*
X78198Y-50815D01*
X78228Y-50890D01*
X78272Y-50959D01*
X78329Y-51017D01*
X78396Y-51064D01*
X78471Y-51096D01*
X78550Y-51114D01*
X78632Y-51116D01*
X78712Y-51101D01*
X78788Y-51072D01*
X78856Y-51028D01*
X78915Y-50972D01*
X78962Y-50906D01*
X78995Y-50831D01*
X79013Y-50752D01*
X79015Y-50659D01*
X79015Y-51418D01*
X78977Y-51407D01*
X78892Y-51492D01*
X78892Y-51322D01*
X78865Y-51232D01*
X78769Y-51189D01*
X78667Y-51166D01*
X78562Y-51163D01*
X78458Y-51180D01*
X78360Y-51218D01*
X78334Y-51232D01*
X78307Y-51322D01*
X78600Y-51615D01*
X78892Y-51322D01*
X78892Y-51492D01*
X78684Y-51700D01*
X78977Y-51992D01*
X79067Y-51965D01*
X79100Y-51892D01*
X79118Y-51939D01*
X79132Y-51965D01*
X79222Y-51992D01*
X79515Y-51700D01*
X79515Y-51869D01*
X79307Y-52077D01*
X79334Y-52167D01*
X79430Y-52210D01*
X79532Y-52233D01*
X79637Y-52236D01*
X79741Y-52219D01*
X79839Y-52181D01*
X79865Y-52167D01*
X79892Y-52077D01*
X79892Y-54805D01*
X79865Y-54778D01*
X79798Y-54732D01*
X79723Y-54701D01*
X79643Y-54685D01*
X79562Y-54684D01*
X79482Y-54699D01*
X79406Y-54730D01*
X79338Y-54774D01*
X79280Y-54831D01*
X79234Y-54898D01*
X79202Y-54973D01*
X79185Y-55053D01*
X79184Y-55134D01*
X79198Y-55215D01*
X79228Y-55290D01*
X79272Y-55359D01*
X79329Y-55417D01*
X79396Y-55464D01*
X79471Y-55496D01*
X79550Y-55514D01*
X79632Y-55516D01*
X79712Y-55501D01*
X79788Y-55472D01*
X79856Y-55428D01*
X79915Y-55372D01*
X79962Y-55306D01*
X79995Y-55231D01*
X80013Y-55152D01*
X80015Y-55059D01*
X80015Y-55818D01*
X79977Y-55807D01*
X79892Y-55892D01*
X79892Y-55722D01*
X79865Y-55632D01*
X79769Y-55589D01*
X79667Y-55566D01*
X79562Y-55563D01*
X79458Y-55580D01*
X79360Y-55618D01*
X79334Y-55632D01*
X79307Y-55722D01*
X79600Y-56015D01*
X79892Y-55722D01*
X79892Y-55892D01*
X79684Y-56100D01*
X79977Y-56392D01*
X80067Y-56365D01*
X80100Y-56292D01*
X80118Y-56339D01*
X80132Y-56365D01*
X80222Y-56392D01*
X80515Y-56100D01*
X80515Y-56269D01*
X80307Y-56477D01*
X80334Y-56567D01*
X80430Y-56610D01*
X80532Y-56633D01*
X80637Y-56636D01*
X80741Y-56619D01*
X80839Y-56581D01*
X80865Y-56567D01*
X80892Y-56477D01*
X80892Y-57460D01*
X79892Y-57460D01*
X79892Y-56477D01*
X79600Y-56184D01*
X79515Y-56269D01*
X79515Y-56100D01*
X79222Y-55807D01*
X79132Y-55834D01*
X79099Y-55907D01*
X79081Y-55860D01*
X79067Y-55834D01*
X79015Y-55818D01*
X79015Y-55059D01*
X78999Y-54979D01*
X78968Y-54904D01*
X78923Y-54836D01*
X78892Y-54805D01*
X78892Y-52077D01*
X78600Y-51784D01*
X78515Y-51869D01*
X78515Y-51700D01*
X78222Y-51407D01*
X78132Y-51434D01*
X78099Y-51507D01*
X78081Y-51460D01*
X78067Y-51434D01*
X77977Y-51407D01*
X77892Y-51492D01*
X77892Y-51322D01*
X77865Y-51232D01*
X77769Y-51189D01*
X77667Y-51166D01*
X77562Y-51163D01*
X77458Y-51180D01*
X77360Y-51218D01*
X77334Y-51232D01*
X77307Y-51322D01*
X77600Y-51615D01*
X77892Y-51322D01*
X77892Y-51492D01*
X77684Y-51700D01*
X77977Y-51992D01*
X78067Y-51965D01*
X78100Y-51892D01*
X78118Y-51939D01*
X78132Y-51965D01*
X78222Y-51992D01*
X78515Y-51700D01*
X78515Y-51869D01*
X78307Y-52077D01*
X78334Y-52167D01*
X78430Y-52210D01*
X78532Y-52233D01*
X78637Y-52236D01*
X78741Y-52219D01*
X78839Y-52181D01*
X78865Y-52167D01*
X78892Y-52077D01*
X78892Y-54805D01*
X78865Y-54778D01*
X78798Y-54732D01*
X78723Y-54701D01*
X78643Y-54685D01*
X78562Y-54684D01*
X78482Y-54699D01*
X78406Y-54730D01*
X78338Y-54774D01*
X78280Y-54831D01*
X78234Y-54898D01*
X78202Y-54973D01*
X78185Y-55053D01*
X78184Y-55134D01*
X78198Y-55215D01*
X78228Y-55290D01*
X78272Y-55359D01*
X78329Y-55417D01*
X78396Y-55464D01*
X78471Y-55496D01*
X78550Y-55514D01*
X78632Y-55516D01*
X78712Y-55501D01*
X78788Y-55472D01*
X78856Y-55428D01*
X78915Y-55372D01*
X78962Y-55306D01*
X78995Y-55231D01*
X79013Y-55152D01*
X79015Y-55059D01*
X79015Y-55818D01*
X78977Y-55807D01*
X78892Y-55892D01*
X78892Y-55722D01*
X78865Y-55632D01*
X78769Y-55589D01*
X78667Y-55566D01*
X78562Y-55563D01*
X78458Y-55580D01*
X78360Y-55618D01*
X78334Y-55632D01*
X78307Y-55722D01*
X78600Y-56015D01*
X78892Y-55722D01*
X78892Y-55892D01*
X78684Y-56100D01*
X78977Y-56392D01*
X79067Y-56365D01*
X79100Y-56292D01*
X79118Y-56339D01*
X79132Y-56365D01*
X79222Y-56392D01*
X79515Y-56100D01*
X79515Y-56269D01*
X79307Y-56477D01*
X79334Y-56567D01*
X79430Y-56610D01*
X79532Y-56633D01*
X79637Y-56636D01*
X79741Y-56619D01*
X79839Y-56581D01*
X79865Y-56567D01*
X79892Y-56477D01*
X79892Y-57460D01*
X78892Y-57460D01*
X78892Y-56477D01*
X78600Y-56184D01*
X78515Y-56269D01*
X78515Y-56100D01*
X78222Y-55807D01*
X78132Y-55834D01*
X78099Y-55907D01*
X78081Y-55860D01*
X78067Y-55834D01*
X78015Y-55818D01*
X78015Y-55059D01*
X77999Y-54979D01*
X77968Y-54904D01*
X77923Y-54836D01*
X77892Y-54805D01*
X77892Y-52077D01*
X77600Y-51784D01*
X77515Y-51869D01*
X77515Y-51700D01*
X77222Y-51407D01*
X77132Y-51434D01*
X77099Y-51507D01*
X77081Y-51460D01*
X77067Y-51434D01*
X77015Y-51418D01*
X77015Y-50659D01*
X76999Y-50579D01*
X76968Y-50504D01*
X76923Y-50436D01*
X76865Y-50378D01*
X76798Y-50332D01*
X76723Y-50301D01*
X76643Y-50285D01*
X76562Y-50284D01*
X76482Y-50299D01*
X76406Y-50330D01*
X76338Y-50374D01*
X76280Y-50431D01*
X76234Y-50498D01*
X76202Y-50573D01*
X76185Y-50653D01*
X76184Y-50734D01*
X76198Y-50815D01*
X76228Y-50890D01*
X76272Y-50959D01*
X76329Y-51017D01*
X76396Y-51064D01*
X76471Y-51096D01*
X76550Y-51114D01*
X76632Y-51116D01*
X76712Y-51101D01*
X76788Y-51072D01*
X76856Y-51028D01*
X76915Y-50972D01*
X76962Y-50906D01*
X76995Y-50831D01*
X77013Y-50752D01*
X77015Y-50659D01*
X77015Y-51418D01*
X76977Y-51407D01*
X76892Y-51492D01*
X76892Y-51322D01*
X76865Y-51232D01*
X76769Y-51189D01*
X76667Y-51166D01*
X76562Y-51163D01*
X76458Y-51180D01*
X76360Y-51218D01*
X76334Y-51232D01*
X76307Y-51322D01*
X76600Y-51615D01*
X76892Y-51322D01*
X76892Y-51492D01*
X76684Y-51700D01*
X76977Y-51992D01*
X77067Y-51965D01*
X77100Y-51892D01*
X77118Y-51939D01*
X77132Y-51965D01*
X77222Y-51992D01*
X77515Y-51700D01*
X77515Y-51869D01*
X77307Y-52077D01*
X77334Y-52167D01*
X77430Y-52210D01*
X77532Y-52233D01*
X77637Y-52236D01*
X77741Y-52219D01*
X77839Y-52181D01*
X77865Y-52167D01*
X77892Y-52077D01*
X77892Y-54805D01*
X77865Y-54778D01*
X77798Y-54732D01*
X77723Y-54701D01*
X77643Y-54685D01*
X77562Y-54684D01*
X77482Y-54699D01*
X77406Y-54730D01*
X77338Y-54774D01*
X77280Y-54831D01*
X77234Y-54898D01*
X77202Y-54973D01*
X77185Y-55053D01*
X77184Y-55134D01*
X77198Y-55215D01*
X77228Y-55290D01*
X77272Y-55359D01*
X77329Y-55417D01*
X77396Y-55464D01*
X77471Y-55496D01*
X77550Y-55514D01*
X77632Y-55516D01*
X77712Y-55501D01*
X77788Y-55472D01*
X77856Y-55428D01*
X77915Y-55372D01*
X77962Y-55306D01*
X77995Y-55231D01*
X78013Y-55152D01*
X78015Y-55059D01*
X78015Y-55818D01*
X77977Y-55807D01*
X77892Y-55892D01*
X77892Y-55722D01*
X77865Y-55632D01*
X77769Y-55589D01*
X77667Y-55566D01*
X77562Y-55563D01*
X77458Y-55580D01*
X77360Y-55618D01*
X77334Y-55632D01*
X77307Y-55722D01*
X77600Y-56015D01*
X77892Y-55722D01*
X77892Y-55892D01*
X77684Y-56100D01*
X77977Y-56392D01*
X78067Y-56365D01*
X78100Y-56292D01*
X78118Y-56339D01*
X78132Y-56365D01*
X78222Y-56392D01*
X78515Y-56100D01*
X78515Y-56269D01*
X78307Y-56477D01*
X78334Y-56567D01*
X78430Y-56610D01*
X78532Y-56633D01*
X78637Y-56636D01*
X78741Y-56619D01*
X78839Y-56581D01*
X78865Y-56567D01*
X78892Y-56477D01*
X78892Y-57460D01*
X77892Y-57460D01*
X77892Y-56477D01*
X77600Y-56184D01*
X77515Y-56269D01*
X77515Y-56100D01*
X77222Y-55807D01*
X77132Y-55834D01*
X77099Y-55907D01*
X77081Y-55860D01*
X77067Y-55834D01*
X77015Y-55818D01*
X77015Y-55059D01*
X76999Y-54979D01*
X76968Y-54904D01*
X76923Y-54836D01*
X76892Y-54805D01*
X76892Y-52077D01*
X76600Y-51784D01*
X76515Y-51869D01*
X76515Y-51700D01*
X76222Y-51407D01*
X76132Y-51434D01*
X76099Y-51507D01*
X76081Y-51460D01*
X76067Y-51434D01*
X76015Y-51418D01*
X76015Y-50659D01*
X75999Y-50579D01*
X75968Y-50504D01*
X75923Y-50436D01*
X75865Y-50378D01*
X75798Y-50332D01*
X75723Y-50301D01*
X75643Y-50285D01*
X75562Y-50284D01*
X75482Y-50299D01*
X75406Y-50330D01*
X75338Y-50374D01*
X75280Y-50431D01*
X75234Y-50498D01*
X75202Y-50573D01*
X75185Y-50653D01*
X75184Y-50734D01*
X75198Y-50815D01*
X75228Y-50890D01*
X75272Y-50959D01*
X75329Y-51017D01*
X75396Y-51064D01*
X75471Y-51096D01*
X75550Y-51114D01*
X75632Y-51116D01*
X75712Y-51101D01*
X75788Y-51072D01*
X75856Y-51028D01*
X75915Y-50972D01*
X75962Y-50906D01*
X75995Y-50831D01*
X76013Y-50752D01*
X76015Y-50659D01*
X76015Y-51418D01*
X75977Y-51407D01*
X75892Y-51492D01*
X75892Y-51322D01*
X75865Y-51232D01*
X75769Y-51189D01*
X75667Y-51166D01*
X75562Y-51163D01*
X75458Y-51180D01*
X75360Y-51218D01*
X75334Y-51232D01*
X75307Y-51322D01*
X75600Y-51615D01*
X75892Y-51322D01*
X75892Y-51492D01*
X75684Y-51700D01*
X75977Y-51992D01*
X76067Y-51965D01*
X76100Y-51892D01*
X76118Y-51939D01*
X76132Y-51965D01*
X76222Y-51992D01*
X76515Y-51700D01*
X76515Y-51869D01*
X76307Y-52077D01*
X76334Y-52167D01*
X76430Y-52210D01*
X76532Y-52233D01*
X76637Y-52236D01*
X76741Y-52219D01*
X76839Y-52181D01*
X76865Y-52167D01*
X76892Y-52077D01*
X76892Y-54805D01*
X76865Y-54778D01*
X76798Y-54732D01*
X76723Y-54701D01*
X76643Y-54685D01*
X76562Y-54684D01*
X76482Y-54699D01*
X76406Y-54730D01*
X76338Y-54774D01*
X76280Y-54831D01*
X76234Y-54898D01*
X76202Y-54973D01*
X76185Y-55053D01*
X76184Y-55134D01*
X76198Y-55215D01*
X76228Y-55290D01*
X76272Y-55359D01*
X76329Y-55417D01*
X76396Y-55464D01*
X76471Y-55496D01*
X76550Y-55514D01*
X76632Y-55516D01*
X76712Y-55501D01*
X76788Y-55472D01*
X76856Y-55428D01*
X76915Y-55372D01*
X76962Y-55306D01*
X76995Y-55231D01*
X77013Y-55152D01*
X77015Y-55059D01*
X77015Y-55818D01*
X76977Y-55807D01*
X76892Y-55892D01*
X76892Y-55722D01*
X76865Y-55632D01*
X76769Y-55589D01*
X76667Y-55566D01*
X76562Y-55563D01*
X76458Y-55580D01*
X76360Y-55618D01*
X76334Y-55632D01*
X76307Y-55722D01*
X76600Y-56015D01*
X76892Y-55722D01*
X76892Y-55892D01*
X76684Y-56100D01*
X76977Y-56392D01*
X77067Y-56365D01*
X77100Y-56292D01*
X77118Y-56339D01*
X77132Y-56365D01*
X77222Y-56392D01*
X77515Y-56100D01*
X77515Y-56269D01*
X77307Y-56477D01*
X77334Y-56567D01*
X77430Y-56610D01*
X77532Y-56633D01*
X77637Y-56636D01*
X77741Y-56619D01*
X77839Y-56581D01*
X77865Y-56567D01*
X77892Y-56477D01*
X77892Y-57460D01*
X76892Y-57460D01*
X76892Y-56477D01*
X76600Y-56184D01*
X76515Y-56269D01*
X76515Y-56100D01*
X76222Y-55807D01*
X76132Y-55834D01*
X76099Y-55907D01*
X76081Y-55860D01*
X76067Y-55834D01*
X76015Y-55818D01*
X76015Y-55059D01*
X75999Y-54979D01*
X75968Y-54904D01*
X75923Y-54836D01*
X75892Y-54805D01*
X75892Y-52077D01*
X75600Y-51784D01*
X75515Y-51869D01*
X75515Y-51700D01*
X75222Y-51407D01*
X75132Y-51434D01*
X75099Y-51507D01*
X75081Y-51460D01*
X75067Y-51434D01*
X75015Y-51418D01*
X75015Y-50659D01*
X74999Y-50579D01*
X74968Y-50504D01*
X74923Y-50436D01*
X74865Y-50378D01*
X74798Y-50332D01*
X74723Y-50301D01*
X74643Y-50285D01*
X74562Y-50284D01*
X74482Y-50299D01*
X74406Y-50330D01*
X74338Y-50374D01*
X74280Y-50431D01*
X74234Y-50498D01*
X74202Y-50573D01*
X74185Y-50653D01*
X74184Y-50734D01*
X74198Y-50815D01*
X74228Y-50890D01*
X74272Y-50959D01*
X74329Y-51017D01*
X74396Y-51064D01*
X74471Y-51096D01*
X74550Y-51114D01*
X74632Y-51116D01*
X74712Y-51101D01*
X74788Y-51072D01*
X74856Y-51028D01*
X74915Y-50972D01*
X74962Y-50906D01*
X74995Y-50831D01*
X75013Y-50752D01*
X75015Y-50659D01*
X75015Y-51418D01*
X74977Y-51407D01*
X74892Y-51492D01*
X74892Y-51322D01*
X74865Y-51232D01*
X74769Y-51189D01*
X74667Y-51166D01*
X74562Y-51163D01*
X74458Y-51180D01*
X74360Y-51218D01*
X74334Y-51232D01*
X74307Y-51322D01*
X74600Y-51615D01*
X74892Y-51322D01*
X74892Y-51492D01*
X74684Y-51700D01*
X74977Y-51992D01*
X75067Y-51965D01*
X75100Y-51892D01*
X75118Y-51939D01*
X75132Y-51965D01*
X75222Y-51992D01*
X75515Y-51700D01*
X75515Y-51869D01*
X75307Y-52077D01*
X75334Y-52167D01*
X75430Y-52210D01*
X75532Y-52233D01*
X75637Y-52236D01*
X75741Y-52219D01*
X75839Y-52181D01*
X75865Y-52167D01*
X75892Y-52077D01*
X75892Y-54805D01*
X75865Y-54778D01*
X75798Y-54732D01*
X75723Y-54701D01*
X75643Y-54685D01*
X75562Y-54684D01*
X75482Y-54699D01*
X75406Y-54730D01*
X75338Y-54774D01*
X75280Y-54831D01*
X75234Y-54898D01*
X75202Y-54973D01*
X75185Y-55053D01*
X75184Y-55134D01*
X75198Y-55215D01*
X75228Y-55290D01*
X75272Y-55359D01*
X75329Y-55417D01*
X75396Y-55464D01*
X75471Y-55496D01*
X75550Y-55514D01*
X75632Y-55516D01*
X75712Y-55501D01*
X75788Y-55472D01*
X75856Y-55428D01*
X75915Y-55372D01*
X75962Y-55306D01*
X75995Y-55231D01*
X76013Y-55152D01*
X76015Y-55059D01*
X76015Y-55818D01*
X75977Y-55807D01*
X75892Y-55892D01*
X75892Y-55722D01*
X75865Y-55632D01*
X75769Y-55589D01*
X75667Y-55566D01*
X75562Y-55563D01*
X75458Y-55580D01*
X75360Y-55618D01*
X75334Y-55632D01*
X75307Y-55722D01*
X75600Y-56015D01*
X75892Y-55722D01*
X75892Y-55892D01*
X75684Y-56100D01*
X75977Y-56392D01*
X76067Y-56365D01*
X76100Y-56292D01*
X76118Y-56339D01*
X76132Y-56365D01*
X76222Y-56392D01*
X76515Y-56100D01*
X76515Y-56269D01*
X76307Y-56477D01*
X76334Y-56567D01*
X76430Y-56610D01*
X76532Y-56633D01*
X76637Y-56636D01*
X76741Y-56619D01*
X76839Y-56581D01*
X76865Y-56567D01*
X76892Y-56477D01*
X76892Y-57460D01*
X75892Y-57460D01*
X75892Y-56477D01*
X75600Y-56184D01*
X75515Y-56269D01*
X75515Y-56100D01*
X75222Y-55807D01*
X75132Y-55834D01*
X75099Y-55907D01*
X75081Y-55860D01*
X75067Y-55834D01*
X75015Y-55818D01*
X75015Y-55059D01*
X74999Y-54979D01*
X74968Y-54904D01*
X74923Y-54836D01*
X74892Y-54805D01*
X74892Y-52077D01*
X74600Y-51784D01*
X74515Y-51869D01*
X74515Y-51700D01*
X74222Y-51407D01*
X74132Y-51434D01*
X74099Y-51507D01*
X74081Y-51460D01*
X74067Y-51434D01*
X73977Y-51407D01*
X73892Y-51492D01*
X73892Y-51322D01*
X73865Y-51232D01*
X73769Y-51189D01*
X73667Y-51166D01*
X73562Y-51163D01*
X73458Y-51180D01*
X73360Y-51218D01*
X73334Y-51232D01*
X73307Y-51322D01*
X73600Y-51615D01*
X73892Y-51322D01*
X73892Y-51492D01*
X73684Y-51700D01*
X73977Y-51992D01*
X74067Y-51965D01*
X74100Y-51892D01*
X74118Y-51939D01*
X74132Y-51965D01*
X74222Y-51992D01*
X74515Y-51700D01*
X74515Y-51869D01*
X74307Y-52077D01*
X74334Y-52167D01*
X74430Y-52210D01*
X74532Y-52233D01*
X74637Y-52236D01*
X74741Y-52219D01*
X74839Y-52181D01*
X74865Y-52167D01*
X74892Y-52077D01*
X74892Y-54805D01*
X74865Y-54778D01*
X74798Y-54732D01*
X74723Y-54701D01*
X74643Y-54685D01*
X74562Y-54684D01*
X74482Y-54699D01*
X74406Y-54730D01*
X74338Y-54774D01*
X74280Y-54831D01*
X74234Y-54898D01*
X74202Y-54973D01*
X74185Y-55053D01*
X74184Y-55134D01*
X74198Y-55215D01*
X74228Y-55290D01*
X74272Y-55359D01*
X74329Y-55417D01*
X74396Y-55464D01*
X74471Y-55496D01*
X74550Y-55514D01*
X74632Y-55516D01*
X74712Y-55501D01*
X74788Y-55472D01*
X74856Y-55428D01*
X74915Y-55372D01*
X74962Y-55306D01*
X74995Y-55231D01*
X75013Y-55152D01*
X75015Y-55059D01*
X75015Y-55818D01*
X74977Y-55807D01*
X74892Y-55892D01*
X74892Y-55722D01*
X74865Y-55632D01*
X74769Y-55589D01*
X74667Y-55566D01*
X74562Y-55563D01*
X74458Y-55580D01*
X74360Y-55618D01*
X74334Y-55632D01*
X74307Y-55722D01*
X74600Y-56015D01*
X74892Y-55722D01*
X74892Y-55892D01*
X74684Y-56100D01*
X74977Y-56392D01*
X75067Y-56365D01*
X75100Y-56292D01*
X75118Y-56339D01*
X75132Y-56365D01*
X75222Y-56392D01*
X75515Y-56100D01*
X75515Y-56269D01*
X75307Y-56477D01*
X75334Y-56567D01*
X75430Y-56610D01*
X75532Y-56633D01*
X75637Y-56636D01*
X75741Y-56619D01*
X75839Y-56581D01*
X75865Y-56567D01*
X75892Y-56477D01*
X75892Y-57460D01*
X74892Y-57460D01*
X74892Y-56477D01*
X74600Y-56184D01*
X74515Y-56269D01*
X74515Y-56100D01*
X74222Y-55807D01*
X74132Y-55834D01*
X74099Y-55907D01*
X74081Y-55860D01*
X74067Y-55834D01*
X74015Y-55818D01*
X74015Y-55059D01*
X73999Y-54979D01*
X73968Y-54904D01*
X73923Y-54836D01*
X73892Y-54805D01*
X73892Y-52077D01*
X73600Y-51784D01*
X73515Y-51869D01*
X73515Y-51700D01*
X73222Y-51407D01*
X73132Y-51434D01*
X73089Y-51530D01*
X73066Y-51632D01*
X73063Y-51737D01*
X73080Y-51841D01*
X73118Y-51939D01*
X73132Y-51965D01*
X73222Y-51992D01*
X73515Y-51700D01*
X73515Y-51869D01*
X73307Y-52077D01*
X73334Y-52167D01*
X73430Y-52210D01*
X73532Y-52233D01*
X73637Y-52236D01*
X73741Y-52219D01*
X73839Y-52181D01*
X73865Y-52167D01*
X73892Y-52077D01*
X73892Y-54805D01*
X73865Y-54778D01*
X73798Y-54732D01*
X73723Y-54701D01*
X73643Y-54685D01*
X73562Y-54684D01*
X73482Y-54699D01*
X73406Y-54730D01*
X73338Y-54774D01*
X73280Y-54831D01*
X73234Y-54898D01*
X73202Y-54973D01*
X73185Y-55053D01*
X73184Y-55134D01*
X73198Y-55215D01*
X73228Y-55290D01*
X73272Y-55359D01*
X73329Y-55417D01*
X73396Y-55464D01*
X73471Y-55496D01*
X73550Y-55514D01*
X73632Y-55516D01*
X73712Y-55501D01*
X73788Y-55472D01*
X73856Y-55428D01*
X73915Y-55372D01*
X73962Y-55306D01*
X73995Y-55231D01*
X74013Y-55152D01*
X74015Y-55059D01*
X74015Y-55818D01*
X73977Y-55807D01*
X73892Y-55892D01*
X73892Y-55722D01*
X73865Y-55632D01*
X73769Y-55589D01*
X73667Y-55566D01*
X73562Y-55563D01*
X73458Y-55580D01*
X73360Y-55618D01*
X73334Y-55632D01*
X73307Y-55722D01*
X73600Y-56015D01*
X73892Y-55722D01*
X73892Y-55892D01*
X73684Y-56100D01*
X73977Y-56392D01*
X74067Y-56365D01*
X74100Y-56292D01*
X74118Y-56339D01*
X74132Y-56365D01*
X74222Y-56392D01*
X74515Y-56100D01*
X74515Y-56269D01*
X74307Y-56477D01*
X74334Y-56567D01*
X74430Y-56610D01*
X74532Y-56633D01*
X74637Y-56636D01*
X74741Y-56619D01*
X74839Y-56581D01*
X74865Y-56567D01*
X74892Y-56477D01*
X74892Y-57460D01*
X73892Y-57460D01*
X73892Y-56477D01*
X73600Y-56184D01*
X73515Y-56269D01*
X73515Y-56100D01*
X73222Y-55807D01*
X73132Y-55834D01*
X73089Y-55930D01*
X73066Y-56032D01*
X73063Y-56137D01*
X73080Y-56241D01*
X73118Y-56339D01*
X73132Y-56365D01*
X73222Y-56392D01*
X73515Y-56100D01*
X73515Y-56269D01*
X73307Y-56477D01*
X73334Y-56567D01*
X73430Y-56610D01*
X73532Y-56633D01*
X73637Y-56636D01*
X73741Y-56619D01*
X73839Y-56581D01*
X73865Y-56567D01*
X73892Y-56477D01*
X73892Y-57460D01*
X73400Y-57460D01*
X73399Y-57460D01*
X73217Y-57460D01*
X73051Y-57428D01*
X72895Y-57364D01*
X72754Y-57271D01*
X72634Y-57152D01*
X72540Y-57012D01*
X72474Y-56857D01*
X72439Y-56689D01*
X72439Y-56300D01*
X72439Y-47513D01*
X72472Y-47348D01*
X72537Y-47192D01*
X72630Y-47052D01*
X72750Y-46932D01*
X72890Y-46838D01*
X73045Y-46773D01*
X73211Y-46739D01*
X73386Y-46739D01*
X73386Y-46739D01*
X73392Y-46739D01*
X73398Y-46739D01*
X73400Y-46739D01*
X75548Y-46739D01*
X73493Y-48793D01*
X73485Y-48804D01*
X73476Y-48815D01*
X73475Y-48815D01*
X73475Y-48816D01*
X73468Y-48828D01*
X73462Y-48840D01*
X73461Y-48841D01*
X73461Y-48842D01*
X73457Y-48855D01*
X73453Y-48868D01*
X73453Y-48869D01*
X73452Y-48870D01*
X73451Y-48884D01*
X73450Y-48897D01*
X73450Y-48899D01*
X73450Y-48899D01*
X73450Y-48899D01*
X73450Y-48900D01*
X73450Y-50312D01*
X73406Y-50330D01*
X73338Y-50374D01*
X73280Y-50431D01*
X73234Y-50498D01*
X73202Y-50573D01*
X73185Y-50653D01*
X73184Y-50734D01*
X73198Y-50815D01*
X73228Y-50890D01*
X73272Y-50959D01*
X73329Y-51017D01*
X73396Y-51064D01*
X73471Y-51096D01*
X73550Y-51114D01*
X73632Y-51116D01*
X73712Y-51101D01*
X73788Y-51072D01*
X73856Y-51028D01*
X73915Y-50972D01*
X73962Y-50906D01*
X73995Y-50831D01*
X74013Y-50752D01*
X74015Y-50659D01*
X73999Y-50579D01*
X73968Y-50504D01*
X73923Y-50436D01*
X73865Y-50378D01*
X73798Y-50332D01*
X73750Y-50312D01*
X73750Y-48962D01*
X75862Y-46850D01*
X76637Y-46850D01*
X76493Y-46993D01*
X76485Y-47004D01*
X76476Y-47015D01*
X76475Y-47015D01*
X76475Y-47016D01*
X76468Y-47028D01*
X76462Y-47040D01*
X76461Y-47041D01*
X76461Y-47042D01*
X76457Y-47055D01*
X76453Y-47068D01*
X76453Y-47069D01*
X76452Y-47070D01*
X76451Y-47084D01*
X76450Y-47097D01*
X76450Y-47099D01*
X76450Y-47099D01*
X76450Y-47099D01*
X76450Y-47100D01*
X76450Y-48800D01*
X76451Y-48813D01*
X76452Y-48827D01*
X76452Y-48828D01*
X76452Y-48829D01*
X76456Y-48842D01*
X76460Y-48855D01*
X76461Y-48856D01*
X76461Y-48857D01*
X76467Y-48869D01*
X76474Y-48881D01*
X76474Y-48882D01*
X76475Y-48883D01*
X76483Y-48893D01*
X76492Y-48904D01*
X76493Y-48905D01*
X76493Y-48905D01*
X76493Y-48905D01*
X76493Y-48906D01*
X77450Y-49862D01*
X77450Y-50312D01*
X77406Y-50330D01*
X77338Y-50374D01*
X77280Y-50431D01*
X77234Y-50498D01*
X77202Y-50573D01*
X77185Y-50653D01*
X77184Y-50734D01*
X77198Y-50815D01*
X77228Y-50890D01*
X77272Y-50959D01*
X77329Y-51017D01*
X77396Y-51064D01*
X77471Y-51096D01*
X77550Y-51114D01*
X77632Y-51116D01*
X77712Y-51101D01*
X77788Y-51072D01*
X77856Y-51028D01*
X77915Y-50972D01*
X77962Y-50906D01*
X77995Y-50831D01*
X78013Y-50752D01*
X78015Y-50659D01*
X77999Y-50579D01*
X77968Y-50504D01*
X77923Y-50436D01*
X77865Y-50378D01*
X77798Y-50332D01*
X77750Y-50312D01*
X77750Y-49800D01*
X77748Y-49786D01*
X77747Y-49772D01*
X77747Y-49771D01*
X77747Y-49770D01*
X77743Y-49757D01*
X77739Y-49744D01*
X77738Y-49743D01*
X77738Y-49742D01*
X77732Y-49730D01*
X77725Y-49718D01*
X77725Y-49717D01*
X77724Y-49716D01*
X77716Y-49706D01*
X77707Y-49695D01*
X77706Y-49694D01*
X77706Y-49694D01*
X77706Y-49694D01*
X77706Y-49693D01*
X76750Y-48737D01*
X76750Y-47162D01*
X76862Y-47050D01*
X76899Y-47050D01*
X76868Y-47095D01*
X76843Y-47152D01*
X76830Y-47214D01*
X76829Y-47276D01*
X76840Y-47338D01*
X76864Y-47396D01*
X76898Y-47449D01*
X76941Y-47494D01*
X76948Y-47499D01*
X76903Y-47543D01*
X76868Y-47595D01*
X76843Y-47652D01*
X76830Y-47714D01*
X76829Y-47776D01*
X76840Y-47838D01*
X76864Y-47896D01*
X76898Y-47949D01*
X76941Y-47994D01*
X76993Y-48030D01*
X77050Y-48055D01*
X77111Y-48069D01*
X77174Y-48070D01*
X77236Y-48059D01*
X77294Y-48037D01*
X77347Y-48003D01*
X77393Y-47960D01*
X77399Y-47951D01*
X77441Y-47994D01*
X77490Y-48028D01*
X77490Y-48150D01*
X77491Y-48164D01*
X77492Y-48179D01*
X77492Y-48180D01*
X77493Y-48181D01*
X77497Y-48195D01*
X77501Y-48209D01*
X77501Y-48210D01*
X77502Y-48210D01*
X77509Y-48224D01*
X77515Y-48237D01*
X77516Y-48237D01*
X77516Y-48238D01*
X77526Y-48250D01*
X77535Y-48261D01*
X77536Y-48262D01*
X77536Y-48262D01*
X77536Y-48262D01*
X77536Y-48263D01*
X78286Y-49013D01*
X78298Y-49022D01*
X78309Y-49032D01*
X78310Y-49032D01*
X78310Y-49032D01*
X78323Y-49039D01*
X78336Y-49047D01*
X78337Y-49047D01*
X78338Y-49047D01*
X78352Y-49052D01*
X78366Y-49056D01*
X78367Y-49056D01*
X78368Y-49056D01*
X78383Y-49058D01*
X78397Y-49059D01*
X78399Y-49059D01*
X78399Y-49059D01*
X78399Y-49059D01*
X78400Y-49060D01*
X79733Y-49060D01*
X80440Y-49766D01*
X80440Y-50316D01*
X80406Y-50330D01*
X80338Y-50374D01*
X80280Y-50431D01*
X80234Y-50498D01*
X80202Y-50573D01*
X80185Y-50653D01*
X80184Y-50734D01*
X80198Y-50815D01*
X80228Y-50890D01*
X80272Y-50959D01*
X80329Y-51017D01*
X80396Y-51064D01*
X80471Y-51096D01*
X80550Y-51114D01*
X80632Y-51116D01*
X80712Y-51101D01*
X80788Y-51072D01*
X80856Y-51028D01*
X80915Y-50972D01*
X80962Y-50906D01*
X80995Y-50831D01*
X81013Y-50752D01*
X81015Y-50659D01*
X80999Y-50579D01*
X80968Y-50504D01*
X80923Y-50436D01*
X80865Y-50378D01*
X80798Y-50332D01*
X80760Y-50316D01*
X80760Y-49700D01*
X80758Y-49685D01*
X80757Y-49670D01*
X80757Y-49669D01*
X80756Y-49668D01*
X80752Y-49654D01*
X80748Y-49640D01*
X80748Y-49639D01*
X80747Y-49639D01*
X80740Y-49625D01*
X80734Y-49612D01*
X80733Y-49612D01*
X80733Y-49611D01*
X80723Y-49599D01*
X80714Y-49588D01*
X80713Y-49587D01*
X80713Y-49587D01*
X80713Y-49587D01*
X80713Y-49586D01*
X79913Y-48786D01*
X79901Y-48777D01*
X79890Y-48767D01*
X79889Y-48767D01*
X79889Y-48767D01*
X79875Y-48760D01*
X79863Y-48752D01*
X79862Y-48752D01*
X79861Y-48752D01*
X79847Y-48747D01*
X79833Y-48743D01*
X79832Y-48743D01*
X79831Y-48743D01*
X79816Y-48741D01*
X79802Y-48740D01*
X79800Y-48740D01*
X79800Y-48740D01*
X79800Y-48740D01*
X79800Y-48740D01*
X78466Y-48740D01*
X77810Y-48083D01*
X77810Y-48027D01*
X77847Y-48003D01*
X77893Y-47960D01*
X77899Y-47951D01*
X77941Y-47994D01*
X77993Y-48030D01*
X78050Y-48055D01*
X78111Y-48069D01*
X78174Y-48070D01*
X78236Y-48059D01*
X78294Y-48037D01*
X78347Y-48003D01*
X78393Y-47960D01*
X78399Y-47951D01*
X78441Y-47994D01*
X78493Y-48030D01*
X78550Y-48055D01*
X78611Y-48069D01*
X78674Y-48070D01*
X78736Y-48059D01*
X78794Y-48037D01*
X78847Y-48003D01*
X78893Y-47960D01*
X78899Y-47951D01*
X78941Y-47994D01*
X78993Y-48030D01*
X79050Y-48055D01*
X79111Y-48069D01*
X79174Y-48070D01*
X79236Y-48059D01*
X79294Y-48037D01*
X79347Y-48003D01*
X79393Y-47960D01*
X79429Y-47908D01*
X79455Y-47851D01*
X79469Y-47790D01*
X79470Y-47718D01*
X79457Y-47657D01*
X79433Y-47599D01*
X79405Y-47556D01*
X79406Y-47556D01*
X79426Y-47543D01*
X79442Y-47526D01*
X79456Y-47507D01*
X79465Y-47485D01*
X79469Y-47462D01*
X79470Y-47439D01*
X79470Y-47400D01*
X79687Y-47400D01*
X82450Y-50162D01*
X82450Y-50312D01*
X82406Y-50330D01*
X82338Y-50374D01*
X82280Y-50431D01*
X82234Y-50498D01*
X82202Y-50573D01*
X82185Y-50653D01*
X82184Y-50734D01*
X82198Y-50815D01*
X82228Y-50890D01*
X82272Y-50959D01*
X82329Y-51017D01*
X82396Y-51064D01*
X82471Y-51096D01*
X82550Y-51114D01*
X82632Y-51116D01*
X82712Y-51101D01*
X82788Y-51072D01*
X82856Y-51028D01*
X82915Y-50972D01*
X82962Y-50906D01*
X82995Y-50831D01*
X83013Y-50752D01*
X83015Y-50659D01*
X82999Y-50579D01*
X82968Y-50504D01*
X82923Y-50436D01*
X82865Y-50378D01*
X82798Y-50332D01*
X82750Y-50312D01*
X82750Y-50100D01*
X82748Y-50086D01*
X82747Y-50072D01*
X82747Y-50071D01*
X82747Y-50070D01*
X82743Y-50057D01*
X82739Y-50044D01*
X82738Y-50043D01*
X82738Y-50042D01*
X82732Y-50030D01*
X82725Y-50018D01*
X82725Y-50017D01*
X82724Y-50016D01*
X82716Y-50006D01*
X82707Y-49995D01*
X82706Y-49994D01*
X82706Y-49994D01*
X82706Y-49994D01*
X82706Y-49993D01*
X79856Y-47143D01*
X79845Y-47135D01*
X79834Y-47126D01*
X79834Y-47125D01*
X79833Y-47125D01*
X79821Y-47118D01*
X79809Y-47112D01*
X79808Y-47111D01*
X79807Y-47111D01*
X79794Y-47107D01*
X79781Y-47103D01*
X79780Y-47103D01*
X79779Y-47102D01*
X79765Y-47101D01*
X79752Y-47100D01*
X79750Y-47100D01*
X79750Y-47100D01*
X79750Y-47100D01*
X79750Y-47100D01*
X79470Y-47100D01*
X79470Y-47038D01*
X79465Y-47015D01*
X79456Y-46993D01*
X79443Y-46973D01*
X79426Y-46957D01*
X79407Y-46943D01*
X79385Y-46934D01*
X79362Y-46930D01*
X79339Y-46929D01*
X78954Y-46929D01*
X78920Y-46895D01*
X78874Y-46940D01*
X78858Y-46860D01*
X78779Y-46827D01*
X78694Y-46810D01*
X78608Y-46809D01*
X78523Y-46826D01*
X78443Y-46858D01*
X78441Y-46860D01*
X78425Y-46940D01*
X78650Y-47165D01*
X78655Y-47159D01*
X78740Y-47244D01*
X78734Y-47250D01*
X78740Y-47255D01*
X78655Y-47340D01*
X78650Y-47334D01*
X78644Y-47340D01*
X78559Y-47255D01*
X78565Y-47250D01*
X78447Y-47132D01*
X78433Y-47099D01*
X78399Y-47046D01*
X78354Y-47002D01*
X78302Y-46967D01*
X78245Y-46942D01*
X78183Y-46930D01*
X78120Y-46929D01*
X78059Y-46941D01*
X78055Y-46943D01*
X77851Y-46739D01*
X82893Y-46739D01*
X83066Y-46756D01*
X83227Y-46805D01*
X83375Y-46883D01*
X83505Y-46990D01*
X83612Y-47119D01*
X83692Y-47266D01*
X83742Y-47427D01*
X83760Y-47600D01*
X83760Y-56300D01*
X83760Y-56593D01*
X83760Y-56593D01*
G37*
G54D14*
X83760Y-56593D02*
X83743Y-56766D01*
X83694Y-56927D01*
X83616Y-57075D01*
X83509Y-57205D01*
X83380Y-57312D01*
X83233Y-57392D01*
X83072Y-57442D01*
X83015Y-57448D01*
X83015Y-56059D01*
X83015Y-55059D01*
X83015Y-51659D01*
X82999Y-51579D01*
X82968Y-51504D01*
X82923Y-51436D01*
X82865Y-51378D01*
X82798Y-51332D01*
X82723Y-51301D01*
X82643Y-51285D01*
X82562Y-51284D01*
X82482Y-51299D01*
X82406Y-51330D01*
X82338Y-51374D01*
X82280Y-51431D01*
X82234Y-51498D01*
X82202Y-51573D01*
X82185Y-51653D01*
X82184Y-51734D01*
X82198Y-51815D01*
X82228Y-51890D01*
X82272Y-51959D01*
X82329Y-52017D01*
X82396Y-52064D01*
X82471Y-52096D01*
X82550Y-52114D01*
X82632Y-52116D01*
X82712Y-52101D01*
X82788Y-52072D01*
X82856Y-52028D01*
X82915Y-51972D01*
X82962Y-51906D01*
X82995Y-51831D01*
X83013Y-51752D01*
X83015Y-51659D01*
X83015Y-55059D01*
X82999Y-54979D01*
X82968Y-54904D01*
X82923Y-54836D01*
X82865Y-54778D01*
X82798Y-54732D01*
X82723Y-54701D01*
X82643Y-54685D01*
X82562Y-54684D01*
X82482Y-54699D01*
X82406Y-54730D01*
X82338Y-54774D01*
X82280Y-54831D01*
X82234Y-54898D01*
X82202Y-54973D01*
X82185Y-55053D01*
X82184Y-55134D01*
X82198Y-55215D01*
X82228Y-55290D01*
X82272Y-55359D01*
X82329Y-55417D01*
X82396Y-55464D01*
X82471Y-55496D01*
X82550Y-55514D01*
X82632Y-55516D01*
X82712Y-55501D01*
X82788Y-55472D01*
X82856Y-55428D01*
X82915Y-55372D01*
X82962Y-55306D01*
X82995Y-55231D01*
X83013Y-55152D01*
X83015Y-55059D01*
X83015Y-56059D01*
X82999Y-55979D01*
X82968Y-55904D01*
X82923Y-55836D01*
X82865Y-55778D01*
X82798Y-55732D01*
X82723Y-55701D01*
X82643Y-55685D01*
X82562Y-55684D01*
X82482Y-55699D01*
X82406Y-55730D01*
X82338Y-55774D01*
X82280Y-55831D01*
X82234Y-55898D01*
X82202Y-55973D01*
X82185Y-56053D01*
X82184Y-56134D01*
X82198Y-56215D01*
X82228Y-56290D01*
X82272Y-56359D01*
X82329Y-56417D01*
X82396Y-56464D01*
X82471Y-56496D01*
X82550Y-56514D01*
X82632Y-56516D01*
X82712Y-56501D01*
X82788Y-56472D01*
X82856Y-56428D01*
X82915Y-56372D01*
X82962Y-56306D01*
X82995Y-56231D01*
X83013Y-56152D01*
X83015Y-56059D01*
X83015Y-57448D01*
X82899Y-57460D01*
X82136Y-57460D01*
X82136Y-56062D01*
X82136Y-51662D01*
X82119Y-51558D01*
X82081Y-51460D01*
X82067Y-51434D01*
X82015Y-51418D01*
X82015Y-50659D01*
X81999Y-50579D01*
X81968Y-50504D01*
X81923Y-50436D01*
X81865Y-50378D01*
X81798Y-50332D01*
X81723Y-50301D01*
X81643Y-50285D01*
X81562Y-50284D01*
X81482Y-50299D01*
X81406Y-50330D01*
X81338Y-50374D01*
X81280Y-50431D01*
X81234Y-50498D01*
X81202Y-50573D01*
X81185Y-50653D01*
X81184Y-50734D01*
X81198Y-50815D01*
X81228Y-50890D01*
X81272Y-50959D01*
X81329Y-51017D01*
X81396Y-51064D01*
X81471Y-51096D01*
X81550Y-51114D01*
X81632Y-51116D01*
X81712Y-51101D01*
X81788Y-51072D01*
X81856Y-51028D01*
X81915Y-50972D01*
X81962Y-50906D01*
X81995Y-50831D01*
X82013Y-50752D01*
X82015Y-50659D01*
X82015Y-51418D01*
X81977Y-51407D01*
X81892Y-51492D01*
X81892Y-51322D01*
X81865Y-51232D01*
X81769Y-51189D01*
X81667Y-51166D01*
X81562Y-51163D01*
X81458Y-51180D01*
X81360Y-51218D01*
X81334Y-51232D01*
X81307Y-51322D01*
X81600Y-51615D01*
X81892Y-51322D01*
X81892Y-51492D01*
X81684Y-51700D01*
X81977Y-51992D01*
X82067Y-51965D01*
X82110Y-51869D01*
X82133Y-51767D01*
X82136Y-51662D01*
X82136Y-56062D01*
X82119Y-55958D01*
X82081Y-55860D01*
X82067Y-55834D01*
X82015Y-55818D01*
X82015Y-55059D01*
X81999Y-54979D01*
X81968Y-54904D01*
X81923Y-54836D01*
X81892Y-54805D01*
X81892Y-52077D01*
X81600Y-51784D01*
X81515Y-51869D01*
X81515Y-51700D01*
X81222Y-51407D01*
X81132Y-51434D01*
X81099Y-51507D01*
X81081Y-51460D01*
X81067Y-51434D01*
X80977Y-51407D01*
X80892Y-51492D01*
X80892Y-51322D01*
X80865Y-51232D01*
X80769Y-51189D01*
X80667Y-51166D01*
X80562Y-51163D01*
X80458Y-51180D01*
X80360Y-51218D01*
X80334Y-51232D01*
X80307Y-51322D01*
X80600Y-51615D01*
X80892Y-51322D01*
X80892Y-51492D01*
X80684Y-51700D01*
X80977Y-51992D01*
X81067Y-51965D01*
X81100Y-51892D01*
X81118Y-51939D01*
X81132Y-51965D01*
X81222Y-51992D01*
X81515Y-51700D01*
X81515Y-51869D01*
X81307Y-52077D01*
X81334Y-52167D01*
X81430Y-52210D01*
X81532Y-52233D01*
X81637Y-52236D01*
X81741Y-52219D01*
X81839Y-52181D01*
X81865Y-52167D01*
X81892Y-52077D01*
X81892Y-54805D01*
X81865Y-54778D01*
X81798Y-54732D01*
X81723Y-54701D01*
X81643Y-54685D01*
X81562Y-54684D01*
X81482Y-54699D01*
X81406Y-54730D01*
X81338Y-54774D01*
X81280Y-54831D01*
X81234Y-54898D01*
X81202Y-54973D01*
X81185Y-55053D01*
X81184Y-55134D01*
X81198Y-55215D01*
X81228Y-55290D01*
X81272Y-55359D01*
X81329Y-55417D01*
X81396Y-55464D01*
X81471Y-55496D01*
X81550Y-55514D01*
X81632Y-55516D01*
X81712Y-55501D01*
X81788Y-55472D01*
X81856Y-55428D01*
X81915Y-55372D01*
X81962Y-55306D01*
X81995Y-55231D01*
X82013Y-55152D01*
X82015Y-55059D01*
X82015Y-55818D01*
X81977Y-55807D01*
X81892Y-55892D01*
X81892Y-55722D01*
X81865Y-55632D01*
X81769Y-55589D01*
X81667Y-55566D01*
X81562Y-55563D01*
X81458Y-55580D01*
X81360Y-55618D01*
X81334Y-55632D01*
X81307Y-55722D01*
X81600Y-56015D01*
X81892Y-55722D01*
X81892Y-55892D01*
X81684Y-56100D01*
X81977Y-56392D01*
X82067Y-56365D01*
X82110Y-56269D01*
X82133Y-56167D01*
X82136Y-56062D01*
X82136Y-57460D01*
X81892Y-57460D01*
X81892Y-56477D01*
X81600Y-56184D01*
X81515Y-56269D01*
X81515Y-56100D01*
X81222Y-55807D01*
X81132Y-55834D01*
X81099Y-55907D01*
X81081Y-55860D01*
X81067Y-55834D01*
X81015Y-55818D01*
X81015Y-55059D01*
X80999Y-54979D01*
X80968Y-54904D01*
X80923Y-54836D01*
X80892Y-54805D01*
X80892Y-52077D01*
X80600Y-51784D01*
X80515Y-51869D01*
X80515Y-51700D01*
X80222Y-51407D01*
X80132Y-51434D01*
X80099Y-51507D01*
X80081Y-51460D01*
X80067Y-51434D01*
X80015Y-51418D01*
X80015Y-50659D01*
X79999Y-50579D01*
X79968Y-50504D01*
X79923Y-50436D01*
X79865Y-50378D01*
X79798Y-50332D01*
X79723Y-50301D01*
X79643Y-50285D01*
X79562Y-50284D01*
X79482Y-50299D01*
X79406Y-50330D01*
X79338Y-50374D01*
X79280Y-50431D01*
X79234Y-50498D01*
X79202Y-50573D01*
X79185Y-50653D01*
X79184Y-50734D01*
X79198Y-50815D01*
X79228Y-50890D01*
X79272Y-50959D01*
X79329Y-51017D01*
X79396Y-51064D01*
X79471Y-51096D01*
X79550Y-51114D01*
X79632Y-51116D01*
X79712Y-51101D01*
X79788Y-51072D01*
X79856Y-51028D01*
X79915Y-50972D01*
X79962Y-50906D01*
X79995Y-50831D01*
X80013Y-50752D01*
X80015Y-50659D01*
X80015Y-51418D01*
X79977Y-51407D01*
X79892Y-51492D01*
X79892Y-51322D01*
X79865Y-51232D01*
X79769Y-51189D01*
X79667Y-51166D01*
X79562Y-51163D01*
X79458Y-51180D01*
X79360Y-51218D01*
X79334Y-51232D01*
X79307Y-51322D01*
X79600Y-51615D01*
X79892Y-51322D01*
X79892Y-51492D01*
X79684Y-51700D01*
X79977Y-51992D01*
X80067Y-51965D01*
X80100Y-51892D01*
X80118Y-51939D01*
X80132Y-51965D01*
X80222Y-51992D01*
X80515Y-51700D01*
X80515Y-51869D01*
X80307Y-52077D01*
X80334Y-52167D01*
X80430Y-52210D01*
X80532Y-52233D01*
X80637Y-52236D01*
X80741Y-52219D01*
X80839Y-52181D01*
X80865Y-52167D01*
X80892Y-52077D01*
X80892Y-54805D01*
X80865Y-54778D01*
X80798Y-54732D01*
X80723Y-54701D01*
X80643Y-54685D01*
X80562Y-54684D01*
X80482Y-54699D01*
X80406Y-54730D01*
X80338Y-54774D01*
X80280Y-54831D01*
X80234Y-54898D01*
X80202Y-54973D01*
X80185Y-55053D01*
X80184Y-55134D01*
X80198Y-55215D01*
X80228Y-55290D01*
X80272Y-55359D01*
X80329Y-55417D01*
X80396Y-55464D01*
X80471Y-55496D01*
X80550Y-55514D01*
X80632Y-55516D01*
X80712Y-55501D01*
X80788Y-55472D01*
X80856Y-55428D01*
X80915Y-55372D01*
X80962Y-55306D01*
X80995Y-55231D01*
X81013Y-55152D01*
X81015Y-55059D01*
X81015Y-55818D01*
X80977Y-55807D01*
X80892Y-55892D01*
X80892Y-55722D01*
X80865Y-55632D01*
X80769Y-55589D01*
X80667Y-55566D01*
X80562Y-55563D01*
X80458Y-55580D01*
X80360Y-55618D01*
X80334Y-55632D01*
X80307Y-55722D01*
X80600Y-56015D01*
X80892Y-55722D01*
X80892Y-55892D01*
X80684Y-56100D01*
X80977Y-56392D01*
X81067Y-56365D01*
X81100Y-56292D01*
X81118Y-56339D01*
X81132Y-56365D01*
X81222Y-56392D01*
X81515Y-56100D01*
X81515Y-56269D01*
X81307Y-56477D01*
X81334Y-56567D01*
X81430Y-56610D01*
X81532Y-56633D01*
X81637Y-56636D01*
X81741Y-56619D01*
X81839Y-56581D01*
X81865Y-56567D01*
X81892Y-56477D01*
X81892Y-57460D01*
X80892Y-57460D01*
X80892Y-56477D01*
X80600Y-56184D01*
X80515Y-56269D01*
X80515Y-56100D01*
X80222Y-55807D01*
X80132Y-55834D01*
X80099Y-55907D01*
X80081Y-55860D01*
X80067Y-55834D01*
X80015Y-55818D01*
X80015Y-55059D01*
X79999Y-54979D01*
X79968Y-54904D01*
X79923Y-54836D01*
X79892Y-54805D01*
X79892Y-52077D01*
X79600Y-51784D01*
X79515Y-51869D01*
X79515Y-51700D01*
X79222Y-51407D01*
X79132Y-51434D01*
X79099Y-51507D01*
X79081Y-51460D01*
X79067Y-51434D01*
X79015Y-51418D01*
X79015Y-50659D01*
X78999Y-50579D01*
X78968Y-50504D01*
X78923Y-50436D01*
X78865Y-50378D01*
X78798Y-50332D01*
X78723Y-50301D01*
X78643Y-50285D01*
X78562Y-50284D01*
X78482Y-50299D01*
X78406Y-50330D01*
X78338Y-50374D01*
X78280Y-50431D01*
X78234Y-50498D01*
X78202Y-50573D01*
X78185Y-50653D01*
X78184Y-50734D01*
X78198Y-50815D01*
X78228Y-50890D01*
X78272Y-50959D01*
X78329Y-51017D01*
X78396Y-51064D01*
X78471Y-51096D01*
X78550Y-51114D01*
X78632Y-51116D01*
X78712Y-51101D01*
X78788Y-51072D01*
X78856Y-51028D01*
X78915Y-50972D01*
X78962Y-50906D01*
X78995Y-50831D01*
X79013Y-50752D01*
X79015Y-50659D01*
X79015Y-51418D01*
X78977Y-51407D01*
X78892Y-51492D01*
X78892Y-51322D01*
X78865Y-51232D01*
X78769Y-51189D01*
X78667Y-51166D01*
X78562Y-51163D01*
X78458Y-51180D01*
X78360Y-51218D01*
X78334Y-51232D01*
X78307Y-51322D01*
X78600Y-51615D01*
X78892Y-51322D01*
X78892Y-51492D01*
X78684Y-51700D01*
X78977Y-51992D01*
X79067Y-51965D01*
X79100Y-51892D01*
X79118Y-51939D01*
X79132Y-51965D01*
X79222Y-51992D01*
X79515Y-51700D01*
X79515Y-51869D01*
X79307Y-52077D01*
X79334Y-52167D01*
X79430Y-52210D01*
X79532Y-52233D01*
X79637Y-52236D01*
X79741Y-52219D01*
X79839Y-52181D01*
X79865Y-52167D01*
X79892Y-52077D01*
X79892Y-54805D01*
X79865Y-54778D01*
X79798Y-54732D01*
X79723Y-54701D01*
X79643Y-54685D01*
X79562Y-54684D01*
X79482Y-54699D01*
X79406Y-54730D01*
X79338Y-54774D01*
X79280Y-54831D01*
X79234Y-54898D01*
X79202Y-54973D01*
X79185Y-55053D01*
X79184Y-55134D01*
X79198Y-55215D01*
X79228Y-55290D01*
X79272Y-55359D01*
X79329Y-55417D01*
X79396Y-55464D01*
X79471Y-55496D01*
X79550Y-55514D01*
X79632Y-55516D01*
X79712Y-55501D01*
X79788Y-55472D01*
X79856Y-55428D01*
X79915Y-55372D01*
X79962Y-55306D01*
X79995Y-55231D01*
X80013Y-55152D01*
X80015Y-55059D01*
X80015Y-55818D01*
X79977Y-55807D01*
X79892Y-55892D01*
X79892Y-55722D01*
X79865Y-55632D01*
X79769Y-55589D01*
X79667Y-55566D01*
X79562Y-55563D01*
X79458Y-55580D01*
X79360Y-55618D01*
X79334Y-55632D01*
X79307Y-55722D01*
X79600Y-56015D01*
X79892Y-55722D01*
X79892Y-55892D01*
X79684Y-56100D01*
X79977Y-56392D01*
X80067Y-56365D01*
X80100Y-56292D01*
X80118Y-56339D01*
X80132Y-56365D01*
X80222Y-56392D01*
X80515Y-56100D01*
X80515Y-56269D01*
X80307Y-56477D01*
X80334Y-56567D01*
X80430Y-56610D01*
X80532Y-56633D01*
X80637Y-56636D01*
X80741Y-56619D01*
X80839Y-56581D01*
X80865Y-56567D01*
X80892Y-56477D01*
X80892Y-57460D01*
X79892Y-57460D01*
X79892Y-56477D01*
X79600Y-56184D01*
X79515Y-56269D01*
X79515Y-56100D01*
X79222Y-55807D01*
X79132Y-55834D01*
X79099Y-55907D01*
X79081Y-55860D01*
X79067Y-55834D01*
X79015Y-55818D01*
X79015Y-55059D01*
X78999Y-54979D01*
X78968Y-54904D01*
X78923Y-54836D01*
X78892Y-54805D01*
X78892Y-52077D01*
X78600Y-51784D01*
X78515Y-51869D01*
X78515Y-51700D01*
X78222Y-51407D01*
X78132Y-51434D01*
X78099Y-51507D01*
X78081Y-51460D01*
X78067Y-51434D01*
X77977Y-51407D01*
X77892Y-51492D01*
X77892Y-51322D01*
X77865Y-51232D01*
X77769Y-51189D01*
X77667Y-51166D01*
X77562Y-51163D01*
X77458Y-51180D01*
X77360Y-51218D01*
X77334Y-51232D01*
X77307Y-51322D01*
X77600Y-51615D01*
X77892Y-51322D01*
X77892Y-51492D01*
X77684Y-51700D01*
X77977Y-51992D01*
X78067Y-51965D01*
X78100Y-51892D01*
X78118Y-51939D01*
X78132Y-51965D01*
X78222Y-51992D01*
X78515Y-51700D01*
X78515Y-51869D01*
X78307Y-52077D01*
X78334Y-52167D01*
X78430Y-52210D01*
X78532Y-52233D01*
X78637Y-52236D01*
X78741Y-52219D01*
X78839Y-52181D01*
X78865Y-52167D01*
X78892Y-52077D01*
X78892Y-54805D01*
X78865Y-54778D01*
X78798Y-54732D01*
X78723Y-54701D01*
X78643Y-54685D01*
X78562Y-54684D01*
X78482Y-54699D01*
X78406Y-54730D01*
X78338Y-54774D01*
X78280Y-54831D01*
X78234Y-54898D01*
X78202Y-54973D01*
X78185Y-55053D01*
X78184Y-55134D01*
X78198Y-55215D01*
X78228Y-55290D01*
X78272Y-55359D01*
X78329Y-55417D01*
X78396Y-55464D01*
X78471Y-55496D01*
X78550Y-55514D01*
X78632Y-55516D01*
X78712Y-55501D01*
X78788Y-55472D01*
X78856Y-55428D01*
X78915Y-55372D01*
X78962Y-55306D01*
X78995Y-55231D01*
X79013Y-55152D01*
X79015Y-55059D01*
X79015Y-55818D01*
X78977Y-55807D01*
X78892Y-55892D01*
X78892Y-55722D01*
X78865Y-55632D01*
X78769Y-55589D01*
X78667Y-55566D01*
X78562Y-55563D01*
X78458Y-55580D01*
X78360Y-55618D01*
X78334Y-55632D01*
X78307Y-55722D01*
X78600Y-56015D01*
X78892Y-55722D01*
X78892Y-55892D01*
X78684Y-56100D01*
X78977Y-56392D01*
X79067Y-56365D01*
X79100Y-56292D01*
X79118Y-56339D01*
X79132Y-56365D01*
X79222Y-56392D01*
X79515Y-56100D01*
X79515Y-56269D01*
X79307Y-56477D01*
X79334Y-56567D01*
X79430Y-56610D01*
X79532Y-56633D01*
X79637Y-56636D01*
X79741Y-56619D01*
X79839Y-56581D01*
X79865Y-56567D01*
X79892Y-56477D01*
X79892Y-57460D01*
X78892Y-57460D01*
X78892Y-56477D01*
X78600Y-56184D01*
X78515Y-56269D01*
X78515Y-56100D01*
X78222Y-55807D01*
X78132Y-55834D01*
X78099Y-55907D01*
X78081Y-55860D01*
X78067Y-55834D01*
X78015Y-55818D01*
X78015Y-55059D01*
X77999Y-54979D01*
X77968Y-54904D01*
X77923Y-54836D01*
X77892Y-54805D01*
X77892Y-52077D01*
X77600Y-51784D01*
X77515Y-51869D01*
X77515Y-51700D01*
X77222Y-51407D01*
X77132Y-51434D01*
X77099Y-51507D01*
X77081Y-51460D01*
X77067Y-51434D01*
X77015Y-51418D01*
X77015Y-50659D01*
X76999Y-50579D01*
X76968Y-50504D01*
X76923Y-50436D01*
X76865Y-50378D01*
X76798Y-50332D01*
X76723Y-50301D01*
X76643Y-50285D01*
X76562Y-50284D01*
X76482Y-50299D01*
X76406Y-50330D01*
X76338Y-50374D01*
X76280Y-50431D01*
X76234Y-50498D01*
X76202Y-50573D01*
X76185Y-50653D01*
X76184Y-50734D01*
X76198Y-50815D01*
X76228Y-50890D01*
X76272Y-50959D01*
X76329Y-51017D01*
X76396Y-51064D01*
X76471Y-51096D01*
X76550Y-51114D01*
X76632Y-51116D01*
X76712Y-51101D01*
X76788Y-51072D01*
X76856Y-51028D01*
X76915Y-50972D01*
X76962Y-50906D01*
X76995Y-50831D01*
X77013Y-50752D01*
X77015Y-50659D01*
X77015Y-51418D01*
X76977Y-51407D01*
X76892Y-51492D01*
X76892Y-51322D01*
X76865Y-51232D01*
X76769Y-51189D01*
X76667Y-51166D01*
X76562Y-51163D01*
X76458Y-51180D01*
X76360Y-51218D01*
X76334Y-51232D01*
X76307Y-51322D01*
X76600Y-51615D01*
X76892Y-51322D01*
X76892Y-51492D01*
X76684Y-51700D01*
X76977Y-51992D01*
X77067Y-51965D01*
X77100Y-51892D01*
X77118Y-51939D01*
X77132Y-51965D01*
X77222Y-51992D01*
X77515Y-51700D01*
X77515Y-51869D01*
X77307Y-52077D01*
X77334Y-52167D01*
X77430Y-52210D01*
X77532Y-52233D01*
X77637Y-52236D01*
X77741Y-52219D01*
X77839Y-52181D01*
X77865Y-52167D01*
X77892Y-52077D01*
X77892Y-54805D01*
X77865Y-54778D01*
X77798Y-54732D01*
X77723Y-54701D01*
X77643Y-54685D01*
X77562Y-54684D01*
X77482Y-54699D01*
X77406Y-54730D01*
X77338Y-54774D01*
X77280Y-54831D01*
X77234Y-54898D01*
X77202Y-54973D01*
X77185Y-55053D01*
X77184Y-55134D01*
X77198Y-55215D01*
X77228Y-55290D01*
X77272Y-55359D01*
X77329Y-55417D01*
X77396Y-55464D01*
X77471Y-55496D01*
X77550Y-55514D01*
X77632Y-55516D01*
X77712Y-55501D01*
X77788Y-55472D01*
X77856Y-55428D01*
X77915Y-55372D01*
X77962Y-55306D01*
X77995Y-55231D01*
X78013Y-55152D01*
X78015Y-55059D01*
X78015Y-55818D01*
X77977Y-55807D01*
X77892Y-55892D01*
X77892Y-55722D01*
X77865Y-55632D01*
X77769Y-55589D01*
X77667Y-55566D01*
X77562Y-55563D01*
X77458Y-55580D01*
X77360Y-55618D01*
X77334Y-55632D01*
X77307Y-55722D01*
X77600Y-56015D01*
X77892Y-55722D01*
X77892Y-55892D01*
X77684Y-56100D01*
X77977Y-56392D01*
X78067Y-56365D01*
X78100Y-56292D01*
X78118Y-56339D01*
X78132Y-56365D01*
X78222Y-56392D01*
X78515Y-56100D01*
X78515Y-56269D01*
X78307Y-56477D01*
X78334Y-56567D01*
X78430Y-56610D01*
X78532Y-56633D01*
X78637Y-56636D01*
X78741Y-56619D01*
X78839Y-56581D01*
X78865Y-56567D01*
X78892Y-56477D01*
X78892Y-57460D01*
X77892Y-57460D01*
X77892Y-56477D01*
X77600Y-56184D01*
X77515Y-56269D01*
X77515Y-56100D01*
X77222Y-55807D01*
X77132Y-55834D01*
X77099Y-55907D01*
X77081Y-55860D01*
X77067Y-55834D01*
X77015Y-55818D01*
X77015Y-55059D01*
X76999Y-54979D01*
X76968Y-54904D01*
X76923Y-54836D01*
X76892Y-54805D01*
X76892Y-52077D01*
X76600Y-51784D01*
X76515Y-51869D01*
X76515Y-51700D01*
X76222Y-51407D01*
X76132Y-51434D01*
X76099Y-51507D01*
X76081Y-51460D01*
X76067Y-51434D01*
X76015Y-51418D01*
X76015Y-50659D01*
X75999Y-50579D01*
X75968Y-50504D01*
X75923Y-50436D01*
X75865Y-50378D01*
X75798Y-50332D01*
X75723Y-50301D01*
X75643Y-50285D01*
X75562Y-50284D01*
X75482Y-50299D01*
X75406Y-50330D01*
X75338Y-50374D01*
X75280Y-50431D01*
X75234Y-50498D01*
X75202Y-50573D01*
X75185Y-50653D01*
X75184Y-50734D01*
X75198Y-50815D01*
X75228Y-50890D01*
X75272Y-50959D01*
X75329Y-51017D01*
X75396Y-51064D01*
X75471Y-51096D01*
X75550Y-51114D01*
X75632Y-51116D01*
X75712Y-51101D01*
X75788Y-51072D01*
X75856Y-51028D01*
X75915Y-50972D01*
X75962Y-50906D01*
X75995Y-50831D01*
X76013Y-50752D01*
X76015Y-50659D01*
X76015Y-51418D01*
X75977Y-51407D01*
X75892Y-51492D01*
X75892Y-51322D01*
X75865Y-51232D01*
X75769Y-51189D01*
X75667Y-51166D01*
X75562Y-51163D01*
X75458Y-51180D01*
X75360Y-51218D01*
X75334Y-51232D01*
X75307Y-51322D01*
X75600Y-51615D01*
X75892Y-51322D01*
X75892Y-51492D01*
X75684Y-51700D01*
X75977Y-51992D01*
X76067Y-51965D01*
X76100Y-51892D01*
X76118Y-51939D01*
X76132Y-51965D01*
X76222Y-51992D01*
X76515Y-51700D01*
X76515Y-51869D01*
X76307Y-52077D01*
X76334Y-52167D01*
X76430Y-52210D01*
X76532Y-52233D01*
X76637Y-52236D01*
X76741Y-52219D01*
X76839Y-52181D01*
X76865Y-52167D01*
X76892Y-52077D01*
X76892Y-54805D01*
X76865Y-54778D01*
X76798Y-54732D01*
X76723Y-54701D01*
X76643Y-54685D01*
X76562Y-54684D01*
X76482Y-54699D01*
X76406Y-54730D01*
X76338Y-54774D01*
X76280Y-54831D01*
X76234Y-54898D01*
X76202Y-54973D01*
X76185Y-55053D01*
X76184Y-55134D01*
X76198Y-55215D01*
X76228Y-55290D01*
X76272Y-55359D01*
X76329Y-55417D01*
X76396Y-55464D01*
X76471Y-55496D01*
X76550Y-55514D01*
X76632Y-55516D01*
X76712Y-55501D01*
X76788Y-55472D01*
X76856Y-55428D01*
X76915Y-55372D01*
X76962Y-55306D01*
X76995Y-55231D01*
X77013Y-55152D01*
X77015Y-55059D01*
X77015Y-55818D01*
X76977Y-55807D01*
X76892Y-55892D01*
X76892Y-55722D01*
X76865Y-55632D01*
X76769Y-55589D01*
X76667Y-55566D01*
X76562Y-55563D01*
X76458Y-55580D01*
X76360Y-55618D01*
X76334Y-55632D01*
X76307Y-55722D01*
X76600Y-56015D01*
X76892Y-55722D01*
X76892Y-55892D01*
X76684Y-56100D01*
X76977Y-56392D01*
X77067Y-56365D01*
X77100Y-56292D01*
X77118Y-56339D01*
X77132Y-56365D01*
X77222Y-56392D01*
X77515Y-56100D01*
X77515Y-56269D01*
X77307Y-56477D01*
X77334Y-56567D01*
X77430Y-56610D01*
X77532Y-56633D01*
X77637Y-56636D01*
X77741Y-56619D01*
X77839Y-56581D01*
X77865Y-56567D01*
X77892Y-56477D01*
X77892Y-57460D01*
X76892Y-57460D01*
X76892Y-56477D01*
X76600Y-56184D01*
X76515Y-56269D01*
X76515Y-56100D01*
X76222Y-55807D01*
X76132Y-55834D01*
X76099Y-55907D01*
X76081Y-55860D01*
X76067Y-55834D01*
X76015Y-55818D01*
X76015Y-55059D01*
X75999Y-54979D01*
X75968Y-54904D01*
X75923Y-54836D01*
X75892Y-54805D01*
X75892Y-52077D01*
X75600Y-51784D01*
X75515Y-51869D01*
X75515Y-51700D01*
X75222Y-51407D01*
X75132Y-51434D01*
X75099Y-51507D01*
X75081Y-51460D01*
X75067Y-51434D01*
X75015Y-51418D01*
X75015Y-50659D01*
X74999Y-50579D01*
X74968Y-50504D01*
X74923Y-50436D01*
X74865Y-50378D01*
X74798Y-50332D01*
X74723Y-50301D01*
X74643Y-50285D01*
X74562Y-50284D01*
X74482Y-50299D01*
X74406Y-50330D01*
X74338Y-50374D01*
X74280Y-50431D01*
X74234Y-50498D01*
X74202Y-50573D01*
X74185Y-50653D01*
X74184Y-50734D01*
X74198Y-50815D01*
X74228Y-50890D01*
X74272Y-50959D01*
X74329Y-51017D01*
X74396Y-51064D01*
X74471Y-51096D01*
X74550Y-51114D01*
X74632Y-51116D01*
X74712Y-51101D01*
X74788Y-51072D01*
X74856Y-51028D01*
X74915Y-50972D01*
X74962Y-50906D01*
X74995Y-50831D01*
X75013Y-50752D01*
X75015Y-50659D01*
X75015Y-51418D01*
X74977Y-51407D01*
X74892Y-51492D01*
X74892Y-51322D01*
X74865Y-51232D01*
X74769Y-51189D01*
X74667Y-51166D01*
X74562Y-51163D01*
X74458Y-51180D01*
X74360Y-51218D01*
X74334Y-51232D01*
X74307Y-51322D01*
X74600Y-51615D01*
X74892Y-51322D01*
X74892Y-51492D01*
X74684Y-51700D01*
X74977Y-51992D01*
X75067Y-51965D01*
X75100Y-51892D01*
X75118Y-51939D01*
X75132Y-51965D01*
X75222Y-51992D01*
X75515Y-51700D01*
X75515Y-51869D01*
X75307Y-52077D01*
X75334Y-52167D01*
X75430Y-52210D01*
X75532Y-52233D01*
X75637Y-52236D01*
X75741Y-52219D01*
X75839Y-52181D01*
X75865Y-52167D01*
X75892Y-52077D01*
X75892Y-54805D01*
X75865Y-54778D01*
X75798Y-54732D01*
X75723Y-54701D01*
X75643Y-54685D01*
X75562Y-54684D01*
X75482Y-54699D01*
X75406Y-54730D01*
X75338Y-54774D01*
X75280Y-54831D01*
X75234Y-54898D01*
X75202Y-54973D01*
X75185Y-55053D01*
X75184Y-55134D01*
X75198Y-55215D01*
X75228Y-55290D01*
X75272Y-55359D01*
X75329Y-55417D01*
X75396Y-55464D01*
X75471Y-55496D01*
X75550Y-55514D01*
X75632Y-55516D01*
X75712Y-55501D01*
X75788Y-55472D01*
X75856Y-55428D01*
X75915Y-55372D01*
X75962Y-55306D01*
X75995Y-55231D01*
X76013Y-55152D01*
X76015Y-55059D01*
X76015Y-55818D01*
X75977Y-55807D01*
X75892Y-55892D01*
X75892Y-55722D01*
X75865Y-55632D01*
X75769Y-55589D01*
X75667Y-55566D01*
X75562Y-55563D01*
X75458Y-55580D01*
X75360Y-55618D01*
X75334Y-55632D01*
X75307Y-55722D01*
X75600Y-56015D01*
X75892Y-55722D01*
X75892Y-55892D01*
X75684Y-56100D01*
X75977Y-56392D01*
X76067Y-56365D01*
X76100Y-56292D01*
X76118Y-56339D01*
X76132Y-56365D01*
X76222Y-56392D01*
X76515Y-56100D01*
X76515Y-56269D01*
X76307Y-56477D01*
X76334Y-56567D01*
X76430Y-56610D01*
X76532Y-56633D01*
X76637Y-56636D01*
X76741Y-56619D01*
X76839Y-56581D01*
X76865Y-56567D01*
X76892Y-56477D01*
X76892Y-57460D01*
X75892Y-57460D01*
X75892Y-56477D01*
X75600Y-56184D01*
X75515Y-56269D01*
X75515Y-56100D01*
X75222Y-55807D01*
X75132Y-55834D01*
X75099Y-55907D01*
X75081Y-55860D01*
X75067Y-55834D01*
X75015Y-55818D01*
X75015Y-55059D01*
X74999Y-54979D01*
X74968Y-54904D01*
X74923Y-54836D01*
X74892Y-54805D01*
X74892Y-52077D01*
X74600Y-51784D01*
X74515Y-51869D01*
X74515Y-51700D01*
X74222Y-51407D01*
X74132Y-51434D01*
X74099Y-51507D01*
X74081Y-51460D01*
X74067Y-51434D01*
X73977Y-51407D01*
X73892Y-51492D01*
X73892Y-51322D01*
X73865Y-51232D01*
X73769Y-51189D01*
X73667Y-51166D01*
X73562Y-51163D01*
X73458Y-51180D01*
X73360Y-51218D01*
X73334Y-51232D01*
X73307Y-51322D01*
X73600Y-51615D01*
X73892Y-51322D01*
X73892Y-51492D01*
X73684Y-51700D01*
X73977Y-51992D01*
X74067Y-51965D01*
X74100Y-51892D01*
X74118Y-51939D01*
X74132Y-51965D01*
X74222Y-51992D01*
X74515Y-51700D01*
X74515Y-51869D01*
X74307Y-52077D01*
X74334Y-52167D01*
X74430Y-52210D01*
X74532Y-52233D01*
X74637Y-52236D01*
X74741Y-52219D01*
X74839Y-52181D01*
X74865Y-52167D01*
X74892Y-52077D01*
X74892Y-54805D01*
X74865Y-54778D01*
X74798Y-54732D01*
X74723Y-54701D01*
X74643Y-54685D01*
X74562Y-54684D01*
X74482Y-54699D01*
X74406Y-54730D01*
X74338Y-54774D01*
X74280Y-54831D01*
X74234Y-54898D01*
X74202Y-54973D01*
X74185Y-55053D01*
X74184Y-55134D01*
X74198Y-55215D01*
X74228Y-55290D01*
X74272Y-55359D01*
X74329Y-55417D01*
X74396Y-55464D01*
X74471Y-55496D01*
X74550Y-55514D01*
X74632Y-55516D01*
X74712Y-55501D01*
X74788Y-55472D01*
X74856Y-55428D01*
X74915Y-55372D01*
X74962Y-55306D01*
X74995Y-55231D01*
X75013Y-55152D01*
X75015Y-55059D01*
X75015Y-55818D01*
X74977Y-55807D01*
X74892Y-55892D01*
X74892Y-55722D01*
X74865Y-55632D01*
X74769Y-55589D01*
X74667Y-55566D01*
X74562Y-55563D01*
X74458Y-55580D01*
X74360Y-55618D01*
X74334Y-55632D01*
X74307Y-55722D01*
X74600Y-56015D01*
X74892Y-55722D01*
X74892Y-55892D01*
X74684Y-56100D01*
X74977Y-56392D01*
X75067Y-56365D01*
X75100Y-56292D01*
X75118Y-56339D01*
X75132Y-56365D01*
X75222Y-56392D01*
X75515Y-56100D01*
X75515Y-56269D01*
X75307Y-56477D01*
X75334Y-56567D01*
X75430Y-56610D01*
X75532Y-56633D01*
X75637Y-56636D01*
X75741Y-56619D01*
X75839Y-56581D01*
X75865Y-56567D01*
X75892Y-56477D01*
X75892Y-57460D01*
X74892Y-57460D01*
X74892Y-56477D01*
X74600Y-56184D01*
X74515Y-56269D01*
X74515Y-56100D01*
X74222Y-55807D01*
X74132Y-55834D01*
X74099Y-55907D01*
X74081Y-55860D01*
X74067Y-55834D01*
X74015Y-55818D01*
X74015Y-55059D01*
X73999Y-54979D01*
X73968Y-54904D01*
X73923Y-54836D01*
X73892Y-54805D01*
X73892Y-52077D01*
X73600Y-51784D01*
X73515Y-51869D01*
X73515Y-51700D01*
X73222Y-51407D01*
X73132Y-51434D01*
X73089Y-51530D01*
X73066Y-51632D01*
X73063Y-51737D01*
X73080Y-51841D01*
X73118Y-51939D01*
X73132Y-51965D01*
X73222Y-51992D01*
X73515Y-51700D01*
X73515Y-51869D01*
X73307Y-52077D01*
X73334Y-52167D01*
X73430Y-52210D01*
X73532Y-52233D01*
X73637Y-52236D01*
X73741Y-52219D01*
X73839Y-52181D01*
X73865Y-52167D01*
X73892Y-52077D01*
X73892Y-54805D01*
X73865Y-54778D01*
X73798Y-54732D01*
X73723Y-54701D01*
X73643Y-54685D01*
X73562Y-54684D01*
X73482Y-54699D01*
X73406Y-54730D01*
X73338Y-54774D01*
X73280Y-54831D01*
X73234Y-54898D01*
X73202Y-54973D01*
X73185Y-55053D01*
X73184Y-55134D01*
X73198Y-55215D01*
X73228Y-55290D01*
X73272Y-55359D01*
X73329Y-55417D01*
X73396Y-55464D01*
X73471Y-55496D01*
X73550Y-55514D01*
X73632Y-55516D01*
X73712Y-55501D01*
X73788Y-55472D01*
X73856Y-55428D01*
X73915Y-55372D01*
X73962Y-55306D01*
X73995Y-55231D01*
X74013Y-55152D01*
X74015Y-55059D01*
X74015Y-55818D01*
X73977Y-55807D01*
X73892Y-55892D01*
X73892Y-55722D01*
X73865Y-55632D01*
X73769Y-55589D01*
X73667Y-55566D01*
X73562Y-55563D01*
X73458Y-55580D01*
X73360Y-55618D01*
X73334Y-55632D01*
X73307Y-55722D01*
X73600Y-56015D01*
X73892Y-55722D01*
X73892Y-55892D01*
X73684Y-56100D01*
X73977Y-56392D01*
X74067Y-56365D01*
X74100Y-56292D01*
X74118Y-56339D01*
X74132Y-56365D01*
X74222Y-56392D01*
X74515Y-56100D01*
X74515Y-56269D01*
X74307Y-56477D01*
X74334Y-56567D01*
X74430Y-56610D01*
X74532Y-56633D01*
X74637Y-56636D01*
X74741Y-56619D01*
X74839Y-56581D01*
X74865Y-56567D01*
X74892Y-56477D01*
X74892Y-57460D01*
X73892Y-57460D01*
X73892Y-56477D01*
X73600Y-56184D01*
X73515Y-56269D01*
X73515Y-56100D01*
X73222Y-55807D01*
X73132Y-55834D01*
X73089Y-55930D01*
X73066Y-56032D01*
X73063Y-56137D01*
X73080Y-56241D01*
X73118Y-56339D01*
X73132Y-56365D01*
X73222Y-56392D01*
X73515Y-56100D01*
X73515Y-56269D01*
X73307Y-56477D01*
X73334Y-56567D01*
X73430Y-56610D01*
X73532Y-56633D01*
X73637Y-56636D01*
X73741Y-56619D01*
X73839Y-56581D01*
X73865Y-56567D01*
X73892Y-56477D01*
X73892Y-57460D01*
X73400Y-57460D01*
X73399Y-57460D01*
X73217Y-57460D01*
X73051Y-57428D01*
X72895Y-57364D01*
X72754Y-57271D01*
X72634Y-57152D01*
X72540Y-57012D01*
X72474Y-56857D01*
X72439Y-56689D01*
X72439Y-56300D01*
X72439Y-47513D01*
X72472Y-47348D01*
X72537Y-47192D01*
X72630Y-47052D01*
X72750Y-46932D01*
X72890Y-46838D01*
X73045Y-46773D01*
X73211Y-46739D01*
X73386Y-46739D01*
X73386Y-46739D01*
X73392Y-46739D01*
X73398Y-46739D01*
X73400Y-46739D01*
X75548Y-46739D01*
X73493Y-48793D01*
X73485Y-48804D01*
X73476Y-48815D01*
X73475Y-48815D01*
X73475Y-48816D01*
X73468Y-48828D01*
X73462Y-48840D01*
X73461Y-48841D01*
X73461Y-48842D01*
X73457Y-48855D01*
X73453Y-48868D01*
X73453Y-48869D01*
X73452Y-48870D01*
X73451Y-48884D01*
X73450Y-48897D01*
X73450Y-48899D01*
X73450Y-48899D01*
X73450Y-48899D01*
X73450Y-48900D01*
X73450Y-50312D01*
X73406Y-50330D01*
X73338Y-50374D01*
X73280Y-50431D01*
X73234Y-50498D01*
X73202Y-50573D01*
X73185Y-50653D01*
X73184Y-50734D01*
X73198Y-50815D01*
X73228Y-50890D01*
X73272Y-50959D01*
X73329Y-51017D01*
X73396Y-51064D01*
X73471Y-51096D01*
X73550Y-51114D01*
X73632Y-51116D01*
X73712Y-51101D01*
X73788Y-51072D01*
X73856Y-51028D01*
X73915Y-50972D01*
X73962Y-50906D01*
X73995Y-50831D01*
X74013Y-50752D01*
X74015Y-50659D01*
X73999Y-50579D01*
X73968Y-50504D01*
X73923Y-50436D01*
X73865Y-50378D01*
X73798Y-50332D01*
X73750Y-50312D01*
X73750Y-48962D01*
X75862Y-46850D01*
X76637Y-46850D01*
X76493Y-46993D01*
X76485Y-47004D01*
X76476Y-47015D01*
X76475Y-47015D01*
X76475Y-47016D01*
X76468Y-47028D01*
X76462Y-47040D01*
X76461Y-47041D01*
X76461Y-47042D01*
X76457Y-47055D01*
X76453Y-47068D01*
X76453Y-47069D01*
X76452Y-47070D01*
X76451Y-47084D01*
X76450Y-47097D01*
X76450Y-47099D01*
X76450Y-47099D01*
X76450Y-47099D01*
X76450Y-47100D01*
X76450Y-48800D01*
X76451Y-48813D01*
X76452Y-48827D01*
X76452Y-48828D01*
X76452Y-48829D01*
X76456Y-48842D01*
X76460Y-48855D01*
X76461Y-48856D01*
X76461Y-48857D01*
X76467Y-48869D01*
X76474Y-48881D01*
X76474Y-48882D01*
X76475Y-48883D01*
X76483Y-48893D01*
X76492Y-48904D01*
X76493Y-48905D01*
X76493Y-48905D01*
X76493Y-48905D01*
X76493Y-48906D01*
X77450Y-49862D01*
X77450Y-50312D01*
X77406Y-50330D01*
X77338Y-50374D01*
X77280Y-50431D01*
X77234Y-50498D01*
X77202Y-50573D01*
X77185Y-50653D01*
X77184Y-50734D01*
X77198Y-50815D01*
X77228Y-50890D01*
X77272Y-50959D01*
X77329Y-51017D01*
X77396Y-51064D01*
X77471Y-51096D01*
X77550Y-51114D01*
X77632Y-51116D01*
X77712Y-51101D01*
X77788Y-51072D01*
X77856Y-51028D01*
X77915Y-50972D01*
X77962Y-50906D01*
X77995Y-50831D01*
X78013Y-50752D01*
X78015Y-50659D01*
X77999Y-50579D01*
X77968Y-50504D01*
X77923Y-50436D01*
X77865Y-50378D01*
X77798Y-50332D01*
X77750Y-50312D01*
X77750Y-49800D01*
X77748Y-49786D01*
X77747Y-49772D01*
X77747Y-49771D01*
X77747Y-49770D01*
X77743Y-49757D01*
X77739Y-49744D01*
X77738Y-49743D01*
X77738Y-49742D01*
X77732Y-49730D01*
X77725Y-49718D01*
X77725Y-49717D01*
X77724Y-49716D01*
X77716Y-49706D01*
X77707Y-49695D01*
X77706Y-49694D01*
X77706Y-49694D01*
X77706Y-49694D01*
X77706Y-49693D01*
X76750Y-48737D01*
X76750Y-47162D01*
X76862Y-47050D01*
X76899Y-47050D01*
X76868Y-47095D01*
X76843Y-47152D01*
X76830Y-47214D01*
X76829Y-47276D01*
X76840Y-47338D01*
X76864Y-47396D01*
X76898Y-47449D01*
X76941Y-47494D01*
X76948Y-47499D01*
X76903Y-47543D01*
X76868Y-47595D01*
X76843Y-47652D01*
X76830Y-47714D01*
X76829Y-47776D01*
X76840Y-47838D01*
X76864Y-47896D01*
X76898Y-47949D01*
X76941Y-47994D01*
X76993Y-48030D01*
X77050Y-48055D01*
X77111Y-48069D01*
X77174Y-48070D01*
X77236Y-48059D01*
X77294Y-48037D01*
X77347Y-48003D01*
X77393Y-47960D01*
X77399Y-47951D01*
X77441Y-47994D01*
X77490Y-48028D01*
X77490Y-48150D01*
X77491Y-48164D01*
X77492Y-48179D01*
X77492Y-48180D01*
X77493Y-48181D01*
X77497Y-48195D01*
X77501Y-48209D01*
X77501Y-48210D01*
X77502Y-48210D01*
X77509Y-48224D01*
X77515Y-48237D01*
X77516Y-48237D01*
X77516Y-48238D01*
X77526Y-48250D01*
X77535Y-48261D01*
X77536Y-48262D01*
X77536Y-48262D01*
X77536Y-48262D01*
X77536Y-48263D01*
X78286Y-49013D01*
X78298Y-49022D01*
X78309Y-49032D01*
X78310Y-49032D01*
X78310Y-49032D01*
X78323Y-49039D01*
X78336Y-49047D01*
X78337Y-49047D01*
X78338Y-49047D01*
X78352Y-49052D01*
X78366Y-49056D01*
X78367Y-49056D01*
X78368Y-49056D01*
X78383Y-49058D01*
X78397Y-49059D01*
X78399Y-49059D01*
X78399Y-49059D01*
X78399Y-49059D01*
X78400Y-49060D01*
X79733Y-49060D01*
X80440Y-49766D01*
X80440Y-50316D01*
X80406Y-50330D01*
X80338Y-50374D01*
X80280Y-50431D01*
X80234Y-50498D01*
X80202Y-50573D01*
X80185Y-50653D01*
X80184Y-50734D01*
X80198Y-50815D01*
X80228Y-50890D01*
X80272Y-50959D01*
X80329Y-51017D01*
X80396Y-51064D01*
X80471Y-51096D01*
X80550Y-51114D01*
X80632Y-51116D01*
X80712Y-51101D01*
X80788Y-51072D01*
X80856Y-51028D01*
X80915Y-50972D01*
X80962Y-50906D01*
X80995Y-50831D01*
X81013Y-50752D01*
X81015Y-50659D01*
X80999Y-50579D01*
X80968Y-50504D01*
X80923Y-50436D01*
X80865Y-50378D01*
X80798Y-50332D01*
X80760Y-50316D01*
X80760Y-49700D01*
X80758Y-49685D01*
X80757Y-49670D01*
X80757Y-49669D01*
X80756Y-49668D01*
X80752Y-49654D01*
X80748Y-49640D01*
X80748Y-49639D01*
X80747Y-49639D01*
X80740Y-49625D01*
X80734Y-49612D01*
X80733Y-49612D01*
X80733Y-49611D01*
X80723Y-49599D01*
X80714Y-49588D01*
X80713Y-49587D01*
X80713Y-49587D01*
X80713Y-49587D01*
X80713Y-49586D01*
X79913Y-48786D01*
X79901Y-48777D01*
X79890Y-48767D01*
X79889Y-48767D01*
X79889Y-48767D01*
X79875Y-48760D01*
X79863Y-48752D01*
X79862Y-48752D01*
X79861Y-48752D01*
X79847Y-48747D01*
X79833Y-48743D01*
X79832Y-48743D01*
X79831Y-48743D01*
X79816Y-48741D01*
X79802Y-48740D01*
X79800Y-48740D01*
X79800Y-48740D01*
X79800Y-48740D01*
X79800Y-48740D01*
X78466Y-48740D01*
X77810Y-48083D01*
X77810Y-48027D01*
X77847Y-48003D01*
X77893Y-47960D01*
X77899Y-47951D01*
X77941Y-47994D01*
X77993Y-48030D01*
X78050Y-48055D01*
X78111Y-48069D01*
X78174Y-48070D01*
X78236Y-48059D01*
X78294Y-48037D01*
X78347Y-48003D01*
X78393Y-47960D01*
X78399Y-47951D01*
X78441Y-47994D01*
X78493Y-48030D01*
X78550Y-48055D01*
X78611Y-48069D01*
X78674Y-48070D01*
X78736Y-48059D01*
X78794Y-48037D01*
X78847Y-48003D01*
X78893Y-47960D01*
X78899Y-47951D01*
X78941Y-47994D01*
X78993Y-48030D01*
X79050Y-48055D01*
X79111Y-48069D01*
X79174Y-48070D01*
X79236Y-48059D01*
X79294Y-48037D01*
X79347Y-48003D01*
X79393Y-47960D01*
X79429Y-47908D01*
X79455Y-47851D01*
X79469Y-47790D01*
X79470Y-47718D01*
X79457Y-47657D01*
X79433Y-47599D01*
X79405Y-47556D01*
X79406Y-47556D01*
X79426Y-47543D01*
X79442Y-47526D01*
X79456Y-47507D01*
X79465Y-47485D01*
X79469Y-47462D01*
X79470Y-47439D01*
X79470Y-47400D01*
X79687Y-47400D01*
X82450Y-50162D01*
X82450Y-50312D01*
X82406Y-50330D01*
X82338Y-50374D01*
X82280Y-50431D01*
X82234Y-50498D01*
X82202Y-50573D01*
X82185Y-50653D01*
X82184Y-50734D01*
X82198Y-50815D01*
X82228Y-50890D01*
X82272Y-50959D01*
X82329Y-51017D01*
X82396Y-51064D01*
X82471Y-51096D01*
X82550Y-51114D01*
X82632Y-51116D01*
X82712Y-51101D01*
X82788Y-51072D01*
X82856Y-51028D01*
X82915Y-50972D01*
X82962Y-50906D01*
X82995Y-50831D01*
X83013Y-50752D01*
X83015Y-50659D01*
X82999Y-50579D01*
X82968Y-50504D01*
X82923Y-50436D01*
X82865Y-50378D01*
X82798Y-50332D01*
X82750Y-50312D01*
X82750Y-50100D01*
X82748Y-50086D01*
X82747Y-50072D01*
X82747Y-50071D01*
X82747Y-50070D01*
X82743Y-50057D01*
X82739Y-50044D01*
X82738Y-50043D01*
X82738Y-50042D01*
X82732Y-50030D01*
X82725Y-50018D01*
X82725Y-50017D01*
X82724Y-50016D01*
X82716Y-50006D01*
X82707Y-49995D01*
X82706Y-49994D01*
X82706Y-49994D01*
X82706Y-49994D01*
X82706Y-49993D01*
X79856Y-47143D01*
X79845Y-47135D01*
X79834Y-47126D01*
X79834Y-47125D01*
X79833Y-47125D01*
X79821Y-47118D01*
X79809Y-47112D01*
X79808Y-47111D01*
X79807Y-47111D01*
X79794Y-47107D01*
X79781Y-47103D01*
X79780Y-47103D01*
X79779Y-47102D01*
X79765Y-47101D01*
X79752Y-47100D01*
X79750Y-47100D01*
X79750Y-47100D01*
X79750Y-47100D01*
X79750Y-47100D01*
X79470Y-47100D01*
X79470Y-47038D01*
X79465Y-47015D01*
X79456Y-46993D01*
X79443Y-46973D01*
X79426Y-46957D01*
X79407Y-46943D01*
X79385Y-46934D01*
X79362Y-46930D01*
X79339Y-46929D01*
X78954Y-46929D01*
X78920Y-46895D01*
X78874Y-46940D01*
X78858Y-46860D01*
X78779Y-46827D01*
X78694Y-46810D01*
X78608Y-46809D01*
X78523Y-46826D01*
X78443Y-46858D01*
X78441Y-46860D01*
X78425Y-46940D01*
X78650Y-47165D01*
X78655Y-47159D01*
X78740Y-47244D01*
X78734Y-47250D01*
X78740Y-47255D01*
X78655Y-47340D01*
X78650Y-47334D01*
X78644Y-47340D01*
X78559Y-47255D01*
X78565Y-47250D01*
X78447Y-47132D01*
X78433Y-47099D01*
X78399Y-47046D01*
X78354Y-47002D01*
X78302Y-46967D01*
X78245Y-46942D01*
X78183Y-46930D01*
X78120Y-46929D01*
X78059Y-46941D01*
X78055Y-46943D01*
X77851Y-46739D01*
X82893Y-46739D01*
X83066Y-46756D01*
X83227Y-46805D01*
X83375Y-46883D01*
X83505Y-46990D01*
X83612Y-47119D01*
X83692Y-47266D01*
X83742Y-47427D01*
X83760Y-47600D01*
X83760Y-56300D01*
X83760Y-56593D01*
M02*
