G04 (created by PCBNEW (2013-june-11)-stable) date Mon 18 Aug 2014 12:57:30 PM PDT*
%MOIN*%
G04 Gerber Fmt 3.4, Leading zero omitted, Abs format*
%FSLAX34Y34*%
G01*
G70*
G90*
G04 APERTURE LIST*
%ADD10C,0.00590551*%
%ADD11C,0.0275591*%
%ADD12R,0.0275591X0.0275591*%
%ADD13C,0.0590551*%
%ADD14C,0.01*%
%ADD15C,0.008*%
%ADD16C,0.006*%
G04 APERTURE END LIST*
G54D10*
G54D11*
X77150Y-47250D03*
X77650Y-47250D03*
X78150Y-47250D03*
X78650Y-47250D03*
G54D12*
X79150Y-47250D03*
G54D11*
X77150Y-47750D03*
X77650Y-47750D03*
X78150Y-47750D03*
X78650Y-47750D03*
X79150Y-47750D03*
G54D13*
X82600Y-55100D03*
X82600Y-56100D03*
X81600Y-55100D03*
X81600Y-56100D03*
X80600Y-55100D03*
X80600Y-56100D03*
X79600Y-55100D03*
X79600Y-56100D03*
X78600Y-55100D03*
X78600Y-56100D03*
X77600Y-55100D03*
X77600Y-56100D03*
X76600Y-55100D03*
X76600Y-56100D03*
X75600Y-55100D03*
X75600Y-56100D03*
X74600Y-55100D03*
X74600Y-56100D03*
X73600Y-55100D03*
X73600Y-56100D03*
X82600Y-50700D03*
X82600Y-51700D03*
X81600Y-50700D03*
X81600Y-51700D03*
X80600Y-50700D03*
X80600Y-51700D03*
X79600Y-50700D03*
X79600Y-51700D03*
X78600Y-50700D03*
X78600Y-51700D03*
X77600Y-50700D03*
X77600Y-51700D03*
X76600Y-50700D03*
X76600Y-51700D03*
X75600Y-50700D03*
X75600Y-51700D03*
X74600Y-50700D03*
X74600Y-51700D03*
X73600Y-50700D03*
X73600Y-51700D03*
G54D14*
X73600Y-50700D02*
X73000Y-51300D01*
X73000Y-54500D02*
X73600Y-55100D01*
X73000Y-51300D02*
X73000Y-54500D01*
X74600Y-50700D02*
X74100Y-51200D01*
X74600Y-54700D02*
X74600Y-55100D01*
X74100Y-54200D02*
X74600Y-54700D01*
X74100Y-51200D02*
X74100Y-54200D01*
X75600Y-50700D02*
X75100Y-51200D01*
X75600Y-54700D02*
X75600Y-55100D01*
X75100Y-54200D02*
X75600Y-54700D01*
X75100Y-51200D02*
X75100Y-54200D01*
X77600Y-50700D02*
X77100Y-51200D01*
X77600Y-54700D02*
X77600Y-55100D01*
X77100Y-54200D02*
X77600Y-54700D01*
X77100Y-51200D02*
X77100Y-54200D01*
G54D15*
X78650Y-47750D02*
X78650Y-50650D01*
X78650Y-50650D02*
X78600Y-50700D01*
G54D14*
X78600Y-50700D02*
X78100Y-51200D01*
X78600Y-54700D02*
X78600Y-55100D01*
X78100Y-54200D02*
X78600Y-54700D01*
X78100Y-51200D02*
X78100Y-54200D01*
X80600Y-50700D02*
X80100Y-51200D01*
X80600Y-54700D02*
X80600Y-55100D01*
X80100Y-54200D02*
X80600Y-54700D01*
X80100Y-51200D02*
X80100Y-54200D01*
G54D15*
X78150Y-47750D02*
X78150Y-48150D01*
X76600Y-49700D02*
X76600Y-50700D01*
X78150Y-48150D02*
X76600Y-49700D01*
G54D14*
X76600Y-50700D02*
X76100Y-51200D01*
X76600Y-54700D02*
X76600Y-55100D01*
X76100Y-54200D02*
X76600Y-54700D01*
X76100Y-51200D02*
X76100Y-54200D01*
G54D15*
X79150Y-47750D02*
X79150Y-48150D01*
X79600Y-48600D02*
X79600Y-50700D01*
X79150Y-48150D02*
X79600Y-48600D01*
G54D14*
X79600Y-50700D02*
X79100Y-51200D01*
X79600Y-54700D02*
X79600Y-55100D01*
X79100Y-54200D02*
X79600Y-54700D01*
X79100Y-51200D02*
X79100Y-54200D01*
G54D15*
X79150Y-47250D02*
X80150Y-47250D01*
X82600Y-49700D02*
X82600Y-50700D01*
X80150Y-47250D02*
X82600Y-49700D01*
G54D14*
X82600Y-50700D02*
X82100Y-51200D01*
X82600Y-54700D02*
X82600Y-55100D01*
X82100Y-54200D02*
X82600Y-54700D01*
X82100Y-51200D02*
X82100Y-54200D01*
G54D16*
X77150Y-47250D02*
X77400Y-47500D01*
X81600Y-49700D02*
X81600Y-50700D01*
X79400Y-47500D02*
X81600Y-49700D01*
X77400Y-47500D02*
X79400Y-47500D01*
G54D14*
X81600Y-50700D02*
X81100Y-51200D01*
X81600Y-54700D02*
X81600Y-55100D01*
X81100Y-54200D02*
X81600Y-54700D01*
X81100Y-51200D02*
X81100Y-54200D01*
X75600Y-51700D02*
X75600Y-54200D01*
X76100Y-55600D02*
X75600Y-56100D01*
X76100Y-54700D02*
X76100Y-55600D01*
X75600Y-54200D02*
X76100Y-54700D01*
X73600Y-51700D02*
X73600Y-54200D01*
X74100Y-55600D02*
X73600Y-56100D01*
X74100Y-54700D02*
X74100Y-55600D01*
X73600Y-54200D02*
X74100Y-54700D01*
X80600Y-51700D02*
X80600Y-54200D01*
X81100Y-55600D02*
X80600Y-56100D01*
X81100Y-54700D02*
X81100Y-55600D01*
X80600Y-54200D02*
X81100Y-54700D01*
X77600Y-51700D02*
X77600Y-54200D01*
X78100Y-55600D02*
X77600Y-56100D01*
X78100Y-54700D02*
X78100Y-55600D01*
X77600Y-54200D02*
X78100Y-54700D01*
X78600Y-51700D02*
X78600Y-54200D01*
X79100Y-55600D02*
X78600Y-56100D01*
X79100Y-54700D02*
X79100Y-55600D01*
X78600Y-54200D02*
X79100Y-54700D01*
X79600Y-51700D02*
X79600Y-54200D01*
X80100Y-55600D02*
X79600Y-56100D01*
X80100Y-54700D02*
X80100Y-55600D01*
X79600Y-54200D02*
X80100Y-54700D01*
X76600Y-51700D02*
X76600Y-54200D01*
X77100Y-55600D02*
X76600Y-56100D01*
X77100Y-54700D02*
X77100Y-55600D01*
X76600Y-54200D02*
X77100Y-54700D01*
X81600Y-51700D02*
X81600Y-54200D01*
X82100Y-55600D02*
X81600Y-56100D01*
X82100Y-54700D02*
X82100Y-55600D01*
X81600Y-54200D02*
X82100Y-54700D01*
X74600Y-51700D02*
X74600Y-54200D01*
X75100Y-55600D02*
X74600Y-56100D01*
X75100Y-54700D02*
X75100Y-55600D01*
X74600Y-54200D02*
X75100Y-54700D01*
G54D10*
G36*
X74690Y-51705D02*
X74605Y-51790D01*
X74600Y-51784D01*
X74594Y-51790D01*
X74509Y-51705D01*
X74515Y-51700D01*
X74509Y-51694D01*
X74594Y-51609D01*
X74600Y-51615D01*
X74605Y-51609D01*
X74690Y-51694D01*
X74684Y-51700D01*
X74690Y-51705D01*
X74690Y-51705D01*
G37*
G54D15*
X74690Y-51705D02*
X74605Y-51790D01*
X74600Y-51784D01*
X74594Y-51790D01*
X74509Y-51705D01*
X74515Y-51700D01*
X74509Y-51694D01*
X74594Y-51609D01*
X74600Y-51615D01*
X74605Y-51609D01*
X74690Y-51694D01*
X74684Y-51700D01*
X74690Y-51705D01*
G54D10*
G36*
X75690Y-51705D02*
X75605Y-51790D01*
X75600Y-51784D01*
X75594Y-51790D01*
X75509Y-51705D01*
X75515Y-51700D01*
X75509Y-51694D01*
X75594Y-51609D01*
X75600Y-51615D01*
X75605Y-51609D01*
X75690Y-51694D01*
X75684Y-51700D01*
X75690Y-51705D01*
X75690Y-51705D01*
G37*
G54D15*
X75690Y-51705D02*
X75605Y-51790D01*
X75600Y-51784D01*
X75594Y-51790D01*
X75509Y-51705D01*
X75515Y-51700D01*
X75509Y-51694D01*
X75594Y-51609D01*
X75600Y-51615D01*
X75605Y-51609D01*
X75690Y-51694D01*
X75684Y-51700D01*
X75690Y-51705D01*
G54D10*
G36*
X76690Y-51705D02*
X76605Y-51790D01*
X76600Y-51784D01*
X76594Y-51790D01*
X76509Y-51705D01*
X76515Y-51700D01*
X76509Y-51694D01*
X76594Y-51609D01*
X76600Y-51615D01*
X76605Y-51609D01*
X76690Y-51694D01*
X76684Y-51700D01*
X76690Y-51705D01*
X76690Y-51705D01*
G37*
G54D15*
X76690Y-51705D02*
X76605Y-51790D01*
X76600Y-51784D01*
X76594Y-51790D01*
X76509Y-51705D01*
X76515Y-51700D01*
X76509Y-51694D01*
X76594Y-51609D01*
X76600Y-51615D01*
X76605Y-51609D01*
X76690Y-51694D01*
X76684Y-51700D01*
X76690Y-51705D01*
G54D10*
G36*
X77690Y-51705D02*
X77605Y-51790D01*
X77600Y-51784D01*
X77594Y-51790D01*
X77509Y-51705D01*
X77515Y-51700D01*
X77509Y-51694D01*
X77594Y-51609D01*
X77600Y-51615D01*
X77605Y-51609D01*
X77690Y-51694D01*
X77684Y-51700D01*
X77690Y-51705D01*
X77690Y-51705D01*
G37*
G54D15*
X77690Y-51705D02*
X77605Y-51790D01*
X77600Y-51784D01*
X77594Y-51790D01*
X77509Y-51705D01*
X77515Y-51700D01*
X77509Y-51694D01*
X77594Y-51609D01*
X77600Y-51615D01*
X77605Y-51609D01*
X77690Y-51694D01*
X77684Y-51700D01*
X77690Y-51705D01*
G54D10*
G36*
X78690Y-51705D02*
X78605Y-51790D01*
X78600Y-51784D01*
X78594Y-51790D01*
X78509Y-51705D01*
X78515Y-51700D01*
X78509Y-51694D01*
X78594Y-51609D01*
X78600Y-51615D01*
X78605Y-51609D01*
X78690Y-51694D01*
X78684Y-51700D01*
X78690Y-51705D01*
X78690Y-51705D01*
G37*
G54D15*
X78690Y-51705D02*
X78605Y-51790D01*
X78600Y-51784D01*
X78594Y-51790D01*
X78509Y-51705D01*
X78515Y-51700D01*
X78509Y-51694D01*
X78594Y-51609D01*
X78600Y-51615D01*
X78605Y-51609D01*
X78690Y-51694D01*
X78684Y-51700D01*
X78690Y-51705D01*
G54D10*
G36*
X79690Y-51705D02*
X79605Y-51790D01*
X79600Y-51784D01*
X79594Y-51790D01*
X79509Y-51705D01*
X79515Y-51700D01*
X79509Y-51694D01*
X79594Y-51609D01*
X79600Y-51615D01*
X79605Y-51609D01*
X79690Y-51694D01*
X79684Y-51700D01*
X79690Y-51705D01*
X79690Y-51705D01*
G37*
G54D15*
X79690Y-51705D02*
X79605Y-51790D01*
X79600Y-51784D01*
X79594Y-51790D01*
X79509Y-51705D01*
X79515Y-51700D01*
X79509Y-51694D01*
X79594Y-51609D01*
X79600Y-51615D01*
X79605Y-51609D01*
X79690Y-51694D01*
X79684Y-51700D01*
X79690Y-51705D01*
G54D10*
G36*
X80690Y-51705D02*
X80605Y-51790D01*
X80600Y-51784D01*
X80594Y-51790D01*
X80509Y-51705D01*
X80515Y-51700D01*
X80509Y-51694D01*
X80594Y-51609D01*
X80600Y-51615D01*
X80605Y-51609D01*
X80690Y-51694D01*
X80684Y-51700D01*
X80690Y-51705D01*
X80690Y-51705D01*
G37*
G54D15*
X80690Y-51705D02*
X80605Y-51790D01*
X80600Y-51784D01*
X80594Y-51790D01*
X80509Y-51705D01*
X80515Y-51700D01*
X80509Y-51694D01*
X80594Y-51609D01*
X80600Y-51615D01*
X80605Y-51609D01*
X80690Y-51694D01*
X80684Y-51700D01*
X80690Y-51705D01*
G54D10*
G36*
X81690Y-51705D02*
X81605Y-51790D01*
X81600Y-51784D01*
X81594Y-51790D01*
X81509Y-51705D01*
X81515Y-51700D01*
X81509Y-51694D01*
X81594Y-51609D01*
X81600Y-51615D01*
X81605Y-51609D01*
X81690Y-51694D01*
X81684Y-51700D01*
X81690Y-51705D01*
X81690Y-51705D01*
G37*
G54D15*
X81690Y-51705D02*
X81605Y-51790D01*
X81600Y-51784D01*
X81594Y-51790D01*
X81509Y-51705D01*
X81515Y-51700D01*
X81509Y-51694D01*
X81594Y-51609D01*
X81600Y-51615D01*
X81605Y-51609D01*
X81690Y-51694D01*
X81684Y-51700D01*
X81690Y-51705D01*
G54D10*
G36*
X83760Y-56593D02*
X83743Y-56766D01*
X83694Y-56927D01*
X83616Y-57075D01*
X83509Y-57205D01*
X83380Y-57312D01*
X83233Y-57392D01*
X83072Y-57442D01*
X83035Y-57446D01*
X83035Y-56057D01*
X83035Y-51657D01*
X83018Y-51573D01*
X82986Y-51494D01*
X82938Y-51423D01*
X82878Y-51362D01*
X82808Y-51315D01*
X82729Y-51282D01*
X82645Y-51265D01*
X82560Y-51264D01*
X82476Y-51280D01*
X82397Y-51312D01*
X82325Y-51359D01*
X82270Y-51413D01*
X82270Y-51270D01*
X82451Y-51088D01*
X82471Y-51096D01*
X82550Y-51114D01*
X82632Y-51116D01*
X82712Y-51101D01*
X82788Y-51072D01*
X82856Y-51028D01*
X82915Y-50972D01*
X82962Y-50906D01*
X82995Y-50831D01*
X83013Y-50752D01*
X83015Y-50659D01*
X82999Y-50579D01*
X82968Y-50504D01*
X82923Y-50436D01*
X82865Y-50378D01*
X82798Y-50332D01*
X82760Y-50316D01*
X82760Y-49700D01*
X82758Y-49685D01*
X82757Y-49670D01*
X82757Y-49669D01*
X82756Y-49668D01*
X82752Y-49654D01*
X82748Y-49640D01*
X82748Y-49639D01*
X82747Y-49639D01*
X82740Y-49625D01*
X82734Y-49612D01*
X82733Y-49612D01*
X82733Y-49611D01*
X82723Y-49599D01*
X82714Y-49588D01*
X82713Y-49587D01*
X82713Y-49587D01*
X82713Y-49587D01*
X82713Y-49586D01*
X80263Y-47136D01*
X80251Y-47127D01*
X80240Y-47117D01*
X80239Y-47117D01*
X80239Y-47117D01*
X80225Y-47110D01*
X80213Y-47102D01*
X80212Y-47102D01*
X80211Y-47102D01*
X80197Y-47097D01*
X80183Y-47093D01*
X80182Y-47093D01*
X80181Y-47093D01*
X80166Y-47091D01*
X80152Y-47090D01*
X80150Y-47090D01*
X80150Y-47090D01*
X80150Y-47090D01*
X80150Y-47090D01*
X79405Y-47090D01*
X79403Y-47077D01*
X79394Y-47055D01*
X79381Y-47035D01*
X79364Y-47019D01*
X79345Y-47006D01*
X79323Y-46997D01*
X79300Y-46992D01*
X79276Y-46992D01*
X79000Y-46992D01*
X78977Y-46996D01*
X78955Y-47005D01*
X78935Y-47018D01*
X78919Y-47035D01*
X78906Y-47054D01*
X78897Y-47076D01*
X78894Y-47090D01*
X78829Y-47155D01*
X78829Y-46985D01*
X78821Y-46911D01*
X78752Y-46884D01*
X78679Y-46871D01*
X78605Y-46872D01*
X78533Y-46888D01*
X78478Y-46911D01*
X78470Y-46985D01*
X78650Y-47165D01*
X78829Y-46985D01*
X78829Y-47155D01*
X78734Y-47250D01*
X78740Y-47255D01*
X78655Y-47340D01*
X78650Y-47334D01*
X78644Y-47340D01*
X78559Y-47255D01*
X78565Y-47250D01*
X78385Y-47070D01*
X78339Y-47075D01*
X78315Y-47050D01*
X78273Y-47022D01*
X78226Y-47002D01*
X78177Y-46992D01*
X78126Y-46992D01*
X78076Y-47001D01*
X78029Y-47020D01*
X77987Y-47048D01*
X77951Y-47083D01*
X77922Y-47125D01*
X77903Y-47171D01*
X77900Y-47185D01*
X77897Y-47175D01*
X77878Y-47128D01*
X77850Y-47086D01*
X77815Y-47050D01*
X77773Y-47022D01*
X77726Y-47002D01*
X77677Y-46992D01*
X77626Y-46992D01*
X77576Y-47001D01*
X77529Y-47020D01*
X77487Y-47048D01*
X77451Y-47083D01*
X77422Y-47125D01*
X77403Y-47171D01*
X77400Y-47185D01*
X77397Y-47175D01*
X77378Y-47128D01*
X77350Y-47086D01*
X77315Y-47050D01*
X77273Y-47022D01*
X77226Y-47002D01*
X77177Y-46992D01*
X77126Y-46992D01*
X77076Y-47001D01*
X77029Y-47020D01*
X76987Y-47048D01*
X76951Y-47083D01*
X76922Y-47125D01*
X76903Y-47171D01*
X76892Y-47221D01*
X76891Y-47271D01*
X76900Y-47321D01*
X76919Y-47368D01*
X76946Y-47410D01*
X76982Y-47447D01*
X77023Y-47476D01*
X77069Y-47496D01*
X77085Y-47499D01*
X77076Y-47501D01*
X77029Y-47520D01*
X76987Y-47548D01*
X76951Y-47583D01*
X76922Y-47625D01*
X76903Y-47671D01*
X76892Y-47721D01*
X76891Y-47771D01*
X76900Y-47821D01*
X76919Y-47868D01*
X76946Y-47910D01*
X76982Y-47947D01*
X77023Y-47976D01*
X77069Y-47996D01*
X77119Y-48007D01*
X77169Y-48008D01*
X77219Y-47999D01*
X77266Y-47981D01*
X77309Y-47954D01*
X77346Y-47919D01*
X77375Y-47877D01*
X77395Y-47831D01*
X77399Y-47814D01*
X77400Y-47821D01*
X77419Y-47868D01*
X77446Y-47910D01*
X77482Y-47947D01*
X77523Y-47976D01*
X77569Y-47996D01*
X77619Y-48007D01*
X77669Y-48008D01*
X77719Y-47999D01*
X77766Y-47981D01*
X77809Y-47954D01*
X77846Y-47919D01*
X77875Y-47877D01*
X77895Y-47831D01*
X77899Y-47814D01*
X77900Y-47821D01*
X77919Y-47868D01*
X77946Y-47910D01*
X77982Y-47947D01*
X77990Y-47952D01*
X77990Y-48083D01*
X76486Y-49586D01*
X76477Y-49598D01*
X76467Y-49609D01*
X76467Y-49610D01*
X76467Y-49610D01*
X76460Y-49624D01*
X76452Y-49636D01*
X76452Y-49637D01*
X76452Y-49638D01*
X76447Y-49652D01*
X76443Y-49666D01*
X76443Y-49667D01*
X76443Y-49668D01*
X76441Y-49683D01*
X76440Y-49697D01*
X76440Y-49699D01*
X76440Y-49699D01*
X76440Y-49699D01*
X76440Y-49700D01*
X76440Y-50316D01*
X76406Y-50330D01*
X76338Y-50374D01*
X76280Y-50431D01*
X76234Y-50498D01*
X76202Y-50573D01*
X76185Y-50653D01*
X76184Y-50734D01*
X76198Y-50815D01*
X76211Y-50847D01*
X75979Y-51079D01*
X75969Y-51091D01*
X75959Y-51103D01*
X75959Y-51104D01*
X75958Y-51105D01*
X75951Y-51119D01*
X75943Y-51133D01*
X75943Y-51133D01*
X75943Y-51134D01*
X75938Y-51149D01*
X75933Y-51164D01*
X75933Y-51165D01*
X75933Y-51166D01*
X75931Y-51182D01*
X75930Y-51197D01*
X75930Y-51199D01*
X75930Y-51199D01*
X75930Y-51199D01*
X75930Y-51200D01*
X75930Y-51285D01*
X75892Y-51322D01*
X75865Y-51232D01*
X75769Y-51189D01*
X75667Y-51166D01*
X75562Y-51163D01*
X75458Y-51180D01*
X75360Y-51218D01*
X75334Y-51232D01*
X75307Y-51322D01*
X75270Y-51285D01*
X75270Y-51270D01*
X75451Y-51088D01*
X75471Y-51096D01*
X75550Y-51114D01*
X75632Y-51116D01*
X75712Y-51101D01*
X75788Y-51072D01*
X75856Y-51028D01*
X75915Y-50972D01*
X75962Y-50906D01*
X75995Y-50831D01*
X76013Y-50752D01*
X76015Y-50659D01*
X75999Y-50579D01*
X75968Y-50504D01*
X75923Y-50436D01*
X75865Y-50378D01*
X75798Y-50332D01*
X75723Y-50301D01*
X75643Y-50285D01*
X75562Y-50284D01*
X75482Y-50299D01*
X75406Y-50330D01*
X75338Y-50374D01*
X75280Y-50431D01*
X75234Y-50498D01*
X75202Y-50573D01*
X75185Y-50653D01*
X75184Y-50734D01*
X75198Y-50815D01*
X75211Y-50847D01*
X74979Y-51079D01*
X74969Y-51091D01*
X74959Y-51103D01*
X74959Y-51104D01*
X74958Y-51105D01*
X74951Y-51119D01*
X74943Y-51133D01*
X74943Y-51133D01*
X74943Y-51134D01*
X74938Y-51149D01*
X74933Y-51164D01*
X74933Y-51165D01*
X74933Y-51166D01*
X74931Y-51182D01*
X74930Y-51197D01*
X74930Y-51199D01*
X74930Y-51199D01*
X74930Y-51199D01*
X74930Y-51200D01*
X74930Y-51285D01*
X74892Y-51322D01*
X74865Y-51232D01*
X74769Y-51189D01*
X74667Y-51166D01*
X74562Y-51163D01*
X74458Y-51180D01*
X74360Y-51218D01*
X74334Y-51232D01*
X74307Y-51322D01*
X74270Y-51285D01*
X74270Y-51270D01*
X74451Y-51088D01*
X74471Y-51096D01*
X74550Y-51114D01*
X74632Y-51116D01*
X74712Y-51101D01*
X74788Y-51072D01*
X74856Y-51028D01*
X74915Y-50972D01*
X74962Y-50906D01*
X74995Y-50831D01*
X75013Y-50752D01*
X75015Y-50659D01*
X74999Y-50579D01*
X74968Y-50504D01*
X74923Y-50436D01*
X74865Y-50378D01*
X74798Y-50332D01*
X74723Y-50301D01*
X74643Y-50285D01*
X74562Y-50284D01*
X74482Y-50299D01*
X74406Y-50330D01*
X74338Y-50374D01*
X74280Y-50431D01*
X74234Y-50498D01*
X74202Y-50573D01*
X74185Y-50653D01*
X74184Y-50734D01*
X74198Y-50815D01*
X74211Y-50847D01*
X73979Y-51079D01*
X73969Y-51091D01*
X73959Y-51103D01*
X73959Y-51104D01*
X73958Y-51105D01*
X73951Y-51119D01*
X73943Y-51133D01*
X73943Y-51133D01*
X73943Y-51134D01*
X73938Y-51149D01*
X73933Y-51164D01*
X73933Y-51165D01*
X73933Y-51166D01*
X73931Y-51182D01*
X73930Y-51197D01*
X73930Y-51199D01*
X73930Y-51199D01*
X73930Y-51199D01*
X73930Y-51200D01*
X73930Y-51285D01*
X73892Y-51322D01*
X73865Y-51232D01*
X73769Y-51189D01*
X73667Y-51166D01*
X73562Y-51163D01*
X73458Y-51180D01*
X73360Y-51218D01*
X73334Y-51232D01*
X73307Y-51322D01*
X73262Y-51277D01*
X73451Y-51088D01*
X73471Y-51096D01*
X73550Y-51114D01*
X73632Y-51116D01*
X73712Y-51101D01*
X73788Y-51072D01*
X73856Y-51028D01*
X73915Y-50972D01*
X73962Y-50906D01*
X73995Y-50831D01*
X74013Y-50752D01*
X74015Y-50659D01*
X73999Y-50579D01*
X73968Y-50504D01*
X73923Y-50436D01*
X73865Y-50378D01*
X73798Y-50332D01*
X73723Y-50301D01*
X73643Y-50285D01*
X73562Y-50284D01*
X73482Y-50299D01*
X73406Y-50330D01*
X73338Y-50374D01*
X73280Y-50431D01*
X73234Y-50498D01*
X73202Y-50573D01*
X73185Y-50653D01*
X73184Y-50734D01*
X73198Y-50815D01*
X73211Y-50847D01*
X72879Y-51179D01*
X72869Y-51191D01*
X72859Y-51203D01*
X72859Y-51204D01*
X72858Y-51205D01*
X72851Y-51219D01*
X72843Y-51233D01*
X72843Y-51233D01*
X72843Y-51234D01*
X72838Y-51249D01*
X72833Y-51264D01*
X72833Y-51265D01*
X72833Y-51266D01*
X72831Y-51282D01*
X72830Y-51297D01*
X72830Y-51299D01*
X72830Y-51299D01*
X72830Y-51299D01*
X72830Y-51300D01*
X72830Y-54500D01*
X72831Y-54515D01*
X72832Y-54531D01*
X72833Y-54532D01*
X72833Y-54533D01*
X72837Y-54548D01*
X72842Y-54563D01*
X72842Y-54563D01*
X72842Y-54564D01*
X72850Y-54578D01*
X72857Y-54592D01*
X72857Y-54593D01*
X72858Y-54594D01*
X72868Y-54606D01*
X72878Y-54618D01*
X72879Y-54619D01*
X72879Y-54619D01*
X72879Y-54619D01*
X72879Y-54620D01*
X73211Y-54952D01*
X73202Y-54973D01*
X73185Y-55053D01*
X73184Y-55134D01*
X73198Y-55215D01*
X73228Y-55290D01*
X73272Y-55359D01*
X73329Y-55417D01*
X73396Y-55464D01*
X73471Y-55496D01*
X73550Y-55514D01*
X73632Y-55516D01*
X73712Y-55501D01*
X73788Y-55472D01*
X73856Y-55428D01*
X73915Y-55372D01*
X73962Y-55306D01*
X73995Y-55231D01*
X74013Y-55152D01*
X74015Y-55059D01*
X73999Y-54979D01*
X73968Y-54904D01*
X73923Y-54836D01*
X73892Y-54805D01*
X73865Y-54778D01*
X73798Y-54732D01*
X73723Y-54701D01*
X73643Y-54685D01*
X73562Y-54684D01*
X73482Y-54699D01*
X73452Y-54711D01*
X73170Y-54429D01*
X73170Y-51977D01*
X73222Y-51992D01*
X73515Y-51700D01*
X73509Y-51694D01*
X73594Y-51609D01*
X73600Y-51615D01*
X73605Y-51609D01*
X73690Y-51694D01*
X73684Y-51700D01*
X73690Y-51705D01*
X73605Y-51790D01*
X73600Y-51784D01*
X73307Y-52077D01*
X73334Y-52167D01*
X73430Y-52210D01*
X73532Y-52233D01*
X73637Y-52236D01*
X73741Y-52219D01*
X73839Y-52181D01*
X73865Y-52167D01*
X73892Y-52077D01*
X73892Y-52077D01*
X73930Y-52114D01*
X73930Y-54200D01*
X73931Y-54215D01*
X73932Y-54231D01*
X73933Y-54232D01*
X73933Y-54233D01*
X73937Y-54248D01*
X73942Y-54263D01*
X73942Y-54263D01*
X73942Y-54264D01*
X73950Y-54278D01*
X73957Y-54292D01*
X73957Y-54293D01*
X73958Y-54294D01*
X73968Y-54306D01*
X73978Y-54318D01*
X73979Y-54319D01*
X73979Y-54319D01*
X73979Y-54319D01*
X73979Y-54320D01*
X74396Y-54736D01*
X74338Y-54774D01*
X74280Y-54831D01*
X74234Y-54898D01*
X74202Y-54973D01*
X74185Y-55053D01*
X74184Y-55134D01*
X74198Y-55215D01*
X74228Y-55290D01*
X74272Y-55359D01*
X74329Y-55417D01*
X74396Y-55464D01*
X74471Y-55496D01*
X74550Y-55514D01*
X74632Y-55516D01*
X74712Y-55501D01*
X74788Y-55472D01*
X74856Y-55428D01*
X74915Y-55372D01*
X74962Y-55306D01*
X74995Y-55231D01*
X75013Y-55152D01*
X75015Y-55059D01*
X74999Y-54979D01*
X74968Y-54904D01*
X74923Y-54836D01*
X74892Y-54805D01*
X74865Y-54778D01*
X74798Y-54732D01*
X74770Y-54720D01*
X74770Y-54700D01*
X74768Y-54684D01*
X74767Y-54668D01*
X74766Y-54667D01*
X74766Y-54666D01*
X74762Y-54651D01*
X74757Y-54636D01*
X74757Y-54636D01*
X74757Y-54635D01*
X74749Y-54621D01*
X74742Y-54607D01*
X74742Y-54606D01*
X74741Y-54605D01*
X74731Y-54593D01*
X74721Y-54581D01*
X74720Y-54580D01*
X74720Y-54580D01*
X74720Y-54580D01*
X74720Y-54579D01*
X74270Y-54129D01*
X74270Y-52114D01*
X74307Y-52077D01*
X74334Y-52167D01*
X74430Y-52210D01*
X74532Y-52233D01*
X74637Y-52236D01*
X74741Y-52219D01*
X74839Y-52181D01*
X74865Y-52167D01*
X74892Y-52077D01*
X74892Y-52077D01*
X74930Y-52114D01*
X74930Y-54200D01*
X74931Y-54215D01*
X74932Y-54231D01*
X74933Y-54232D01*
X74933Y-54233D01*
X74937Y-54248D01*
X74942Y-54263D01*
X74942Y-54263D01*
X74942Y-54264D01*
X74950Y-54278D01*
X74957Y-54292D01*
X74957Y-54293D01*
X74958Y-54294D01*
X74968Y-54306D01*
X74978Y-54318D01*
X74979Y-54319D01*
X74979Y-54319D01*
X74979Y-54319D01*
X74979Y-54320D01*
X75396Y-54736D01*
X75338Y-54774D01*
X75280Y-54831D01*
X75234Y-54898D01*
X75202Y-54973D01*
X75185Y-55053D01*
X75184Y-55134D01*
X75198Y-55215D01*
X75228Y-55290D01*
X75272Y-55359D01*
X75329Y-55417D01*
X75396Y-55464D01*
X75471Y-55496D01*
X75550Y-55514D01*
X75632Y-55516D01*
X75712Y-55501D01*
X75788Y-55472D01*
X75856Y-55428D01*
X75915Y-55372D01*
X75962Y-55306D01*
X75995Y-55231D01*
X76013Y-55152D01*
X76015Y-55059D01*
X75999Y-54979D01*
X75968Y-54904D01*
X75923Y-54836D01*
X75892Y-54805D01*
X75865Y-54778D01*
X75798Y-54732D01*
X75770Y-54720D01*
X75770Y-54700D01*
X75768Y-54684D01*
X75767Y-54668D01*
X75766Y-54667D01*
X75766Y-54666D01*
X75762Y-54651D01*
X75757Y-54636D01*
X75757Y-54636D01*
X75757Y-54635D01*
X75749Y-54621D01*
X75742Y-54607D01*
X75742Y-54606D01*
X75741Y-54605D01*
X75731Y-54593D01*
X75721Y-54581D01*
X75720Y-54580D01*
X75720Y-54580D01*
X75720Y-54580D01*
X75720Y-54579D01*
X75270Y-54129D01*
X75270Y-52114D01*
X75307Y-52077D01*
X75334Y-52167D01*
X75430Y-52210D01*
X75532Y-52233D01*
X75637Y-52236D01*
X75741Y-52219D01*
X75839Y-52181D01*
X75865Y-52167D01*
X75892Y-52077D01*
X75892Y-52077D01*
X75930Y-52114D01*
X75930Y-54200D01*
X75931Y-54215D01*
X75932Y-54231D01*
X75933Y-54232D01*
X75933Y-54233D01*
X75937Y-54248D01*
X75942Y-54263D01*
X75942Y-54263D01*
X75942Y-54264D01*
X75950Y-54278D01*
X75957Y-54292D01*
X75957Y-54293D01*
X75958Y-54294D01*
X75968Y-54306D01*
X75978Y-54318D01*
X75979Y-54319D01*
X75979Y-54319D01*
X75979Y-54319D01*
X75979Y-54320D01*
X76396Y-54736D01*
X76338Y-54774D01*
X76280Y-54831D01*
X76234Y-54898D01*
X76202Y-54973D01*
X76185Y-55053D01*
X76184Y-55134D01*
X76198Y-55215D01*
X76228Y-55290D01*
X76272Y-55359D01*
X76329Y-55417D01*
X76396Y-55464D01*
X76471Y-55496D01*
X76550Y-55514D01*
X76632Y-55516D01*
X76712Y-55501D01*
X76788Y-55472D01*
X76856Y-55428D01*
X76915Y-55372D01*
X76962Y-55306D01*
X76995Y-55231D01*
X77013Y-55152D01*
X77015Y-55059D01*
X76999Y-54979D01*
X76968Y-54904D01*
X76923Y-54836D01*
X76892Y-54805D01*
X76865Y-54778D01*
X76798Y-54732D01*
X76770Y-54720D01*
X76770Y-54700D01*
X76768Y-54684D01*
X76767Y-54668D01*
X76766Y-54667D01*
X76766Y-54666D01*
X76762Y-54651D01*
X76757Y-54636D01*
X76757Y-54636D01*
X76757Y-54635D01*
X76749Y-54621D01*
X76742Y-54607D01*
X76742Y-54606D01*
X76741Y-54605D01*
X76731Y-54593D01*
X76721Y-54581D01*
X76720Y-54580D01*
X76720Y-54580D01*
X76720Y-54580D01*
X76720Y-54579D01*
X76270Y-54129D01*
X76270Y-52114D01*
X76307Y-52077D01*
X76334Y-52167D01*
X76430Y-52210D01*
X76532Y-52233D01*
X76637Y-52236D01*
X76741Y-52219D01*
X76839Y-52181D01*
X76865Y-52167D01*
X76892Y-52077D01*
X76892Y-52077D01*
X76930Y-52114D01*
X76930Y-54200D01*
X76931Y-54215D01*
X76932Y-54231D01*
X76933Y-54232D01*
X76933Y-54233D01*
X76937Y-54248D01*
X76942Y-54263D01*
X76942Y-54263D01*
X76942Y-54264D01*
X76950Y-54278D01*
X76957Y-54292D01*
X76957Y-54293D01*
X76958Y-54294D01*
X76968Y-54306D01*
X76978Y-54318D01*
X76979Y-54319D01*
X76979Y-54319D01*
X76979Y-54319D01*
X76979Y-54320D01*
X77396Y-54736D01*
X77338Y-54774D01*
X77280Y-54831D01*
X77234Y-54898D01*
X77202Y-54973D01*
X77185Y-55053D01*
X77184Y-55134D01*
X77198Y-55215D01*
X77228Y-55290D01*
X77272Y-55359D01*
X77329Y-55417D01*
X77396Y-55464D01*
X77471Y-55496D01*
X77550Y-55514D01*
X77632Y-55516D01*
X77712Y-55501D01*
X77788Y-55472D01*
X77856Y-55428D01*
X77915Y-55372D01*
X77962Y-55306D01*
X77995Y-55231D01*
X78013Y-55152D01*
X78015Y-55059D01*
X77999Y-54979D01*
X77968Y-54904D01*
X77923Y-54836D01*
X77892Y-54805D01*
X77865Y-54778D01*
X77798Y-54732D01*
X77770Y-54720D01*
X77770Y-54700D01*
X77768Y-54684D01*
X77767Y-54668D01*
X77766Y-54667D01*
X77766Y-54666D01*
X77762Y-54651D01*
X77757Y-54636D01*
X77757Y-54636D01*
X77757Y-54635D01*
X77749Y-54621D01*
X77742Y-54607D01*
X77742Y-54606D01*
X77741Y-54605D01*
X77731Y-54593D01*
X77721Y-54581D01*
X77720Y-54580D01*
X77720Y-54580D01*
X77720Y-54580D01*
X77720Y-54579D01*
X77270Y-54129D01*
X77270Y-52114D01*
X77307Y-52077D01*
X77334Y-52167D01*
X77430Y-52210D01*
X77532Y-52233D01*
X77637Y-52236D01*
X77741Y-52219D01*
X77839Y-52181D01*
X77865Y-52167D01*
X77892Y-52077D01*
X77892Y-52077D01*
X77930Y-52114D01*
X77930Y-54200D01*
X77931Y-54215D01*
X77932Y-54231D01*
X77933Y-54232D01*
X77933Y-54233D01*
X77937Y-54248D01*
X77942Y-54263D01*
X77942Y-54263D01*
X77942Y-54264D01*
X77950Y-54278D01*
X77957Y-54292D01*
X77957Y-54293D01*
X77958Y-54294D01*
X77968Y-54306D01*
X77978Y-54318D01*
X77979Y-54319D01*
X77979Y-54319D01*
X77979Y-54319D01*
X77979Y-54320D01*
X78396Y-54736D01*
X78338Y-54774D01*
X78280Y-54831D01*
X78234Y-54898D01*
X78202Y-54973D01*
X78185Y-55053D01*
X78184Y-55134D01*
X78198Y-55215D01*
X78228Y-55290D01*
X78272Y-55359D01*
X78329Y-55417D01*
X78396Y-55464D01*
X78471Y-55496D01*
X78550Y-55514D01*
X78632Y-55516D01*
X78712Y-55501D01*
X78788Y-55472D01*
X78856Y-55428D01*
X78915Y-55372D01*
X78962Y-55306D01*
X78995Y-55231D01*
X79013Y-55152D01*
X79015Y-55059D01*
X78999Y-54979D01*
X78968Y-54904D01*
X78923Y-54836D01*
X78892Y-54805D01*
X78865Y-54778D01*
X78798Y-54732D01*
X78770Y-54720D01*
X78770Y-54700D01*
X78768Y-54684D01*
X78767Y-54668D01*
X78766Y-54667D01*
X78766Y-54666D01*
X78762Y-54651D01*
X78757Y-54636D01*
X78757Y-54636D01*
X78757Y-54635D01*
X78749Y-54621D01*
X78742Y-54607D01*
X78742Y-54606D01*
X78741Y-54605D01*
X78731Y-54593D01*
X78721Y-54581D01*
X78720Y-54580D01*
X78720Y-54580D01*
X78720Y-54580D01*
X78720Y-54579D01*
X78270Y-54129D01*
X78270Y-52114D01*
X78307Y-52077D01*
X78334Y-52167D01*
X78430Y-52210D01*
X78532Y-52233D01*
X78637Y-52236D01*
X78741Y-52219D01*
X78839Y-52181D01*
X78865Y-52167D01*
X78892Y-52077D01*
X78892Y-52077D01*
X78930Y-52114D01*
X78930Y-54200D01*
X78931Y-54215D01*
X78932Y-54231D01*
X78933Y-54232D01*
X78933Y-54233D01*
X78937Y-54248D01*
X78942Y-54263D01*
X78942Y-54263D01*
X78942Y-54264D01*
X78950Y-54278D01*
X78957Y-54292D01*
X78957Y-54293D01*
X78958Y-54294D01*
X78968Y-54306D01*
X78978Y-54318D01*
X78979Y-54319D01*
X78979Y-54319D01*
X78979Y-54319D01*
X78979Y-54320D01*
X79396Y-54736D01*
X79338Y-54774D01*
X79280Y-54831D01*
X79234Y-54898D01*
X79202Y-54973D01*
X79185Y-55053D01*
X79184Y-55134D01*
X79198Y-55215D01*
X79228Y-55290D01*
X79272Y-55359D01*
X79329Y-55417D01*
X79396Y-55464D01*
X79471Y-55496D01*
X79550Y-55514D01*
X79632Y-55516D01*
X79712Y-55501D01*
X79788Y-55472D01*
X79856Y-55428D01*
X79915Y-55372D01*
X79962Y-55306D01*
X79995Y-55231D01*
X80013Y-55152D01*
X80015Y-55059D01*
X79999Y-54979D01*
X79968Y-54904D01*
X79923Y-54836D01*
X79892Y-54805D01*
X79865Y-54778D01*
X79798Y-54732D01*
X79770Y-54720D01*
X79770Y-54700D01*
X79768Y-54684D01*
X79767Y-54668D01*
X79766Y-54667D01*
X79766Y-54666D01*
X79762Y-54651D01*
X79757Y-54636D01*
X79757Y-54636D01*
X79757Y-54635D01*
X79749Y-54621D01*
X79742Y-54607D01*
X79742Y-54606D01*
X79741Y-54605D01*
X79731Y-54593D01*
X79721Y-54581D01*
X79720Y-54580D01*
X79720Y-54580D01*
X79720Y-54580D01*
X79720Y-54579D01*
X79270Y-54129D01*
X79270Y-52114D01*
X79307Y-52077D01*
X79334Y-52167D01*
X79430Y-52210D01*
X79532Y-52233D01*
X79637Y-52236D01*
X79741Y-52219D01*
X79839Y-52181D01*
X79865Y-52167D01*
X79892Y-52077D01*
X79892Y-52077D01*
X79930Y-52114D01*
X79930Y-54200D01*
X79931Y-54215D01*
X79932Y-54231D01*
X79933Y-54232D01*
X79933Y-54233D01*
X79937Y-54248D01*
X79942Y-54263D01*
X79942Y-54263D01*
X79942Y-54264D01*
X79950Y-54278D01*
X79957Y-54292D01*
X79957Y-54293D01*
X79958Y-54294D01*
X79968Y-54306D01*
X79978Y-54318D01*
X79979Y-54319D01*
X79979Y-54319D01*
X79979Y-54319D01*
X79979Y-54320D01*
X80396Y-54736D01*
X80338Y-54774D01*
X80280Y-54831D01*
X80234Y-54898D01*
X80202Y-54973D01*
X80185Y-55053D01*
X80184Y-55134D01*
X80198Y-55215D01*
X80228Y-55290D01*
X80272Y-55359D01*
X80329Y-55417D01*
X80396Y-55464D01*
X80471Y-55496D01*
X80550Y-55514D01*
X80632Y-55516D01*
X80712Y-55501D01*
X80788Y-55472D01*
X80856Y-55428D01*
X80915Y-55372D01*
X80962Y-55306D01*
X80995Y-55231D01*
X81013Y-55152D01*
X81015Y-55059D01*
X80999Y-54979D01*
X80968Y-54904D01*
X80923Y-54836D01*
X80892Y-54805D01*
X80865Y-54778D01*
X80798Y-54732D01*
X80770Y-54720D01*
X80770Y-54700D01*
X80768Y-54684D01*
X80767Y-54668D01*
X80766Y-54667D01*
X80766Y-54666D01*
X80762Y-54651D01*
X80757Y-54636D01*
X80757Y-54636D01*
X80757Y-54635D01*
X80749Y-54621D01*
X80742Y-54607D01*
X80742Y-54606D01*
X80741Y-54605D01*
X80731Y-54593D01*
X80721Y-54581D01*
X80720Y-54580D01*
X80720Y-54580D01*
X80720Y-54580D01*
X80720Y-54579D01*
X80270Y-54129D01*
X80270Y-52114D01*
X80307Y-52077D01*
X80334Y-52167D01*
X80430Y-52210D01*
X80532Y-52233D01*
X80637Y-52236D01*
X80741Y-52219D01*
X80839Y-52181D01*
X80865Y-52167D01*
X80892Y-52077D01*
X80892Y-52077D01*
X80930Y-52114D01*
X80930Y-54200D01*
X80931Y-54215D01*
X80932Y-54231D01*
X80933Y-54232D01*
X80933Y-54233D01*
X80937Y-54248D01*
X80942Y-54263D01*
X80942Y-54263D01*
X80942Y-54264D01*
X80950Y-54278D01*
X80957Y-54292D01*
X80957Y-54293D01*
X80958Y-54294D01*
X80968Y-54306D01*
X80978Y-54318D01*
X80979Y-54319D01*
X80979Y-54319D01*
X80979Y-54319D01*
X80979Y-54320D01*
X81396Y-54736D01*
X81338Y-54774D01*
X81280Y-54831D01*
X81234Y-54898D01*
X81202Y-54973D01*
X81185Y-55053D01*
X81184Y-55134D01*
X81198Y-55215D01*
X81228Y-55290D01*
X81272Y-55359D01*
X81329Y-55417D01*
X81396Y-55464D01*
X81471Y-55496D01*
X81550Y-55514D01*
X81632Y-55516D01*
X81712Y-55501D01*
X81788Y-55472D01*
X81856Y-55428D01*
X81915Y-55372D01*
X81962Y-55306D01*
X81995Y-55231D01*
X82013Y-55152D01*
X82015Y-55059D01*
X81999Y-54979D01*
X81968Y-54904D01*
X81923Y-54836D01*
X81892Y-54805D01*
X81865Y-54778D01*
X81798Y-54732D01*
X81770Y-54720D01*
X81770Y-54700D01*
X81768Y-54684D01*
X81767Y-54668D01*
X81766Y-54667D01*
X81766Y-54666D01*
X81762Y-54651D01*
X81757Y-54636D01*
X81757Y-54636D01*
X81757Y-54635D01*
X81749Y-54621D01*
X81742Y-54607D01*
X81742Y-54606D01*
X81741Y-54605D01*
X81731Y-54593D01*
X81721Y-54581D01*
X81720Y-54580D01*
X81720Y-54580D01*
X81720Y-54580D01*
X81720Y-54579D01*
X81270Y-54129D01*
X81270Y-52114D01*
X81307Y-52077D01*
X81334Y-52167D01*
X81430Y-52210D01*
X81532Y-52233D01*
X81637Y-52236D01*
X81741Y-52219D01*
X81839Y-52181D01*
X81865Y-52167D01*
X81892Y-52077D01*
X81892Y-52077D01*
X81930Y-52114D01*
X81930Y-54200D01*
X81931Y-54215D01*
X81932Y-54231D01*
X81933Y-54232D01*
X81933Y-54233D01*
X81937Y-54248D01*
X81942Y-54263D01*
X81942Y-54263D01*
X81942Y-54264D01*
X81950Y-54278D01*
X81957Y-54292D01*
X81957Y-54293D01*
X81958Y-54294D01*
X81968Y-54306D01*
X81978Y-54318D01*
X81979Y-54319D01*
X81979Y-54319D01*
X81979Y-54319D01*
X81979Y-54320D01*
X82396Y-54736D01*
X82338Y-54774D01*
X82280Y-54831D01*
X82234Y-54898D01*
X82202Y-54973D01*
X82185Y-55053D01*
X82184Y-55134D01*
X82198Y-55215D01*
X82228Y-55290D01*
X82272Y-55359D01*
X82329Y-55417D01*
X82396Y-55464D01*
X82471Y-55496D01*
X82550Y-55514D01*
X82632Y-55516D01*
X82712Y-55501D01*
X82788Y-55472D01*
X82856Y-55428D01*
X82915Y-55372D01*
X82962Y-55306D01*
X82995Y-55231D01*
X83013Y-55152D01*
X83015Y-55059D01*
X82999Y-54979D01*
X82968Y-54904D01*
X82923Y-54836D01*
X82865Y-54778D01*
X82798Y-54732D01*
X82770Y-54720D01*
X82770Y-54700D01*
X82768Y-54684D01*
X82767Y-54668D01*
X82766Y-54667D01*
X82766Y-54666D01*
X82762Y-54651D01*
X82757Y-54636D01*
X82757Y-54636D01*
X82757Y-54635D01*
X82749Y-54621D01*
X82742Y-54607D01*
X82742Y-54606D01*
X82741Y-54605D01*
X82731Y-54593D01*
X82721Y-54581D01*
X82720Y-54580D01*
X82720Y-54580D01*
X82720Y-54580D01*
X82720Y-54579D01*
X82270Y-54129D01*
X82270Y-51984D01*
X82316Y-52033D01*
X82386Y-52081D01*
X82464Y-52115D01*
X82548Y-52134D01*
X82633Y-52136D01*
X82717Y-52121D01*
X82797Y-52090D01*
X82869Y-52044D01*
X82931Y-51985D01*
X82980Y-51916D01*
X83015Y-51838D01*
X83033Y-51754D01*
X83035Y-51657D01*
X83035Y-56057D01*
X83018Y-55973D01*
X82986Y-55894D01*
X82938Y-55823D01*
X82878Y-55762D01*
X82808Y-55715D01*
X82729Y-55682D01*
X82645Y-55665D01*
X82560Y-55664D01*
X82476Y-55680D01*
X82397Y-55712D01*
X82325Y-55759D01*
X82264Y-55818D01*
X82216Y-55889D01*
X82183Y-55967D01*
X82165Y-56051D01*
X82164Y-56136D01*
X82179Y-56220D01*
X82210Y-56299D01*
X82257Y-56371D01*
X82316Y-56433D01*
X82386Y-56481D01*
X82464Y-56515D01*
X82548Y-56534D01*
X82633Y-56536D01*
X82717Y-56521D01*
X82797Y-56490D01*
X82869Y-56444D01*
X82931Y-56385D01*
X82980Y-56316D01*
X83015Y-56238D01*
X83033Y-56154D01*
X83035Y-56057D01*
X83035Y-57446D01*
X82899Y-57460D01*
X82136Y-57460D01*
X82136Y-56062D01*
X82119Y-55958D01*
X82081Y-55860D01*
X82067Y-55834D01*
X81977Y-55807D01*
X81892Y-55892D01*
X81892Y-55722D01*
X81865Y-55632D01*
X81769Y-55589D01*
X81667Y-55566D01*
X81562Y-55563D01*
X81458Y-55580D01*
X81360Y-55618D01*
X81334Y-55632D01*
X81307Y-55722D01*
X81600Y-56015D01*
X81892Y-55722D01*
X81892Y-55892D01*
X81684Y-56100D01*
X81977Y-56392D01*
X82067Y-56365D01*
X82110Y-56269D01*
X82133Y-56167D01*
X82136Y-56062D01*
X82136Y-57460D01*
X81892Y-57460D01*
X81892Y-56477D01*
X81600Y-56184D01*
X81515Y-56269D01*
X81515Y-56100D01*
X81222Y-55807D01*
X81132Y-55834D01*
X81099Y-55907D01*
X81081Y-55860D01*
X81067Y-55834D01*
X81015Y-55818D01*
X80977Y-55807D01*
X80892Y-55892D01*
X80892Y-55722D01*
X80865Y-55632D01*
X80769Y-55589D01*
X80667Y-55566D01*
X80562Y-55563D01*
X80458Y-55580D01*
X80360Y-55618D01*
X80334Y-55632D01*
X80307Y-55722D01*
X80600Y-56015D01*
X80892Y-55722D01*
X80892Y-55892D01*
X80684Y-56100D01*
X80977Y-56392D01*
X81067Y-56365D01*
X81100Y-56292D01*
X81118Y-56339D01*
X81132Y-56365D01*
X81222Y-56392D01*
X81515Y-56100D01*
X81515Y-56269D01*
X81307Y-56477D01*
X81334Y-56567D01*
X81430Y-56610D01*
X81532Y-56633D01*
X81637Y-56636D01*
X81741Y-56619D01*
X81839Y-56581D01*
X81865Y-56567D01*
X81892Y-56477D01*
X81892Y-57460D01*
X80892Y-57460D01*
X80892Y-56477D01*
X80600Y-56184D01*
X80515Y-56269D01*
X80515Y-56100D01*
X80222Y-55807D01*
X80132Y-55834D01*
X80099Y-55907D01*
X80081Y-55860D01*
X80067Y-55834D01*
X79977Y-55807D01*
X79892Y-55892D01*
X79892Y-55722D01*
X79865Y-55632D01*
X79769Y-55589D01*
X79667Y-55566D01*
X79562Y-55563D01*
X79458Y-55580D01*
X79360Y-55618D01*
X79334Y-55632D01*
X79307Y-55722D01*
X79600Y-56015D01*
X79892Y-55722D01*
X79892Y-55892D01*
X79684Y-56100D01*
X79977Y-56392D01*
X80067Y-56365D01*
X80100Y-56292D01*
X80118Y-56339D01*
X80132Y-56365D01*
X80222Y-56392D01*
X80515Y-56100D01*
X80515Y-56269D01*
X80307Y-56477D01*
X80334Y-56567D01*
X80430Y-56610D01*
X80532Y-56633D01*
X80637Y-56636D01*
X80741Y-56619D01*
X80839Y-56581D01*
X80865Y-56567D01*
X80892Y-56477D01*
X80892Y-57460D01*
X79892Y-57460D01*
X79892Y-56477D01*
X79600Y-56184D01*
X79515Y-56269D01*
X79515Y-56100D01*
X79222Y-55807D01*
X79132Y-55834D01*
X79099Y-55907D01*
X79081Y-55860D01*
X79067Y-55834D01*
X78977Y-55807D01*
X78892Y-55892D01*
X78892Y-55722D01*
X78865Y-55632D01*
X78769Y-55589D01*
X78667Y-55566D01*
X78562Y-55563D01*
X78458Y-55580D01*
X78360Y-55618D01*
X78334Y-55632D01*
X78307Y-55722D01*
X78600Y-56015D01*
X78892Y-55722D01*
X78892Y-55892D01*
X78684Y-56100D01*
X78977Y-56392D01*
X79067Y-56365D01*
X79100Y-56292D01*
X79118Y-56339D01*
X79132Y-56365D01*
X79222Y-56392D01*
X79515Y-56100D01*
X79515Y-56269D01*
X79307Y-56477D01*
X79334Y-56567D01*
X79430Y-56610D01*
X79532Y-56633D01*
X79637Y-56636D01*
X79741Y-56619D01*
X79839Y-56581D01*
X79865Y-56567D01*
X79892Y-56477D01*
X79892Y-57460D01*
X78892Y-57460D01*
X78892Y-56477D01*
X78600Y-56184D01*
X78515Y-56269D01*
X78515Y-56100D01*
X78222Y-55807D01*
X78132Y-55834D01*
X78099Y-55907D01*
X78081Y-55860D01*
X78067Y-55834D01*
X78015Y-55818D01*
X77977Y-55807D01*
X77892Y-55892D01*
X77892Y-55722D01*
X77865Y-55632D01*
X77769Y-55589D01*
X77667Y-55566D01*
X77562Y-55563D01*
X77458Y-55580D01*
X77360Y-55618D01*
X77334Y-55632D01*
X77307Y-55722D01*
X77600Y-56015D01*
X77892Y-55722D01*
X77892Y-55892D01*
X77684Y-56100D01*
X77977Y-56392D01*
X78067Y-56365D01*
X78100Y-56292D01*
X78118Y-56339D01*
X78132Y-56365D01*
X78222Y-56392D01*
X78515Y-56100D01*
X78515Y-56269D01*
X78307Y-56477D01*
X78334Y-56567D01*
X78430Y-56610D01*
X78532Y-56633D01*
X78637Y-56636D01*
X78741Y-56619D01*
X78839Y-56581D01*
X78865Y-56567D01*
X78892Y-56477D01*
X78892Y-57460D01*
X77892Y-57460D01*
X77892Y-56477D01*
X77600Y-56184D01*
X77515Y-56269D01*
X77515Y-56100D01*
X77222Y-55807D01*
X77132Y-55834D01*
X77099Y-55907D01*
X77081Y-55860D01*
X77067Y-55834D01*
X76977Y-55807D01*
X76892Y-55892D01*
X76892Y-55722D01*
X76865Y-55632D01*
X76769Y-55589D01*
X76667Y-55566D01*
X76562Y-55563D01*
X76458Y-55580D01*
X76360Y-55618D01*
X76334Y-55632D01*
X76307Y-55722D01*
X76600Y-56015D01*
X76892Y-55722D01*
X76892Y-55892D01*
X76684Y-56100D01*
X76977Y-56392D01*
X77067Y-56365D01*
X77100Y-56292D01*
X77118Y-56339D01*
X77132Y-56365D01*
X77222Y-56392D01*
X77515Y-56100D01*
X77515Y-56269D01*
X77307Y-56477D01*
X77334Y-56567D01*
X77430Y-56610D01*
X77532Y-56633D01*
X77637Y-56636D01*
X77741Y-56619D01*
X77839Y-56581D01*
X77865Y-56567D01*
X77892Y-56477D01*
X77892Y-57460D01*
X76892Y-57460D01*
X76892Y-56477D01*
X76600Y-56184D01*
X76515Y-56269D01*
X76515Y-56100D01*
X76222Y-55807D01*
X76132Y-55834D01*
X76099Y-55907D01*
X76081Y-55860D01*
X76067Y-55834D01*
X76015Y-55818D01*
X75977Y-55807D01*
X75892Y-55892D01*
X75892Y-55722D01*
X75865Y-55632D01*
X75769Y-55589D01*
X75667Y-55566D01*
X75562Y-55563D01*
X75458Y-55580D01*
X75360Y-55618D01*
X75334Y-55632D01*
X75307Y-55722D01*
X75600Y-56015D01*
X75892Y-55722D01*
X75892Y-55892D01*
X75684Y-56100D01*
X75977Y-56392D01*
X76067Y-56365D01*
X76100Y-56292D01*
X76118Y-56339D01*
X76132Y-56365D01*
X76222Y-56392D01*
X76515Y-56100D01*
X76515Y-56269D01*
X76307Y-56477D01*
X76334Y-56567D01*
X76430Y-56610D01*
X76532Y-56633D01*
X76637Y-56636D01*
X76741Y-56619D01*
X76839Y-56581D01*
X76865Y-56567D01*
X76892Y-56477D01*
X76892Y-57460D01*
X75892Y-57460D01*
X75892Y-56477D01*
X75600Y-56184D01*
X75515Y-56269D01*
X75515Y-56100D01*
X75222Y-55807D01*
X75132Y-55834D01*
X75099Y-55907D01*
X75081Y-55860D01*
X75067Y-55834D01*
X75015Y-55818D01*
X74977Y-55807D01*
X74892Y-55892D01*
X74892Y-55722D01*
X74865Y-55632D01*
X74769Y-55589D01*
X74667Y-55566D01*
X74562Y-55563D01*
X74458Y-55580D01*
X74360Y-55618D01*
X74334Y-55632D01*
X74307Y-55722D01*
X74600Y-56015D01*
X74892Y-55722D01*
X74892Y-55892D01*
X74684Y-56100D01*
X74977Y-56392D01*
X75067Y-56365D01*
X75100Y-56292D01*
X75118Y-56339D01*
X75132Y-56365D01*
X75222Y-56392D01*
X75515Y-56100D01*
X75515Y-56269D01*
X75307Y-56477D01*
X75334Y-56567D01*
X75430Y-56610D01*
X75532Y-56633D01*
X75637Y-56636D01*
X75741Y-56619D01*
X75839Y-56581D01*
X75865Y-56567D01*
X75892Y-56477D01*
X75892Y-57460D01*
X74892Y-57460D01*
X74892Y-56477D01*
X74600Y-56184D01*
X74515Y-56269D01*
X74515Y-56100D01*
X74222Y-55807D01*
X74132Y-55834D01*
X74099Y-55907D01*
X74081Y-55860D01*
X74067Y-55834D01*
X74015Y-55818D01*
X73977Y-55807D01*
X73892Y-55892D01*
X73892Y-55722D01*
X73865Y-55632D01*
X73769Y-55589D01*
X73667Y-55566D01*
X73562Y-55563D01*
X73458Y-55580D01*
X73360Y-55618D01*
X73334Y-55632D01*
X73307Y-55722D01*
X73600Y-56015D01*
X73892Y-55722D01*
X73892Y-55892D01*
X73684Y-56100D01*
X73977Y-56392D01*
X74067Y-56365D01*
X74100Y-56292D01*
X74118Y-56339D01*
X74132Y-56365D01*
X74222Y-56392D01*
X74515Y-56100D01*
X74515Y-56269D01*
X74307Y-56477D01*
X74334Y-56567D01*
X74430Y-56610D01*
X74532Y-56633D01*
X74637Y-56636D01*
X74741Y-56619D01*
X74839Y-56581D01*
X74865Y-56567D01*
X74892Y-56477D01*
X74892Y-57460D01*
X73892Y-57460D01*
X73892Y-56477D01*
X73600Y-56184D01*
X73515Y-56269D01*
X73515Y-56100D01*
X73222Y-55807D01*
X73132Y-55834D01*
X73089Y-55930D01*
X73066Y-56032D01*
X73063Y-56137D01*
X73080Y-56241D01*
X73118Y-56339D01*
X73132Y-56365D01*
X73222Y-56392D01*
X73515Y-56100D01*
X73515Y-56269D01*
X73307Y-56477D01*
X73334Y-56567D01*
X73430Y-56610D01*
X73532Y-56633D01*
X73637Y-56636D01*
X73741Y-56619D01*
X73839Y-56581D01*
X73865Y-56567D01*
X73892Y-56477D01*
X73892Y-57460D01*
X73400Y-57460D01*
X73399Y-57460D01*
X73217Y-57460D01*
X73051Y-57428D01*
X72895Y-57364D01*
X72754Y-57271D01*
X72634Y-57152D01*
X72540Y-57012D01*
X72474Y-56857D01*
X72439Y-56689D01*
X72439Y-56300D01*
X72439Y-47513D01*
X72472Y-47348D01*
X72537Y-47192D01*
X72630Y-47052D01*
X72750Y-46932D01*
X72890Y-46838D01*
X73045Y-46773D01*
X73211Y-46739D01*
X73386Y-46739D01*
X73386Y-46739D01*
X73392Y-46739D01*
X73398Y-46739D01*
X73400Y-46739D01*
X82893Y-46739D01*
X83066Y-46756D01*
X83227Y-46805D01*
X83375Y-46883D01*
X83505Y-46990D01*
X83612Y-47119D01*
X83692Y-47266D01*
X83742Y-47427D01*
X83760Y-47600D01*
X83760Y-56300D01*
X83760Y-56593D01*
X83760Y-56593D01*
G37*
G54D15*
X83760Y-56593D02*
X83743Y-56766D01*
X83694Y-56927D01*
X83616Y-57075D01*
X83509Y-57205D01*
X83380Y-57312D01*
X83233Y-57392D01*
X83072Y-57442D01*
X83035Y-57446D01*
X83035Y-56057D01*
X83035Y-51657D01*
X83018Y-51573D01*
X82986Y-51494D01*
X82938Y-51423D01*
X82878Y-51362D01*
X82808Y-51315D01*
X82729Y-51282D01*
X82645Y-51265D01*
X82560Y-51264D01*
X82476Y-51280D01*
X82397Y-51312D01*
X82325Y-51359D01*
X82270Y-51413D01*
X82270Y-51270D01*
X82451Y-51088D01*
X82471Y-51096D01*
X82550Y-51114D01*
X82632Y-51116D01*
X82712Y-51101D01*
X82788Y-51072D01*
X82856Y-51028D01*
X82915Y-50972D01*
X82962Y-50906D01*
X82995Y-50831D01*
X83013Y-50752D01*
X83015Y-50659D01*
X82999Y-50579D01*
X82968Y-50504D01*
X82923Y-50436D01*
X82865Y-50378D01*
X82798Y-50332D01*
X82760Y-50316D01*
X82760Y-49700D01*
X82758Y-49685D01*
X82757Y-49670D01*
X82757Y-49669D01*
X82756Y-49668D01*
X82752Y-49654D01*
X82748Y-49640D01*
X82748Y-49639D01*
X82747Y-49639D01*
X82740Y-49625D01*
X82734Y-49612D01*
X82733Y-49612D01*
X82733Y-49611D01*
X82723Y-49599D01*
X82714Y-49588D01*
X82713Y-49587D01*
X82713Y-49587D01*
X82713Y-49587D01*
X82713Y-49586D01*
X80263Y-47136D01*
X80251Y-47127D01*
X80240Y-47117D01*
X80239Y-47117D01*
X80239Y-47117D01*
X80225Y-47110D01*
X80213Y-47102D01*
X80212Y-47102D01*
X80211Y-47102D01*
X80197Y-47097D01*
X80183Y-47093D01*
X80182Y-47093D01*
X80181Y-47093D01*
X80166Y-47091D01*
X80152Y-47090D01*
X80150Y-47090D01*
X80150Y-47090D01*
X80150Y-47090D01*
X80150Y-47090D01*
X79405Y-47090D01*
X79403Y-47077D01*
X79394Y-47055D01*
X79381Y-47035D01*
X79364Y-47019D01*
X79345Y-47006D01*
X79323Y-46997D01*
X79300Y-46992D01*
X79276Y-46992D01*
X79000Y-46992D01*
X78977Y-46996D01*
X78955Y-47005D01*
X78935Y-47018D01*
X78919Y-47035D01*
X78906Y-47054D01*
X78897Y-47076D01*
X78894Y-47090D01*
X78829Y-47155D01*
X78829Y-46985D01*
X78821Y-46911D01*
X78752Y-46884D01*
X78679Y-46871D01*
X78605Y-46872D01*
X78533Y-46888D01*
X78478Y-46911D01*
X78470Y-46985D01*
X78650Y-47165D01*
X78829Y-46985D01*
X78829Y-47155D01*
X78734Y-47250D01*
X78740Y-47255D01*
X78655Y-47340D01*
X78650Y-47334D01*
X78644Y-47340D01*
X78559Y-47255D01*
X78565Y-47250D01*
X78385Y-47070D01*
X78339Y-47075D01*
X78315Y-47050D01*
X78273Y-47022D01*
X78226Y-47002D01*
X78177Y-46992D01*
X78126Y-46992D01*
X78076Y-47001D01*
X78029Y-47020D01*
X77987Y-47048D01*
X77951Y-47083D01*
X77922Y-47125D01*
X77903Y-47171D01*
X77900Y-47185D01*
X77897Y-47175D01*
X77878Y-47128D01*
X77850Y-47086D01*
X77815Y-47050D01*
X77773Y-47022D01*
X77726Y-47002D01*
X77677Y-46992D01*
X77626Y-46992D01*
X77576Y-47001D01*
X77529Y-47020D01*
X77487Y-47048D01*
X77451Y-47083D01*
X77422Y-47125D01*
X77403Y-47171D01*
X77400Y-47185D01*
X77397Y-47175D01*
X77378Y-47128D01*
X77350Y-47086D01*
X77315Y-47050D01*
X77273Y-47022D01*
X77226Y-47002D01*
X77177Y-46992D01*
X77126Y-46992D01*
X77076Y-47001D01*
X77029Y-47020D01*
X76987Y-47048D01*
X76951Y-47083D01*
X76922Y-47125D01*
X76903Y-47171D01*
X76892Y-47221D01*
X76891Y-47271D01*
X76900Y-47321D01*
X76919Y-47368D01*
X76946Y-47410D01*
X76982Y-47447D01*
X77023Y-47476D01*
X77069Y-47496D01*
X77085Y-47499D01*
X77076Y-47501D01*
X77029Y-47520D01*
X76987Y-47548D01*
X76951Y-47583D01*
X76922Y-47625D01*
X76903Y-47671D01*
X76892Y-47721D01*
X76891Y-47771D01*
X76900Y-47821D01*
X76919Y-47868D01*
X76946Y-47910D01*
X76982Y-47947D01*
X77023Y-47976D01*
X77069Y-47996D01*
X77119Y-48007D01*
X77169Y-48008D01*
X77219Y-47999D01*
X77266Y-47981D01*
X77309Y-47954D01*
X77346Y-47919D01*
X77375Y-47877D01*
X77395Y-47831D01*
X77399Y-47814D01*
X77400Y-47821D01*
X77419Y-47868D01*
X77446Y-47910D01*
X77482Y-47947D01*
X77523Y-47976D01*
X77569Y-47996D01*
X77619Y-48007D01*
X77669Y-48008D01*
X77719Y-47999D01*
X77766Y-47981D01*
X77809Y-47954D01*
X77846Y-47919D01*
X77875Y-47877D01*
X77895Y-47831D01*
X77899Y-47814D01*
X77900Y-47821D01*
X77919Y-47868D01*
X77946Y-47910D01*
X77982Y-47947D01*
X77990Y-47952D01*
X77990Y-48083D01*
X76486Y-49586D01*
X76477Y-49598D01*
X76467Y-49609D01*
X76467Y-49610D01*
X76467Y-49610D01*
X76460Y-49624D01*
X76452Y-49636D01*
X76452Y-49637D01*
X76452Y-49638D01*
X76447Y-49652D01*
X76443Y-49666D01*
X76443Y-49667D01*
X76443Y-49668D01*
X76441Y-49683D01*
X76440Y-49697D01*
X76440Y-49699D01*
X76440Y-49699D01*
X76440Y-49699D01*
X76440Y-49700D01*
X76440Y-50316D01*
X76406Y-50330D01*
X76338Y-50374D01*
X76280Y-50431D01*
X76234Y-50498D01*
X76202Y-50573D01*
X76185Y-50653D01*
X76184Y-50734D01*
X76198Y-50815D01*
X76211Y-50847D01*
X75979Y-51079D01*
X75969Y-51091D01*
X75959Y-51103D01*
X75959Y-51104D01*
X75958Y-51105D01*
X75951Y-51119D01*
X75943Y-51133D01*
X75943Y-51133D01*
X75943Y-51134D01*
X75938Y-51149D01*
X75933Y-51164D01*
X75933Y-51165D01*
X75933Y-51166D01*
X75931Y-51182D01*
X75930Y-51197D01*
X75930Y-51199D01*
X75930Y-51199D01*
X75930Y-51199D01*
X75930Y-51200D01*
X75930Y-51285D01*
X75892Y-51322D01*
X75865Y-51232D01*
X75769Y-51189D01*
X75667Y-51166D01*
X75562Y-51163D01*
X75458Y-51180D01*
X75360Y-51218D01*
X75334Y-51232D01*
X75307Y-51322D01*
X75270Y-51285D01*
X75270Y-51270D01*
X75451Y-51088D01*
X75471Y-51096D01*
X75550Y-51114D01*
X75632Y-51116D01*
X75712Y-51101D01*
X75788Y-51072D01*
X75856Y-51028D01*
X75915Y-50972D01*
X75962Y-50906D01*
X75995Y-50831D01*
X76013Y-50752D01*
X76015Y-50659D01*
X75999Y-50579D01*
X75968Y-50504D01*
X75923Y-50436D01*
X75865Y-50378D01*
X75798Y-50332D01*
X75723Y-50301D01*
X75643Y-50285D01*
X75562Y-50284D01*
X75482Y-50299D01*
X75406Y-50330D01*
X75338Y-50374D01*
X75280Y-50431D01*
X75234Y-50498D01*
X75202Y-50573D01*
X75185Y-50653D01*
X75184Y-50734D01*
X75198Y-50815D01*
X75211Y-50847D01*
X74979Y-51079D01*
X74969Y-51091D01*
X74959Y-51103D01*
X74959Y-51104D01*
X74958Y-51105D01*
X74951Y-51119D01*
X74943Y-51133D01*
X74943Y-51133D01*
X74943Y-51134D01*
X74938Y-51149D01*
X74933Y-51164D01*
X74933Y-51165D01*
X74933Y-51166D01*
X74931Y-51182D01*
X74930Y-51197D01*
X74930Y-51199D01*
X74930Y-51199D01*
X74930Y-51199D01*
X74930Y-51200D01*
X74930Y-51285D01*
X74892Y-51322D01*
X74865Y-51232D01*
X74769Y-51189D01*
X74667Y-51166D01*
X74562Y-51163D01*
X74458Y-51180D01*
X74360Y-51218D01*
X74334Y-51232D01*
X74307Y-51322D01*
X74270Y-51285D01*
X74270Y-51270D01*
X74451Y-51088D01*
X74471Y-51096D01*
X74550Y-51114D01*
X74632Y-51116D01*
X74712Y-51101D01*
X74788Y-51072D01*
X74856Y-51028D01*
X74915Y-50972D01*
X74962Y-50906D01*
X74995Y-50831D01*
X75013Y-50752D01*
X75015Y-50659D01*
X74999Y-50579D01*
X74968Y-50504D01*
X74923Y-50436D01*
X74865Y-50378D01*
X74798Y-50332D01*
X74723Y-50301D01*
X74643Y-50285D01*
X74562Y-50284D01*
X74482Y-50299D01*
X74406Y-50330D01*
X74338Y-50374D01*
X74280Y-50431D01*
X74234Y-50498D01*
X74202Y-50573D01*
X74185Y-50653D01*
X74184Y-50734D01*
X74198Y-50815D01*
X74211Y-50847D01*
X73979Y-51079D01*
X73969Y-51091D01*
X73959Y-51103D01*
X73959Y-51104D01*
X73958Y-51105D01*
X73951Y-51119D01*
X73943Y-51133D01*
X73943Y-51133D01*
X73943Y-51134D01*
X73938Y-51149D01*
X73933Y-51164D01*
X73933Y-51165D01*
X73933Y-51166D01*
X73931Y-51182D01*
X73930Y-51197D01*
X73930Y-51199D01*
X73930Y-51199D01*
X73930Y-51199D01*
X73930Y-51200D01*
X73930Y-51285D01*
X73892Y-51322D01*
X73865Y-51232D01*
X73769Y-51189D01*
X73667Y-51166D01*
X73562Y-51163D01*
X73458Y-51180D01*
X73360Y-51218D01*
X73334Y-51232D01*
X73307Y-51322D01*
X73262Y-51277D01*
X73451Y-51088D01*
X73471Y-51096D01*
X73550Y-51114D01*
X73632Y-51116D01*
X73712Y-51101D01*
X73788Y-51072D01*
X73856Y-51028D01*
X73915Y-50972D01*
X73962Y-50906D01*
X73995Y-50831D01*
X74013Y-50752D01*
X74015Y-50659D01*
X73999Y-50579D01*
X73968Y-50504D01*
X73923Y-50436D01*
X73865Y-50378D01*
X73798Y-50332D01*
X73723Y-50301D01*
X73643Y-50285D01*
X73562Y-50284D01*
X73482Y-50299D01*
X73406Y-50330D01*
X73338Y-50374D01*
X73280Y-50431D01*
X73234Y-50498D01*
X73202Y-50573D01*
X73185Y-50653D01*
X73184Y-50734D01*
X73198Y-50815D01*
X73211Y-50847D01*
X72879Y-51179D01*
X72869Y-51191D01*
X72859Y-51203D01*
X72859Y-51204D01*
X72858Y-51205D01*
X72851Y-51219D01*
X72843Y-51233D01*
X72843Y-51233D01*
X72843Y-51234D01*
X72838Y-51249D01*
X72833Y-51264D01*
X72833Y-51265D01*
X72833Y-51266D01*
X72831Y-51282D01*
X72830Y-51297D01*
X72830Y-51299D01*
X72830Y-51299D01*
X72830Y-51299D01*
X72830Y-51300D01*
X72830Y-54500D01*
X72831Y-54515D01*
X72832Y-54531D01*
X72833Y-54532D01*
X72833Y-54533D01*
X72837Y-54548D01*
X72842Y-54563D01*
X72842Y-54563D01*
X72842Y-54564D01*
X72850Y-54578D01*
X72857Y-54592D01*
X72857Y-54593D01*
X72858Y-54594D01*
X72868Y-54606D01*
X72878Y-54618D01*
X72879Y-54619D01*
X72879Y-54619D01*
X72879Y-54619D01*
X72879Y-54620D01*
X73211Y-54952D01*
X73202Y-54973D01*
X73185Y-55053D01*
X73184Y-55134D01*
X73198Y-55215D01*
X73228Y-55290D01*
X73272Y-55359D01*
X73329Y-55417D01*
X73396Y-55464D01*
X73471Y-55496D01*
X73550Y-55514D01*
X73632Y-55516D01*
X73712Y-55501D01*
X73788Y-55472D01*
X73856Y-55428D01*
X73915Y-55372D01*
X73962Y-55306D01*
X73995Y-55231D01*
X74013Y-55152D01*
X74015Y-55059D01*
X73999Y-54979D01*
X73968Y-54904D01*
X73923Y-54836D01*
X73892Y-54805D01*
X73865Y-54778D01*
X73798Y-54732D01*
X73723Y-54701D01*
X73643Y-54685D01*
X73562Y-54684D01*
X73482Y-54699D01*
X73452Y-54711D01*
X73170Y-54429D01*
X73170Y-51977D01*
X73222Y-51992D01*
X73515Y-51700D01*
X73509Y-51694D01*
X73594Y-51609D01*
X73600Y-51615D01*
X73605Y-51609D01*
X73690Y-51694D01*
X73684Y-51700D01*
X73690Y-51705D01*
X73605Y-51790D01*
X73600Y-51784D01*
X73307Y-52077D01*
X73334Y-52167D01*
X73430Y-52210D01*
X73532Y-52233D01*
X73637Y-52236D01*
X73741Y-52219D01*
X73839Y-52181D01*
X73865Y-52167D01*
X73892Y-52077D01*
X73892Y-52077D01*
X73930Y-52114D01*
X73930Y-54200D01*
X73931Y-54215D01*
X73932Y-54231D01*
X73933Y-54232D01*
X73933Y-54233D01*
X73937Y-54248D01*
X73942Y-54263D01*
X73942Y-54263D01*
X73942Y-54264D01*
X73950Y-54278D01*
X73957Y-54292D01*
X73957Y-54293D01*
X73958Y-54294D01*
X73968Y-54306D01*
X73978Y-54318D01*
X73979Y-54319D01*
X73979Y-54319D01*
X73979Y-54319D01*
X73979Y-54320D01*
X74396Y-54736D01*
X74338Y-54774D01*
X74280Y-54831D01*
X74234Y-54898D01*
X74202Y-54973D01*
X74185Y-55053D01*
X74184Y-55134D01*
X74198Y-55215D01*
X74228Y-55290D01*
X74272Y-55359D01*
X74329Y-55417D01*
X74396Y-55464D01*
X74471Y-55496D01*
X74550Y-55514D01*
X74632Y-55516D01*
X74712Y-55501D01*
X74788Y-55472D01*
X74856Y-55428D01*
X74915Y-55372D01*
X74962Y-55306D01*
X74995Y-55231D01*
X75013Y-55152D01*
X75015Y-55059D01*
X74999Y-54979D01*
X74968Y-54904D01*
X74923Y-54836D01*
X74892Y-54805D01*
X74865Y-54778D01*
X74798Y-54732D01*
X74770Y-54720D01*
X74770Y-54700D01*
X74768Y-54684D01*
X74767Y-54668D01*
X74766Y-54667D01*
X74766Y-54666D01*
X74762Y-54651D01*
X74757Y-54636D01*
X74757Y-54636D01*
X74757Y-54635D01*
X74749Y-54621D01*
X74742Y-54607D01*
X74742Y-54606D01*
X74741Y-54605D01*
X74731Y-54593D01*
X74721Y-54581D01*
X74720Y-54580D01*
X74720Y-54580D01*
X74720Y-54580D01*
X74720Y-54579D01*
X74270Y-54129D01*
X74270Y-52114D01*
X74307Y-52077D01*
X74334Y-52167D01*
X74430Y-52210D01*
X74532Y-52233D01*
X74637Y-52236D01*
X74741Y-52219D01*
X74839Y-52181D01*
X74865Y-52167D01*
X74892Y-52077D01*
X74892Y-52077D01*
X74930Y-52114D01*
X74930Y-54200D01*
X74931Y-54215D01*
X74932Y-54231D01*
X74933Y-54232D01*
X74933Y-54233D01*
X74937Y-54248D01*
X74942Y-54263D01*
X74942Y-54263D01*
X74942Y-54264D01*
X74950Y-54278D01*
X74957Y-54292D01*
X74957Y-54293D01*
X74958Y-54294D01*
X74968Y-54306D01*
X74978Y-54318D01*
X74979Y-54319D01*
X74979Y-54319D01*
X74979Y-54319D01*
X74979Y-54320D01*
X75396Y-54736D01*
X75338Y-54774D01*
X75280Y-54831D01*
X75234Y-54898D01*
X75202Y-54973D01*
X75185Y-55053D01*
X75184Y-55134D01*
X75198Y-55215D01*
X75228Y-55290D01*
X75272Y-55359D01*
X75329Y-55417D01*
X75396Y-55464D01*
X75471Y-55496D01*
X75550Y-55514D01*
X75632Y-55516D01*
X75712Y-55501D01*
X75788Y-55472D01*
X75856Y-55428D01*
X75915Y-55372D01*
X75962Y-55306D01*
X75995Y-55231D01*
X76013Y-55152D01*
X76015Y-55059D01*
X75999Y-54979D01*
X75968Y-54904D01*
X75923Y-54836D01*
X75892Y-54805D01*
X75865Y-54778D01*
X75798Y-54732D01*
X75770Y-54720D01*
X75770Y-54700D01*
X75768Y-54684D01*
X75767Y-54668D01*
X75766Y-54667D01*
X75766Y-54666D01*
X75762Y-54651D01*
X75757Y-54636D01*
X75757Y-54636D01*
X75757Y-54635D01*
X75749Y-54621D01*
X75742Y-54607D01*
X75742Y-54606D01*
X75741Y-54605D01*
X75731Y-54593D01*
X75721Y-54581D01*
X75720Y-54580D01*
X75720Y-54580D01*
X75720Y-54580D01*
X75720Y-54579D01*
X75270Y-54129D01*
X75270Y-52114D01*
X75307Y-52077D01*
X75334Y-52167D01*
X75430Y-52210D01*
X75532Y-52233D01*
X75637Y-52236D01*
X75741Y-52219D01*
X75839Y-52181D01*
X75865Y-52167D01*
X75892Y-52077D01*
X75892Y-52077D01*
X75930Y-52114D01*
X75930Y-54200D01*
X75931Y-54215D01*
X75932Y-54231D01*
X75933Y-54232D01*
X75933Y-54233D01*
X75937Y-54248D01*
X75942Y-54263D01*
X75942Y-54263D01*
X75942Y-54264D01*
X75950Y-54278D01*
X75957Y-54292D01*
X75957Y-54293D01*
X75958Y-54294D01*
X75968Y-54306D01*
X75978Y-54318D01*
X75979Y-54319D01*
X75979Y-54319D01*
X75979Y-54319D01*
X75979Y-54320D01*
X76396Y-54736D01*
X76338Y-54774D01*
X76280Y-54831D01*
X76234Y-54898D01*
X76202Y-54973D01*
X76185Y-55053D01*
X76184Y-55134D01*
X76198Y-55215D01*
X76228Y-55290D01*
X76272Y-55359D01*
X76329Y-55417D01*
X76396Y-55464D01*
X76471Y-55496D01*
X76550Y-55514D01*
X76632Y-55516D01*
X76712Y-55501D01*
X76788Y-55472D01*
X76856Y-55428D01*
X76915Y-55372D01*
X76962Y-55306D01*
X76995Y-55231D01*
X77013Y-55152D01*
X77015Y-55059D01*
X76999Y-54979D01*
X76968Y-54904D01*
X76923Y-54836D01*
X76892Y-54805D01*
X76865Y-54778D01*
X76798Y-54732D01*
X76770Y-54720D01*
X76770Y-54700D01*
X76768Y-54684D01*
X76767Y-54668D01*
X76766Y-54667D01*
X76766Y-54666D01*
X76762Y-54651D01*
X76757Y-54636D01*
X76757Y-54636D01*
X76757Y-54635D01*
X76749Y-54621D01*
X76742Y-54607D01*
X76742Y-54606D01*
X76741Y-54605D01*
X76731Y-54593D01*
X76721Y-54581D01*
X76720Y-54580D01*
X76720Y-54580D01*
X76720Y-54580D01*
X76720Y-54579D01*
X76270Y-54129D01*
X76270Y-52114D01*
X76307Y-52077D01*
X76334Y-52167D01*
X76430Y-52210D01*
X76532Y-52233D01*
X76637Y-52236D01*
X76741Y-52219D01*
X76839Y-52181D01*
X76865Y-52167D01*
X76892Y-52077D01*
X76892Y-52077D01*
X76930Y-52114D01*
X76930Y-54200D01*
X76931Y-54215D01*
X76932Y-54231D01*
X76933Y-54232D01*
X76933Y-54233D01*
X76937Y-54248D01*
X76942Y-54263D01*
X76942Y-54263D01*
X76942Y-54264D01*
X76950Y-54278D01*
X76957Y-54292D01*
X76957Y-54293D01*
X76958Y-54294D01*
X76968Y-54306D01*
X76978Y-54318D01*
X76979Y-54319D01*
X76979Y-54319D01*
X76979Y-54319D01*
X76979Y-54320D01*
X77396Y-54736D01*
X77338Y-54774D01*
X77280Y-54831D01*
X77234Y-54898D01*
X77202Y-54973D01*
X77185Y-55053D01*
X77184Y-55134D01*
X77198Y-55215D01*
X77228Y-55290D01*
X77272Y-55359D01*
X77329Y-55417D01*
X77396Y-55464D01*
X77471Y-55496D01*
X77550Y-55514D01*
X77632Y-55516D01*
X77712Y-55501D01*
X77788Y-55472D01*
X77856Y-55428D01*
X77915Y-55372D01*
X77962Y-55306D01*
X77995Y-55231D01*
X78013Y-55152D01*
X78015Y-55059D01*
X77999Y-54979D01*
X77968Y-54904D01*
X77923Y-54836D01*
X77892Y-54805D01*
X77865Y-54778D01*
X77798Y-54732D01*
X77770Y-54720D01*
X77770Y-54700D01*
X77768Y-54684D01*
X77767Y-54668D01*
X77766Y-54667D01*
X77766Y-54666D01*
X77762Y-54651D01*
X77757Y-54636D01*
X77757Y-54636D01*
X77757Y-54635D01*
X77749Y-54621D01*
X77742Y-54607D01*
X77742Y-54606D01*
X77741Y-54605D01*
X77731Y-54593D01*
X77721Y-54581D01*
X77720Y-54580D01*
X77720Y-54580D01*
X77720Y-54580D01*
X77720Y-54579D01*
X77270Y-54129D01*
X77270Y-52114D01*
X77307Y-52077D01*
X77334Y-52167D01*
X77430Y-52210D01*
X77532Y-52233D01*
X77637Y-52236D01*
X77741Y-52219D01*
X77839Y-52181D01*
X77865Y-52167D01*
X77892Y-52077D01*
X77892Y-52077D01*
X77930Y-52114D01*
X77930Y-54200D01*
X77931Y-54215D01*
X77932Y-54231D01*
X77933Y-54232D01*
X77933Y-54233D01*
X77937Y-54248D01*
X77942Y-54263D01*
X77942Y-54263D01*
X77942Y-54264D01*
X77950Y-54278D01*
X77957Y-54292D01*
X77957Y-54293D01*
X77958Y-54294D01*
X77968Y-54306D01*
X77978Y-54318D01*
X77979Y-54319D01*
X77979Y-54319D01*
X77979Y-54319D01*
X77979Y-54320D01*
X78396Y-54736D01*
X78338Y-54774D01*
X78280Y-54831D01*
X78234Y-54898D01*
X78202Y-54973D01*
X78185Y-55053D01*
X78184Y-55134D01*
X78198Y-55215D01*
X78228Y-55290D01*
X78272Y-55359D01*
X78329Y-55417D01*
X78396Y-55464D01*
X78471Y-55496D01*
X78550Y-55514D01*
X78632Y-55516D01*
X78712Y-55501D01*
X78788Y-55472D01*
X78856Y-55428D01*
X78915Y-55372D01*
X78962Y-55306D01*
X78995Y-55231D01*
X79013Y-55152D01*
X79015Y-55059D01*
X78999Y-54979D01*
X78968Y-54904D01*
X78923Y-54836D01*
X78892Y-54805D01*
X78865Y-54778D01*
X78798Y-54732D01*
X78770Y-54720D01*
X78770Y-54700D01*
X78768Y-54684D01*
X78767Y-54668D01*
X78766Y-54667D01*
X78766Y-54666D01*
X78762Y-54651D01*
X78757Y-54636D01*
X78757Y-54636D01*
X78757Y-54635D01*
X78749Y-54621D01*
X78742Y-54607D01*
X78742Y-54606D01*
X78741Y-54605D01*
X78731Y-54593D01*
X78721Y-54581D01*
X78720Y-54580D01*
X78720Y-54580D01*
X78720Y-54580D01*
X78720Y-54579D01*
X78270Y-54129D01*
X78270Y-52114D01*
X78307Y-52077D01*
X78334Y-52167D01*
X78430Y-52210D01*
X78532Y-52233D01*
X78637Y-52236D01*
X78741Y-52219D01*
X78839Y-52181D01*
X78865Y-52167D01*
X78892Y-52077D01*
X78892Y-52077D01*
X78930Y-52114D01*
X78930Y-54200D01*
X78931Y-54215D01*
X78932Y-54231D01*
X78933Y-54232D01*
X78933Y-54233D01*
X78937Y-54248D01*
X78942Y-54263D01*
X78942Y-54263D01*
X78942Y-54264D01*
X78950Y-54278D01*
X78957Y-54292D01*
X78957Y-54293D01*
X78958Y-54294D01*
X78968Y-54306D01*
X78978Y-54318D01*
X78979Y-54319D01*
X78979Y-54319D01*
X78979Y-54319D01*
X78979Y-54320D01*
X79396Y-54736D01*
X79338Y-54774D01*
X79280Y-54831D01*
X79234Y-54898D01*
X79202Y-54973D01*
X79185Y-55053D01*
X79184Y-55134D01*
X79198Y-55215D01*
X79228Y-55290D01*
X79272Y-55359D01*
X79329Y-55417D01*
X79396Y-55464D01*
X79471Y-55496D01*
X79550Y-55514D01*
X79632Y-55516D01*
X79712Y-55501D01*
X79788Y-55472D01*
X79856Y-55428D01*
X79915Y-55372D01*
X79962Y-55306D01*
X79995Y-55231D01*
X80013Y-55152D01*
X80015Y-55059D01*
X79999Y-54979D01*
X79968Y-54904D01*
X79923Y-54836D01*
X79892Y-54805D01*
X79865Y-54778D01*
X79798Y-54732D01*
X79770Y-54720D01*
X79770Y-54700D01*
X79768Y-54684D01*
X79767Y-54668D01*
X79766Y-54667D01*
X79766Y-54666D01*
X79762Y-54651D01*
X79757Y-54636D01*
X79757Y-54636D01*
X79757Y-54635D01*
X79749Y-54621D01*
X79742Y-54607D01*
X79742Y-54606D01*
X79741Y-54605D01*
X79731Y-54593D01*
X79721Y-54581D01*
X79720Y-54580D01*
X79720Y-54580D01*
X79720Y-54580D01*
X79720Y-54579D01*
X79270Y-54129D01*
X79270Y-52114D01*
X79307Y-52077D01*
X79334Y-52167D01*
X79430Y-52210D01*
X79532Y-52233D01*
X79637Y-52236D01*
X79741Y-52219D01*
X79839Y-52181D01*
X79865Y-52167D01*
X79892Y-52077D01*
X79892Y-52077D01*
X79930Y-52114D01*
X79930Y-54200D01*
X79931Y-54215D01*
X79932Y-54231D01*
X79933Y-54232D01*
X79933Y-54233D01*
X79937Y-54248D01*
X79942Y-54263D01*
X79942Y-54263D01*
X79942Y-54264D01*
X79950Y-54278D01*
X79957Y-54292D01*
X79957Y-54293D01*
X79958Y-54294D01*
X79968Y-54306D01*
X79978Y-54318D01*
X79979Y-54319D01*
X79979Y-54319D01*
X79979Y-54319D01*
X79979Y-54320D01*
X80396Y-54736D01*
X80338Y-54774D01*
X80280Y-54831D01*
X80234Y-54898D01*
X80202Y-54973D01*
X80185Y-55053D01*
X80184Y-55134D01*
X80198Y-55215D01*
X80228Y-55290D01*
X80272Y-55359D01*
X80329Y-55417D01*
X80396Y-55464D01*
X80471Y-55496D01*
X80550Y-55514D01*
X80632Y-55516D01*
X80712Y-55501D01*
X80788Y-55472D01*
X80856Y-55428D01*
X80915Y-55372D01*
X80962Y-55306D01*
X80995Y-55231D01*
X81013Y-55152D01*
X81015Y-55059D01*
X80999Y-54979D01*
X80968Y-54904D01*
X80923Y-54836D01*
X80892Y-54805D01*
X80865Y-54778D01*
X80798Y-54732D01*
X80770Y-54720D01*
X80770Y-54700D01*
X80768Y-54684D01*
X80767Y-54668D01*
X80766Y-54667D01*
X80766Y-54666D01*
X80762Y-54651D01*
X80757Y-54636D01*
X80757Y-54636D01*
X80757Y-54635D01*
X80749Y-54621D01*
X80742Y-54607D01*
X80742Y-54606D01*
X80741Y-54605D01*
X80731Y-54593D01*
X80721Y-54581D01*
X80720Y-54580D01*
X80720Y-54580D01*
X80720Y-54580D01*
X80720Y-54579D01*
X80270Y-54129D01*
X80270Y-52114D01*
X80307Y-52077D01*
X80334Y-52167D01*
X80430Y-52210D01*
X80532Y-52233D01*
X80637Y-52236D01*
X80741Y-52219D01*
X80839Y-52181D01*
X80865Y-52167D01*
X80892Y-52077D01*
X80892Y-52077D01*
X80930Y-52114D01*
X80930Y-54200D01*
X80931Y-54215D01*
X80932Y-54231D01*
X80933Y-54232D01*
X80933Y-54233D01*
X80937Y-54248D01*
X80942Y-54263D01*
X80942Y-54263D01*
X80942Y-54264D01*
X80950Y-54278D01*
X80957Y-54292D01*
X80957Y-54293D01*
X80958Y-54294D01*
X80968Y-54306D01*
X80978Y-54318D01*
X80979Y-54319D01*
X80979Y-54319D01*
X80979Y-54319D01*
X80979Y-54320D01*
X81396Y-54736D01*
X81338Y-54774D01*
X81280Y-54831D01*
X81234Y-54898D01*
X81202Y-54973D01*
X81185Y-55053D01*
X81184Y-55134D01*
X81198Y-55215D01*
X81228Y-55290D01*
X81272Y-55359D01*
X81329Y-55417D01*
X81396Y-55464D01*
X81471Y-55496D01*
X81550Y-55514D01*
X81632Y-55516D01*
X81712Y-55501D01*
X81788Y-55472D01*
X81856Y-55428D01*
X81915Y-55372D01*
X81962Y-55306D01*
X81995Y-55231D01*
X82013Y-55152D01*
X82015Y-55059D01*
X81999Y-54979D01*
X81968Y-54904D01*
X81923Y-54836D01*
X81892Y-54805D01*
X81865Y-54778D01*
X81798Y-54732D01*
X81770Y-54720D01*
X81770Y-54700D01*
X81768Y-54684D01*
X81767Y-54668D01*
X81766Y-54667D01*
X81766Y-54666D01*
X81762Y-54651D01*
X81757Y-54636D01*
X81757Y-54636D01*
X81757Y-54635D01*
X81749Y-54621D01*
X81742Y-54607D01*
X81742Y-54606D01*
X81741Y-54605D01*
X81731Y-54593D01*
X81721Y-54581D01*
X81720Y-54580D01*
X81720Y-54580D01*
X81720Y-54580D01*
X81720Y-54579D01*
X81270Y-54129D01*
X81270Y-52114D01*
X81307Y-52077D01*
X81334Y-52167D01*
X81430Y-52210D01*
X81532Y-52233D01*
X81637Y-52236D01*
X81741Y-52219D01*
X81839Y-52181D01*
X81865Y-52167D01*
X81892Y-52077D01*
X81892Y-52077D01*
X81930Y-52114D01*
X81930Y-54200D01*
X81931Y-54215D01*
X81932Y-54231D01*
X81933Y-54232D01*
X81933Y-54233D01*
X81937Y-54248D01*
X81942Y-54263D01*
X81942Y-54263D01*
X81942Y-54264D01*
X81950Y-54278D01*
X81957Y-54292D01*
X81957Y-54293D01*
X81958Y-54294D01*
X81968Y-54306D01*
X81978Y-54318D01*
X81979Y-54319D01*
X81979Y-54319D01*
X81979Y-54319D01*
X81979Y-54320D01*
X82396Y-54736D01*
X82338Y-54774D01*
X82280Y-54831D01*
X82234Y-54898D01*
X82202Y-54973D01*
X82185Y-55053D01*
X82184Y-55134D01*
X82198Y-55215D01*
X82228Y-55290D01*
X82272Y-55359D01*
X82329Y-55417D01*
X82396Y-55464D01*
X82471Y-55496D01*
X82550Y-55514D01*
X82632Y-55516D01*
X82712Y-55501D01*
X82788Y-55472D01*
X82856Y-55428D01*
X82915Y-55372D01*
X82962Y-55306D01*
X82995Y-55231D01*
X83013Y-55152D01*
X83015Y-55059D01*
X82999Y-54979D01*
X82968Y-54904D01*
X82923Y-54836D01*
X82865Y-54778D01*
X82798Y-54732D01*
X82770Y-54720D01*
X82770Y-54700D01*
X82768Y-54684D01*
X82767Y-54668D01*
X82766Y-54667D01*
X82766Y-54666D01*
X82762Y-54651D01*
X82757Y-54636D01*
X82757Y-54636D01*
X82757Y-54635D01*
X82749Y-54621D01*
X82742Y-54607D01*
X82742Y-54606D01*
X82741Y-54605D01*
X82731Y-54593D01*
X82721Y-54581D01*
X82720Y-54580D01*
X82720Y-54580D01*
X82720Y-54580D01*
X82720Y-54579D01*
X82270Y-54129D01*
X82270Y-51984D01*
X82316Y-52033D01*
X82386Y-52081D01*
X82464Y-52115D01*
X82548Y-52134D01*
X82633Y-52136D01*
X82717Y-52121D01*
X82797Y-52090D01*
X82869Y-52044D01*
X82931Y-51985D01*
X82980Y-51916D01*
X83015Y-51838D01*
X83033Y-51754D01*
X83035Y-51657D01*
X83035Y-56057D01*
X83018Y-55973D01*
X82986Y-55894D01*
X82938Y-55823D01*
X82878Y-55762D01*
X82808Y-55715D01*
X82729Y-55682D01*
X82645Y-55665D01*
X82560Y-55664D01*
X82476Y-55680D01*
X82397Y-55712D01*
X82325Y-55759D01*
X82264Y-55818D01*
X82216Y-55889D01*
X82183Y-55967D01*
X82165Y-56051D01*
X82164Y-56136D01*
X82179Y-56220D01*
X82210Y-56299D01*
X82257Y-56371D01*
X82316Y-56433D01*
X82386Y-56481D01*
X82464Y-56515D01*
X82548Y-56534D01*
X82633Y-56536D01*
X82717Y-56521D01*
X82797Y-56490D01*
X82869Y-56444D01*
X82931Y-56385D01*
X82980Y-56316D01*
X83015Y-56238D01*
X83033Y-56154D01*
X83035Y-56057D01*
X83035Y-57446D01*
X82899Y-57460D01*
X82136Y-57460D01*
X82136Y-56062D01*
X82119Y-55958D01*
X82081Y-55860D01*
X82067Y-55834D01*
X81977Y-55807D01*
X81892Y-55892D01*
X81892Y-55722D01*
X81865Y-55632D01*
X81769Y-55589D01*
X81667Y-55566D01*
X81562Y-55563D01*
X81458Y-55580D01*
X81360Y-55618D01*
X81334Y-55632D01*
X81307Y-55722D01*
X81600Y-56015D01*
X81892Y-55722D01*
X81892Y-55892D01*
X81684Y-56100D01*
X81977Y-56392D01*
X82067Y-56365D01*
X82110Y-56269D01*
X82133Y-56167D01*
X82136Y-56062D01*
X82136Y-57460D01*
X81892Y-57460D01*
X81892Y-56477D01*
X81600Y-56184D01*
X81515Y-56269D01*
X81515Y-56100D01*
X81222Y-55807D01*
X81132Y-55834D01*
X81099Y-55907D01*
X81081Y-55860D01*
X81067Y-55834D01*
X81015Y-55818D01*
X80977Y-55807D01*
X80892Y-55892D01*
X80892Y-55722D01*
X80865Y-55632D01*
X80769Y-55589D01*
X80667Y-55566D01*
X80562Y-55563D01*
X80458Y-55580D01*
X80360Y-55618D01*
X80334Y-55632D01*
X80307Y-55722D01*
X80600Y-56015D01*
X80892Y-55722D01*
X80892Y-55892D01*
X80684Y-56100D01*
X80977Y-56392D01*
X81067Y-56365D01*
X81100Y-56292D01*
X81118Y-56339D01*
X81132Y-56365D01*
X81222Y-56392D01*
X81515Y-56100D01*
X81515Y-56269D01*
X81307Y-56477D01*
X81334Y-56567D01*
X81430Y-56610D01*
X81532Y-56633D01*
X81637Y-56636D01*
X81741Y-56619D01*
X81839Y-56581D01*
X81865Y-56567D01*
X81892Y-56477D01*
X81892Y-57460D01*
X80892Y-57460D01*
X80892Y-56477D01*
X80600Y-56184D01*
X80515Y-56269D01*
X80515Y-56100D01*
X80222Y-55807D01*
X80132Y-55834D01*
X80099Y-55907D01*
X80081Y-55860D01*
X80067Y-55834D01*
X79977Y-55807D01*
X79892Y-55892D01*
X79892Y-55722D01*
X79865Y-55632D01*
X79769Y-55589D01*
X79667Y-55566D01*
X79562Y-55563D01*
X79458Y-55580D01*
X79360Y-55618D01*
X79334Y-55632D01*
X79307Y-55722D01*
X79600Y-56015D01*
X79892Y-55722D01*
X79892Y-55892D01*
X79684Y-56100D01*
X79977Y-56392D01*
X80067Y-56365D01*
X80100Y-56292D01*
X80118Y-56339D01*
X80132Y-56365D01*
X80222Y-56392D01*
X80515Y-56100D01*
X80515Y-56269D01*
X80307Y-56477D01*
X80334Y-56567D01*
X80430Y-56610D01*
X80532Y-56633D01*
X80637Y-56636D01*
X80741Y-56619D01*
X80839Y-56581D01*
X80865Y-56567D01*
X80892Y-56477D01*
X80892Y-57460D01*
X79892Y-57460D01*
X79892Y-56477D01*
X79600Y-56184D01*
X79515Y-56269D01*
X79515Y-56100D01*
X79222Y-55807D01*
X79132Y-55834D01*
X79099Y-55907D01*
X79081Y-55860D01*
X79067Y-55834D01*
X78977Y-55807D01*
X78892Y-55892D01*
X78892Y-55722D01*
X78865Y-55632D01*
X78769Y-55589D01*
X78667Y-55566D01*
X78562Y-55563D01*
X78458Y-55580D01*
X78360Y-55618D01*
X78334Y-55632D01*
X78307Y-55722D01*
X78600Y-56015D01*
X78892Y-55722D01*
X78892Y-55892D01*
X78684Y-56100D01*
X78977Y-56392D01*
X79067Y-56365D01*
X79100Y-56292D01*
X79118Y-56339D01*
X79132Y-56365D01*
X79222Y-56392D01*
X79515Y-56100D01*
X79515Y-56269D01*
X79307Y-56477D01*
X79334Y-56567D01*
X79430Y-56610D01*
X79532Y-56633D01*
X79637Y-56636D01*
X79741Y-56619D01*
X79839Y-56581D01*
X79865Y-56567D01*
X79892Y-56477D01*
X79892Y-57460D01*
X78892Y-57460D01*
X78892Y-56477D01*
X78600Y-56184D01*
X78515Y-56269D01*
X78515Y-56100D01*
X78222Y-55807D01*
X78132Y-55834D01*
X78099Y-55907D01*
X78081Y-55860D01*
X78067Y-55834D01*
X78015Y-55818D01*
X77977Y-55807D01*
X77892Y-55892D01*
X77892Y-55722D01*
X77865Y-55632D01*
X77769Y-55589D01*
X77667Y-55566D01*
X77562Y-55563D01*
X77458Y-55580D01*
X77360Y-55618D01*
X77334Y-55632D01*
X77307Y-55722D01*
X77600Y-56015D01*
X77892Y-55722D01*
X77892Y-55892D01*
X77684Y-56100D01*
X77977Y-56392D01*
X78067Y-56365D01*
X78100Y-56292D01*
X78118Y-56339D01*
X78132Y-56365D01*
X78222Y-56392D01*
X78515Y-56100D01*
X78515Y-56269D01*
X78307Y-56477D01*
X78334Y-56567D01*
X78430Y-56610D01*
X78532Y-56633D01*
X78637Y-56636D01*
X78741Y-56619D01*
X78839Y-56581D01*
X78865Y-56567D01*
X78892Y-56477D01*
X78892Y-57460D01*
X77892Y-57460D01*
X77892Y-56477D01*
X77600Y-56184D01*
X77515Y-56269D01*
X77515Y-56100D01*
X77222Y-55807D01*
X77132Y-55834D01*
X77099Y-55907D01*
X77081Y-55860D01*
X77067Y-55834D01*
X76977Y-55807D01*
X76892Y-55892D01*
X76892Y-55722D01*
X76865Y-55632D01*
X76769Y-55589D01*
X76667Y-55566D01*
X76562Y-55563D01*
X76458Y-55580D01*
X76360Y-55618D01*
X76334Y-55632D01*
X76307Y-55722D01*
X76600Y-56015D01*
X76892Y-55722D01*
X76892Y-55892D01*
X76684Y-56100D01*
X76977Y-56392D01*
X77067Y-56365D01*
X77100Y-56292D01*
X77118Y-56339D01*
X77132Y-56365D01*
X77222Y-56392D01*
X77515Y-56100D01*
X77515Y-56269D01*
X77307Y-56477D01*
X77334Y-56567D01*
X77430Y-56610D01*
X77532Y-56633D01*
X77637Y-56636D01*
X77741Y-56619D01*
X77839Y-56581D01*
X77865Y-56567D01*
X77892Y-56477D01*
X77892Y-57460D01*
X76892Y-57460D01*
X76892Y-56477D01*
X76600Y-56184D01*
X76515Y-56269D01*
X76515Y-56100D01*
X76222Y-55807D01*
X76132Y-55834D01*
X76099Y-55907D01*
X76081Y-55860D01*
X76067Y-55834D01*
X76015Y-55818D01*
X75977Y-55807D01*
X75892Y-55892D01*
X75892Y-55722D01*
X75865Y-55632D01*
X75769Y-55589D01*
X75667Y-55566D01*
X75562Y-55563D01*
X75458Y-55580D01*
X75360Y-55618D01*
X75334Y-55632D01*
X75307Y-55722D01*
X75600Y-56015D01*
X75892Y-55722D01*
X75892Y-55892D01*
X75684Y-56100D01*
X75977Y-56392D01*
X76067Y-56365D01*
X76100Y-56292D01*
X76118Y-56339D01*
X76132Y-56365D01*
X76222Y-56392D01*
X76515Y-56100D01*
X76515Y-56269D01*
X76307Y-56477D01*
X76334Y-56567D01*
X76430Y-56610D01*
X76532Y-56633D01*
X76637Y-56636D01*
X76741Y-56619D01*
X76839Y-56581D01*
X76865Y-56567D01*
X76892Y-56477D01*
X76892Y-57460D01*
X75892Y-57460D01*
X75892Y-56477D01*
X75600Y-56184D01*
X75515Y-56269D01*
X75515Y-56100D01*
X75222Y-55807D01*
X75132Y-55834D01*
X75099Y-55907D01*
X75081Y-55860D01*
X75067Y-55834D01*
X75015Y-55818D01*
X74977Y-55807D01*
X74892Y-55892D01*
X74892Y-55722D01*
X74865Y-55632D01*
X74769Y-55589D01*
X74667Y-55566D01*
X74562Y-55563D01*
X74458Y-55580D01*
X74360Y-55618D01*
X74334Y-55632D01*
X74307Y-55722D01*
X74600Y-56015D01*
X74892Y-55722D01*
X74892Y-55892D01*
X74684Y-56100D01*
X74977Y-56392D01*
X75067Y-56365D01*
X75100Y-56292D01*
X75118Y-56339D01*
X75132Y-56365D01*
X75222Y-56392D01*
X75515Y-56100D01*
X75515Y-56269D01*
X75307Y-56477D01*
X75334Y-56567D01*
X75430Y-56610D01*
X75532Y-56633D01*
X75637Y-56636D01*
X75741Y-56619D01*
X75839Y-56581D01*
X75865Y-56567D01*
X75892Y-56477D01*
X75892Y-57460D01*
X74892Y-57460D01*
X74892Y-56477D01*
X74600Y-56184D01*
X74515Y-56269D01*
X74515Y-56100D01*
X74222Y-55807D01*
X74132Y-55834D01*
X74099Y-55907D01*
X74081Y-55860D01*
X74067Y-55834D01*
X74015Y-55818D01*
X73977Y-55807D01*
X73892Y-55892D01*
X73892Y-55722D01*
X73865Y-55632D01*
X73769Y-55589D01*
X73667Y-55566D01*
X73562Y-55563D01*
X73458Y-55580D01*
X73360Y-55618D01*
X73334Y-55632D01*
X73307Y-55722D01*
X73600Y-56015D01*
X73892Y-55722D01*
X73892Y-55892D01*
X73684Y-56100D01*
X73977Y-56392D01*
X74067Y-56365D01*
X74100Y-56292D01*
X74118Y-56339D01*
X74132Y-56365D01*
X74222Y-56392D01*
X74515Y-56100D01*
X74515Y-56269D01*
X74307Y-56477D01*
X74334Y-56567D01*
X74430Y-56610D01*
X74532Y-56633D01*
X74637Y-56636D01*
X74741Y-56619D01*
X74839Y-56581D01*
X74865Y-56567D01*
X74892Y-56477D01*
X74892Y-57460D01*
X73892Y-57460D01*
X73892Y-56477D01*
X73600Y-56184D01*
X73515Y-56269D01*
X73515Y-56100D01*
X73222Y-55807D01*
X73132Y-55834D01*
X73089Y-55930D01*
X73066Y-56032D01*
X73063Y-56137D01*
X73080Y-56241D01*
X73118Y-56339D01*
X73132Y-56365D01*
X73222Y-56392D01*
X73515Y-56100D01*
X73515Y-56269D01*
X73307Y-56477D01*
X73334Y-56567D01*
X73430Y-56610D01*
X73532Y-56633D01*
X73637Y-56636D01*
X73741Y-56619D01*
X73839Y-56581D01*
X73865Y-56567D01*
X73892Y-56477D01*
X73892Y-57460D01*
X73400Y-57460D01*
X73399Y-57460D01*
X73217Y-57460D01*
X73051Y-57428D01*
X72895Y-57364D01*
X72754Y-57271D01*
X72634Y-57152D01*
X72540Y-57012D01*
X72474Y-56857D01*
X72439Y-56689D01*
X72439Y-56300D01*
X72439Y-47513D01*
X72472Y-47348D01*
X72537Y-47192D01*
X72630Y-47052D01*
X72750Y-46932D01*
X72890Y-46838D01*
X73045Y-46773D01*
X73211Y-46739D01*
X73386Y-46739D01*
X73386Y-46739D01*
X73392Y-46739D01*
X73398Y-46739D01*
X73400Y-46739D01*
X82893Y-46739D01*
X83066Y-46756D01*
X83227Y-46805D01*
X83375Y-46883D01*
X83505Y-46990D01*
X83612Y-47119D01*
X83692Y-47266D01*
X83742Y-47427D01*
X83760Y-47600D01*
X83760Y-56300D01*
X83760Y-56593D01*
M02*
