G04 (created by PCBNEW (2013-june-11)-stable) date Mon 18 Aug 2014 12:57:30 PM PDT*
%MOIN*%
G04 Gerber Fmt 3.4, Leading zero omitted, Abs format*
%FSLAX34Y34*%
G01*
G70*
G90*
G04 APERTURE LIST*
%ADD10C,0.00590551*%
%ADD11C,0.0275591*%
%ADD12R,0.0275591X0.0275591*%
%ADD13C,0.0590551*%
G04 APERTURE END LIST*
G54D10*
G54D11*
X77150Y-47250D03*
X77650Y-47250D03*
X78150Y-47250D03*
X78650Y-47250D03*
G54D12*
X79150Y-47250D03*
G54D11*
X77150Y-47750D03*
X77650Y-47750D03*
X78150Y-47750D03*
X78650Y-47750D03*
X79150Y-47750D03*
G54D13*
X82600Y-55100D03*
X82600Y-56100D03*
X81600Y-55100D03*
X81600Y-56100D03*
X80600Y-55100D03*
X80600Y-56100D03*
X79600Y-55100D03*
X79600Y-56100D03*
X78600Y-55100D03*
X78600Y-56100D03*
X77600Y-55100D03*
X77600Y-56100D03*
X76600Y-55100D03*
X76600Y-56100D03*
X75600Y-55100D03*
X75600Y-56100D03*
X74600Y-55100D03*
X74600Y-56100D03*
X73600Y-55100D03*
X73600Y-56100D03*
X82600Y-50700D03*
X82600Y-51700D03*
X81600Y-50700D03*
X81600Y-51700D03*
X80600Y-50700D03*
X80600Y-51700D03*
X79600Y-50700D03*
X79600Y-51700D03*
X78600Y-50700D03*
X78600Y-51700D03*
X77600Y-50700D03*
X77600Y-51700D03*
X76600Y-50700D03*
X76600Y-51700D03*
X75600Y-50700D03*
X75600Y-51700D03*
X74600Y-50700D03*
X74600Y-51700D03*
X73600Y-50700D03*
X73600Y-51700D03*
M02*
